<svg id="Layer_1" data-name="Layer 1" xmlns="http://www.w3.org/2000/svg" viewBox="0 0 2035.42 110.5"><defs><style>.cls-1{fill:#8cb29f;}</style></defs><path class="cls-1" d="M2026.2,1034.53c-.82-7.92-3.64-21.39-3.64-21.39s-2.26-8.87-1.5-13.59c.66-4.16-4.08-12.15-6-13.6s-6.77-16-6.77-16,4.21,15.11,4.52,17.14,3.62,10,3,13,2,6.55,1.5,9.45c-.37,2.09.39,5.43-.32,10.07-.42,2.7-.87,5.49-1.14,7.89-.92-1.27-2.9-2.19-4.41-3.26-1.08-.77-1.48-2.12-2.67-3.16,1.83-2.82,4.21-5.6,4.62-7.56.77-3.63-1.13-8.85-1.84-10.52-2-4.83-4.72-11.21-4.72-11.21s4.48,16.34,2.25,19.32c-1.2,1.61-3.61,2.47-5.51,4.9-1.67-1.81-4.64-11.18-4.33-13,.59-3.55-1.85-16.32-1.85-16.32s-2,18.81-1.75,20.66c.83,5.8,1.75,9.27,2.36,12,0,.16.92,4.38,1,4.54-.2,2.7.4,4.21.31,8.59s3.49,5.89,2.15,19.41c-3.15-3.48-6.28-10.54-11.49-15l-.59-.52c1.6-2.41,2.94-6.42,3.67-8.07,1.3-2.94.72-7.92.82-10.53a48.08,48.08,0,0,0-1-7.24l-2.36-4.64s.75,1.55.31,7.92-1.54,10.43-3.38,12.65c-.74.89-1.58,2-2.44,3.28a18.63,18.63,0,0,1-1.26-6.27c0-.39,1.23-7.72,1.54-8.5l.31-.77s-4,6.76-4.62,9-2.46,7.92-1.54,13.23a11.54,11.54,0,0,0,.38,1.54c-1,2.43-2,2.33-2.84,6.67-3.13-4.37-4.29-6.74-4-10.53.41-5.31,4.32-21.3,2.67-26.84-1.85-6.18,1.6-21.56,1.54-21.73,0,0-7,15.06-6.67,20.08s.92,7.54-.52,12.17c-.94,3-4.2,10.24-4.61,12-.36,1.5-1.82,5.15-1.31,9.17l-1.09,1.79c0-.53-.1-1-.17-1.46-.61-3.71-2.46-8.64-2.67-12.69a60.47,60.47,0,0,1,1.47-14.8,40,40,0,0,0,1.48-10.35,40.51,40.51,0,0,0-1.7-6.05s.94,9.6-1.28,12.58-4,5.49-4.68,9,.2,11.11.1,16.23-.21,9.27-.62,14a29.32,29.32,0,0,1-.92,4.77c-.89-5.6-2.53-11.85-3.11-17.42-.82-7.92-.21-21.25-.21-21.25s3-9.27,1.23-13.23-1.54-11-3.48-12.45-5.24-6.67-5.24-6.67,3.7,9.18,4,11.2a23.33,23.33,0,0,1-.2,7.92c-.62,3-.41,4.93-.92,7.83-.37,2.09-3.7,7.14-4.42,11.78-.41,2.7-.87,5.49-1.13,7.89-.92-1.27-2.9-2.19-4.41-3.26-1.08-.77-1.48-2.12-2.67-3.16,1.83-2.82,4.21-5.6,4.62-7.56.77-3.63-1.13-8.85-1.84-10.52-2.06-4.83-4.72-11.21-4.72-11.21s4.47,16.34,2.25,19.32c-1.2,1.61-3.61,2.47-5.51,4.9-1.67-1.81-4.64-11.18-4.34-13,.6-3.55-1.84-16.32-1.84-16.32s-2,18.81-1.75,20.66c.82,5.8,1.75,9.27,2.36,12,0,.16.92,4.38,1,4.54-.21,2.7.39,4.21.31,8.59s3.49,5.89,2.15,19.41c-3.15-3.48-6.28-10.54-11.49-15l-.59-.52c1.6-2.41,2.94-6.42,3.67-8.07,1.3-2.94.72-7.92.82-10.53a48.08,48.08,0,0,0-1-7.24l-2.36-4.64s.74,1.55.31,7.92-1.54,10.43-3.38,12.65c-.74.89-1.58,2-2.44,3.28a18.63,18.63,0,0,1-1.26-6.27c0-.39,1.23-7.72,1.54-8.5l.31-.77s-4,6.76-4.62,9-2.46,7.92-1.54,13.23a11.54,11.54,0,0,0,.38,1.54c-1,2.43-2,2.33-2.84,6.67-3.13-4.37-4.29-6.74-4-10.53.41-5.31,4.32-21.3,2.67-26.84-1.85-6.18,1.6-21.56,1.54-21.73,0,0-7,15.06-6.67,20.08s.92,7.54-.52,12.17c-.94,3-4.2,10.24-4.61,12-.36,1.5-1.82,5.15-1.31,9.17l-1.09,1.79c0-.53-.1-1-.17-1.46-.61-3.71-2.46-8.64-2.67-12.69a60.47,60.47,0,0,1,1.47-14.8,39.52,39.52,0,0,0,1.47-10.35l-.17-1.79s-.58,5.34-2.8,8.32-4,5.49-4.69,9,.21,11.11.11,16.23-.21,9.27-.62,14a29.21,29.21,0,0,1-1,5c-.88-5.66-2.56-12-3.14-17.65-.83-7.92-.21-21.25-.21-21.25s3-9.27,1.23-13.23.09-13.24-1.86-14.69-9.79-15.36-9.79-15.36,6.62,20.11,6.93,22.13a23.33,23.33,0,0,1-.2,7.92c-.62,3-.41,4.93-.93,7.83-.37,2.09-3.69,7.14-4.41,11.78-.42,2.7-1.13,2.9-1.39,5.29-.92-1.27-2.64.41-4.15-.66-1.09-.77-1.48-2.12-2.67-3.16,1.82-2.82,4.21-5.6,4.62-7.56.77-3.63-1.14-8.85-1.85-10.52-2-4.83-4.72-11.21-4.72-11.21s4.48,16.34,2.26,19.32c-1.2,1.61-3.62,2.47-5.51,4.9-1.68-1.81-4.65-11.18-4.34-13,.6-3.55-1.85-16.32-1.85-16.32s-2,18.81-1.74,20.66a119.6,119.6,0,0,0,2.36,12c0,.16.92,4.38,1,4.54-.21,2.7.39,4.21.3,8.59s3.49,5.89,2.16,19.41c-3.15-3.48-6.28-10.54-11.49-15-.21-.17-.4-.35-.6-.52,1.61-2.41,2.94-6.42,3.68-8.07,1.3-2.94.71-7.92.82-10.53a49.44,49.44,0,0,0-1-7.24l-2.36-4.64s.74,1.55.31,7.92-1.54,10.43-3.39,12.65c-.73.89-1.57,2-2.44,3.28a18.76,18.76,0,0,1-1.25-6.27c0-.39,1.23-7.72,1.54-8.5l.31-.77s-4,6.76-4.62,9-2.46,7.92-1.54,13.23a11.54,11.54,0,0,0,.38,1.54c-1,2.43-2,2.33-2.84,6.67-3.14-4.37-4.3-6.74-4-10.53.41-5.31,4.32-21.3,2.66-26.84-1.84-6.18,1.61-21.56,1.54-21.73,0,0-7,15.06-6.67,20.08s.93,7.54-.51,12.17c-.94,3-4.21,10.24-4.62,12-.35,1.5-1.81,5.15-1.3,9.17l-1.09,1.79c0-.53-.1-1-.17-1.46-.62-3.71-2.46-8.64-2.67-12.69a60.47,60.47,0,0,1,1.47-14.8,40.4,40.4,0,0,0,1.47-10.35c-.17-1.79-3.2-10.19-3.2-10.19s2.44,13.74.22,16.72-4,5.49-4.68,9,.21,11.11.1,16.23-.2,9.27-.61,14c-.3,3.38-1.79,7.69-2.85,11-1-3.29-2.55-7.6-2.84-11-.41-4.73-.52-8.88-.62-14s.82-12.75.1-16.23-2.46-6-4.68-9-2.8-8.32-2.8-8.32l-.17,1.79a39.52,39.52,0,0,0,1.47,10.35,60.47,60.47,0,0,1,1.47,14.8c-.21,4.05-2.06,9-2.67,12.69-.07.44-.13.93-.17,1.46l-1.09-1.79c.51-4-1-7.67-1.31-9.17-.41-1.74-5.68-9-4.61-12,1.66-4.68,1.66-4.68,1.66-10,0-4.86-6-18.32-9.79-33.09-2.45,8.07,4.33,26.39,2.48,32.57-1.65,5.54,2.26,21.53,2.67,26.84.29,3.79-.87,6.16-4,10.53-.82-4.34-1.79-4.24-2.84-6.67a11.54,11.54,0,0,0,.38-1.54c.92-5.31-.93-11-1.54-13.23s-4.62-9-4.62-9l.31.77c.31.78,1.54,8.11,1.54,8.5a18.63,18.63,0,0,1-1.26,6.27c-.86-1.25-1.7-2.39-2.44-3.28-1.84-2.22-3-6.27-3.38-12.65s.31-7.92.31-7.92l-2.36,4.64a48.08,48.08,0,0,0-1,7.24c.1,2.61-.48,7.59.82,10.53.73,1.65,2.07,5.66,3.67,8.07l-.59.52c-5.21,4.43-8.34,11.49-11.49,15-1.34-13.52,2.24-15.12,2.15-19.41s.52-5.89.31-8.59c.11-.16,1-4.38,1-4.54.61-2.71,1.54-6.18,2.36-12,.26-1.85-1.75-20.66-1.75-20.66s-2.44,12.77-1.84,16.32c.3,1.83-2.67,11.2-4.34,13-1.9-2.43-4.31-3.29-5.51-4.9-2.22-3-1.41-22.84-1.41-22.84s-2.71,9.5-2.26,14.77c.15,1.76-1.41,6.85-.64,10.48.41,2,2.79,4.74,4.62,7.56-1.19,1-1.59,2.39-2.67,3.16-1.51,1.07-2.64-1.2-3.57.07-.26-2.39-1.56-2-2-4.7-.72-4.64-4-9.69-4.42-11.78-.51-2.9-.3-4.83-.92-7.83a23.33,23.33,0,0,1-.2-7.92c.3-2,4-11.2,4-11.2s-3.29,5.22-5.24,6.67-1.74,8.49-3.48,12.45,1.23,13.23,1.23,13.23.61,13.33-.21,21.25c-.79,7.6-3.55,16.45-3.68,23.21-1-3.22-2.43-7.32-2.71-10.56-.41-4.73-.52-8.88-.62-14s.82-12.75.1-16.23-2.46-6-4.68-9-1.28-12.58-1.28-12.58a20.34,20.34,0,0,0-.23,16.4,60,60,0,0,1,1.48,14.8c-.21,4.05-2.06,9-2.67,12.69-.07.44-.13.93-.17,1.46l-1.09-1.79c.51-4-1-7.67-1.31-9.17-.41-1.74-3.67-8.94-4.62-12-1.43-4.63-.82-7.14-.51-12.17s-6.67-20.08-6.67-20.08c-.07.17,3.39,15.55,1.54,21.73-1.65,5.54,2.26,21.53,2.67,26.84.29,3.79-.87,6.16-4,10.53-.82-4.34-1.79-4.24-2.84-6.67a13.31,13.31,0,0,0,.38-1.54c.92-5.31-.93-11-1.54-13.23s-4.62-9-4.62-9l.31.77c.31.78,1.54,8.11,1.54,8.5a18.63,18.63,0,0,1-1.26,6.27c-.86-1.25-1.7-2.39-2.44-3.28-1.84-2.22-3-6.27-3.38-12.65s.3-7.92.3-7.92l-2.35,4.64a48.08,48.08,0,0,0-1,7.24c.1,2.61-.48,7.59.82,10.53.73,1.65,2.07,5.66,3.67,8.07l-.59.52c-5.21,4.43-8.34,11.49-11.49,15-1.34-13.52,2.24-15.12,2.15-19.41s.51-5.89.31-8.59c.11-.16,1-4.38,1-4.54.61-2.71,1.53-6.18,2.35-12,.27-1.85-1.74-20.66-1.74-20.66s-2.44,12.77-1.85,16.32c.31,1.83-2.66,11.2-4.33,13-1.9-2.43-4.31-3.29-5.52-4.9-2.22-3,2.26-19.32,2.26-19.32s-2.67,6.38-4.72,11.21c-.71,1.67-2.61,6.89-1.84,10.52.41,2,2.79,4.74,4.62,7.56-1.19,1-1.59,2.39-2.68,3.16-1.5,1.07-3.48,2-4.4,3.26-.27-2.4-.72-5.19-1.14-7.89-.71-4.64,0-8-.32-10.07-.52-2.9,2.12-6.46,1.5-9.45s2.71-11,3-13,4.52-17.14,4.52-17.14-4.83,14.51-6.77,16-6.69,9.44-6,13.6c.76,4.72-1.5,13.59-1.5,13.59s-1.32,6.32-2.42,12.85c-.08-6.47.21-12.71.21-12.71s3-9.27,1.23-13.23-1.54-11-3.49-12.45-5.23-6.67-5.23-6.67,3.69,9.18,4,11.2a23.11,23.11,0,0,1-.21,7.92c-.61,3-.41,4.93-.92,7.83-.37,2.09-3.69,7.14-4.41,11.78-.42,2.7-.87,5.49-1.14,7.89-.92-1.27-2.9-2.19-4.4-3.26-1.09-.77-1.48-2.12-2.67-3.16,1.82-2.82,4.2-5.6,4.62-7.56.77-3.63-1.14-8.85-1.85-10.52-2-4.83-4.72-11.21-4.72-11.21s4.48,16.34,2.26,19.32c-1.2,1.61-3.62,2.47-5.51,4.9-1.68-1.81-4.65-11.18-4.34-13,.59-3.55-1.85-16.32-1.85-16.32s-2,18.81-1.74,20.66a119.6,119.6,0,0,0,2.36,12c0,.16.91,4.38,1,4.54-.2,2.7.4,4.21.31,8.59s3.49,5.89,2.16,19.41c-3.15-3.48-6.28-10.54-11.5-15l-.59-.52c1.6-2.41,2.94-6.42,3.67-8.07,1.31-2.94.72-7.92.82-10.53a48.41,48.41,0,0,0-1-7.24l-2.36-4.64s.74,1.55.31,7.92-1.54,10.43-3.39,12.65c-.74.89-1.57,2-2.44,3.28a18.76,18.76,0,0,1-1.25-6.27c0-.39,1.23-7.72,1.54-8.5l.3-.77s-4,6.76-4.61,9-2.47,7.92-1.54,13.23a13.28,13.28,0,0,0,.37,1.54c-1,2.43-2,2.33-2.84,6.67-3.13-4.37-4.29-6.74-4-10.53.41-5.31,4.33-21.3,2.67-26.84-1.85-6.18,1.61-21.56,1.54-21.73,0,0-7,15.06-6.67,20.08s.92,7.54-.51,12.17c-.94,3-4.21,10.24-4.62,12-.35,1.5-1.82,5.15-1.3,9.17l-1.1,1.79c0-.53-.09-1-.16-1.46-.62-3.71-2.47-8.64-2.67-12.69a60,60,0,0,1,1.47-14.8,40.4,40.4,0,0,0,1.47-10.35l-.17-1.79s-.59,5.34-2.81,8.32-4,5.49-4.68,9,.2,11.11.1,16.23-.2,9.27-.62,14a28.28,28.28,0,0,1-1,5c-.88-5.66-2.55-12-3.14-17.65-.82-7.92-.21-21.25-.21-21.25s3-9.27,1.23-13.23.09-13.24-1.86-14.69S1565,970,1565,970s6.63,20.11,6.94,22.13a23.37,23.37,0,0,1-.21,7.92c-.62,3-.41,4.93-.92,7.83-.37,2.09-3.7,7.14-4.41,11.78-.42,2.7-1.13,2.9-1.4,5.29-.92-1.27-2.64.41-4.15-.66-1.08-.77-1.48-2.12-2.67-3.16,1.83-2.82,4.21-5.6,4.62-7.56.77-3.63-1.13-8.85-1.84-10.52-2-4.83-4.72-11.21-4.72-11.21s4.48,16.34,2.26,19.32c-1.21,1.61-3.62,2.47-5.52,4.9-1.67-1.81-4.64-11.18-4.33-13,.59-3.55-1.85-16.32-1.85-16.32s-2,18.81-1.75,20.66c.83,5.8,1.75,9.27,2.36,12,0,.16.92,4.38,1,4.54-.2,2.7.4,4.21.31,8.59s3.49,5.89,2.15,19.41c-3.15-3.48-6.28-10.54-11.49-15l-.59-.52c1.6-2.41,2.94-6.42,3.67-8.07,1.3-2.94.72-7.92.82-10.53a48.08,48.08,0,0,0-1-7.24l-2.36-4.64s.75,1.55.31,7.92-1.54,10.43-3.38,12.65c-.74.89-1.58,2-2.44,3.28a18.63,18.63,0,0,1-1.26-6.27c0-.39,1.23-7.72,1.54-8.5l.31-.77s-4,6.76-4.62,9-2.46,7.92-1.54,13.23a11.54,11.54,0,0,0,.38,1.54c-1,2.43-2,2.33-2.84,6.67-3.13-4.37-4.29-6.74-4-10.53.41-5.31,4.32-21.3,2.67-26.84-1.85-6.18,1.6-21.56,1.54-21.73,0,0-7,15.06-6.67,20.08s.92,7.54-.51,12.17c-1,3-4.21,10.24-4.62,12-.36,1.5-1.82,5.15-1.31,9.17l-1.09,1.79c0-.53-.1-1-.17-1.46-.61-3.71-2.46-8.64-2.67-12.69a60,60,0,0,1,1.48-14.8,40.4,40.4,0,0,0,1.47-10.35c-.18-1.79-3.2-10.19-3.2-10.19s2.44,13.74.22,16.72-4,5.49-4.68,9,.2,11.11.1,16.23-.21,9.27-.62,14c-.29,3.38-1.79,7.69-2.84,11-1.06-3.29-2.55-7.6-2.85-11-.41-4.73-.51-8.88-.61-14s.82-12.75.1-16.23-2.46-6-4.68-9-2.81-8.32-2.81-8.32l-.17,1.79a40.4,40.4,0,0,0,1.47,10.35,60,60,0,0,1,1.47,14.8c-.2,4.05-2,9-2.67,12.69-.07.44-.12.93-.16,1.46l-1.1-1.79c.51-4-1-7.67-1.3-9.17-.41-1.74-5.69-9-4.62-12,1.66-4.68,1.66-4.68,1.66-10,0-4.86-6-18.32-9.79-33.09-2.45,8.07,4.33,26.39,2.49,32.57-1.66,5.54,2.25,21.53,2.66,26.84.3,3.79-.86,6.16-4,10.53-.82-4.34-1.79-4.24-2.83-6.67a13.28,13.28,0,0,0,.37-1.54c.92-5.31-.92-11-1.54-13.23s-4.62-9-4.62-9l.31.77c.31.78,1.54,8.11,1.54,8.5a18.76,18.76,0,0,1-1.25,6.27c-.87-1.25-1.71-2.39-2.44-3.28-1.85-2.22-2.95-6.27-3.39-12.65s.31-7.92.31-7.92l-2.36,4.64a49.44,49.44,0,0,0-1,7.24c.11,2.61-.48,7.59.83,10.53.73,1.65,2.06,5.66,3.67,8.07-.19.17-.39.35-.6.52-5.21,4.43-8.34,11.49-11.49,15-1.33-13.52,2.24-15.12,2.16-19.41s.51-5.89.3-8.59c.11-.16,1-4.38,1-4.54a119.6,119.6,0,0,0,2.36-12c.26-1.85-1.74-20.66-1.74-20.66s-2.45,12.77-1.85,16.32c.31,1.83-2.66,11.2-4.34,13-1.89-2.43-4.31-3.29-5.51-4.9-2.22-3-1.41-22.84-1.41-22.84s-2.7,9.5-2.25,14.77c.15,1.76-1.42,6.85-.65,10.48.41,2,2.8,4.74,4.62,7.56-1.19,1-1.58,2.39-2.67,3.16-1.51,1.07-2.64-1.2-3.56.07-.27-2.39-1.56-2-2-4.7-.72-4.64-4-9.69-4.41-11.78-.52-2.9-.31-4.83-.93-7.83a23.33,23.33,0,0,1-.2-7.92c.31-2,4-11.2,4-11.2s-3.28,5.22-5.23,6.67-1.74,8.49-3.49,12.45,1.23,13.23,1.23,13.23.62,13.33-.2,21.25c-.79,7.6-3.56,16.45-3.69,23.21-1-3.22-2.43-7.32-2.71-10.56-.41-4.73-.51-8.88-.61-14s.82-12.75.1-16.23-2.46-6-4.68-9-1.29-12.58-1.29-12.58a39.6,39.6,0,0,0-1.69,6.05,40.4,40.4,0,0,0,1.47,10.35,60.47,60.47,0,0,1,1.47,14.8c-.21,4.05-2.05,9-2.67,12.69-.07.44-.12.93-.17,1.46l-1.09-1.79c.51-4-1-7.67-1.3-9.17-.41-1.74-3.68-8.94-4.62-12-1.44-4.63-.82-7.14-.51-12.17s-6.67-20.08-6.67-20.08c-.07.17,3.38,15.55,1.54,21.73-1.66,5.54,2.25,21.53,2.66,26.84.3,3.79-.86,6.16-4,10.53-.82-4.34-1.79-4.24-2.84-6.67a11.54,11.54,0,0,0,.38-1.54c.92-5.31-.92-11-1.54-13.23s-4.62-9-4.62-9l.31.77c.31.78,1.54,8.11,1.54,8.5a18.63,18.63,0,0,1-1.26,6.27c-.86-1.25-1.7-2.39-2.43-3.28-1.85-2.22-3-6.27-3.39-12.65s.31-7.92.31-7.92l-2.36,4.64a49.44,49.44,0,0,0-1,7.24c.11,2.61-.48,7.59.82,10.53.74,1.65,2.07,5.66,3.68,8.07-.2.17-.39.35-.6.52-5.21,4.43-8.34,11.49-11.49,15-1.33-13.52,2.24-15.12,2.16-19.41s.51-5.89.3-8.59c.11-.16,1-4.38,1-4.54.61-2.71,1.54-6.18,2.36-12,.26-1.85-1.75-20.66-1.75-20.66s-2.44,12.77-1.84,16.32c.31,1.83-2.66,11.2-4.34,13-1.89-2.43-4.31-3.29-5.51-4.9-2.22-3,2.26-19.32,2.26-19.32s-2.67,6.38-4.72,11.21c-.71,1.67-2.62,6.89-1.85,10.52.41,2,2.8,4.74,4.62,7.56-1.19,1-1.58,2.39-2.67,3.16-1.51,1.07-3.49,2-4.41,3.26-.26-2.4-.71-5.19-1.13-7.89-.72-4.64-4-9.69-4.41-11.78-.52-2.9-.31-4.83-.93-7.83a23.33,23.33,0,0,1-.2-7.92c.31-2,4-11.2,4-11.2s-3.28,5.22-5.23,6.67-1.74,8.49-3.49,12.45,1.23,13.23,1.23,13.23.46,9.88.06,17.68c-1.11-7.83-3.19-17.82-3.19-17.82s-2.26-8.87-1.51-13.59c.66-4.16-4.07-12.15-6-13.6s-6.78-16-6.78-16,4.21,15.11,4.52,17.14,3.63,10,3,13,2,6.55,1.51,9.45c-.37,2.09.39,5.43-.33,10.07-.42,2.7-.87,5.49-1.14,7.89-.92-1.27-2.89-2.19-4.4-3.26-1.09-.77-1.48-2.12-2.67-3.16,1.82-2.82,4.21-5.6,4.62-7.56.77-3.63-1.14-8.85-1.85-10.52-2.05-4.83-4.72-11.21-4.72-11.21s4.48,16.34,2.26,19.32c-1.2,1.61-3.62,2.47-5.51,4.9-1.68-1.81-4.65-11.18-4.34-13,.6-3.55-1.85-16.32-1.85-16.32s-2,18.81-1.74,20.66a119.6,119.6,0,0,0,2.36,12c0,.16.92,4.38,1,4.54-.21,2.7.39,4.21.3,8.59s3.49,5.89,2.16,19.41c-3.15-3.48-6.28-10.54-11.49-15-.21-.17-.41-.35-.6-.52,1.61-2.41,2.94-6.42,3.67-8.07,1.31-2.94.72-7.92.83-10.53a49.44,49.44,0,0,0-1-7.24l-2.36-4.64s.74,1.55.31,7.92-1.54,10.43-3.39,12.65c-.73.89-1.57,2-2.44,3.28a18.76,18.76,0,0,1-1.25-6.27c0-.39,1.23-7.72,1.54-8.5l.3-.77s-4,6.76-4.61,9-2.46,7.92-1.54,13.23a13.28,13.28,0,0,0,.37,1.54c-1,2.43-2,2.33-2.83,6.67-3.14-4.37-4.3-6.74-4-10.53.41-5.31,4.32-21.3,2.66-26.84-1.84-6.18,1.61-21.56,1.54-21.73,0,0-7,15.06-6.67,20.08s.93,7.54-.51,12.17c-.94,3-4.21,10.24-4.62,12-.35,1.5-1.81,5.15-1.3,9.17l-1.1,1.79c0-.53-.09-1-.16-1.46-.62-3.71-2.47-8.64-2.67-12.69a60,60,0,0,1,1.47-14.8,40.4,40.4,0,0,0,1.47-10.35,39.6,39.6,0,0,0-1.69-6.05s.93,9.6-1.29,12.58-4,5.49-4.68,9,.21,11.11.1,16.23-.2,9.27-.61,14a28.36,28.36,0,0,1-.93,4.77c-.89-5.6-2.53-11.85-3.11-17.42-.82-7.92-.2-21.25-.2-21.25s3-9.27,1.23-13.23-1.54-11-3.49-12.45-5.23-6.67-5.23-6.67,3.69,9.18,4,11.2a23.11,23.11,0,0,1-.21,7.92c-.61,3-.41,4.93-.92,7.83-.37,2.09-3.69,7.14-4.41,11.78-.42,2.7-.87,5.49-1.14,7.89-.92-1.27-2.89-2.19-4.4-3.26-1.09-.77-1.48-2.12-2.67-3.16,1.82-2.82,4.2-5.6,4.62-7.56.77-3.63-1.14-8.85-1.85-10.52-2-4.83-4.72-11.21-4.72-11.21s4.48,16.34,2.26,19.32c-1.2,1.61-3.62,2.47-5.51,4.9-1.68-1.81-4.65-11.18-4.34-13,.59-3.55-1.85-16.32-1.85-16.32s-2,18.81-1.74,20.66a119.6,119.6,0,0,0,2.36,12c0,.16.91,4.38,1,4.54-.2,2.7.4,4.21.31,8.59s3.49,5.89,2.16,19.41c-3.15-3.48-6.28-10.54-11.49-15-.21-.17-.41-.35-.6-.52,1.6-2.41,2.94-6.42,3.67-8.07,1.31-2.94.72-7.92.82-10.53a48.41,48.41,0,0,0-1-7.24l-2.36-4.64s.74,1.55.31,7.92-1.54,10.43-3.39,12.65c-.74.89-1.57,2-2.44,3.28a18.76,18.76,0,0,1-1.25-6.27c0-.39,1.23-7.72,1.54-8.5l.3-.77s-4,6.76-4.61,9-2.47,7.92-1.54,13.23a13.28,13.28,0,0,0,.37,1.54c-1,2.43-2,2.33-2.83,6.67-3.14-4.37-4.3-6.74-4-10.53.41-5.31,4.33-21.3,2.67-26.84-1.85-6.18,1.61-21.56,1.54-21.73,0,0-7,15.06-6.67,20.08s.93,7.54-.51,12.17c-.94,3-4.21,10.24-4.62,12-.35,1.5-1.82,5.15-1.3,9.17l-1.1,1.79c0-.53-.09-1-.16-1.46-.62-3.71-2.47-8.64-2.67-12.69a60,60,0,0,1,1.47-14.8,40.4,40.4,0,0,0,1.47-10.35l-.17-1.79s-.59,5.34-2.81,8.32-4,5.49-4.68,9,.21,11.11.1,16.23-.2,9.27-.61,14a29.28,29.28,0,0,1-1,5c-.87-5.66-2.55-12-3.14-17.65-.82-7.92-.21-21.25-.21-21.25s3-9.27,1.24-13.23.08-13.24-1.87-14.69-9.79-15.36-9.79-15.36,6.63,20.11,6.94,22.13a23.37,23.37,0,0,1-.21,7.92c-.61,3-.41,4.93-.92,7.83-.37,2.09-3.7,7.14-4.41,11.78-.42,2.7-1.13,2.9-1.4,5.29-.92-1.27-2.64.41-4.14-.66-1.09-.77-1.49-2.12-2.68-3.16,1.83-2.82,4.21-5.6,4.63-7.56.76-3.63-1.14-8.85-1.85-10.52-2-4.83-4.72-11.21-4.72-11.21s4.48,16.34,2.26,19.32c-1.2,1.61-3.62,2.47-5.51,4.9-1.68-1.81-4.65-11.18-4.34-13,.59-3.55-1.85-16.32-1.85-16.32s-2,18.81-1.74,20.66a119.6,119.6,0,0,0,2.36,12c0,.16.91,4.38,1,4.54-.2,2.7.4,4.21.31,8.59s3.49,5.89,2.15,19.41c-3.15-3.48-6.28-10.54-11.49-15l-.59-.52c1.6-2.41,2.94-6.42,3.67-8.07,1.3-2.94.72-7.92.82-10.53a48.41,48.41,0,0,0-1-7.24l-2.36-4.64s.74,1.55.3,7.92-1.54,10.43-3.38,12.65c-.74.89-1.58,2-2.44,3.28a18.63,18.63,0,0,1-1.26-6.27c0-.39,1.24-7.72,1.54-8.5l.31-.77s-4,6.76-4.62,9-2.46,7.92-1.54,13.23a13.31,13.31,0,0,0,.38,1.54c-1,2.43-2,2.33-2.84,6.67-3.13-4.37-4.29-6.74-4-10.53.41-5.31,4.32-21.3,2.67-26.84-1.85-6.18,1.61-21.56,1.54-21.73,0,0-7,15.06-6.67,20.08s.92,7.54-.51,12.17c-1,3-4.21,10.24-4.62,12-.36,1.5-1.82,5.15-1.31,9.17l-1.09,1.79c0-.53-.1-1-.17-1.46-.61-3.71-2.46-8.64-2.66-12.69a59.51,59.51,0,0,1,1.47-14.8,40.4,40.4,0,0,0,1.47-10.35c-.17-1.79-3.2-10.19-3.2-10.19s2.44,13.74.22,16.72-4,5.49-4.68,9,.2,11.11.1,16.23-.21,9.27-.62,14c-.29,3.38-1.79,7.69-2.84,11-1.06-3.29-2.55-7.6-2.85-11-.41-4.73-.51-8.88-.61-14s.82-12.75.1-16.23-2.46-6-4.68-9-2.81-8.32-2.81-8.32l-.17,1.79a40.4,40.4,0,0,0,1.47,10.35,60,60,0,0,1,1.47,14.8c-.2,4.05-2,9-2.67,12.69-.07.44-.12.93-.16,1.46l-1.1-1.79c.52-4-.95-7.67-1.3-9.17-.41-1.74-5.69-9-4.62-12,1.66-4.68,1.66-4.68,1.66-10,0-4.86-6-18.32-9.79-33.09-2.44,8.07,4.33,26.39,2.49,32.57-1.66,5.54,2.26,21.53,2.67,26.84.29,3.79-.87,6.16-4,10.53-.82-4.34-1.79-4.24-2.83-6.67a13.28,13.28,0,0,0,.37-1.54c.93-5.31-.92-11-1.54-13.23s-4.61-9-4.61-9l.3.77c.31.78,1.54,8.11,1.54,8.5a18.76,18.76,0,0,1-1.25,6.27c-.87-1.25-1.7-2.39-2.44-3.28-1.85-2.22-3-6.27-3.39-12.65s.31-7.92.31-7.92l-2.36,4.64a48.41,48.41,0,0,0-1,7.24c.1,2.61-.49,7.59.82,10.53.73,1.65,2.07,5.66,3.67,8.07-.19.17-.39.35-.6.52-5.21,4.43-8.34,11.49-11.49,15-1.33-13.52,2.24-15.12,2.16-19.41s.51-5.89.31-8.59c.1-.16,1-4.38,1-4.54a119.6,119.6,0,0,0,2.36-12c.26-1.85-1.74-20.66-1.74-20.66s-2.45,12.77-1.85,16.32c.31,1.83-2.66,11.2-4.34,13-1.89-2.43-4.31-3.29-5.51-4.9-2.22-3-1.4-22.84-1.4-22.84s-2.71,9.5-2.26,14.77c.15,1.76-1.42,6.85-.65,10.48.41,2,2.8,4.74,4.62,7.56-1.19,1-1.58,2.39-2.67,3.16-1.51,1.07-2.64-1.2-3.56.07-.27-2.39-1.56-2-2-4.7-.72-4.64-4-9.69-4.41-11.78-.51-2.9-.31-4.83-.92-7.83a23.11,23.11,0,0,1-.21-7.92c.31-2,4-11.2,4-11.2s-3.28,5.22-5.23,6.67-1.74,8.49-3.49,12.45,1.23,13.23,1.23,13.23.62,13.33-.2,21.25c-.79,7.6-3.56,16.45-3.69,23.21-1-3.22-2.43-7.32-2.71-10.56-.41-4.73-.51-8.88-.61-14s.82-12.75.1-16.23-2.46-6-4.68-9-1.29-12.58-1.29-12.58a39.6,39.6,0,0,0-1.69,6.05,40.4,40.4,0,0,0,1.47,10.35,60,60,0,0,1,1.47,14.8c-.2,4.05-2,9-2.67,12.69-.07.44-.12.93-.17,1.46l-1.09-1.79c.51-4-1-7.67-1.3-9.17-.41-1.74-3.68-8.94-4.62-12-1.44-4.63-.82-7.14-.51-12.17s-6.67-20.08-6.67-20.08c-.07.17,3.38,15.55,1.54,21.73-1.66,5.54,2.25,21.53,2.66,26.84.3,3.79-.86,6.16-4,10.53-.82-4.34-1.79-4.24-2.83-6.67a13.28,13.28,0,0,0,.37-1.54c.92-5.31-.92-11-1.54-13.23s-4.62-9-4.62-9l.31.77c.31.78,1.54,8.11,1.54,8.5a18.76,18.76,0,0,1-1.25,6.27c-.87-1.25-1.71-2.39-2.44-3.28-1.85-2.22-2.95-6.27-3.39-12.65s.31-7.92.31-7.92l-2.36,4.64a49.44,49.44,0,0,0-1,7.24c.11,2.61-.48,7.59.82,10.53.74,1.65,2.07,5.66,3.68,8.07-.2.17-.39.35-.6.52-5.21,4.43-8.34,11.49-11.49,15-1.33-13.52,2.24-15.12,2.16-19.41s.51-5.89.3-8.59c.11-.16,1-4.38,1-4.54a119.6,119.6,0,0,0,2.36-12c.26-1.85-1.74-20.66-1.74-20.66s-2.45,12.77-1.85,16.32c.31,1.83-2.66,11.2-4.34,13-1.89-2.43-4.31-3.29-5.51-4.9-2.22-3,2.26-19.32,2.26-19.32s-2.67,6.38-4.72,11.21c-.71,1.67-2.62,6.89-1.85,10.52.41,2,2.8,4.74,4.62,7.56-1.19,1-1.58,2.39-2.67,3.16-1.51,1.07-3.48,2-4.41,3.26-.26-2.4-.71-5.19-1.13-7.89-.72-4.64,0-8-.33-10.07-.51-2.9,2.12-6.46,1.51-9.45s2.7-11,3-13S991.46,970,991.46,970s-4.83,14.51-6.78,16-6.68,9.44-6,13.6c.75,4.72-1.51,13.59-1.51,13.59s-1.32,6.32-2.42,12.85c-.08-6.47.21-12.71.21-12.71s3-9.27,1.23-13.23-1.54-11-3.49-12.45-5.23-6.67-5.23-6.67,3.7,9.18,4,11.2a23.33,23.33,0,0,1-.2,7.92c-.62,3-.41,4.93-.93,7.83-.37,2.09-3.69,7.14-4.41,11.78-.41,2.7-.87,5.49-1.13,7.89-.92-1.27-2.9-2.19-4.41-3.26-1.08-.77-1.48-2.12-2.67-3.16,1.82-2.82,4.21-5.6,4.62-7.56.77-3.63-1.14-8.85-1.84-10.52-2.06-4.83-4.72-11.21-4.72-11.21s4.47,16.34,2.25,19.32c-1.2,1.61-3.62,2.47-5.51,4.9-1.67-1.81-4.64-11.18-4.34-13,.6-3.55-1.84-16.32-1.84-16.32s-2,18.81-1.75,20.66c.82,5.8,1.75,9.27,2.36,12,0,.16.92,4.38,1,4.54-.21,2.7.39,4.21.31,8.59s3.48,5.89,2.15,19.41c-3.15-3.48-6.28-10.54-11.49-15l-.59-.52c1.6-2.41,2.93-6.42,3.67-8.07,1.3-2.94.72-7.92.82-10.53a48.08,48.08,0,0,0-1-7.24l-2.36-4.64s.74,1.55.31,7.92-1.54,10.43-3.39,12.65c-.73.89-1.57,2-2.43,3.28a18.63,18.63,0,0,1-1.26-6.27c0-.39,1.23-7.72,1.54-8.5l.31-.77s-4,6.76-4.62,9-2.46,7.92-1.54,13.23a11.54,11.54,0,0,0,.38,1.54c-1,2.43-2,2.33-2.84,6.67-3.14-4.37-4.29-6.74-4-10.53.41-5.31,4.32-21.3,2.67-26.84-1.85-6.18,1.6-21.56,1.53-21.73,0,0-7,15.06-6.66,20.08s.92,7.54-.52,12.17c-.94,3-4.2,10.24-4.61,12-.36,1.5-1.82,5.15-1.31,9.17l-1.09,1.79c0-.53-.1-1-.17-1.46-.62-3.71-2.46-8.64-2.67-12.69a60.47,60.47,0,0,1,1.47-14.8,40.4,40.4,0,0,0,1.47-10.35l-.17-1.79s-.58,5.34-2.8,8.32-4,5.49-4.69,9,.21,11.11.11,16.23-.21,9.27-.62,14a29.21,29.21,0,0,1-1,5c-.88-5.66-2.56-12-3.15-17.65-.82-7.92-.2-21.25-.2-21.25s3-9.27,1.23-13.23.08-13.24-1.87-14.69S889.08,970,889.08,970s6.62,20.11,6.93,22.13a23.33,23.33,0,0,1-.2,7.92c-.62,3-.42,4.93-.93,7.83-.37,2.09-3.69,7.14-4.41,11.78-.42,2.7-1.13,2.9-1.39,5.29-.92-1.27-2.64.41-4.15-.66-1.09-.77-1.48-2.12-2.67-3.16,1.82-2.82,4.21-5.6,4.62-7.56.77-3.63-1.14-8.85-1.85-10.52-2-4.83-4.72-11.21-4.72-11.21s4.48,16.34,2.26,19.32c-1.2,1.61-3.62,2.47-5.51,4.9-1.68-1.81-4.65-11.18-4.34-13,.6-3.55-1.85-16.32-1.85-16.32s-2,18.81-1.74,20.66a119.6,119.6,0,0,0,2.36,12c0,.16.92,4.38,1,4.54-.21,2.7.39,4.21.3,8.59s3.49,5.89,2.16,19.41c-3.15-3.48-6.28-10.54-11.49-15-.21-.17-.41-.35-.6-.52,1.61-2.41,2.94-6.42,3.67-8.07,1.31-2.94.72-7.92.83-10.53a49.44,49.44,0,0,0-1-7.24l-2.36-4.64s.74,1.55.31,7.92-1.54,10.43-3.39,12.65c-.73.89-1.57,2-2.44,3.28a18.76,18.76,0,0,1-1.25-6.27c0-.39,1.23-7.72,1.54-8.5l.3-.77s-4,6.76-4.61,9-2.46,7.92-1.54,13.23a13.28,13.28,0,0,0,.37,1.54c-1,2.43-2,2.33-2.83,6.67-3.14-4.37-4.3-6.74-4-10.53.41-5.31,4.32-21.3,2.66-26.84-1.84-6.18,1.61-21.56,1.54-21.73,0,0-7,15.06-6.67,20.08s.93,7.54-.51,12.17c-.94,3-4.21,10.24-4.62,12-.35,1.5-1.81,5.15-1.3,9.17l-1.1,1.79c0-.53-.09-1-.16-1.46-.62-3.71-2.47-8.64-2.67-12.69a60,60,0,0,1,1.47-14.8,40.4,40.4,0,0,0,1.47-10.35c-.17-1.79-3.2-10.19-3.2-10.19s2.44,13.74.22,16.72-4,5.49-4.68,9,.21,11.11.1,16.23-.2,9.27-.61,14c-.3,3.38-1.79,7.69-2.85,11-1-3.29-2.55-7.6-2.84-11-.41-4.73-.52-8.88-.62-14s.82-12.75.1-16.23-2.46-6-4.68-9-2.8-8.32-2.8-8.32l-.18,1.79a40.4,40.4,0,0,0,1.47,10.35,60,60,0,0,1,1.48,14.8c-.21,4.05-2.06,9-2.67,12.69-.07.44-.13.93-.17,1.46l-1.09-1.79c.51-4-.95-7.67-1.31-9.17-.41-1.74-5.68-9-4.62-12,1.66-4.68,1.66-4.68,1.66-10,0-4.86-6-18.32-9.78-33.09-2.45,8.07,4.33,26.39,2.48,32.57-1.65,5.54,2.26,21.53,2.67,26.84.29,3.79-.87,6.16-4,10.53-.82-4.34-1.79-4.24-2.84-6.67a13.31,13.31,0,0,0,.38-1.54c.92-5.31-.93-11-1.54-13.23s-4.62-9-4.62-9l.31.77c.31.78,1.54,8.11,1.54,8.5a18.63,18.63,0,0,1-1.26,6.27c-.86-1.25-1.7-2.39-2.44-3.28-1.84-2.22-2.95-6.27-3.38-12.65s.31-7.92.31-7.92l-2.36,4.64a48.08,48.08,0,0,0-1,7.24c.1,2.61-.48,7.59.82,10.53.73,1.65,2.07,5.66,3.67,8.07l-.59.52c-5.21,4.43-8.34,11.49-11.49,15-1.34-13.52,2.24-15.12,2.15-19.41s.51-5.89.31-8.59c.11-.16,1-4.38,1-4.54.61-2.71,1.53-6.18,2.36-12,.26-1.85-1.75-20.66-1.75-20.66s-2.44,12.77-1.85,16.32c.31,1.83-2.66,11.2-4.33,13-1.9-2.43-4.31-3.29-5.52-4.9-2.22-3-1.4-22.84-1.4-22.84s-2.71,9.5-2.26,14.77c.15,1.76-1.41,6.85-.64,10.48.41,2,2.79,4.74,4.62,7.56-1.19,1-1.59,2.39-2.68,3.16-1.5,1.07-2.64-1.2-3.56.07-.26-2.39-1.56-2-2-4.7-.71-4.64-4-9.69-4.41-11.78-.51-2.9-.3-4.83-.92-7.83a23.37,23.37,0,0,1-.21-7.92c.31-2,4-11.2,4-11.2s-3.29,5.22-5.24,6.67-1.74,8.49-3.49,12.45,1.24,13.23,1.24,13.23.61,13.33-.21,21.25c-.79,7.6-3.55,16.45-3.68,23.21-1.05-3.22-2.43-7.32-2.71-10.56-.41-4.73-.52-8.88-.62-14s.82-12.75.1-16.23-2.46-6-4.68-9-1.29-12.58-1.29-12.58a39.6,39.6,0,0,0-1.69,6.05,40.4,40.4,0,0,0,1.47,10.35,59.51,59.51,0,0,1,1.47,14.8c-.2,4.05-2,9-2.66,12.69a14.35,14.35,0,0,0-.17,1.46l-1.09-1.79c.51-4-1-7.67-1.31-9.17-.41-1.74-3.68-8.94-4.62-12-1.43-4.63-.82-7.14-.51-12.17s-6.67-20.08-6.67-20.08c-.07.17,3.39,15.55,1.54,21.73-1.66,5.54,2.26,21.53,2.67,26.84.29,3.79-.87,6.16-4,10.53-.82-4.34-1.79-4.24-2.84-6.67a11.51,11.51,0,0,0,.37-1.54c.93-5.31-.92-11-1.53-13.23s-4.62-9-4.62-9l.31.77c.3.78,1.54,8.11,1.54,8.5a18.92,18.92,0,0,1-1.26,6.27c-.86-1.25-1.7-2.39-2.44-3.28-1.84-2.22-3-6.27-3.38-12.65s.3-7.92.3-7.92l-2.36,4.64a48.41,48.41,0,0,0-1,7.24c.1,2.61-.49,7.59.82,10.53.73,1.65,2.07,5.66,3.67,8.07l-.59.52c-5.21,4.43-8.35,11.49-11.49,15-1.34-13.52,2.24-15.12,2.15-19.41s.51-5.89.31-8.59c.11-.16,1-4.38,1-4.54a119.6,119.6,0,0,0,2.36-12c.27-1.85-1.74-20.66-1.74-20.66s-2.44,12.77-1.85,16.32c.31,1.83-2.66,11.2-4.34,13-1.89-2.43-4.31-3.29-5.51-4.9-2.22-3,2.26-19.32,2.26-19.32s-2.67,6.38-4.72,11.21c-.71,1.67-2.61,6.89-1.85,10.52.42,2,2.8,4.74,4.63,7.56-1.19,1-1.59,2.39-2.68,3.16-1.5,1.07-3.48,2-4.4,3.26-.27-2.4-.72-5.19-1.14-7.89-.71-4.64-4-9.69-4.41-11.78-.51-2.9-.31-4.83-.92-7.83a23.37,23.37,0,0,1-.21-7.92c.31-2,4-11.2,4-11.2s-3.28,5.22-5.23,6.67-1.74,8.49-3.49,12.45,1.23,13.23,1.23,13.23.39,8.34.14,15.74c-1.14-7.44-2.9-15.88-2.9-15.88s-2.26-8.87-1.51-13.59c.66-4.16-4.07-12.15-6-13.6s-6.77-16-6.77-16,4.2,15.11,4.51,17.14,3.63,10,3,13,2,6.55,1.51,9.45c-.37,2.09.39,5.43-.33,10.07-.42,2.7-.87,5.49-1.13,7.89-.92-1.27-2.9-2.19-4.41-3.26-1.09-.77-1.48-2.12-2.67-3.16,1.82-2.82,4.21-5.6,4.62-7.56.77-3.63-1.14-8.85-1.85-10.52-2.05-4.83-4.72-11.21-4.72-11.21s4.48,16.34,2.26,19.32c-1.2,1.61-3.62,2.47-5.51,4.9-1.68-1.81-4.65-11.18-4.34-13,.6-3.55-1.84-16.32-1.84-16.32s-2,18.81-1.75,20.66c.82,5.8,1.75,9.27,2.36,12,0,.16.92,4.38,1,4.54-.21,2.7.39,4.21.3,8.59s3.49,5.89,2.16,19.41c-3.15-3.48-6.28-10.54-11.49-15-.21-.17-.4-.35-.6-.52,1.61-2.41,2.94-6.42,3.68-8.07,1.3-2.94.71-7.92.82-10.53a49.44,49.44,0,0,0-1-7.24l-2.36-4.64s.74,1.55.31,7.92-1.54,10.43-3.39,12.65c-.73.89-1.57,2-2.43,3.28a18.63,18.63,0,0,1-1.26-6.27c0-.39,1.23-7.72,1.54-8.5l.31-.77s-4,6.76-4.62,9-2.46,7.92-1.54,13.23a11.54,11.54,0,0,0,.38,1.54c-1,2.43-2,2.33-2.84,6.67-3.14-4.37-4.3-6.74-4-10.53.41-5.31,4.32-21.3,2.66-26.84-1.84-6.18,1.61-21.56,1.54-21.73,0,0-7,15.06-6.67,20.08s.93,7.54-.51,12.17c-.94,3-4.21,10.24-4.62,12-.35,1.5-1.81,5.15-1.3,9.17l-1.09,1.79c0-.53-.1-1-.17-1.46-.62-3.71-2.46-8.64-2.67-12.69a60.47,60.47,0,0,1,1.47-14.8,40.4,40.4,0,0,0,1.47-10.35,39.6,39.6,0,0,0-1.69-6.05s.93,9.6-1.29,12.58-4,5.49-4.68,9,.21,11.11.1,16.23-.2,9.27-.61,14a28.36,28.36,0,0,1-.93,4.77c-.89-5.6-2.53-11.85-3.11-17.42-.82-7.92-.2-21.25-.2-21.25s3-9.27,1.23-13.23-1.54-11-3.49-12.45-5.23-6.67-5.23-6.67,3.69,9.18,4,11.2a23.33,23.33,0,0,1-.2,7.92c-.62,3-.41,4.93-.93,7.83-.37,2.09-3.69,7.14-4.41,11.78-.42,2.7-.87,5.49-1.13,7.89-.93-1.27-2.9-2.19-4.41-3.26-1.09-.77-1.48-2.12-2.67-3.16,1.82-2.82,4.21-5.6,4.62-7.56.77-3.63-1.14-8.85-1.85-10.52-2-4.83-4.72-11.21-4.72-11.21s4.48,16.34,2.26,19.32c-1.2,1.61-3.62,2.47-5.51,4.9-1.68-1.81-4.65-11.18-4.34-13,.6-3.55-1.85-16.32-1.85-16.32s-2,18.81-1.74,20.66a119.6,119.6,0,0,0,2.36,12c0,.16.92,4.38,1,4.54-.21,2.7.39,4.21.3,8.59s3.49,5.89,2.16,19.41c-3.15-3.48-6.28-10.54-11.49-15-.21-.17-.41-.35-.6-.52,1.61-2.41,2.94-6.42,3.67-8.07,1.31-2.94.72-7.92.83-10.53a49.44,49.44,0,0,0-1-7.24l-2.36-4.64s.74,1.55.31,7.92-1.54,10.43-3.39,12.65c-.73.89-1.57,2-2.44,3.28a18.76,18.76,0,0,1-1.25-6.27c0-.39,1.23-7.72,1.54-8.5l.31-.77s-4,6.76-4.62,9-2.46,7.92-1.54,13.23A13.28,13.28,0,0,0,553,1038c-1,2.43-2,2.33-2.83,6.67-3.14-4.37-4.3-6.74-4-10.53.41-5.31,4.32-21.3,2.66-26.84-1.84-6.18,1.61-21.56,1.54-21.73,0,0-7,15.06-6.67,20.08s.93,7.54-.51,12.17c-.94,3-4.21,10.24-4.62,12-.35,1.5-1.81,5.15-1.3,9.17l-1.1,1.79c0-.53-.09-1-.16-1.46-.62-3.71-2.47-8.64-2.67-12.69a60,60,0,0,1,1.47-14.8,40.4,40.4,0,0,0,1.47-10.35l-.17-1.79s-.59,5.34-2.81,8.32-4,5.49-4.68,9,.21,11.11.1,16.23-.2,9.27-.61,14a29.28,29.28,0,0,1-1,5c-.87-5.66-2.55-12-3.14-17.65-.82-7.92-.2-21.25-.2-21.25s3-9.27,1.23-13.23.08-13.24-1.87-14.69S513.37,970,513.37,970s6.62,20.11,6.93,22.13a23.11,23.11,0,0,1-.21,7.92c-.61,3-.41,4.93-.92,7.83-.37,2.09-3.69,7.14-4.41,11.78-.42,2.7-1.13,2.9-1.39,5.29-.93-1.27-2.65.41-4.15-.66-1.09-.77-1.48-2.12-2.68-3.16,1.83-2.82,4.21-5.6,4.63-7.56.77-3.63-1.14-8.85-1.85-10.52-2.05-4.83-4.72-11.21-4.72-11.21s4.48,16.34,2.26,19.32c-1.2,1.61-3.62,2.47-5.51,4.9-1.68-1.81-4.65-11.18-4.34-13,.59-3.55-1.85-16.32-1.85-16.32s-2,18.81-1.74,20.66a119.6,119.6,0,0,0,2.36,12c0,.16.91,4.38,1,4.54-.2,2.7.4,4.21.31,8.59s3.49,5.89,2.16,19.41c-3.15-3.48-6.28-10.54-11.5-15l-.59-.52c1.6-2.41,2.94-6.42,3.67-8.07,1.31-2.94.72-7.92.82-10.53a48.41,48.41,0,0,0-1-7.24l-2.36-4.64s.74,1.55.3,7.92-1.53,10.43-3.38,12.65c-.74.89-1.58,2-2.44,3.28a18.76,18.76,0,0,1-1.25-6.27c0-.39,1.23-7.72,1.53-8.5l.31-.77s-4,6.76-4.61,9-2.47,7.92-1.54,13.23a13.28,13.28,0,0,0,.37,1.54c-1,2.43-2,2.33-2.84,6.67-3.13-4.37-4.29-6.74-4-10.53.41-5.31,4.33-21.3,2.67-26.84-1.85-6.18,1.61-21.56,1.54-21.73,0,0-7,15.06-6.67,20.08s.92,7.54-.51,12.17c-.94,3-4.21,10.24-4.62,12-.35,1.5-1.82,5.15-1.31,9.17l-1.09,1.79a14.35,14.35,0,0,0-.17-1.46c-.61-3.71-2.46-8.64-2.66-12.69a60,60,0,0,1,1.47-14.8,40.4,40.4,0,0,0,1.47-10.35c-.17-1.79-3.2-10.19-3.2-10.19s2.44,13.74.22,16.72-4,5.49-4.68,9,.2,11.11.1,16.23-.21,9.27-.62,14c-.29,3.38-1.78,7.69-2.84,11-1.06-3.29-2.55-7.6-2.84-11-.42-4.73-.52-8.88-.62-14s.82-12.75.1-16.23-2.46-6-4.68-9-2.81-8.32-2.81-8.32l-.17,1.79a40.4,40.4,0,0,0,1.47,10.35,60,60,0,0,1,1.47,14.8c-.2,4.05-2.05,9-2.66,12.69a14.35,14.35,0,0,0-.17,1.46l-1.1-1.79c.52-4-.95-7.67-1.3-9.17-.41-1.74-5.68-9-4.62-12,1.66-4.68,1.66-4.68,1.66-10,0-4.86-6-18.32-9.78-33.09-2.45,8.07,4.33,26.39,2.48,32.57-1.66,5.54,2.26,21.53,2.67,26.84.29,3.79-.87,6.16-4,10.53-.83-4.34-1.8-4.24-2.84-6.67a13.28,13.28,0,0,0,.37-1.54c.93-5.31-.92-11-1.54-13.23s-4.61-9-4.61-9l.3.77c.31.78,1.54,8.11,1.54,8.5a18.76,18.76,0,0,1-1.25,6.27c-.87-1.25-1.7-2.39-2.44-3.28-1.85-2.22-3-6.27-3.39-12.65s.31-7.92.31-7.92l-2.36,4.64a48.41,48.41,0,0,0-1,7.24c.1,2.61-.49,7.59.82,10.53.73,1.65,2.07,5.66,3.67,8.07l-.59.52c-5.22,4.43-8.35,11.49-11.5,15-1.33-13.52,2.24-15.12,2.16-19.41s.51-5.89.31-8.59c.11-.16,1-4.38,1-4.54a119.6,119.6,0,0,0,2.36-12c.27-1.85-1.74-20.66-1.74-20.66s-2.44,12.77-1.85,16.32c.31,1.83-2.66,11.2-4.34,13-1.89-2.43-4.31-3.29-5.51-4.9-2.22-3-1.4-22.84-1.4-22.84s-2.71,9.5-2.26,14.77c.15,1.76-1.42,6.85-.65,10.48.42,2,2.8,4.74,4.62,7.56-1.19,1-1.58,2.39-2.67,3.16-1.5,1.07-2.64-1.2-3.56.07-.26-2.39-1.56-2-2-4.7-.72-4.64-4-9.69-4.41-11.78-.51-2.9-.31-4.83-.92-7.83a23.11,23.11,0,0,1-.21-7.92c.31-2,4-11.2,4-11.2s-3.28,5.22-5.23,6.67-1.74,8.49-3.49,12.45,1.23,13.23,1.23,13.23.62,13.33-.2,21.25c-.79,7.6-3.56,16.45-3.69,23.21-1-3.22-2.43-7.32-2.71-10.56-.41-4.73-.51-8.88-.61-14s.82-12.75.1-16.23-2.46-6-4.68-9-1.29-12.58-1.29-12.58a39.6,39.6,0,0,0-1.69,6.05,40.4,40.4,0,0,0,1.47,10.35,60,60,0,0,1,1.47,14.8c-.2,4.05-2.05,9-2.67,12.69-.07.44-.12.93-.16,1.46l-1.1-1.79c.52-4-.95-7.67-1.3-9.17-.41-1.74-3.68-8.94-4.62-12-1.44-4.63-.82-7.14-.51-12.17S347,985.57,347,985.57c-.07.17,3.38,15.55,1.54,21.73-1.66,5.54,2.26,21.53,2.67,26.84.29,3.79-.87,6.16-4,10.53-.82-4.34-1.79-4.24-2.83-6.67a13.28,13.28,0,0,0,.37-1.54c.93-5.31-.92-11-1.54-13.23s-4.61-9-4.61-9l.3.77c.31.78,1.54,8.11,1.54,8.5a18.76,18.76,0,0,1-1.25,6.27c-.87-1.25-1.7-2.39-2.44-3.28-1.85-2.22-2.95-6.27-3.39-12.65s.31-7.92.31-7.92l-2.36,4.64a48.41,48.41,0,0,0-1,7.24c.1,2.61-.49,7.59.82,10.53.73,1.65,2.07,5.66,3.67,8.07-.19.17-.39.35-.6.52-5.21,4.43-8.34,11.49-11.49,15-1.33-13.52,2.24-15.12,2.16-19.41s.51-5.89.31-8.59c.1-.16,1-4.38,1-4.54a119.6,119.6,0,0,0,2.36-12c.26-1.85-1.74-20.66-1.74-20.66s-2.45,12.77-1.85,16.32c.31,1.83-2.66,11.2-4.34,13-1.89-2.43-4.31-3.29-5.51-4.9-2.22-3,2.26-19.32,2.26-19.32s-2.67,6.38-4.72,11.21c-.71,1.67-2.62,6.89-1.85,10.52.41,2,2.8,4.74,4.62,7.56-1.19,1-1.58,2.39-2.67,3.16-1.51,1.07-3.48,2-4.4,3.26-.27-2.4-.72-5.19-1.14-7.89-.72-4.64,0-8-.33-10.07-.51-2.9,2.12-6.46,1.51-9.45s2.7-11,3-13S315.93,970,315.93,970s-4.83,14.51-6.78,16-6.68,9.44-6,13.6c.75,4.72-1.51,13.59-1.51,13.59s-1.32,6.32-2.41,12.85c-.08-6.47.2-12.71.2-12.71s3-9.27,1.23-13.23-1.53-11-3.48-12.45-5.24-6.67-5.24-6.67,3.7,9.18,4,11.2a23.08,23.08,0,0,1-.2,7.92c-.62,3-.41,4.93-.92,7.83-.37,2.09-3.7,7.14-4.42,11.78-.41,2.7-.87,5.49-1.13,7.89-.92-1.27-2.9-2.19-4.41-3.26-1.08-.77-1.48-2.12-2.67-3.16,1.83-2.82,4.21-5.6,4.62-7.56.77-3.63-1.13-8.85-1.84-10.52-2.06-4.83-4.72-11.21-4.72-11.21s4.47,16.34,2.25,19.32c-1.2,1.61-3.61,2.47-5.51,4.9-1.67-1.81-4.64-11.18-4.34-13,.6-3.55-1.84-16.32-1.84-16.32s-2,18.81-1.75,20.66c.82,5.8,1.75,9.27,2.36,12,0,.16.92,4.38,1,4.54-.21,2.7.4,4.21.31,8.59s3.49,5.89,2.15,19.41c-3.15-3.48-6.28-10.54-11.49-15l-.59-.52c1.6-2.41,2.94-6.42,3.67-8.07,1.3-2.94.72-7.92.82-10.53a48.08,48.08,0,0,0-1-7.24l-2.36-4.64s.75,1.55.31,7.92-1.54,10.43-3.38,12.65c-.74.89-1.58,2-2.44,3.28a18.63,18.63,0,0,1-1.26-6.27c0-.39,1.23-7.72,1.54-8.5l.31-.77s-4,6.76-4.62,9-2.46,7.92-1.54,13.23a11.54,11.54,0,0,0,.38,1.54c-1.05,2.43-2,2.33-2.84,6.67-3.13-4.37-4.29-6.74-4-10.53.41-5.31,4.32-21.3,2.67-26.84-1.85-6.18,1.6-21.56,1.54-21.73,0,0-7,15.06-6.67,20.08s.92,7.54-.52,12.17c-.94,3-4.2,10.24-4.61,12-.36,1.5-1.82,5.15-1.31,9.17l-1.09,1.79c0-.53-.1-1-.17-1.46-.61-3.71-2.46-8.64-2.67-12.69a60.47,60.47,0,0,1,1.47-14.8,39.52,39.52,0,0,0,1.47-10.35l-.17-1.79s-.58,5.34-2.8,8.32-4,5.49-4.68,9,.2,11.11.1,16.23-.21,9.27-.62,14a29.21,29.21,0,0,1-1,5c-.88-5.66-2.56-12-3.14-17.65-.83-7.92-.21-21.25-.21-21.25s3-9.27,1.23-13.23.09-13.24-1.86-14.69S213.55,970,213.55,970s6.62,20.11,6.93,22.13a23.33,23.33,0,0,1-.2,7.92c-.62,3-.41,4.93-.93,7.83-.37,2.09-3.69,7.14-4.41,11.78-.42,2.7-1.13,2.9-1.39,5.29-.92-1.27-2.64.41-4.15-.66-1.09-.77-1.48-2.12-2.67-3.16,1.82-2.82,4.21-5.6,4.62-7.56.77-3.63-1.14-8.85-1.85-10.52-2.05-4.83-4.72-11.21-4.72-11.21s4.48,16.34,2.26,19.32c-1.2,1.61-3.62,2.47-5.51,4.9-1.68-1.81-4.65-11.18-4.34-13,.6-3.55-1.84-16.32-1.84-16.32s-2,18.81-1.75,20.66c.82,5.8,1.75,9.27,2.36,12,0,.16.92,4.38,1,4.54-.21,2.7.39,4.21.3,8.59s3.49,5.89,2.16,19.41c-3.15-3.48-6.28-10.54-11.49-15-.21-.17-.4-.35-.6-.52,1.61-2.41,2.94-6.42,3.68-8.07,1.3-2.94.71-7.92.82-10.53a49.44,49.44,0,0,0-1-7.24l-2.36-4.64s.74,1.55.31,7.92-1.54,10.43-3.39,12.65c-.73.89-1.57,2-2.43,3.28a18.63,18.63,0,0,1-1.26-6.27c0-.39,1.23-7.72,1.54-8.5l.31-.77s-4,6.76-4.62,9-2.46,7.92-1.54,13.23a11.54,11.54,0,0,0,.38,1.54c-1.05,2.43-2,2.33-2.84,6.67-3.14-4.37-4.3-6.74-4-10.53.41-5.31,4.32-21.3,2.66-26.84-1.84-6.18,1.61-21.56,1.54-21.73,0,0-7,15.06-6.67,20.08s.93,7.54-.51,12.17c-.94,3-4.21,10.24-4.62,12-.35,1.5-1.81,5.15-1.3,9.17l-1.09,1.79c-.05-.53-.1-1-.17-1.46-.62-3.71-2.46-8.64-2.67-12.69a60.47,60.47,0,0,1,1.47-14.8,40.4,40.4,0,0,0,1.47-10.35c-.17-1.79-3.2-10.19-3.2-10.19s2.44,13.74.22,16.72-4,5.49-4.68,9,.21,11.11.1,16.23-.2,9.27-.61,14c-.3,3.38-1.79,7.69-2.85,11-1.05-3.29-2.55-7.6-2.84-11-.41-4.73-.51-8.88-.62-14s.82-12.75.11-16.23-2.47-6-4.69-9-2.8-8.32-2.8-8.32l-.17,1.79a39.52,39.52,0,0,0,1.47,10.35,60.47,60.47,0,0,1,1.47,14.8c-.21,4.05-2.06,9-2.67,12.69-.07.44-.13.93-.17,1.46L138,1039c.51-4-1-7.67-1.31-9.17-.41-1.74-5.68-9-4.61-12,1.66-4.68,1.66-4.68,1.66-10,0-4.86-6-18.32-9.79-33.09-2.45,8.07,4.33,26.39,2.48,32.57-1.65,5.54,2.26,21.53,2.67,26.84.29,3.79-.87,6.16-4,10.53-.82-4.34-1.79-4.24-2.84-6.67a11.54,11.54,0,0,0,.38-1.54c.92-5.31-.93-11-1.54-13.23s-4.62-9-4.62-9l.31.77c.31.78,1.54,8.11,1.54,8.5a18.63,18.63,0,0,1-1.26,6.27c-.86-1.25-1.7-2.39-2.44-3.28-1.84-2.22-3-6.27-3.38-12.65s.31-7.92.31-7.92l-2.36,4.64a48.08,48.08,0,0,0-1,7.24c.1,2.61-.48,7.59.82,10.53.73,1.65,2.07,5.66,3.67,8.07l-.59.52c-5.21,4.43-8.34,11.49-11.49,15-1.34-13.52,2.24-15.12,2.15-19.41s.52-5.89.31-8.59c.11-.16,1-4.38,1-4.54.61-2.71,1.54-6.18,2.36-12,.26-1.85-1.75-20.66-1.75-20.66s-2.44,12.77-1.84,16.32c.3,1.83-2.67,11.2-4.34,13-1.9-2.43-4.31-3.29-5.51-4.9-2.22-3-1.41-22.84-1.41-22.84s-2.71,9.5-2.26,14.77c.15,1.76-1.41,6.85-.64,10.48.41,2,2.79,4.74,4.62,7.56-1.19,1-1.59,2.39-2.67,3.16-1.51,1.07-2.64-1.2-3.57.07-.26-2.39-1.56-2-2-4.7-.72-4.64-4-9.69-4.42-11.78-.51-2.9-.3-4.83-.92-7.83a23.33,23.33,0,0,1-.2-7.92c.3-2,4-11.2,4-11.2s-3.29,5.22-5.24,6.67-1.74,8.49-3.48,12.45,1.23,13.23,1.23,13.23.61,13.33-.21,21.25c-.79,7.6-3.55,16.45-3.68,23.21-1-3.22-2.43-7.32-2.71-10.56-.41-4.73-.52-8.88-.62-14s.82-12.75.1-16.23-2.46-6-4.68-9S63,995.41,63,995.41a20.34,20.34,0,0,0-.23,16.4,60,60,0,0,1,1.48,14.8c-.21,4.05-2.06,9-2.67,12.69-.07.44-.13.93-.17,1.46L60.32,1039c.51-4-1-7.67-1.31-9.17-.41-1.74-3.67-8.94-4.62-12-1.43-4.63-.82-7.14-.51-12.17s-6.67-20.08-6.67-20.08c-.06.17,3.39,15.55,1.54,21.73-1.65,5.54,2.26,21.53,2.67,26.84.29,3.79-.87,6.16-4,10.53-.82-4.34-1.79-4.24-2.84-6.67a13.31,13.31,0,0,0,.38-1.54c.92-5.31-.93-11-1.54-13.23s-4.62-9-4.62-9l.31.77c.31.78,1.54,8.11,1.54,8.5a18.63,18.63,0,0,1-1.26,6.27c-.86-1.25-1.7-2.39-2.44-3.28-1.84-2.22-3-6.27-3.38-12.65s.31-7.92.31-7.92l-2.36,4.64a48.08,48.08,0,0,0-1,7.24c.1,2.61-.48,7.59.82,10.53.73,1.65,2.07,5.66,3.67,8.07l-.59.52c-5.21,4.43-8.34,11.49-11.49,15-1.34-13.52,2.24-15.12,2.15-19.41s.51-5.89.31-8.59c.11-.16,1-4.38,1-4.54.61-2.71,1.53-6.18,2.36-12C29,1005.54,27,986.73,27,986.73s-2.44,12.77-1.85,16.32c.31,1.83-2.66,11.2-4.33,13-1.9-2.43-4.31-3.29-5.52-4.9-2.22-3,2.26-19.32,2.26-19.32s-2.67,6.38-4.72,11.21c-.71,1.67-2.61,6.89-1.84,10.52.41,2,2.79,4.74,4.62,7.56-1.19,1-1.59,2.39-2.67,3.16-1.51,1.07-3.49,2-4.41,3.26-.27-2.4-.72-5.19-1.14-7.89-.71-4.64-4-9.69-4.41-11.78-.51-2.9-.3-4.83-.92-7.83a23.37,23.37,0,0,1-.21-7.92c.31-2,4-11.2,4-11.2S2.58,986.15.63,987.6s-1.74,8.49-3.49,12.45,1.24,13.23,1.24,13.23.61,13.33-.21,21.25-3.8,17.19-3.69,24,4.85,21.92,4.85,21.92H76.56a2.76,2.76,0,0,0,.23-.79l.24.79H298.46s.13-.42.34-1.13l.35,1.13h77.22a2.92,2.92,0,0,0,.24-.79l.24.79H673.61s.25-.78.63-2.06c.38,1.28.62,2.06.62,2.06h77.23a3.26,3.26,0,0,0,.23-.79l.24.79H974s.14-.42.35-1.13l.35,1.13h77.22a2.76,2.76,0,0,0,.23-.79l.25.79h296.76s.33-1,.81-2.68c.48,1.64.81,2.68.81,2.68H1428a2.76,2.76,0,0,0,.23-.79l.25.79h221.42l.35-1.13c.21.71.34,1.13.34,1.13h77.23a2.76,2.76,0,0,0,.23-.79l.24.79H2025s4.75-15.07,4.85-21.92S2027,1042.45,2026.2,1034.53Z" transform="translate(5.53 -970)"/></svg>