<svg id="Layer_1" data-name="Layer 1" xmlns="http://www.w3.org/2000/svg" viewBox="0 0 887.78 530.92"><defs><style>.cls-1{fill:#cde1de;}</style></defs><g id="Layer_4" data-name="Layer 4"><path class="cls-1" d="M1342.63,347c-1.34-7.33-5.43-12.73-10.54-17.44-2.58-2.38-5.92-4-8.86-6.05-5.11-3.56-10.59-6.57-15.76-10-4.86-3.28-9.54-6.78-15.24-8.62-3.87-1.24-7.59-3.12-11.69-3.43a61.7,61.7,0,0,0-14.68.89c-8,1.32-16.16,2.09-24.21,3.37-2.13.34-4.29.42-6.44.65-7.14.79-14.38.36-21.46,1.86a11.94,11.94,0,0,1-3.22.07c-8.24-.56-16.51-.61-24.72-1.88-7.33-1.13-14.77-1.4-22.12-2.58-10-1.6-20-1.7-30,.73-4.3,1.05-8.44,2.67-12.85,3.3-7.72,1.1-15.45,1.82-23.23,2.34-13.14.87-26.23,2.44-39.37,3.48-10.15.8-20.16,2.77-30.38,3.05-11.49.31-23,1.32-34.45,1.79-8,.32-16.08.21-24,1.66a63.46,63.46,0,0,1-10.28,1.45,99,99,0,0,0-10.75.75c-14.51,1.83-29.06,3.1-43.63,4.3a31.27,31.27,0,0,1-7.5-.36A127.52,127.52,0,0,0,884,325c-5.26-.28-10.52-.72-15.77-1.13-6.21-.49-12.41-1.3-18.62-1.47-10.41-.3-20.83.05-31.24-.8-7.65-.63-15.34.07-23,0a61.05,61.05,0,0,0-6.79.3c-9.75-.58-22-.51-22.59-.86-1.43-.81-11.72,4.09-12.69,5.19a239.8,239.8,0,0,0-18.65,24.07l-.08.08v.05c-.4.58-.81,1.14-1.2,1.72-4.39,6.58-8.51,13.34-13,19.82-4.67,6.67-8.52,13.9-13.7,20.23a1.61,1.61,0,0,0-.19.31c-4.07,7.21-8.7,14.08-13.38,20.88-5.58,8.1-10.71,16.48-16.12,24.69C665.79,455,655,472.12,644.3,489.31c-6.91,11.07-13.44,22.39-20.66,33.28-2.85,4.29-5.38,8.8-8.27,13.06-7,10.32-13.84,20.7-21.4,30.61-5.23,6.85-10.09,14-15.1,21a10.49,10.49,0,0,1-3.56,3.48q-7.48,3.93-14.95,7.86a13.65,13.65,0,0,1-5.87,1.49,29.28,29.28,0,0,0-8.84,1.34,5.77,5.77,0,0,1-4.15.07,22.82,22.82,0,0,0-7.71-1.5A37.12,37.12,0,0,0,512,607.32,281,281,0,0,1,487.48,623c-8.43,4.87-17.36,8.68-27.3,9.4-3,.22-3.38,1.12-2,4,.79,1.63,2.47,2.56,3.23,4.13-.46.56-1,.4-1.41.53-1.92.58-4.21.78-4.61,3.32s1.4,3.91,3.17,5.22c.19.14.4.26.6.38,5.66,3.29,11.61,5.86,18.22,6.18s13.33.64,19.76-2.07a69.15,69.15,0,0,1,10-2.91c3.21-.79,3.74-.32,4.28,2.84a49.22,49.22,0,0,1,.7,8.22c0,7,2.28,13.46,4.68,19.84A142.09,142.09,0,0,0,523,695.45a20.93,20.93,0,0,1,2,8.3c.26,4,.48,7.9.93,11.83.61,5.24,1.21,10.57,3.92,15.22,2.1,3.62,2.4,7.35,2.28,11.41-.17,6.09-.15,12.24,1.79,18.16,1.27,3.88,2.55,7.73,4.2,11.48a43.7,43.7,0,0,1,3,11.09,6.69,6.69,0,0,1-.45,3.83,18.3,18.3,0,0,0-1.11,10.55c.51,2.84,1,5.67,1.48,8.51a20.18,20.18,0,0,0,3.13,8.35c4,5.62,9.4,8.19,15.53,9.14h0a41.79,41.79,0,0,0,6.2.45c3.82,0,6.75-2.28,9.94-3.84,1.52-.74,2.62-1,4.24,0,3.2,2,6.61,1.83,9.91,0q2.34-1.32,4.71-2.62c5.51-3,10.2-6.69,13-12.06h0a23.44,23.44,0,0,0,2-5.22c.7-2.79,1.33-5.58,1.89-8.4a42.17,42.17,0,0,1,1.78-5.83c2.08-6,6.29-10.53,10.35-15a118.65,118.65,0,0,0,11.71-15c3-4.55,5.44-9.4,6.21-14.81a31,31,0,0,1,4.08-11c3.14-5.62,7.6-10.55,9.18-17a2.75,2.75,0,0,1,2.21-2.13c1.5-.33,3-1,4.57-.6a1.8,1.8,0,0,0,1.69-.22,17,17,0,0,1,6.66-2.59,6.26,6.26,0,0,0,5.25-5.18,9.44,9.44,0,0,1,4.06-5.72c2.6-1.93,5.19-3.86,7.81-5.77,3.09-2.26,6.43-4.24,9.24-6.81a57.39,57.39,0,0,1,16.3-11,33.39,33.39,0,0,0,4.76-2.53c7.86-4.94,16.42-8.37,25-11.76,7.91-3.11,16-5.76,23.36-10.21,1.64-1,3.36-1.86,5-2.91,1.31-.87,2-.47,2.32.88.3,1.16.54,2.34.85,3.5,1.9,6.91,1.55,14,1.86,21.08a66.6,66.6,0,0,1-.13,11.47,14,14,0,0,0,2.54,9.9,8.68,8.68,0,0,1,1.41,6.52,47.44,47.44,0,0,0-.37,7.53c0,7.07.16,14.16-.22,21.22s-1.51,14.28-1.41,21.5a22.56,22.56,0,0,1-.94,5.66c-.6,2.34-1.46,4.63-3.46,6.17a56,56,0,0,0-6.86,6.83,78.31,78.31,0,0,0-5.39,6.79h0a75,75,0,0,1-6.7,8.32,73.32,73.32,0,0,1-8.71,8c-1.25.92-2.63,1.69-3.82,2.69-2.37,2-1.64,7.71,1.19,8.08,2.48.33,4.11,1.66,6,2.87a12,12,0,0,0,4.7,1.69c7.77,1.3,15.53.88,23.27-.13,9.79-1.28,19.75-11.46,19-20a5.38,5.38,0,0,1,1.74-4.2,30.18,30.18,0,0,0,5.92-9.77c.94-2.27,1.78-4,5-4,4.77,0,6.75-3.16,5.87-7.85a12.36,12.36,0,0,0-1.62-4.36,8.76,8.76,0,0,1-1.17-4.09c-.47-5.73-.88-11.47-1.6-17.18-1.42-11.46-1.37-23-1-34.46.08-2.71.92-4.94,3.21-6.47a7.16,7.16,0,0,0,3.08-6.18q.13-3.94.15-7.91c0-3.65,0-7.31,0-11,.15.29.29.58.43.87l2.66,6.22c.51,1.27,1,2.52,1.61,3.76,3,6.47,7.31,12.11,11.29,17.94,2.87,4.19,5.45,8.4,6.41,13.47.7,3.77,1.57,7.51,2.38,11.26a64.61,64.61,0,0,1,1.05,21.44c-1,8.28-.82,16.49,2.1,24.5,1.86,5.08,1.2,10-1.25,14.93-2.27,4.56-5.36,8.49-8.18,12.65a22.38,22.38,0,0,1-8.71,7.83,41.49,41.49,0,0,0-7.9,5.61,12.07,12.07,0,0,0-2.91,15c.89,1.67,2,3,4.12,2.94a2.93,2.93,0,0,1,2.74,1.37c1.59,2.34,4,2.94,6.62,2.82a131.17,131.17,0,0,0,18.23-1.69,36.3,36.3,0,0,0,18.94-9.64c1.76-1.69,3.45-3.71,3.41-6.14-.1-5.71,1.36-11.17,2.08-16.74a26.61,26.61,0,0,1,3.26-9.46c1.61-2.92,3.56-5.27,7.48-5.18,2.46,0,3.66-1.43,3.8-3.9a25.87,25.87,0,0,0-.3-4.29c-.33-3.1-1-6.19-1-9.29a61.31,61.31,0,0,0-5.42-24.41c-5-11.36-7.19-23.3-8.58-35.5-.71-6.2-.71-12.42-1.09-18.63-.31-4.92-1.64-9.74-1.52-14.66a180.42,180.42,0,0,0-.87-18.31,158.38,158.38,0,0,0-3.73-24.86c-1.16-4.78-2.24-9.58-3.21-14.39a39.14,39.14,0,0,1-1-8.56c.05-3.25.3-3.64,3.39-4.56A67.7,67.7,0,0,1,877,598.23a231.4,231.4,0,0,1,39.82,1.29c5.36.6,10.64,1.76,16,2.49,4.51.62,9.1.72,13.57,1.53,6.8,1.23,13.54,2.78,20.27,4.36a160.1,160.1,0,0,0,20.85,3.76c7.14.71,14.28,1.5,21.42,2.25,4.77.5,9.52,1.22,14.3,1.44,5.5.24,11,.23,16.55,0a117,117,0,0,0,16.43-1.59,132.2,132.2,0,0,0,33.54-11.61c2.54-1.25,4.72-2.11,7.26-.26a9.3,9.3,0,0,0,2.36.84c7.13,2.52,14.61,3.84,21.8,6.12a149.26,149.26,0,0,0,30.89,6.57,3.1,3.1,0,0,1,3.16,2.79c.64,3.42,1.37,6.82,1.91,10.25,1,6.25.94,12.7,3.6,18.64a5.1,5.1,0,0,1,.2,1.77c.12,3.34.32,6.69.33,10a104.63,104.63,0,0,1-.21,10.77c-1,9.12-3.47,17.89-5.9,26.66a95.25,95.25,0,0,1-5.6,14.41,190,190,0,0,1-13.44,23.74c-4,6.22-7.52,12.8-12,18.75-2.59,3.43-4.59,7.3-7,10.91-.8,1.22-.5,2.83-1.69,3.9-2.93,2.64-5.41,5.73-8.61,8.13A125.87,125.87,0,0,0,1094,786.64a7,7,0,0,0-.74,9.49c2.13,3,5.25,3.56,8.94,1.63.52-.27,1-.63,1.92-1.22-.82,4-.25,4.93,3.06,5.4a38.07,38.07,0,0,0,5.34.71c8.42,0,16.74-1.14,25-2.37,6.67-1,10.75-5.44,12.64-11.83a21.86,21.86,0,0,0,1-5.28c.11-2.57,1.51-3.91,3.66-4.79,1.67-.67,3.38-1.25,5-2,4-2,6.9-4.68,6.61-9.68a29.14,29.14,0,0,1,.36-6.46,167,167,0,0,1,7.06-29,30.93,30.93,0,0,1,3-6.83,148.79,148.79,0,0,0,8.55-14.14,110.75,110.75,0,0,1,8.65-14.07c7.74-11,15-22.24,20-34.79a.91.91,0,0,1,1-.58,2.73,2.73,0,0,1,1.11,1.66c1.69,5.87,4,11.54,5.87,17.34a121.21,121.21,0,0,1,5.41,46.47c-.22,2.85-1,5.66-1.31,8.52a56.54,56.54,0,0,1-3.28,13.59c-2.09,6-4.7,11.82-6.58,17.88-2.63,8.52-6.7,16.4-10.28,24.5a12.41,12.41,0,0,1-1.79,2.68c-2.84,3.56-5.78,7-8.58,10.63-3.32,4.28-6.41,8.68-7.35,14.23-.79,4.68,1.54,6.86,6.17,5.62,1.23-.33,2.3-1.23,3.71-1.25.15,1.3-.19,2.49.89,3.46a14.67,14.67,0,0,0,4.78,3.13c8.06,2.93,16.24,4.08,24.64,1.43,2.06-.65,4.12-1.3,6.21-1.82,4.54-1.11,8.34-3.61,12-6.34a9.11,9.11,0,0,0,3.8-6.68c.27-3.22.43-6.45.6-9.68.1-1.78.6-3.73-.13-5.34-1.58-3.46-.07-5.71,2.39-7.82.91-.78,1.72-1.67,2.57-2.51a8.74,8.74,0,0,0,2.78-6.77,51.8,51.8,0,0,1,.34-6.09c.62-7.17,1.27-14.33,1.9-21.49.77-8.71,1.67-17.38,4.08-25.86s4.6-17.13,6.54-25.78c2.21-9.82,3.76-19.79,8.06-29,1.16-2.49,2.49-4.92,3.52-7.47,3-7.57,6-15.17,9-22.76a8.25,8.25,0,0,0,.36-5.64c-.93-2.85-1.7-5.84-3.5-8.24-5-6.67-7.22-14.54-10-22.18a38.47,38.47,0,0,1-1.72-5.84,63.45,63.45,0,0,1-.5-17.56c.45-5,1.06-10.14,2.75-14.8,1.88-5.2,3.39-10.49,4.92-15.77,2.16-7.48,4.42-14.94,5.73-22.64.82-4.84,1.52-9.69,2.31-14.53,1.85-11.36,3.89-22.68,7.16-33.74,1-3.57,2.12-7.12,3.07-10.71,1.25-4.75,2.23-9.58,3.63-14.28,2-6.78,4.33-13.47,5.65-20.44a6,6,0,0,1,1.39-3.42c1.16,4.76.81,9.23,1.46,13.58,2.68,17.87,1.86,35.89,2.35,53.85.23,8.23,0,16.52-.32,24.78-.4,10.76-.58,21.52-.83,32.29-.15,6.42.75,12.86-.78,19.28-1.93,8-3.08,16.26-5.2,24.23-2.82,10.55-4.89,21.25-7.14,31.91A52.3,52.3,0,0,0,1302,654c.39,2.53-.42,6.86,1,9,1.2,1.81,1.72-1.28,3-3,.3-.4,3.26-10.1,4-10v1.52c-.24,4.41-2,14.3-2.37,16.78a23.56,23.56,0,0,0,.52,9.2v0l0,.06a54.67,54.67,0,0,0,2.59,7.65h0l1,2.47a5.08,5.08,0,0,0,2.26,2.23c1.7,1.08,2.53,1.38,3,.69a5.59,5.59,0,0,0,.43-2.29c.06-1,0-1.92.08-2.87.26-8.51,2.84-30.42,5.49-38.47.07,2.24,0,6.25-.08,10.75h0c-.11,8-.18,17.62.81,21.53.17.68,0,1.55.93,1.76a1.76,1.76,0,0,0,2-1.18,14,14,0,0,0,1.48-7c-.33-4.9,1-9.51,2.31-14.08,2.1-7.37,4.71-14.59,6.82-22a49,49,0,0,0,2.15-12.36,143.94,143.94,0,0,0-3.47-34.25c-1.31-6-2.76-11.91-2.93-18.07-.3-10.67.51-21.32.51-32,0-13.42,0-26.84,1.55-40.21.67-5.59.83-11.23,1.24-16.84.26-3.47,1.13-7,.71-10.37a56,56,0,0,1,.52-14.66c1.66-12.5,2.51-25,3.35-37.6.26-3.82.63-7.64.95-11.46.37-4.53,1-9.06,1.08-13.6.17-11,.2-22.06,0-33.08C1342.88,357.27,1343.58,352.22,1342.63,347ZM795.83,778.68Zm456.9,9.77.31-.64.42-.15A9.11,9.11,0,0,1,1252.73,788.45Z" transform="translate(-455.35 -301.31)"/></g></svg>