<svg id="Layer_2" data-name="Layer 2" xmlns="http://www.w3.org/2000/svg" viewBox="0 0 1920 835.54"><defs><style>.cls-1{fill:#609cb0;}</style></defs><path class="cls-1" d="M0,251.67s39.5-6.17,65.5-7.17,76,16,76,16,36,19,57,35,37,38,55,40,38-6,57-7,41,4,54,2,27-16,27-16,15-19.72,23.5-24.36,18.17-3.36,29.33,0S509.5,330.5,509.5,330.5s42,23,71,33,65,36,65,36l60,57s18,17,31,22,44,42,44,42,3,7,34.5,19.5,56.5,37.5,70.5,40.5,47,10,61,16,35,35,35,35,10,16,25,25,38,15,56,16,61-12,71-18,34-42,60-60,50-28,64-38,16-18,34-30,37-24,49-39,55-21,55-21,79.67-2,88.83-8,24.17-37,52.17-40,48,16,84,12,63-14,70-22,22-20,42-21,69,8,81-12,22-30,42-35a44.65,44.65,0,0,0,28-21s3-11,20-11,16.5,5.83,16.5,5.83V1080H0Z" transform="translate(0 -244.46)"/></svg>