<svg id="Layer_4" data-name="Layer 4" xmlns="http://www.w3.org/2000/svg" viewBox="0 0 1926 439"><defs><style>.cls-1{fill:#4e828c;}</style></defs><path class="cls-1" d="M0,735.67C36,709,67,695,91,700s17-4,56,12,93.33,26.33,110.67,23.67S321,707,328,692s21-38,36-38,30-13,30-13c36,16,28,12,36,16s6.67,16.09,42.33,31.54S513,700,534,702s72,0,102,22,67,45,91,45,65-5,80-12,76-5,96-9,42-13.33,57-13.67S979,736,995,732s47,8,68,24,48,23,64,18,32-6.82,48,1.59S1216,815,1240,814s43-2,63-28,36-43,68-50,58.67,0,77.33-8.49S1486,700,1506,700s71,8,88,14,58,41,84,42,54,4,90-11,78-32,87-32,49-7,57-3l14,7-6,363H0Z" transform="translate(0 -641)"/><path class="cls-1" d="M960,1167.67" transform="translate(0 -641)"/></svg>
