<svg id="tree_front" data-name="tree front" xmlns="http://www.w3.org/2000/svg" viewBox="0 0 343.57 395.15"><defs><style>.cls-1{fill:#d45f00;}.cls-2{fill:#d18135;}.cls-3{fill:#d7a335;}</style></defs><g id="Layer_8" data-name="Layer 8"><path class="cls-1" d="M811.49,518.32c74.13-46.53,86.23-160.72,27-255-23.26-37.05-54.06-65.52-87.38-83.61a2.08,2.08,0,0,0-2.78,2.88A131.68,131.68,0,0,1,756,198.34c17.75,43.76,9.35,88.48-18.78,99.88a37.1,37.1,0,0,1-15.82,2.62c-25-1.17-52.67-25.28-67.24-61.2-12.49-30.79-12-62.06-.87-81.86a44.48,44.48,0,0,1,8.8-11.18,2.07,2.07,0,0,0-1.23-3.59h-.05c-18.27-1.41-35.86,8.63-50.23,26.4-9.5,11.8-17.59,27-23.5,44.49a187.43,187.43,0,0,0-10,49.77c-.18,3.27-.11.74-.16,5.5,0-1.39-.31,3.28-.53,3.84l-.32,2.43c-1.68,16.55-8.44,27.27-15.6,26.75-7.49-.53-12.54-15.28-11.27-32.94.64-8.69,2.68-16.46,5.48-22.05a2.08,2.08,0,0,0-2.66-2.86c-5.58,2.3-10.57,8.39-13.94,16.71,0,.11-.08.21-.11.32a175.37,175.37,0,0,0-4.34,24.24c-5.11,46.35,6.64,98.78,36.4,146.21C629.27,526.13,737.37,564.86,811.49,518.32Z" transform="translate(-532.5 -142.87)"/><g id="Layer_9" data-name="Layer 9"><path class="cls-2" d="M848.78,360.15c-5-64.74-42.72-106.35-55.41-117.79-1.61-1.46-4.51-.13-3.44,1.76,18.93,33.33-52.53,193.82-175.63,6.42a2.77,2.77,0,0,0-5,1.61c.17,29-2.57,116.2-42.75,91.89a2.93,2.93,0,0,0-4.34,3.31c8.22,28.09,20.47,62.37,66.36,115.83C656.38,495.61,708,509,733,508c28.42-1.14,32.92-1.74,53-12,23.41-12,39-31,49.16-56.52L847,401C847.4,400.48,850,376,848.78,360.15Z" transform="translate(-532.5 -142.87)"/></g><g id="Layer_10" data-name="Layer 10"><path class="cls-3" d="M828,395c2.9-18.88-2.57-73-13.41-95.36,0,0-55.49,145.3-171.27,44.61,0,0,12.88,71.71-27,46.85,0,0,26.58,54.39,66.77,80.64C716.15,493.33,778,483,814.17,431.81,818.86,425.18,826,408,828,395Z" transform="translate(-532.5 -142.87)"/></g></g></svg>