<svg id="ear_left" xmlns="http://www.w3.org/2000/svg" viewBox="0 0 202.82 210.65">
    <defs>
        <style>
            .cls-1{
                fill:none;
                stroke-width:30px;
            }
            .cls-1,.cls-2{
                stroke:#426968;
            }
            .cls-1,.cls-2,.cls-4{
                stroke-miterlimit:10;
            }
            .cls-2,.cls-3{
                fill:#426968;
            }
            .cls-2,.cls-4{
                stroke-width:5px;
            }
            .cls-4{
                fill:#dce1de;
                stroke:#dce1de;
            }
        </style>
    </defs>
    <path class="cls-1" d="M-286.57,928" transform="translate(-397.65 -383.43)"/>
    <path class="cls-1" d="M-286.57,928" transform="translate(-397.65 -383.43)"/>
    <path class="cls-2" d="M459.07,475.76a71.68,71.68,0,0,1-7.92-2.8c-2.76-1.17-4.93-2.3-9.16-4.53-5.91-3.12-7.13-4-10.61-5.39-4.69-1.9-6.57-2-7.91-1.94a18.48,18.48,0,0,0-6.87,1.73,42.91,42.91,0,0,0-10,6,20,20,0,0,0-4.78,4.74,8.61,8.61,0,0,0-1.46,3,9.35,9.35,0,0,0,0,3.88,15.26,15.26,0,0,0,1.46,4.53,23.61,23.61,0,0,0,6.24,7.33c3.58,3.06,7.6,6.49,13.95,9.05a25.72,25.72,0,0,0,8.12,2.16,23,23,0,0,0,7.7-.65,22.3,22.3,0,0,0,7.91-3.45,16.73,16.73,0,0,1,4-2.15,4.63,4.63,0,0,1,2.29,0,36.33,36.33,0,0,1,8.12,3.23" transform="translate(-397.65 -383.43)"/>
    <path class="cls-2" d="M539.1,475.37a71,71,0,0,0,7.94-2.68c2.78-1.13,5-2.23,9.22-4.4,6-3,7.2-3.87,10.69-5.23,4.71-1.84,6.6-1.92,7.94-1.83a18.75,18.75,0,0,1,6.85,1.82,43.52,43.52,0,0,1,9.91,6.18,19.86,19.86,0,0,1,4.72,4.82,8.57,8.57,0,0,1,1.42,3,9.26,9.26,0,0,1-.06,3.88,15.45,15.45,0,0,1-1.51,4.5,23.65,23.65,0,0,1-6.35,7.24c-3.62,3-7.68,6.38-14.07,8.85a25.54,25.54,0,0,1-8.14,2,23,23,0,0,1-7.7-.76,22.58,22.58,0,0,1-7.86-3.56,16.77,16.77,0,0,0-3.93-2.21,4.82,4.82,0,0,0-2.29,0,36.15,36.15,0,0,0-8.16,3.12" transform="translate(-397.65 -383.43)"/>
    <g id="outline">
        <path class="cls-3" d="M499.24,446.44a46.71,46.71,0,0,1-17.48-2.8,43,43,0,0,1-12.49-6.25c-5.29-3.94-12.49-10.14-16.45-19.19-3.72-8.52-4.58-12.07-5.62-18.76a53.81,53.81,0,0,1-.42-9.27c-.2-2.69-.73-3.49-1-3.88a3.16,3.16,0,0,0-2.29-1.29c-1.11,0-2,1.05-2.7,2.16-3.48,5.45-5.42,17.66-6.25,23.06a63.29,63.29,0,0,0-.83,8,55.83,55.83,0,0,0,.21,7.55c1,9.26,7.94,17.54,11.86,22.2,1.69,2,4.94,5.64,8.75,11a28,28,0,0,1,3.12,5.39,29.12,29.12,0,0,1,2.08,8.41c.38,3.9-.3,4.5-.42,12.72,0,1,0,2.51,0,4.31a104.8,104.8,0,0,0,1,12.51c1.62,11.91.75,12.34,2.5,23.49,1,6.38,1.53,9.64,2.92,13.16,3,7.6,3.95,9.48,3.95,9.48a22,22,0,0,1,1.67,4.1,23.37,23.37,0,0,1,.83,4.74,33.94,33.94,0,0,1-.42,6.9c-.82,7.15-1,7.5-.83,9.05a19.31,19.31,0,0,0,6.25,12.51,23.22,23.22,0,0,0,6.87,4.09c7.08,3.24,19.52,2.79,19.56,2.56" transform="translate(-397.65 -383.43)"/><path class="cls-3" d="M499.24,444.94a50.33,50.33,0,0,1-18.94-3.41,46.88,46.88,0,0,1-15.5-9.72,48.27,48.27,0,0,1-6.5-7.13,46,46,0,0,1-5.22-9.66,63.69,63.69,0,0,1-4.6-17.21c-.29-2.51-.08-5-.19-7.49-.09-2.14-.49-4.41-2.24-5.82-5.69-4.59-9,6.94-10.05,10.57a136,136,0,0,0-3.16,16.13c-.9,6.17-1.35,13,.4,19,3.47,12,13.79,20.36,20.62,30.42a25.19,25.19,0,0,1,4.44,14.64c0,1.91-.28,3.82-.38,5.72-.19,3.55-.23,7.12-.09,10.67.24,6.13,1.33,12.15,1.86,18.25.44,5.06.75,10.09,1.51,15.13.49,3.27,1,6.57,1.71,9.8a55.17,55.17,0,0,0,2.86,8.19c.75,1.83,1.49,3.66,2.31,5.45a36,36,0,0,1,1.61,3.72c1.77,5.41.71,10.91,0,16.41a26.48,26.48,0,0,0-.34,4,20.43,20.43,0,0,0,1.91,7.6c5.11,11.19,18.49,13.87,29.61,13.81,1,0,3,.24,3.76-.6,1.26-1.45-.85-3.58-2.12-2.12,0,0,.73-.59.51-.34.07-.08.39,0,.07,0l-.87,0c-.89,0-1.78,0-2.67,0a56.27,56.27,0,0,1-7.77-.63c-6-1-12.35-3.37-16-8.47a16.36,16.36,0,0,1-3.33-10.83c.47-4.93,1.71-10,1.13-14.92a24.29,24.29,0,0,0-2.36-8c-.34-.68-.65-1.35-1-2a67.77,67.77,0,0,1-4.94-14.34,146.44,146.44,0,0,1-2.29-17.2c-.35-5.17-1-10.28-1.62-15.43a106.29,106.29,0,0,1-.39-19.7c.11-1.64.32-3.28.28-4.92a30.2,30.2,0,0,0-1.35-8.12c-1.79-5.8-5.78-10.62-9.57-15.25-3.29-4-6.82-7.83-9.67-12.19a36.37,36.37,0,0,1-4.34-8.74,28.35,28.35,0,0,1-1.22-8,84.08,84.08,0,0,1,1.79-17.54c1-5.32,2-11.15,4.64-15.94.49-.89,1.39-2.77,2.57-1.9a3.41,3.41,0,0,1,.46.47c.19.22-.13-.23,0,0a3.33,3.33,0,0,1,.36.94c.58,2.24.19,4.64.28,6.93A57.29,57.29,0,0,0,448.69,412c2.36,6.51,5.3,12.59,9.91,17.81a55.23,55.23,0,0,0,14.07,11.58A53.82,53.82,0,0,0,491,447.47a49,49,0,0,0,8.29.47c1.93-.06,1.94-3.06,0-3Z" transform="translate(-397.65 -383.43)"/>
    </g>
    <g id="outline-2" data-name="outline">
        <path class="cls-3" d="M499.16,446.47a46.57,46.57,0,0,0,17.49-2.81,42.49,42.49,0,0,0,12.49-6.25c5.29-3.94,13.82-12.53,17.15-19.86,3.85-8.46,3.88-11.4,4.92-18.08a52.36,52.36,0,0,0,.41-9.27c.2-2.69.73-3.5,1-3.88A3.16,3.16,0,0,1,555,385c1.11,0,2,1.05,2.7,2.15,3.48,5.46,5.41,17.67,6.25,23.07a64.78,64.78,0,0,1,.83,8,55.65,55.65,0,0,1-.21,7.54c-1,9.26-7.94,17.55-11.86,22.21-1.69,2-4.94,5.64-8.75,11a27.69,27.69,0,0,0-3.12,5.39,28.24,28.24,0,0,0-2.08,8.41c-.39,3.9.29,4.49.41,12.72,0,1,0,2.51,0,4.31a100.18,100.18,0,0,1-1,12.5c-1.62,11.91-.74,12.34-2.5,23.5-1,6.38-1.53,9.64-2.91,13.15-3,7.61-4,9.49-4,9.49a21.77,21.77,0,0,0-2.49,8.84,32.9,32.9,0,0,0,.41,6.89c.82,7.15,1,7.5.84,9.06a19.26,19.26,0,0,1-6.25,12.5,23.17,23.17,0,0,1-6.87,4.1c-7.08,3.23-19.53,2.78-19.56,2.56" transform="translate(-397.65 -383.43)"/>
        <path class="cls-3" d="M499.16,448a50.53,50.53,0,0,0,34.38-12.23A63.77,63.77,0,0,0,546,421.22a46.59,46.59,0,0,0,5.86-16.32,87.9,87.9,0,0,0,1.2-9.14c.13-2.28-.23-4.66.19-6.92a6.11,6.11,0,0,1,.32-1.21,3.12,3.12,0,0,1,.2-.35s-.13.11.1-.11c.41-.4.78-.8,1.36-.49a4.29,4.29,0,0,1,1.36,1.7,30.56,30.56,0,0,1,2.79,7.18,129.3,129.3,0,0,1,3.12,15.6c.91,6,1.42,12.61-.32,18.5s-5.53,11.14-9.45,15.87c-3.68,4.42-7.46,8.74-10.71,13.5a28.74,28.74,0,0,0-4.95,15.31,48.52,48.52,0,0,0,.27,5c.22,3,.29,6.06.27,9.09,0,6.33-1,12.49-1.66,18.76-.51,4.75-.66,9.52-1.26,14.25-.74,5.79-1.44,11.9-3.59,17.37-1.22,3.11-2.4,6.27-3.9,9.26a24.75,24.75,0,0,0-2.41,8.14,31.94,31.94,0,0,0,.23,7.31c.45,3.92,1.46,8,.55,11.91a18,18,0,0,1-3,6.54,19.46,19.46,0,0,1-8.15,6.19c-4.92,2.24-10.43,2.82-15.79,2.91-.85,0-1.69,0-2.54,0l-.82,0c-.26,0-.13,0-.11,0s.49.18.64.36c-1.27-1.46-3.38.67-2.12,2.12.74.86,2.88.59,3.87.59a61.26,61.26,0,0,0,7.54-.43c6.09-.74,12.51-2.58,17.14-6.82A20.59,20.59,0,0,0,529,572.55a29,29,0,0,0-.38-4.16c-.36-3-.86-6.08-1-9.13-.12-4,1.12-7.35,2.71-10.87,2-4.48,4.13-9.12,5.21-13.93,2.48-11.15,2.78-22.61,4.23-33.9a107.48,107.48,0,0,0,.62-20.13c-.1-1.82-.35-3.63-.35-5.45a26.64,26.64,0,0,1,1.3-7.92c1.73-5.51,6.1-10.66,10-15.32,3.49-4.14,7.08-8.22,9.88-12.88a35.26,35.26,0,0,0,4.07-9.36,34.62,34.62,0,0,0,.9-8.3,91.61,91.61,0,0,0-2.06-18.14c-1-5.46-2.16-11.47-5.05-16.31a6.24,6.24,0,0,0-3.32-3.08,4.07,4.07,0,0,0-4,1.29c-1.45,1.5-1.75,3.8-1.76,5.8a57.4,57.4,0,0,1-.38,8.49c-.39,2.59-.7,5.21-1.28,7.78a43.27,43.27,0,0,1-8,17,59.94,59.94,0,0,1-13.8,13.27,49.49,49.49,0,0,1-18.8,7.08,45.07,45.07,0,0,1-8.68.55c-1.93-.06-1.93,2.94,0,3Z" transform="translate(-397.65 -383.43)"/>
    </g>
    <path class="cls-2" d="M460.37,466.12a44.22,44.22,0,0,0,6.4-1.85,16.81,16.81,0,0,0,5-3,14.87,14.87,0,0,0,1.86-2.39c3.5-4.31,5-9.67,3.94-6.48,1-3,1-7.54.62-10.78" transform="translate(-397.65 -383.43)"/>
    <path class="cls-2" d="M539.94,467.48c-1.87-.25-8.14-2.67-8.14-2.67a17.58,17.58,0,0,1-6.38-4.43c-2.35-2.52-2.8-3.19-4.24-7.62-1-3-.91-7.57-.44-10.79" transform="translate(-397.65 -383.43)"/>
    <path class="cls-4" d="M481,507.71a19.92,19.92,0,0,0-1.05-6.25,15.24,15.24,0,0,0-2.7-5.6c-1.18-1.44-3-3.14-4.37-2.81a3.25,3.25,0,0,0-1.88,1.3,10.15,10.15,0,0,0-1,4.52c0,1.84,0,1.94,1,5.18a8,8,0,0,0,2.71,3.88,13.92,13.92,0,0,0,2.91,1.94,5.8,5.8,0,0,0,3.54.65C480.64,510.32,481,508.89,481,507.71Z" transform="translate(-397.65 -383.43)"/>
    <path class="cls-4" d="M517.25,507.71a20.09,20.09,0,0,1,1-6.25,15.24,15.24,0,0,1,2.7-5.6c1.19-1.44,3-3.14,4.38-2.81a3.22,3.22,0,0,1,1.87,1.3,10.15,10.15,0,0,1,1,4.52c0,1.84,0,1.94-1,5.18a8,8,0,0,1-2.71,3.88,13.67,13.67,0,0,1-2.91,1.94,5.8,5.8,0,0,1-3.54.65C517.59,510.32,517.25,508.89,517.25,507.71Z" transform="translate(-397.65 -383.43)"/>
</svg>