<svg xmlns="http://www.w3.org/2000/svg" viewBox="0 0 1076.55 572.77"><defs><style>.cls-1{fill:#5f210f;}.cls-2{fill:#5d2511;stroke:#5d2511;}.cls-2,.cls-4,.cls-5,.cls-6{stroke-miterlimit:10;}.cls-2,.cls-6{stroke-width:3px;}.cls-3,.cls-4{fill:#fff;}.cls-4{stroke:#000;}.cls-5{fill:#700;stroke:#9f6b55;stroke-width:13px;}.cls-6{fill:#41210f;stroke:#41210f;}.cls-7{fill:#8f2127;}.cls-8{fill:#51210f;}.cls-9{fill:#e0d6d1;}</style></defs><g id="Layer_3" data-name="Layer 3"><path class="cls-1" d="M503.1,571.13a92.26,92.26,0,0,0-12.21,19.5c2.71-13.14,6-20.88,9.61-20.88A3.63,3.63,0,0,1,503.1,571.13Z" transform="translate(-481.95 -302.79)"/><path class="cls-2" d="M1556.84,689.77v-.06C1539.66,877.42,1514,744,1514,744c-24,165-59,5-59,5-51,246-102,1-102,1-31,148-65,4-65,4-52,197-50-29-50-29-40,139-86.36,9-86.36,9-41.36,202-93.64,7-93.64,7-46,141-55.47-31.5-55.47-31.5C964.06,928,917,741,917,741c-27,190-82,5-82,5,0,102-51,24-51,24-39,198-77,15-77,15-28,124-44-28-44-28-57,196-79-9-79-9-42,188.95-43-25-43-25-36.11,101.68-54.7-22.07-56.5-36.5-2-7-.66-57.25,0-67,2.41,11.14,9.06,38.11,17.41,47,32.5,36.08,111.86,61.56,204.58,61.56,83,0,128.57-17,192.1-28,49.41-6,82.47-11,129.07-11,75.65,0,131.09,4,177.47,7,40.34,5,70,7.11,112.16,19q8.76,2.07,17.12,4.27l.12,0c9.16,2,18.62,3.67,28.32,4.92,70,9,133.41-5.55,166.36-34.23l0,0c13.06-11.37,21.33-25,23.32-40.21a54.49,54.49,0,0,0,.45-6.74c0-1.86-.09-3.76-.25-5.68,0-.23,0-.46-.06-.69-1.17-13.11-5.6-27.46-13-42.64.26-.09,12.76,28.2,12.79,28.46C1556.5,654.5,1555.71,635.59,1556.84,689.77Z" transform="translate(-481.95 -302.79)"/></g><g id="Layer_2" data-name="Layer 2"><path class="cls-3" d="M1495.78,656a66.34,66.34,0,0,0,8-12.14q-1.05,2.24-2.31,4.36A50.93,50.93,0,0,1,1495.78,656Z" transform="translate(-481.95 -302.79)"/><path d="M1509.48,618.49a54.49,54.49,0,0,1-.45,6.74c-2,15.24-10.17,28.84-23.12,40.21a54.74,54.74,0,0,0,16-17c5.22-8.79,7.68-18.89,7.59-30Z" transform="translate(-481.95 -302.79)"/><path class="cls-4" d="M1509.48,618.49c0-1.86-.09-3.76-.25-5.68A51.4,51.4,0,0,1,1509.48,618.49Z" transform="translate(-481.95 -302.79)"/><path class="cls-5" d="M1549.48,638.49a54.49,54.49,0,0,1-.45,6.74c-2,15.24-10.17,28.84-23.12,40.21l0,0c-32.68,28.68-95.57,43.22-165,34.23q-14.43-1.87-28.09-4.92l-.11,0q-8.3-2.21-17-4.27c-41.83-11.86-71.23-14-111.23-19-46-3-101-7-176-7-46.21,0-79,5-128,11-63,11-108.24,28-190.5,28-92,0-170.65-25.48-202.88-61.56-9-9.69-14.91-20.86-16.88-33.2C481.71,575.29,535.56,522.76,628,508c2.4-.39,10.19-1.63,16.74-2.64,5.4-.83,12.86-1.53,18.26-2.36,13-2,20.38-3.28,29-5,35-7,46-12,73-20,79.55-23.52,89.73-33.5,127-62,17-13,31-33,38-41s14.09-16.36,19.64-22.57c24.76-27.66,65.1-42.8,110.36-42.6,66.83-5.08,169.47,25.63,272,86.45,125.46,74.44,211.44,170.65,217.19,235.84,0,.23,0,.46.06.69C1549.39,634.73,1549.48,636.63,1549.48,638.49Z" transform="translate(-481.95 -302.79)"/></g><g id="Layer_4" data-name="Layer 4"><path class="cls-6" d="M1557,704.51c0,56.69-6.26,103.52-14.35,110.65a1,1,0,0,0-.27.32,79.37,79.37,0,0,1-15,18.51l0,0c-32.68,30.2-95.57,45.5-165,36q-14.43-2-28.09-5.18l-.11,0q-8.3-2.33-17-4.5c-41.81-12.48-71.21-14.7-111.19-20h-.08c-46-3.16-101-7.37-176-7.37-46.2,0-79,5.27-128,11.57l-.08,0c-63,11.58-108.22,29.47-190.46,29.47-91.95,0-170.65-26.82-202.88-64.81A68.94,68.94,0,0,1,493,780.74v0c-5.34-18.48-9-56-9-99.38v-.18a1.42,1.42,0,0,1,2.82-.22c6,38.38,23.06,120.65,51.54,48.14a1.42,1.42,0,0,1,2.74.48c.66,35.74,5.57,179.82,41.11,25.31A1.42,1.42,0,0,1,585,755c4.81,35.48,27.34,169.58,76,7.63a1.41,1.41,0,0,1,2.76.22c3.51,27.63,18.26,125.1,41.79,27.19a1.42,1.42,0,0,1,2.76,0c7,29.77,40.55,153.42,75-17.73a1.41,1.41,0,0,1,2.54-.55c8.91,12.46,46.46,60.12,49-18.1a1.42,1.42,0,0,1,2.76-.42c11.1,33.24,54.67,148.73,78.38-6.52a1.42,1.42,0,0,1,2.77-.18c8.75,30.5,48.13,150.6,81.76-27.11a1.42,1.42,0,0,1,2.81.13c3,35.25,15.61,136.57,53.2,24.85a1.42,1.42,0,0,1,2.71,0c8.11,27.6,54,169.68,91.4-6.7a1.42,1.42,0,0,1,2.7-.25c8.52,21.08,47.13,105.22,81.89-4.34a1.42,1.42,0,0,1,2.77.4c.33,40.43,4.47,188.47,48.58,24.72a1.42,1.42,0,0,1,2.74,0c6.48,24.1,35.31,118.24,62.3-2.92a1.42,1.42,0,0,1,2.76,0c8.45,36.41,53.69,211.41,99.29-1.07a1.42,1.42,0,0,1,2.76-.05c6.73,27.27,35.39,130.08,56.4-3.53a1.42,1.42,0,0,1,2.78-.11c5.9,25.37,26.61,97.64,41.2-61.81v.06C1556.94,693.91,1557,699.17,1557,704.51Z" transform="translate(-481.95 -302.79)"/></g><g id="Layer_6" data-name="Layer 6"><path class="cls-7" d="M1428,611.66a35.1,35.1,0,0,1-.36,4.79c-1.57,10.81-8.09,20.47-18.4,28.54h0c-26,20.36-76.09,30.68-131.35,24.3q-11.49-1.34-22.36-3.5l-.09,0q-6.6-1.56-13.52-3c-33.3-8.42-56.71-9.91-88.55-13.46-36.62-2.13-80.39-5-140.12-5-36.79,0-62.89,3.55-101.91,7.81C861.17,659.93,825.15,672,759.66,672c-73.2,0-135.86-18.09-161.52-43.69-7.19-6.88-11.87-14.81-13.44-23.57-6.79-37.94,36.08-75.22,109.68-85.7,1.91-.27,8.11-1.16,13.32-1.87,4.3-.59,10.24-1.09,14.54-1.68,10.35-1.42,16.23-2.32,23.09-3.55,27.87-5,36.63-8.52,58.12-14.19,63.33-16.7,71.43-23.78,101.11-44,13.53-9.22,24.68-23.42,30.25-29.1s11.22-11.61,15.64-16c19.71-19.63,51.82-30.37,87.86-30.23,53.2-3.61,134.92,18.19,216.53,61.36,99.88,52.83,168.34,121.12,172.91,167.39,0,.16,0,.33,0,.49C1427.93,609,1428,610.34,1428,611.66Z" transform="translate(-481.95 -302.79)"/></g><g id="Layer_7" data-name="Layer 7"><path class="cls-8" d="M1072,425.52a13.34,13.34,0,0,1-.24-1.94C1071.86,424.22,1071.94,424.87,1072,425.52Z" transform="translate(-481.95 -302.79)"/><path class="cls-8" d="M1251.86,567.69q3.12,2.1,6.06,4.23C1255.77,570.5,1253.74,569.09,1251.86,567.69Z" transform="translate(-481.95 -302.79)"/><path class="cls-8" d="M1280.44,548.65q-7-1.93-14.38-4.25C1270.55,545.48,1275.39,546.9,1280.44,548.65Z" transform="translate(-481.95 -302.79)"/><path class="cls-9" d="M1348.3,595.3c-3.8,8.43-31.27,4.28-61.35-9.27a190.67,190.67,0,0,1-26-14.11q-2.94-2.13-6.06-4.23l-1.27-1-.1,0A323.28,323.28,0,0,0,1207,541.31c-34.7-15.62-68-24.07-91.61-24.47h-.05c-2.75-.36-5.68-.64-8.77-.83-3.63-.24-7.49-.37-11.56-.39-9.13,0-19.28.46-30.2,1.51-6.28.59-12.81,1.37-19.54,2.34-14.12,2-29,5.47-44.63,8.43-11.89,2.25-20.17,4.91-38.66,9.1-.43.1,0,0-6,2-2.33.78-7.63,2.62-9.9,3.56l-6.73,2.8c-15.32,8-41.57,17.1-72,24.2-49.75,11.6-91.81,13.6-93.94,4.46s36.47-26,86.22-37.58c14.25-3.32,20.14-4.73,32.36-6.44,4.2-.7,8.49-1.3,10.62-1.67q2.79-.48,5.6-.76c7-.75,10.8-1.29,18.91-2.46,40.75-5.89,75.88-16.34,95.72-27.37,2-1.13,3.88-2.25,5.57-3.39,8.09-5.4,12.34-10.85,11.61-15.87-.84-5.78-.09-10.55-12-13.48.2-.66-7.63-1-7.39-1.64A23.91,23.91,0,0,1,1008,453c-7.87-13.63.09-33,17.79-43.18s38.42-7.45,46.29,6.18a22.53,22.53,0,0,1,2.71,7.58,13.34,13.34,0,0,0,.24,1.94,26.26,26.26,0,0,1,0,4.52c.5,0,.55,4.93,1,5,5,11.58,21.07,21.79,44,37.78q3.87,2.72,8,5.45c21,13.9,47.17,28.23,76.27,41.33a581.46,581.46,0,0,0,64.79,24.84q7.23,2.28,14.12,4.18l.26.07h0c5.54,1.91,11.34,4.2,17.24,6.86C1330.78,569.06,1352.09,586.87,1348.3,595.3Z" transform="translate(-481.95 -302.79)"/></g></svg>