<svg id="syringe" xmlns="http://www.w3.org/2000/svg" viewBox="0 0 1081.73 262.02">
<defs>
<style>
.cls-1{fill:#00364a;}
.cls-2{fill:#4a5c64;}
.cls-3{fill:#56717c;}
.cls-4{fill:#415b67;}
.cls-5,.cls-8{fill:#38515b;}
.cls-6{fill:#59727c;}
.cls-7{fill:#374b65;}
.cls-9{fill:#79a3b5;opacity:0.5;/*container*/}
.cls-10{fill:#5a8193;opacity:0.5;/*container_shadow*/}
</style>
</defs>
<g id="tip">
<path class="cls-1" d="M1427.3,508.57a17.73,17.73,0,0,0,5.38,1.24,22.14,22.14,0,0,0,2.59.08q6.74-.12,13.48-.11c18.1,0,36.21.5,54.3.39,13.88-.07,27.74,0,41.62,0q32.41,0,64.83.15c21,.09,41.9-.45,62.85.29a36.69,36.69,0,0,1,5.73.65c2.48.49,3.72,2.06,3.57,4.71s-1.32,4.51-4.13,4.64c-4.11.2-8.23.27-12.34.27-20.21,0-40.41-.18-60.62-.2-13,0-26,.15-39,.14q-30.11,0-60.23-.15-28.62-.08-57.22-.15h-20.78a12,12,0,0,1-1.58-5.22,12.1,12.1,0,0,1,1.55-6.75Z" transform="translate(-599.93 -377.63)"/>
<path class="cls-2" d="M1372.28,511.27a5.93,5.93,0,0,1,0,2.1l0,2.64,34.63-.45,18.82-.24a12,12,0,0,0,1.58,5.22,17,17,0,0,0-8.5,2.18c-7.59,3.29-5.16,2.6-7.07,3.28l-2.37.81-.48.17c-6.17,2.12-2.67,1.33-6.35,2.16-7.62,1.71-15,1.43-21.78,1.27q-1.52,0-3,0a27,27,0,0,1-5.54-14.46q-.09-1.11-.09-2.19c0-.73,0-1.46.07-2.17v-.18Z" transform="translate(-599.93 -377.63)"/>
<path class="cls-3" d="M1317.61,498.56l-.07.63.47.36c-.23.52-.44,1-.63,1.53l47.6,4.59h0a6.73,6.73,0,0,1,2.35.22,6.92,6.92,0,0,1,2.34,1.19,6.74,6.74,0,0,1,2.54,4,1,1,0,0,1,0,.17h0l0,.17v.18c-.06.71-.08,1.44-.07,2.17s0,1.45.09,2.19a27,27,0,0,0,5.54,14.46,40,40,0,0,0-10.29,1.77c-5.29,1.65-11,.82-16.5.7-1.92,0-3.84,0-5.76.07-6.06.23-12.08.95-18.11,1.62a4.61,4.61,0,0,0-3.09,1.36l-.19-.13-.45-.31-.5-.37a11.26,11.26,0,0,1-1-.85,12.17,12.17,0,0,1-1-1,18.7,18.7,0,0,1-1.24-1.55c-.38-.55-.74-1.13-1.07-1.72a23.51,23.51,0,0,1-1.68-3.89c-.23-.69-.43-1.41-.62-2.14l-.09-.36c0-.21-.1-.43-.14-.64s-.11-.56-.16-.84c0,0,0,0,0,0-.1-.54-.2-1.09-.26-1.66,0-.22-.07-.43-.09-.64a1.5,1.5,0,0,1,0-.22c0-.28-.07-.59-.1-.88v0c-.11-1.17-.17-2.36-.18-3.58,0-.31,0-.62,0-.93,0-.62,0-1.24,0-1.86l0-1c0-.46.05-.91.09-1.33a43,43,0,0,1,2-11C1317.47,498.91,1317.54,498.74,1317.61,498.56Z" transform="translate(-599.93 -377.63)"/>
<path class="cls-4" d="M1318.9,485.11l.08-.91c.3.49.58,1,.85,1.56a.93.93,0,0,0,.05.1Z" transform="translate(-599.93 -377.63)"/>
<path class="cls-4" d="M1308.23,492.63a4.54,4.54,0,0,1,.09-.51l9.09,7c.06-.18.13-.35.2-.53l-.07.63.47.36c-.23.52-.44,1-.63,1.53a29.56,29.56,0,0,0-1.94,9c0,.42-.06.87-.09,1.33l0,1c0,.62,0,1.24,0,1.86,0,.31,0,.62,0,.93,0,1.22.07,2.41.18,3.58v0c0,.29.06.6.1.88a1.5,1.5,0,0,0,0,.22c0,.21,0,.42.09.64.06.57.16,1.12.26,1.66,0,0,0,0,0,0,0,.28.1.56.16.84s.09.43.14.64l.09.36a18.25,18.25,0,0,0,.62,2.14,20.65,20.65,0,0,0,1.68,3.89,16.57,16.57,0,0,0,1.07,1.72,13.37,13.37,0,0,0,1.24,1.55,12.17,12.17,0,0,0,1,1,11.26,11.26,0,0,0,1,.85l.5.37.45.31.19.13a3.87,3.87,0,0,0-.89,2.11,11.92,11.92,0,0,1-.92,2.13l-.7,1.9c-2,5.09-3.21,7.17-5.31,8A64.26,64.26,0,0,1,1309,531.7a94.34,94.34,0,0,1-2.4-21.58q0-3.78.29-7.43c.08-.91.16-1.82.25-2.72l.12-1.14c.18-1.55.41-3.08.66-4.58C1308,493.71,1308.12,493.16,1308.23,492.63Z" transform="translate(-599.93 -377.63)"/>
<path class="cls-5" d="M1264.14,475l.09.08a82.48,82.48,0,0,0-3.65,12l47.09,4.53.74.08q0,.19-.09.42a4.54,4.54,0,0,0-.09.51c-.11.53-.2,1.08-.3,1.62-.25,1.5-.48,3-.66,4.58,0,.37-.08.76-.12,1.14-.09.9-.17,1.81-.25,2.72q-.27,3.65-.29,7.43a94.34,94.34,0,0,0,2.4,21.58,64.26,64.26,0,0,0,7.23,18.41c-2.06.84-4.94.51-10.12.67-12.35.39-24.72.25-37.08.17a4.22,4.22,0,0,0-3.09.95c-.81-1.89-1.59-3.85-2.3-5.9-.23-.71-.48-1.43-.7-2.15q-1-3.09-1.78-6.39c-.21-.85-.41-1.71-.59-2.57v0a113.8,113.8,0,0,1-2.46-19.49,109.86,109.86,0,0,1,2.38-28.3c.12-.55.24-1.09.38-1.63.26-1.05.52-2.08.81-3.08.14-.52.29-1,.45-1.54s.31-1,.47-1.5c.33-1,.67-2,1-3C1263.8,475.89,1264,475.47,1264.14,475Z" transform="translate(-599.93 -377.63)"/>
<path class="cls-6" d="M1250.16,476.6l0,0,.27-.19a3.07,3.07,0,0,1,.31-.17,4.17,4.17,0,0,1,.58-.24,4.81,4.81,0,0,1,.68-.14,4.06,4.06,0,0,1,.7,0,4.67,4.67,0,0,1,2.12.59,4.38,4.38,0,0,1,.66.43,4.83,4.83,0,0,1,1.4,1.68l0,.06.22.52,3.29,8,0,0c.12-.55.24-1.09.38-1.63.26-1.05.52-2.08.81-3.08.14-.52.29-1,.45-1.54s.31-1,.47-1.5c.33-1,.67-2,1-3,.16-.45.33-.87.49-1.3l.1.08a82.48,82.48,0,0,0-3.65,12l0,.14a110.12,110.12,0,0,0-2.39,28.34,113.88,113.88,0,0,0,2.41,19.3v0c.18.86.38,1.72.59,2.57q.8,3.3,1.78,6.39c.22.72.47,1.44.7,2.15.72,2.12,1.52,4.15,2.36,6.09a5.23,5.23,0,0,0-1.34,2.75c-1.34,5.74-2.14,11.61-4.9,17a8.29,8.29,0,0,1-.62,1c.19-.29.35-.59.52-.9,2.76-5.4,1.46-6.34-1.66-11.34-4.52-7.25-4.71-8.65-5.87-12.06-4.41-10.16-4.48-19.11-5-32.86-.63-15.28-.15-22.8,2-33.78a4.79,4.79,0,0,1,0-.82c.05-.37.11-.81.2-1.31,0-.26.09-.52.14-.81a1.36,1.36,0,0,0,.06-.29c.1-.48.2-1,.31-1.47a.15.15,0,0,1,0-.06A1.06,1.06,0,0,1,1250.16,476.6Z" transform="translate(-599.93 -377.63)"/>
<path class="cls-7" d="M1251.35,449.75c3.41,2,4.6,6.19,6.33,9.58A88,88,0,0,1,1263,473a4.33,4.33,0,0,0,1.18,2,81,81,0,0,0-3.64,12l-3.31-8-.22-.52,0-.06a4.83,4.83,0,0,0-1.4-1.68,4.43,4.43,0,0,0-5.32-.25,1.12,1.12,0,0,0-.41.68c-.31,1.44-.61,2.92-.71,3.88a4.79,4.79,0,0,0,0,.82c-2.12,11-2.6,18.5-2,33.78.56,13.75.63,22.7,5,32.86,1.16,3.41,1.35,4.81,5.87,12.06,3.12,5,4.42,5.94,1.66,11.34-.17.31-.33.61-.52.9-.07.11-.15.22-.21.33l-.24.33a9.63,9.63,0,0,1-2.37,2.2c-9.55-13.71-13.57-38.24-13.91-66-.24-20.23,1.08-38.52,5.78-52.38a57.66,57.66,0,0,1,3.07-7.47A1.3,1.3,0,0,1,1251.35,449.75Z" transform="translate(-599.93 -377.63)"/>
<path class="cls-8" d="M1251.25,449.9l0,0a57.66,57.66,0,0,0-3.07,7.47c-4.7,13.86-6,32.15-5.78,52.38.34,27.74,4.36,52.27,13.91,66a9.63,9.63,0,0,0,2.37-2.2,9.79,9.79,0,0,1-2.47,2.35c-9.55-13.72-13.57-38.24-13.91-66-.25-20.33,1.1-38.71,5.84-52.59A59.14,59.14,0,0,1,1251.25,449.9Z" transform="translate(-599.93 -377.63)"/>
<path class="cls-7" d="M1264.18,474.92a3.91,3.91,0,0,0,2.36.64h.2c11.59.1,23.16.43,34.74.36,4.58,0,8.15.52,11,1.92a12.72,12.72,0,0,1,2.31,1.43,16.39,16.39,0,0,1,4.17,4.93h0l.9,1.66c.47,1,.93,2,1.36,3.19a17.24,17.24,0,0,0,1.13,2.22s0,0,0,0a4.93,4.93,0,0,0,1.2,1.17,6.29,6.29,0,0,0,3.6,1.05c6.85.15,13.7.34,20.54.51q5.17.13,10.33.23c4.72.08,9.42.05,14,1.27a24.55,24.55,0,0,1,3.47,1.19,8.7,8.7,0,0,0,2.16.61l.57.07c2.5.28,5.1-.26,7.61-.29a73.56,73.56,0,0,1,20.73,2.76c1.33.37,2.63.8,3.91,1.26,5.74,2.12,11,5.05,16.52,7.39l.28.1a12.1,12.1,0,0,0-1.55,6.75l-18.82.24-34.63.45,0-2.64a5.93,5.93,0,0,0,0-2.1h0a1,1,0,0,0,0-.17,6.74,6.74,0,0,0-2.54-4,6.92,6.92,0,0,0-2.34-1.19,6.73,6.73,0,0,0-2.35-.22h0l-47.6-4.59c.19-.51.4-1,.63-1.53l-.47-.36s-.07-.28-.13-.1l-9.09-7c0-.15-.65-.5-.65-.5l-47.09-4.53a82.48,82.48,0,0,1,3.65-12l-.1-.08Z" transform="translate(-599.93 -377.63)"/>
</g>
<g id="body">
<path class="cls-9" d="M622.7,379.76a34.33,34.33,0,0,1,3.22,2.43C619.16,384,613.8,400,613.7,419.56c-.09,20.77,5.79,37.64,13.14,37.68a2.3,2.3,0,0,0,.52,0l617.23,14.67c-1.83,11.16-2.39,24-2.22,37.7.34,27.74,4.36,52.26,13.9,66a14.31,14.31,0,0,1-4.27,1.8c-8.14,2.18-16.44,1-24.63,1-12.1-.06-24.19.23-36.29.16-20.73-.11-41.45-.08-62.18-.09-22,0-44,.05-66,0-19.18-.07-38.35-.35-57.53-.42-14.29,0-28.58.21-42.87.15-15.57-.06-31.14-.37-46.71-.46-9.64-.06-19.29.15-28.94.12-19.05,0-38.1-.21-57.16-.26-12.74,0-25.48,0-38.22,0-19.44,0-38.88-.24-58.31-.1-21.24.16-42.49-.36-63.72-.33-8,0-16-.79-23.93.31-1.4.2-2.27.55-2.77,1.38a4.67,4.67,0,0,0-.54,1.9L642,583c-.31,3.49-.5,7-.63,10.49-.37,9.74-.28,19.48-.9,29.2a23.54,23.54,0,0,1-2.55,10,14,14,0,0,1-3.67,4.33,12.87,12.87,0,0,1-17.42-1.73c-6.86-7.32-8.37-16.45-9.28-25.93s-1.71-18.81-2.45-28.23c-1-12.54-1.85-25.09-2.67-37.64a21.78,21.78,0,0,0-1-5.17,91.75,91.75,0,0,0,4.83-39.24c-.89-10.67-3-17.4-6.31-26.18.64-1.18.61-6.33.83-9.62.21-3,.41-6,.61-9q2-29.82,4.18-59.63a60.35,60.35,0,0,1,1.08-8C608.38,378.34,615.77,375.13,622.7,379.76Z" transform="translate(-599.93 -377.63)"/>
<path class="cls-10" d="M625.92,382.19a33.87,33.87,0,0,1,9,11.88v0A40.1,40.1,0,0,1,638.12,405c1,6.68,1.23,13.46,1.59,20.23l.15,2.79,0,.63c.05.72.1,1.44.14,2.15s.2,1.55.3,2.32c0,.26.06.5.09.75a8.09,8.09,0,0,0,.53,2.45c.88,2.11,2.76,2.83,6,2.91,14,.34,28,1.07,42,1.37,14.27.29,28.58.31,42.87.38,20.85.09,41.69.19,62.54.85,12.36.39,24.72.2,37.08.42,26,.46,52,1.2,78,1.46,20.08.2,40.17-.34,60.24-.22,17.23.1,34.46.73,51.68,1,16.35.26,32.72,0,49.05.65,17.37.66,34.75.47,52.12.77,22.91.38,45.85-.22,68.74.48,8,.24,10.75.31,18.56.38,2.72,0,11.66.6,17.2.59,9.21-.5,6-.18,11.4.07a72,72,0,0,1,10,1,8.78,8.78,0,0,1,2.87,1.05c-3.15,6.23-5.3,13.79-6.71,22.32L627.36,457.21a2.3,2.3,0,0,1-.52,0c-7.35,0-13.23-16.91-13.14-37.68C613.8,400,619.16,384,625.92,382.19Z" transform="translate(-599.93 -377.63)"/>
</g>
</svg>