<svg xmlns="http://www.w3.org/2000/svg" viewBox="0 0 628 663"><defs><style>.cls-1{fill:#5f837f;}.cls-2{fill:#5f8379;}.cls-3{fill:#714141;}.cls-4{fill:#532f2f;}.cls-5{fill:#7a978d;}.cls-6{fill:#43615d;}</style></defs><g id="blätter_hinten" data-name="blätter hinten"><path class="cls-1" d="M1196.7,506.68a104.73,104.73,0,0,0,6.38-36.16c0-58.79-48.2-106.45-107.66-106.45A107.7,107.7,0,0,0,996,429.7a107.9,107.9,0,0,0-74-29.13c-52.21,0-95.73,36.73-105.58,85.5-44.38,3.2-81,27.7-93.31,60.48h-7.38a63.74,63.74,0,0,0-44.46,17.82,59.66,59.66,0,0,0-18.43,43c0,33.59,28.17,60.81,62.89,60.81h346.74a63.72,63.72,0,0,0,44.45-17.8,60.21,60.21,0,0,0,17.17-30.84h40a63.79,63.79,0,0,0,44.47-17.82,59.64,59.64,0,0,0,18.42-43C1227,536.65,1214.86,517.34,1196.7,506.68Zm-176.61,39.87H1022l-.52,1.28C1021,547.41,1020.53,547,1020.09,546.55Z" transform="translate(-599 -285)"/><path class="cls-2" d="M1022,546.55l-.52,1.28c-.45-.42-.9-.84-1.34-1.28Z" transform="translate(-599 -285)"/><path class="cls-2" d="M1022,546.55l-.52,1.28c-.45-.42-.9-.84-1.34-1.28Z" transform="translate(-599 -285)"/><path class="cls-2" d="M1022,546.55l-.52,1.28c-.45-.42-.9-.84-1.34-1.28Z" transform="translate(-599 -285)"/><path class="cls-2" d="M1022,546.55l-.52,1.28c-.45-.42-.9-.84-1.34-1.28Z" transform="translate(-599 -285)"/></g><g id="äste"><path class="cls-3" d="M1155.23,508.17c0,55.72-45.88,101.58-101.68,101.58S951.88,563.89,951.88,508.17H969.4c.12,1,.3,2.07.48,3,.6,46.47,40.55,84,89.65,84,49.53,0,89.72-38.14,89.72-85.15,0-.61,0-1.28-.06-1.89Z" transform="translate(-599 -285)"/><path class="cls-3" d="M812.22,564.92a79,79,0,0,1-3.89-24.45h12.38a70.09,70.09,0,0,0,8.8,26.46A97.12,97.12,0,0,0,812.22,564.92Z" transform="translate(-599 -285)"/><path class="cls-3" d="M1065.51,605.85c0,65.74-44.56,121.82-104.71,139a4,4,0,0,0-2.94,3.75V937.75A10.42,10.42,0,0,1,947.27,948H902.65a10.41,10.41,0,0,1-10.58-10.25V750a3.74,3.74,0,0,0-2.94-3.59c-45-10.76-82.09-43.12-99.62-85.43a4.26,4.26,0,0,0-3.18-2.53,102.44,102.44,0,0,1-81.16-82c-27-10.34-46.36-36.31-46.36-66.43h12.44a62.87,62.87,0,0,0,35.29,48.66A58.43,58.43,0,0,0,722,563.58a55.84,55.84,0,0,0,9.62.79c30.64,0,56.35-23.85,60.35-54.32h11.19c0,39.06-32.6,71.16-72.2,71.16-1.25,0-2.56-.05-3.82-.11a89.06,89.06,0,0,0,15.49,25.42c1.92,20.8,30.57,37.36,65.73,37.36,36.37,0,65.79-17.7,65.79-39.55a22.49,22.49,0,0,0-1-6.63,27.24,27.24,0,0,0,3.12.37c1.49.12,3,.19,4.48.19a54.3,54.3,0,0,0,19.56-3.65c21.24-8.1,37.31-29,40.43-54.14h11.13c0,38.25-27.45,70.31-62.56,75.12a102.63,102.63,0,0,1-50.72,39l-.05,0a4.11,4.11,0,0,0-2.33,6,114.31,114.31,0,0,0,15.11,19.82C870.71,709.81,903.19,729,939.91,729c59.46,0,107.67-50.36,107.67-112.52,0-3.58-.19-7.19-.49-10.65Z" transform="translate(-599 -285)"/><path class="cls-4" d="M1047.57,616.5c0,62.16-48.21,112.53-107.66,112.53-36.72,0-69.2-19.22-88.57-48.6a109.6,109.6,0,0,0,79.6,34.49c59.87,0,109.27-49,110.59-109.06h5.56C1047.39,609.32,1047.57,612.91,1047.57,616.5Z" transform="translate(-599 -285)"/><g id="Layer_6" data-name="Layer 6"><path class="cls-4" d="M874.12,604.33c0,21.84-29.42,39.54-65.79,39.54-35.16,0-63.81-16.54-65.73-37.35a86,86,0,0,0,38.28,25.67,81.27,81.27,0,0,0,25.3,4,82.26,82.26,0,0,0,27.09-4.63,85.26,85.26,0,0,0,29.31-17.7,69.41,69.41,0,0,1-28.83-15.81,76.77,76.77,0,0,1-21.53-33.15,97.12,97.12,0,0,1,17.29,2,62.89,62.89,0,0,0,8.91,12,58.19,58.19,0,0,0,34.75,18.73A22.76,22.76,0,0,1,874.12,604.33Z" transform="translate(-599 -285)"/></g><g id="Layer_7" data-name="Layer 7"><path class="cls-4" d="M1149.23,508.21c1.07,47.86-39.53,87-89.7,87-49.1,0-89-37.53-89.65-84,6.94,42,42.4,74.45,84.57,74.45,40.16,0,74.27-29.41,83.42-68.51a11.39,11.39,0,0,1,11-9h.32Z" transform="translate(-599 -285)"/></g><rect class="cls-4" x="340.91" y="462.28" width="12.73" height="195.41" rx="3.66"/><rect class="cls-4" x="926.46" y="765.77" width="5.98" height="161.11" rx="1.72" transform="translate(1259.9 1407.65) rotate(-180)"/></g><g id="Layer_4" data-name="Layer 4"><path class="cls-5" d="M1143.27,437.06c0,78.41-59.45,142.88-135.83,151.16a153.88,153.88,0,0,1-16.69.91h-329c-34.69,0-62.8-28.59-62.8-63.87a64.18,64.18,0,0,1,18.42-45.13,62.05,62.05,0,0,1,44.38-18.74h28.53c8.43-48.41,50-85.15,100.06-85.15a99.29,99.29,0,0,1,54.55,16.18A152.51,152.51,0,0,1,990.75,285C1075,285,1143.27,353.06,1143.27,437.06Z" transform="translate(-599 -285)"/><path class="cls-5" d="M1007.44,588.22a62.92,62.92,0,0,1-10.71.91h-6A153.88,153.88,0,0,0,1007.44,588.22Z" transform="translate(-599 -285)"/></g><g id="Layer_5" data-name="Layer 5"><path class="cls-6" d="M1173.17,586.09c0,25.18-20.09,45.62-44.86,45.62H847.21a44.26,44.26,0,0,1-31.7-13.39,45.81,45.81,0,0,1-13.16-32.23c0-25.18,20.1-45.62,44.86-45.62h1a93.45,93.45,0,0,1-4-27.37c0-52.07,41.81-94.28,93.36-94.28,40.73,0,75.42,26.39,88.1,63.13a67.51,67.51,0,0,1,39.3-12.47c36.42,0,66,28.41,66,63.38a54.42,54.42,0,0,1-.54,7.73,44,44,0,0,1,29.6,13.26A45.79,45.79,0,0,1,1173.17,586.09Z" transform="translate(-599 -285)"/></g></svg>