<svg xmlns="http://www.w3.org/2000/svg" viewBox="0 0 927.92 574.99"><defs><style>.cls-1{fill:#1d4544;}.cls-2{fill:#badcd6;}.cls-3{fill:#fff;}</style></defs><g id="Layer_1" data-name="Layer 1"><path class="cls-1" d="M827.84,478c5.62-1,11.1-2.63,15.8-5.9l.72-.48A48.52,48.52,0,0,1,827.84,478Zm641.74,306.5a4,4,0,0,0,.44-.27l.09-.07C1469.94,784.23,1469.76,784.34,1469.58,784.45Zm0,0a10,10,0,0,1-1.73.79A9,9,0,0,0,1469.58,784.45ZM1615,669.84c.13.19.26.37.38.56a2.35,2.35,0,0,0,.47-.41A.61.61,0,0,1,1615,669.84Z" transform="translate(-724.07 -265.52)"/><path class="cls-2" d="M1617.2,667.47a7.41,7.41,0,0,0,.37-1c.51-2.08.18-4.37,1.6-6.22a23,23,0,0,1-.55,7.21Z" transform="translate(-724.07 -265.52)"/><path class="cls-2" d="M1436.58,809.94c.9-1.24,2.19-.19,3.24-.55C1438.86,810.28,1437.72,810.12,1436.58,809.94Z" transform="translate(-724.07 -265.52)"/><path class="cls-2" d="M1618.21,671.13a.86.86,0,0,1-.22,1.36C1618.06,672,1618.13,671.58,1618.21,671.13Z" transform="translate(-724.07 -265.52)"/><path class="cls-2" d="M1647.31,611.36l-.27-.63Z" transform="translate(-724.07 -265.52)"/><path class="cls-2" d="M1077.74,631.41l.28.83C1077.93,632,1077.83,631.69,1077.74,631.41Z" transform="translate(-724.07 -265.52)"/><path class="cls-3" d="M1163.23,701.7c-2.94-2.87-6.63-4.55-10.35-6-6.54-2.51-11.5-8.2-18.79-9.26-.71-.1-1.31-1.87-1.72-3-3.49-9.25-7.08-18.45-10.33-27.78q-5.86-16.82-11.2-33.82c-3.44-10.9-8.14-21.71-16.06-30.37-6.89-7.53-15-13.79-23.37-19.69A145.58,145.58,0,0,1,1043.72,546c-1.68-2.73-3.32-5.48-5-8.17q-3.57-5.58-7.25-11.07c-.41-.61-.85-1.87-1.76-1.19s.11,1.47.54,2.15.72,1.24,1.11,1.84c1.45,2.3,2,4.09-1.57,5-2.84.75-3.33,2.86-2.42,5.66a20.64,20.64,0,0,0,4.32,7.67c3.18,3.49,3.91,8.44,6.94,11.91,8.39,9.59,15.75,20.07,25.13,28.81,1,.93,2.44,2.64,1.34,4.62-3.11-2.17-6-1.74-8.44,1-1.69,1.94-4.51,2.24-5.9,4.48-1.25.38-1.51,1.26-1.19,2.42,0,.49.07,1,.11,1.46,0,.28,0,.56,0,.84-2.3,3.47-4.64,3.62-8,1-2.42-1.91-5.7-3.64-8.16.7-.57,1-2.07,1.52-3.16,2.22-1.94,1.25-2.45,3-1.64,4.8.24.52,1.26,1.66,0,2.11-2.22.77-4.35,3.14-6.91.73-3.31-3.11-6.76-6.07-9.85-9.37-5.28-5.64-10.8-11.1-14.77-17.83l0,.11-.65-1.29c-.24-1.15-.42-2.32-.72-3.45-3.54-13.11-8.64-25.7-12.93-38.55.72-2.07,1.9-4.11,2.05-6.22.26-3.64,3.66-4.57,5.35-6.93,4.07-5.68,3.46-11.51-2.11-14.32-1.21-.61-2.7-1.44-2.49-3.17.28-2.28,2.32-1.16,3.46-1.37,6.77-1.26,11-3.72,11.44-13.11a5.07,5.07,0,0,0-4.17-5.63c-3.92-.87-6.19-3-7-6.85a11.13,11.13,0,0,0-1.43-3.26c-1.27-2.12-1.84-3.93,0-6.24,1.75-2.14,1.54-5.17,2.14-7.81,2.55-2,3.14-2,3.53-.39a28.08,28.08,0,0,0,8.78,15.3c3.63,3.19,6.4,7.24,9.37,10.91,5.71,7.06,11.13,14.4,16.72,21.58,2.21,2.84,7,3.88,8.93,2.13,3.33-3,3.33-6.29.53-10-3.51-4.69-5.74-10.13-8.5-15.27s-3.19-11.19-5.52-16.46c-4.84-10.92-6.56-22.36-6.54-34.14,0-3.5,2.2-4.66,5.37-3.55,14.16,5,23.68,15.36,30.93,27.84,4,6.83,9,12.73,14.18,18.4,4.8,5.25,10.79,9.41,15.74,14.66A74,74,0,0,0,1105.18,517c3.32,1.61,5.88-.17,7.51-2.82s1.53-5.19-1.83-6.86c-4.9-2.44-7.49-7.3-10.65-11.36-3.7-4.73-6.1-10.36-8.36-16.06-3.71-9.38-8.86-18.23-12.13-27.74-2.49-7.26-5-14.32-8.91-21-5-8.38-8.91-17.39-14.81-25.24-2.19-2.93-4.89-5.5-6.34-9,3.91-1.21,8-2,10-6.38a19.13,19.13,0,0,0,1.53-4.62l-.06.07c1.31-1,.36-3,1.59-3.8,1.85-1.25,3-4.73,6.28-.57,2.65,3.34,7.82,3.36,11.92,1.3,3.47-1.75,5-5.11,5.61-9a17.47,17.47,0,0,0-1.29-9.52,4.29,4.29,0,0,1,.22-3.68c.63-1.51,2-3.74.58-4.91-3.22-2.65-1.23-4.41.59-6.15a9.06,9.06,0,0,0,3.09-8.39c-.33-2.35,2.27-3.47,3.47-5.18A14.18,14.18,0,0,0,1095.3,324a4.56,4.56,0,0,1,.25-3.09c1.72-4.12.91-6.42-3-8.17-3.58-1.61-7.13-3.41-11.2-3.52-.6,0-1.36.56-1.84-.29a11.33,11.33,0,0,1,1.85-.91,18.2,18.2,0,0,1,2.47-.43,53.45,53.45,0,0,1,15.82,7c2.55,1.69,4.39,4.87,8.13,4.42l.45,1.57c-.26.3-.8.71-.73.88.28.78,1.06.65,1.72.67,4.28,7.3,8.63,14.57,12.82,21.93,2.41,4.22,4.54,8.6,6.83,12.89.2.38.65.63,1,.95,0,0-.06.19-.1.29,0-.11-.08-.25,0-.33.51-.8.13-1.42-.15-2.25-2.09-6.24-5.53-11.83-8.46-17.65,2.21-.23,3.54,1.35,4.8,2.66,5.62,5.85,12.78,9.49,19.43,13.87-.23.66-.25,1.62-.71,1.94-4.87,3.35-4.61,7.81-3.12,12.73.61,2,1.22,4.2-.18,6.23-2.3,3.28-.38,7-1.11,10.45a.36.36,0,0,1-.38.19c-.31.24-.86.45-.89.72-.08.67.46.92,1.08.94,1.9,1.21-1.46,1.09-.52,2.06-.83,2.18.94,3.05,2.14,4.2,2.32,3.38,5,6.89,8,9.15a37.47,37.47,0,0,0,16.38,6.84c2.08.34,3.72,1.49,5.56,2.23,2.69,1.09,2.08,8.57-.75,10.52-4,2.75-6.57,6.73-9.33,10.53-.8,1.1-1.17,3.28-1.87,0-.17-.81-.53-.74-1.48,1.18-1.28,1.84-.88,3.68,0,5.53-.86,3.23,3.4,2.15,3.87,4.58.18.94,1.8,1.54.13,2.64-.4.27-.53,1,0,1.2a8.89,8.89,0,0,1,4.84,5.25c3.61-1.53,2.51,3.13,4.66,3.56.26.05.68.63.63.72-2.58,4.24,1.87,8.17.52,12.45-.54,1.74.48,3.93-1.44,5.38a1,1,0,0,0-.2,1.56c.61.69,1,1.59.58,2.27-.64,1-.9-1.41-1.54-.44-.75,1.13-1.58,2.53.6,3.29.35.12.6.59.86.93,0,0-.26.4-.39.39-4.27-.25-6.54,4.11-10.51,4.53-2.41,0-3-3.82-5.92-2.81-1.35-12.66-2.62-25.32-2.52-38.08,0-1,.91-2.79-.69-2.95s-1.21,1.55-1.35,2.74c-2,17,.55,33.8,1.34,50.68q1.33,28.45,5,56.7c1.51,11.48,2.45,23,3.65,34.54a3.18,3.18,0,0,1-1.34-2c-3.32-14.06-14.47-19-27-17.08l-1.28-.78a1.92,1.92,0,0,0-.77-2.39c-.06,0-.42.13-.44.25a1.66,1.66,0,0,0,1.24,2.11.54.54,0,0,1-.23.62c-4.77-.54-9.43,1.33-14.43-.74-11.06-4.58-22-9.17-31.46-16.78-2.37-1.92-3.89-5.5-7.91-4.71l-2.74-2.27a11.48,11.48,0,0,1-4.45-5,166.91,166.91,0,0,1-12.5-21.43c-5.6-11.28-10.28-22.94-15.33-34.44l-.38-.46a.25.25,0,0,1-.26-.28c-1.11-7.31-5.08-13.67-6.94-20.74-.14-.56-.55-1.15-1.28-.95a1,1,0,0,0-.56,1.46c3,6.61,3.86,14,7.34,20.38,2.4,5.8,4.68,11.65,7.21,17.39,4.23,9.6,8.63,19.13,13,28.69-1.12,2.42-3.08,4.56-2.25,7.6a39.35,39.35,0,0,0,4.4,10.71c3.7,5.78,8.7,10.81,13.58,15.72,3.06,3.08,7.61,4.82,10.23,8.15,4.58,5.85,11,9.25,16.34,14.14,8.45,7.84,18.13,14.24,26.81,21.94,8.49,7.53,13.69,17,18.91,26.43,4.84,8.71,9.63,17.72,11.13,27.91.61,4.16,3.9,7.76,3,12.19-.4,2.11.68,2.76,2,3.57l0,0c-3.49,1.22-1,3.3-.72,5.07l0,0c-.87,4.41-.36,8.82,0,13.23,0,.7,0,1.45,1.07,1.4,2.23-.11,1.09.54.35,1.35A11.81,11.81,0,0,0,1163.23,701.7Z" transform="translate(-724.07 -265.52)"/><path class="cls-3" d="M1467.28,361.78c.6,2.13-1.31,2.52-2.44,3.37-2.1,1.58-1.93,1.45-1.15,3.39.61,1.5-1.58,1.4-2,2.45-.49-.32-.67-1.53-1.54-.76-1.17,1-.42,2.07.3,3l0,0-.75-.08c-2.17.38-2.77,2.16-2.66,3.82.24,3.36-1,5.19-4.09,6.71-1.85.9.29,2.93,1.15,4,1,1.27,1.43,2.07-.08,3.08s-1.21,2.1.66,3.27l-.07-.06c-1.38,3.73,2.42,4.86,4,6.59,5.27,5.94,11.67,9.91,20.25,7,3.59-1.21,5.28-4.57,7.87-6.85s5.47-1.67,8.12-1.67c2.12,0,1.51,2.43,1.24,4-.1.6.26.78.75,1s1.5-1.24,1.61.09-1.09.62-1.82.69c-.35,0-.65.54-1,.83,1.28.94,1.25,1.85-.07,2.72,3.84.9.92,2.5.4,3.85,2.69.85,2,4.32,4.81,5.56,6.06,2.65,10.59,7.89,16.57,10.87,1.28.64.48,2.21,0,3.22s-1.5,1.58-1.34,2.82c-3.4,3.4-3.76,5.84-1.1,7.54-1.15,2.27,2.7,3.19,1.48,5.49,5.36,1.33,5.25,7.55,9.09,10.26.26.18.37,1.15.22,1.24-2.93,1.91-3,5.79-6.19,8-2.55,1.75-6,4.31-6.22,8.43,0,.82.1,2.31.43,2.39,1.58.4.31-2.36,2.06-2.11l.39.38a37.17,37.17,0,0,1-.86,4.35c-1,5.38,3.51,6.88,6.9,9.1.28.19.54.4.81.59.59,2.39-2.89,5.14.64,7.27,1.62,3.76-.18,8.45,4.67,11.52,4.4,2.78,8.79,5.75,13.69,4.53,4.6-1.14,6.59.85,8.5,3.85a10.37,10.37,0,0,0,3.47,3.44c2.25,1.36,3.72,2.84,2,5.69-.54.87-.78,2.44,1.43,1.91.67-.15.77.18.49,1.23s-.6,2-.85,3.07c-.2.81-.32,1.63-.47,2.45-1-.47-.37-1.45-.72-2.1-.19-.36-.64-.86-.94-.84-.72,0-.44.76-.34,1.11.38,1.31-.47,2.9,1.78,3.73,1.92.71-.81,3.11,1,5,2.91,3,3.58,7.07,1.85,11.28-.75,1.84.41.4.89.52,1.84.46,2.16,2.79,2.34,3.92.26,1.62-1.09-.49-1.93-.09-2.64,1.27,1,2.47,0,3.66,2.28,1,2.21,3.22,3,5.1,1.4,3.15,5,4.06,7.62,6l.64.56.1.14c-.13,3.43,3.45,5.42,3.49,8.68.06,4.88,2.67,8.84,4.25,13.18.45,1.26.39,3,2.31,3.16l.09,2.1c0,.1-.12.21-.09.28a3.29,3.29,0,0,0,.3.46c.18,10.14.55,20.2,6,29.32,3.33,5.58,5.77,11.66,9.48,17.06,1.63,2.38.58,8.86-1.37,10.72-.84.8-1,.1-1.55-.45-1.33-1.42-2.81-2.71-4.22-4-.66-7.65-1.18-15.33-4.87-22.32-2.66-3.3-5.09-6.8-8.42-9.52-.37-.3-.92-.64-1-1-1.22-8.31-8.8-9.09-14.44-11.86-3.7-1.81-6.25-6.1-4.49-9.75,2.45-5.1,1.46-10-3.29-12.89a11.78,11.78,0,0,1-5.69-7.63c-3.32-13.15-10.65-24.2-17.58-35.69-10.83-18-26.33-31.33-41-45.63-11.07-10.84-19-23.78-26.31-37.23-3.24-5.95-5.76-12.23-8.87-18.22.36-3.66-2.66-6.59-2.22-10.28,0-.21-.39-.67-.6-.67-.84,0-.79.72-.83,1.28-.26,3.68-.08,7.29,2,10.54q2.29,6.09,4.6,12.17c-2.31,4.35-1.75,8.72-.17,13.14a11.15,11.15,0,0,1,1,4.16c-.38,6.13,3,11.29,5.54,16.07,6.28,11.9,11.37,24.48,19.37,35.48,3.82,5.24,6.73,11.13,10.45,16.45,1,1.45.16,1.71-.24,2.5-3.06,2.63-6,5.4-9.72,7.17-.78.38-2.09.33-1.88,1.71.19,1.2,1,1.12,1.85.61.28-.16.78-.27.59.19-.34.84-.78,1.9-1.49,2.24s-1.67-.23-2.53-.39l-.5.73c0,.73,0,1.46,0,2.19-.43.22-.9.41-.76,1l-.29,1.09-1.86,2.26c-9.54-18.54-21.13-36.08-26.8-56.51-1.8-6.47-4.84-12.61-7.55-18.8-1.15-2.61-2.67-5.35-6.46-3.79-4.72.36-8.2,3.84-8.72,9.19a25.84,25.84,0,0,1-4.65,12c-1,1.5-4.08,2.74-2.06,5.52-2.57-.25-.62,4-3.45,3.47-2.06-1-.87-2.5-.33-3.57,3.28-6.56,2.87-8.48-3.1-12.31a19.89,19.89,0,0,0-4.75-2.42c-4-1.25-4.35-3.67-2.55-6.95.22-.42.67-.8.71-1.22.48-5.68,3.84-9.1,8.6-11.74,1.51-.84,2.36-2.88,3.51-4.36,1,.11,1.42-.63,2-1.27,4.11-4.79,8.37-9.46,12.35-14.35,8.17-10,14-21,13.17-34.53-.72-11.63-14.88-20.36-24.87-15.4-6,3-8.88,9.61-15.16,12.08-.29,5.35-7.18,5.6-8.36,10.62-.18.76-.72,3.28-2.12,3.91-3,1.33-3.79,3.47-3.84,6.52,0,.66,0,3.71-2.76,2.84-.17-.05-.55.57-.82.89,2.77,2.3-.85,2.95-1.16,4.45a6,6,0,0,1-.55-.45c-3-2.78-4.18-5.24-.51-8.87,2.68-2.64,1.1-9.41-2-12.2-2.86-2.59-5.64-5.26-8.61-7.72-1.45-1.21-1.31-1.88.19-2.72a87.14,87.14,0,0,1,21.06-8.19c4.81-1.23,6.91-4.8,8.32-8.77,1-2.71-1.35-4.88-3.34-6.37a43.06,43.06,0,0,1-12.58-15.83c-1.54-3.1-1.87-6.72-4.3-9.46-4.07-4.6-9.71-6.23-15.21-8-2-.64-2.72-1-2.08-3.27,1.53-5.29.37-6.39-5-8.84-10.59-4.79-22.15-4.8-33.16-7.45-2.9-.7-6.6-1-4.73-5.71,10.77-1.42,21.64-2.48,32.13-5.36,2.44-.66,5.82-.21,7.45-3.16l1.33-.11c.48.79,1,.73,1.52.06,16.05-1.05,32.09-2.2,48.14-3.13,10.27-.59,20.09-3.56,30.15-5.24a70,70,0,0,1,26.19.66c2.17.46,4.85,4.54,4.82,8.31-2.89,2.32-6.79,3.26-8.91,6.68-.74,1.19-2,2.07.74,1.53,1-.21.68.59.36,1.12l-.63.88.08-.07-1.12.62c-2.94-1-2,1.75-2.74,2.85,0,.83-.3,1.95.11,2.44,1.26,1.49,2.25,2.39-.81,1.51-.4-.11-2.07.2-.85,1.44,2.08,2.11,2.55,5,3.8,7.48l.8.7,0,.05c-.07,1.44-.15,2.88-.23,4.31-.8.23-.78.82-.63,1.46C1467.59,358.7,1464.32,360.5,1467.28,361.78Z" transform="translate(-724.07 -265.52)"/><path class="cls-3" d="M841,456l0,.07.07,0A.36.36,0,0,0,841,456Z" transform="translate(-724.07 -265.52)"/><path class="cls-3" d="M903.65,337.4a.67.67,0,0,0-.44-.08l-1.85.35c1.41,1.22,3.46,1.77,4,3.87.82.84.41,1.68,0,2.52-1.1,1.85-.35,4.49-2.52,5.87-1.35,3.54-10.8,9.86-14.3,9.6-1.22-.09-2.49-.69-2.19-1.76.4-1.47-2.54-2.92.08-4.2.58-.28,1-.71.37-1.36-3.87.29-7-.66-9.56-4-2.91-3.86-6.56-1.94-10-.63a.63.63,0,0,0-.38.43c-.68,2.33-3.28,2.52-4.78,3.94a.64.64,0,0,0,0,.9l6.25,6.68c1.43,1.19,4.85-.85,4.77,2.21-.09,3.54-2.47,6.13-5.74,7.62-2.48,1.13-5,1-7-.91-1.65-1.68-.87-3.51.7-5,1.12-1.07,2.72-1.59,3.52-3a.61.61,0,0,0,0-.64c-1.48-2.3-2.58-4.94-5.38-6.06a.81.81,0,0,0-.27-.05l-3,.06c-1.08-.27-2.63.88-3.2-.44-.33-.76.79-1.15,1.55-1.62a.64.64,0,0,0,.31-.57v-.18l-1.51-.82a3.84,3.84,0,0,1-2.36-.09,3.5,3.5,0,0,1-2.72-2.53c-.16-.44-.06-1.58.63-1.14,5,3.24,7.59-1.6,10.25-3.7,5.68-4.49,11.63-8.13,18.52-10.22,4.17-1.26,8.28.8,12.45.41a.82.82,0,0,1-.09-.51c-2.69-.47-5.37-1.13-8.08-1.37-9.28-.8-16.21,4.58-23.46,9.1-3.18,2-6.12,5.55-10.37,1.8-.67-.59-1.58-.07-2.35.32s-1.62,1.47-2.4.1c-.63-1.12.36-1.71,1-2.38,1.42-1.45,3.31-2,4.87-.91,2.6,1.82,4.44.41,6.4-.85,1.31-.83,2.42-2,3.76-2.73,2.46-1.36,4.28-2.13,1.22-5.26-2.33-2.39-3.89-4.59-7.59-3.08a9.93,9.93,0,0,1-3.91.34c-5.69-.11-11.44.3-16.42-3.53-3.93-3-6.22-6.69-6.29-11.72,0-1.1-.35-1.17-1.3-.07-9.51,11-19.86,21.5-24.31,35.93a.66.66,0,0,0,.34.78c1.38.62,1.75-1.1,2.62-1.64,5.55-3.47,10.1-8.93,17.56-8.6a15.7,15.7,0,0,1,5.57,1.2c5.11,2.14,5.52,5.88,1.13,9.45a18.1,18.1,0,0,1-11,3.75c-4.34.14-7.46,2.22-10.43,4.89-2.14,1.91-4.07,4.07-6.34,5.8-2.91,2.22-3.8.08-4.74-1.85a.62.62,0,0,0-1-.12c-5.34,6.46-11.12,12.6-15.51,19.79-2.76,4.51-3.88,9.8-7.6,14-7.36,8.26-14.17,16.93-18.63,27.34a34.28,34.28,0,0,1-9,12.24.63.63,0,0,0-.19.67c.24.75.46,1.5.76,2.22s2.18,1.57,1,2.51-2.09-.54-2.62-1.49c-.71-1.25-1.45-2.29-2.94-2.49a.61.61,0,0,0-.35.05c-4.19,1.64-5.72,5.66-7.84,9.09-1,1.56-3,3.58-2.1,4.91s3.5-.08,5.36-.19c.94-.25,2,.32,2.8-.95,1.65-2.7,4.19-2.9,6.42-1.05s4.91,3.06,4.69,7.17c-.33,6.18-1.67,11.33-6.71,15.41-1.12.91-1.12,3.2-1.47,5.06a.63.63,0,0,0,.51.73c12.74,2.31,25.48,4.31,38-1.28.7-.32,1.49-1.25,2.13-.18.44.71-.44,1.26-.89,1.77-2.22,2.45-4.77,4.2-8.27,4.28-3.32.08-6.63.37-10,.57-3.32,0-6.64.06-10,.14-.54,0-1.4.1-1.54.41-.34.77.25,1.33,1,1.54,1.6.45,1.94,1.57,1.71,3l0,.06.74.47a61.92,61.92,0,0,0,7.18,2.22c10.27,1.92,19.54,1,25.12-9.55.06-.11.28-.95.48-.36,1,3,2.4.5,3.06.1A21.74,21.74,0,0,1,801.66,477c9.19.27,18.26.12,27.2-2.34,4.29-1.18,8.63-2.12,11.66-5.77a4.55,4.55,0,0,0,.48-.9,2.05,2.05,0,0,0-.85-.44c-.76,0-1.07,1.75-1.88.73-.31-.4.31-1.76.78-2.51a25.2,25.2,0,0,1,3.25-4.57c1.72-1.77,1.35-4-1-5a.6.6,0,0,1-.34-.43c-.2-.89-1-1.36-1-.77,0,.74-.23,1.19-1,1-1.1-.26-1.7.49-.45,1.05a.63.63,0,0,1,.1,1.12c-2.28,1.39-3.88,3.65-6,5.24-6.26,4.6-12.79,8.1-20.73,8.69-6.17.47-12.1,2.35-18.12,3.75-4,.93-7.85.7-9.6-4a1.21,1.21,0,0,1,0-.18c-.3-2,2.45-4.42-1-6-.31-.15.45-.9,1.1-.81a3.21,3.21,0,0,1,3,2.39.64.64,0,0,0,.69.45c6.62-.74,12.05-3.93,17.41-7.81,2.37-1.72,5.5-3.32,8.89-3.18a.59.59,0,0,0,.34-.08c5.61-3.33,11.14-6.82,16.88-9.93,4.24-2.3,8.16-5.36,13.13-6.11,1.1-.17,2.3-1.08,3.26.23a2.37,2.37,0,0,1,0,3,.63.63,0,0,0,.2.92l1.32.75a.6.6,0,0,0,.37.09c2.32-.22,2.55-3.31,4.51-3.64,4.16-.7,4.58-4.72,6.69-7.18.65-.76,1.54-3.08-1.2-3.45-.67-.09-1.17-.76-.34-1.15,5.79-2.77,10.3-6,16.76-9.53C879,419,879,418.1,880,414a25.65,25.65,0,0,1,3-8c.84-1.41,1.74-1.94,2.14-3.53.19-.73-1.1-6.45-1.14-6.47-5-3.31-4.84-2.57-2.9-8.18a1,1,0,0,0-.37-.91c-2.25-1.23-3.05-3.8-5-5.31s-3.38-3.61-7-2.34c-4.62,1.6-10.35-2.39-11.28-6.51-.15-.67-.5-1.58.23-1.92.31-.15,1.13.59,1.61,1s.61,1,1,1.44c2.26,2.1,4.85,3.46,8,3,2-.27,3-1.55,3.62-3.47,2.91-8.83,10.55-11.9,18.35-7,3.55,2.24,5.63.66,7.67-1.53a48.73,48.73,0,0,0,9.18-14.68C910.13,342.76,910,341,903.65,337.4ZM852.14,364c1.28-.76,3-2.4,4.09-1.15,1.44,1.57-1.12,2.19-1.9,3-2.07,2.08-2.16,3.95-.6,6.28.36.55,1.48,1.51.58,2.11s-1.59-.57-2.12-1.31a9.49,9.49,0,0,1-1.91-5.14C850.35,365.85,851,364.7,852.14,364Zm-21.73,7.69c-.06-.28.14-.62.22-.93a5.93,5.93,0,0,1,1.17.62c1.58,1.27,1.28,3.17,1.62,5.1a.49.49,0,0,1,0,.12c0,4.19-6.51,12.33-10.83,13.28-.66.15-1.6.57-2-.2-.52-1.13.77-1.23,1.34-1.67C827.27,383.83,832,379.38,830.41,371.68Zm-37.8,19.6a.59.59,0,0,0,.27-.22c.74-1,1.64-2,1.39-3.4,0-1.71,2.08-2.43,2-4.15a.45.45,0,0,1,0-.23c2.31-6.13,4.16-12.56,8.59-17.58,3.48-3.94,14.58-5.11,18.88-2.45,1.27.8,1.31,2,1.31,3.17a.63.63,0,0,0,.24.49c2.36,1.95,1.41,4.31.41,6.51a20.85,20.85,0,0,1-11.59,11.18c-6.85,2.55-11.17,7.41-15.23,12.93-.82,1.11-1.79,2.69-3.4,2.06s-3.81-1.2-4-3.56C791.46,394.38,790.08,392.3,792.61,391.28Zm-39.5,57.59a3.77,3.77,0,0,1-1,.62c0-.34-.06-.78.12-1,8.41-10.55,13.63-23.58,24.59-32.11,3.11-2.43,6.81-4.12,10.25-6.13a.58.58,0,0,0,.24-.25c1.79-3.47,7.53-4.66,10-1.95,1.18,1.31-.07,2.27-.92,3-4,3.39-8,6.83-12.2,10-6.66,5-11.15,12.11-17.36,17.54-1.86,1.64-3.76,2.58-6.17,2.3a.61.61,0,0,0-.55.2C757.75,443.66,755.45,446.27,753.11,448.87Zm23,13.29a13.92,13.92,0,0,1-8.86-8.2c-.47-1.21-.93-1.89-2.18-1.57-1.53-.6-2.71,1.62-4.22.36.8-.45,1.59-.92,2.41-1.33,2.09-1,4.13-1,5.23,1.25a42.32,42.32,0,0,0,3,4.41,10.27,10.27,0,0,0,5.15,4.24c.5.17,1.23.13,1.24,1A6.1,6.1,0,0,1,776.12,462.16Zm42.31-61.11c-5.37,10.87-8.47,22.85-16.22,32.56C795.56,442,788.06,446,778,449c-.31.17-1-.5-1.45-.85a.63.63,0,0,0-.75,0,4.31,4.31,0,0,0-2.18,2.82l.08-.06-.1.14s0-.06,0-.08c-1.23.91-2,.66-2.55-.9-.79-2.14.17-3.42,1.84-4.4,4.19-2.46,8.28-5.13,12.63-7.25,5.06-2.45,8.13-6.85,11.4-10.95,5.27-6.61,8.66-14.34,11.85-22.13.74-1.81,2.14-3.35,3-5.12,1.58-3.18,4.33-.84,6.46-1.39C818.8,398.73,818.8,400.3,818.43,401.05ZM865,395c0-1.23,1-4,.36-6.71l.21-.08,0-.22c-.4-2,.82-2.89,2.42-2.44,2.53.71,6.15-.11,6.75,3.95,1.33,9.09-1.37,17.07-6.49,24.5-9.83,14.31-24.28,20.47-40.61,23.56-3.22.61-5.85-.18-7.48-2.75-1.89-3-1.13-6.67.62-9.15,2.93-4.13,7.75-6,12.41-7.84a.64.64,0,0,0,.32-.29c1.23-2.19,3.4-.4,5-.94a.7.7,0,0,1,.6.05c2.44,1.53,5,.28,8.26-2l.08,0,2.09-1a.41.41,0,0,0,.11-.07l.79-.62,1.23-.59c2.75-.61,7.2-3.49,8.28-6.31C861.89,401.12,865.17,401,865,395Z" transform="translate(-724.07 -265.52)"/><path class="cls-2" d="M1417.17,512.87c2.83.52.88-3.72,3.45-3.47-2-2.78,1.07-4,2.06-5.52a25.84,25.84,0,0,0,4.65-12c.52-5.35,4-8.83,8.72-9.19,6.87,8,8.58,18.29,12,27.8a204.77,204.77,0,0,0,18.9,39.58c4.73,7.6,8.49,15.8,13.85,23a3.37,3.37,0,0,1,.27,1.32,5.49,5.49,0,0,1-1.69.17c-8.95-2.12-17.53-.25-26,2.46a96.55,96.55,0,0,0-29.82,16c-7.66,6-16.2,10.07-25,13.68-9.3,3.83-18.43,8-28.4,10.32s-19.92,2.52-29.91,2.71c-15.44.3-30.67-2.11-45.9-4.6-5.28-.86-10.5-2-15.76-2.87-2.18-.37-2.57-1.36-1.61-3a24.9,24.9,0,0,0,3.12-10.86c0-.34-.39-1.06.7-1.19,9.62-1.09,16.25-7.16,22.38-13.89.75-.83,1.55-1.72,2.36-2.47,2.85-2.63,6.55-1.43,7.87,2.39,1.39,4,7.14,6.92,11.29,6.3,6.22-1,9-5.41,11.18-10.39,2.35-5.39,7.62-7.29,11.36-2.81,6.14,7.37,14,8.14,22.45,8,4-.07,7.66-.08,11.79,2,9.32,4.71,18.83-3,17.87-13.74,0-.34,0-1,.09-1,3.77-1.29,5.25-5.67,9.43-6.61,5.65-1.28,11-1.95,16.88-.42,9.67,2.52,14.09-4.85,14.15-12.43.1-13.58-4.32-25.53-16.57-33.4A19.63,19.63,0,0,1,1417.17,512.87Z" transform="translate(-724.07 -265.52)"/><path class="cls-2" d="M1049.66,397c1.45,3.45,4.15,6,6.34,9,5.9,7.85,9.83,16.86,14.81,25.24,3.93,6.64,6.42,13.7,8.91,21,3.27,9.51,8.42,18.36,12.13,27.74,2.26,5.7,4.66,11.33,8.36,16.06,3.16,4.06,5.75,8.92,10.65,11.36,3.36,1.67,3.44,4.25,1.83,6.86s-4.19,4.43-7.51,2.82a74,74,0,0,1-21.63-16.33c-5-5.25-10.94-9.41-15.74-14.66-5.18-5.67-10.21-11.57-14.18-18.4-7.25-12.48-16.77-22.87-30.93-27.84-3.17-1.11-5.36.05-5.37,3.55,0,11.78,1.7,23.22,6.54,34.14,2.33,5.27,2.72,11.24,5.52,16.46s5,10.58,8.5,15.27c2.8,3.74,2.8,7.06-.53,10-2,1.75-6.72.71-8.93-2.13-5.59-7.18-11-14.52-16.72-21.58-3-3.67-5.74-7.72-9.37-10.91a28.08,28.08,0,0,1-8.78-15.3c-.39-1.65-1-1.59-3.53.39,1.52-3.45,4.2-6.92-.16-10.28-.78-2.61,1.18-4.67,1.43-7.08l.14-.19-.12.21c-.62,0-1.49-.16-1.35-.83,1-4.52-2.34-9-.17-13.49a14,14,0,0,0,7.18-6.72c.27-.48.58-1.3.9-1.32,1,0,.85,1.05,1,1.61.94,4.77,1.77,9.56,2.65,14.35.06.32.48.76.38.91-.44.63-.39-.08-.38-.23s.23-.42.26-.65a34.7,34.7,0,0,0-.48-11q-1.78-10.87-3.88-21.72c-.36-1.84.26-2,1.76-1.89,7.08.3,14.36-.36,21.19,1.09,4.74,1,8.9,2.15,13.6.31,4.22-1.65,7.76-7.11,7-11.61a10.35,10.35,0,0,1-.16-1.35c-.08-2.09-1.44-4.88.07-6.09,1.72-1.39,2.94,1.72,4.62,2.36A27.4,27.4,0,0,0,1049.66,397Zm-58,60.47c0-.13,0-.32,0-.33a3.61,3.61,0,0,0-.55-.12c0,.1,0,.26,0,.28A3,3,0,0,0,991.7,457.49Z" transform="translate(-724.07 -265.52)"/><path class="cls-2" d="M1109.33,320.3a4.63,4.63,0,0,0-2.72-1.27c-3-.26-4.68-2.93-6.95-4.44l-.15-.1a4.62,4.62,0,0,1,3.09-8.47c1.35.18,2.7.4,4.06.64,20.09,3.55,40.27,6.65,60.32,10.43,10.3,1.94,20.7,3.87,30.71,6.74,12.82,3.67,25.63,3,38.54,3.28,10.9.21,21.68-1.54,32.55-1.62.73,0,1.77-.85,2.14.35.3,1-.92.84-1.35,1.29-3.68,3.85-9,6.06-11.31,11.23-1.11,2.54-4.06,2.13-5.53,4.17a22.43,22.43,0,0,0-2.36,2.88c-.41.81-.82,3.25-1.95.31-.22-.58-.7-.58-1.17-.28s-.92.86-.37,1.45c.79.83.14,1.26-.16,2.06-.74,2-2.78-1.11-2.92.8-.08,1.12,1,2.27,1.37,3.49.22.83-.5,1.24-1.34,1.24l-.36-2c-.29.18-.73.29-.85.54a1.36,1.36,0,0,0,.06,1.42,3.63,3.63,0,0,1,.64,2.27,8.78,8.78,0,0,0,1.46,5.06c1.34,2,.26,2.74-1.47,2.65-4.18-.23-7.93-.81-11-4.7-4.41-5.59-11.14-7.43-18-8.38-2-.28-4-.24-6-.47-5.28-.61-5.64,5.12-9,7.14-1.28.77-2.2,1.77-3.88,1.89-2.9.2-5,3.39-8.56,2-1-.4-2.18-.33-2.29-1.51-.3-3.21-2.51-5.08-5-6.15-4-1.74-7.62-4.44-12.18-4.78-3.48-.25-6.48.35-8.51,3.51-1.61,2.51-3.31,3.77-6.27,1.35-1.64-1.35-3.55-1.08-5.42-.49a4.57,4.57,0,0,1-3.82-.54c-6.09-3.86-12.44-7.35-17.53-12.65a8,8,0,0,0-3.42-2.56,4.44,4.44,0,0,1-2.55-1.91l-1.87-2.9C1115.22,328.88,1113.2,323.92,1109.33,320.3Z" transform="translate(-724.07 -265.52)"/><path class="cls-2" d="M1163.26,683.34c-.33-1.77-2.77-3.85.72-5.07l.22.16-.25-.14c-1.32-.81-2.4-1.46-2-3.57.86-4.43-2.43-8-3-12.19A45.89,45.89,0,0,0,1158,658q-.35-1.39-.75-2.76c-.65-2.12-1.41-4.21-2.26-6.25a143,143,0,0,0-7.23-14.37c-5.22-9.42-10.42-18.9-18.91-26.43-8.68-7.7-18.36-14.1-26.81-21.94-5.29-4.89-11.76-8.29-16.34-14.14-2.62-3.33-7.17-5.07-10.23-8.15-4.88-4.91-9.88-9.94-13.58-15.72a39.35,39.35,0,0,1-4.4-10.71c-.83-3,1.13-5.18,2.25-7.6.32.15.81.22.92.47,8,17.27,22.44,27.86,38.24,37.11,4.79,2.81,10,5.14,13.56,9.71.52.66,1.15,2.15,1.91,1.51,1.15-1,.11-2.2-.72-3.06-5.16-5.36-11.33-9.24-17.71-13-7-4.16-13.84-8.81-19.26-15.11,4-.79,5.54,2.79,7.91,4.71,9.44,7.61,20.4,12.2,31.46,16.78,5,2.07,9.66.2,14.43.74,3.55,5.74,5,12.31,7.24,18.54,3.84,10.48,7.62,21,10.66,31.72,2,6.89,2.87,14.06,5.66,20.71a12,12,0,0,0,.66,1.22,4.16,4.16,0,0,0,.27-1.46c-1.73-8-3.35-16-5.31-23.94a162.83,162.83,0,0,0-6.28-18.61c-3.57-9.43-6-19.33-11.42-28,12.53-1.94,23.68,3,27,17.08a3.18,3.18,0,0,0,1.34,2c.94,6.11,1.74,12.25,2.86,18.33,2.18,11.81,2.8,23.81,5.34,35.63,2.49,11.59,2.54,23.7,4.13,35.51,2,15,.86,30.31,3.53,45.24a178.87,178.87,0,0,0,10,34.66,18.06,18.06,0,0,1,1.65,6.92c-1.59.13-2.42-.91-3-2.13-2.87-6.57-6.45-12.93-7.72-20-.65-3.61-1.52-2.29-3-.8,2.8-5.34.84-9.93-2.28-14.33a5.46,5.46,0,0,0,.22-3.32c-.8-3.72-3.64-6.42-4.61-10,.41-4.93,1.53-10.1-4.25-13a11.81,11.81,0,0,1,1.38-2.41c.74-.81,1.88-1.46-.35-1.35-1.12,0-1-.7-1.07-1.4-.32-4.41-.83-8.82,0-13.23l.17-.23Zm.37-3.13-.05.46c.06-.07.15-.14.16-.21S1163.67,680.29,1163.63,680.21Z" transform="translate(-724.07 -265.52)"/><path class="cls-2" d="M1474.23,721.67c.9,3.5-1.46,5.67-3.82,7-2,1.13-4.66,1.51-6.91,2.06a23.43,23.43,0,0,0-6,2.65c-.54.31-.86,1.46-1.59.92-.92-.69.06-1.46.4-2.12,3-5.73,6.18-11.34,8.25-17.48,4.17-12.38,9.11-24.56,9.93-37.83.33-5.51-.34-11-1-16.42-.21-1.84-.29-3.25,2.07-3.7,2.83-.53,3-3.15,3.56-5.28a158.05,158.05,0,0,0,3.46-22.28,6.84,6.84,0,0,1,.31-2.44c1.06-1.93,1.6-5,4.21-4.83,2.45.15,1.87,3.21,2.46,5a26.71,26.71,0,0,1,1,8.52c0,5.21,1.6,9.68,6.28,12.56,3.64,2.25,6.09,1.28,7.93-2.62a98.29,98.29,0,0,0,5.76-17.21c.18-.67,0-1.63.85-1.74,1.05-.15.87.92,1,1.53a257.32,257.32,0,0,0,9.75,33.21,5.67,5.67,0,0,1-.2,4.5,200.74,200.74,0,0,1-24.25,41.2c-1.87,2.46-5.79,5.33-10.27,3.8-2.87-1-4.81.24-7.09,2.16-1.48,1.24-2.31,5.07-5.82,3.08-.83-.47-.68.41-.66,1,.07,1.43,0,2.87,0,4.3l-.29.71Z" transform="translate(-724.07 -265.52)"/><path class="cls-2" d="M1387.67,446.06c.31-1.5.33-1.06,1.16-4.45.14-.17.32-.42.47-.61a7.66,7.66,0,0,0,.88-1.33c1.07-2,1.81-3.1,1.82-3.67.82-1.65,1.16-2.83,2.92-3.94a7.73,7.73,0,0,0,2.66-2.67,6.17,6.17,0,0,0,.79-1.94c1-4.1,5.72-5,7.6-8.12a16.51,16.51,0,0,1,4.3-4.52c4.08-3.06,6.88-7.71,11.62-10.06,10-5,24.15,3.77,24.87,15.4.84,13.56-5,24.49-13.17,34.53-4,4.89-8.24,9.56-12.35,14.35-.56.64-1,1.38-2,1.27-.28-2.49,2.94-4.84.08-7.67-.51-.5-1.08-1.83-2-2.37-5.19-3.2-10.71-5.81-16.89-5.89S1391.28,449.84,1387.67,446.06Z" transform="translate(-724.07 -265.52)"/><path class="cls-2" d="M1121.49,665.61c-.86,9.6-.35,19-.48,28.42,0,3.05-.45,5.56-3.31,7.32-2.2,1.36-2.86,3.69-2.89,6.23-.1,8.73-.31,17.45-.33,26.18,0,2.37-.79,2.55-2.63,1.63s-4-1.15-5.06-2.47c-1.39-1.72,1.13-3.19,1.58-4.91,1.12-4.21,1.62-8.15-2.39-11.36-1.36-1.09-2.8-2.45-2-4.81a3,3,0,0,0-1.36-3.46c-4.76-1.91-3.58-5.75-3.49-9.37.05-1.79.44-3.49-.41-5.47-1.06-2.48.17-4.36,3-6.06,4.27-2.58,4.29-10.05,1.15-13.86-2.11-2.57-4.77-4.84-3.7-9.15,1.15-4.63-2.27-7.56-6.09-8.7-5.41-1.61-6.77-6-8.17-10.26-1.33-4.07-2.1-8.29-4-12.22-1.3-2.71-1.66-5,2.82-6,7.49-1.59,15.15-1.56,22.57-3.22,1.51-.34,1.52.52,1.84,1.42q6.33,18.06,12.67,36.12C1121.26,663,1121.94,664.32,1121.49,665.61Z" transform="translate(-724.07 -265.52)"/><path class="cls-2" d="M1493.47,543c.4-.79,1.25-1.05.24-2.5-3.72-5.32-6.63-11.21-10.45-16.45-8-11-13.09-23.58-19.37-35.48-2.51-4.78-5.92-9.94-5.54-16.07a11.15,11.15,0,0,0-1-4.16c-1.58-4.42-2.14-8.79.17-13.14,3.36,5.32,6,11,8.85,16.62,6,11.72,14.57,21.25,23.82,30.24,10.58,10.29,22,19.73,30.83,31.71,4.49,6.13,8.28,12.78,12.65,19,3.35,4.77,6.58,9.55,8.22,15.22l-.28.25c-3.2-.87-5.87-4.35-9.79-1.94-.45.28-1.4-.1-2.07-.34s-1.21-.77-1.86-1c-4.61-1.7-8-3.51-10.61-8.94C1512.93,546.87,1503.88,542.83,1493.47,543Z" transform="translate(-724.07 -265.52)"/><path class="cls-3" d="M1637.92,517.18a5.41,5.41,0,0,1,1.76,4.8c-1,18,.56,36.08-.61,54.06-.89,13.55,3.37,26.21,5,39.31,1.53,12.6,1.33,24.93-3,37.09-2.38,6.58-3.76,13.51-5.61,20.28a13.68,13.68,0,0,1-.62,1.56c-.8-.36-.6-1.14-.64-1.74a69.09,69.09,0,0,1,4.46-29,43,43,0,0,0,2.25-13.74c0-.79.32-1.93-.82-2-.82-.09-1,1-1.08,1.62-2.65,15.06-9.92,28.77-12.91,43.75a78.66,78.66,0,0,0-1.6,20.63,10.88,10.88,0,0,1-.32,2.31c-.84-.39-1-1.24-1.32-2-4.13-8.89-2.36-18-1.64-27.28,1.06-13.71,5.38-26.54,9.22-39.54.93-3.14,1-6.55,1.36-9.84.09-.84.52-2.05-.57-2.41-.28-.09-1.36,1.27-1.59,2.1-1.23,4.34-2.53,8.68-3.38,13.1-1.37,7.13-5.37,13.23-7.43,20.07-.9,3-1.7,6-2.61,8.92-.25.81-.22,2.23-1.25,2.13-.79-.08-.38-1.39-.39-2.18a59.86,59.86,0,0,1,2.85-19.75c2-3.16,2.92-6.76,4.12-10.24,4.13-12,6.71-24.38,10.31-36.49,2-6.91,3.86-13.8,3.37-21.09s-1.44-14.29-1.26-21.41c.26-10.83,1.38-21.64,2-32.47C1636.07,515,1637.42,517.91,1637.92,517.18Z" transform="translate(-724.07 -265.52)"/><path class="cls-2" d="M812.19,293.32c-6.05-4.14-11.64-8.74-15.1-15.39-.94-1.8-3-2.8-3.34-4.95a9.25,9.25,0,0,1,0-1.74,5.25,5.25,0,0,1,1.54.59c11.28,9.4,25.19,11.9,38.87,15.18,7.4,1.77,15.1,1.9,22.28,4.88,5.31,2.2,9.26,5.78,12.8,10a5.83,5.83,0,0,1,.91,6.38c-6,13.39-19,18.35-32.09,14.68-5.49-1.55-10-5.42-9.11-12,.84-6.14-2.68-9.23-7.46-11.7C819,298,814.82,296.41,813,294l1.32.79A66,66,0,0,0,828,298.52c6.3,1.19,8.8,4.64,7.9,11.11-.25,1.78-.44,3.56-.56,5.35a4.8,4.8,0,0,0,2.08,4.67,1.87,1.87,0,0,0,1.61.23c.77-.56-.1-1-.42-1.35-1.49-1.78-1.11-3.79-.82-5.82.33-2.35.94-4.74.77-7.06-.52-6.78-6.23-8-11.19-10-4.21-1.63-9-1.21-12.92-3.94-1.15-.81-3.22-2.4-3.38-2.23-1.52,1.61,1.94,2.13,1,3.83Z" transform="translate(-724.07 -265.52)"/><path class="cls-2" d="M1524.29,809c1.44,3.45,4.83,3.44,7.64,3.8,6.09.77,12.11-.32,18.07-1.74,5.61-1.34,6.12-.18,6.81,5.35,1.31,10.66-3.53,13.84-15.31,18.15-9.1,3.33-18.33,3.66-27.57,0-2-.8-2.65-1.4-1.81-3.55,1.69-4.33,3.12-8.76,4.62-13.17.38-1.11,1-2.67-.26-3.23-1.49-.64-1.68,1.21-2.21,2.13-1,1.75-2.39,3.51-2.72,5.41-.83,4.81-3.75,6.25-8.17,6.65-2,.18-1.86-.18-1.61-1.71a24,24,0,0,1,5-10.89c2.94-3.82,5.51-7.93,9-11.34C1517.72,808.1,1521.65,807.23,1524.29,809Z" transform="translate(-724.07 -265.52)"/><path class="cls-2" d="M1423.29,807.58c-2.06.18-4.87.38-5.64-1.16s1.49-3.5,2.63-5.13c1.63-2.34,3.44-4.56,5.14-6.86.47-.63,1.48-1.36.84-2.12-.86-1-1.85.08-2.49.56-4.3,3.19-8.6,6.4-12.73,9.81-2.08,1.72-4.07,1.78-5.68,0-1.78-2-.68-4,1.08-5.57,6.88-6.07,14.76-11,20.36-18.5.28-.37.79-1,1-.88,5.52,1.53,12.13-1.37,16.67,4.18,2,2.5,4.91,2.75,8,2.57,3.21-.18,5.86.27,4.71,4.82-.92,3.66-.78,7.45-3,10.93-3.28,5.22-8.52,5.28-13.49,5.94C1435,806.9,1429.1,807.12,1423.29,807.58Z" transform="translate(-724.07 -265.52)"/><path class="cls-1" d="M1514.44,551.48c.41.54,1.21,1.81,2.21,3.29A20.11,20.11,0,0,0,1514.44,551.48Zm-1-1.06.27.3.41.44A9.3,9.3,0,0,0,1513.49,550.42Zm-27.84-1.32h0s6.09-3.15,7.21-5.62A53.83,53.83,0,0,1,1485.65,549.1Zm0,0h0s6.09-3.15,7.21-5.62A53.83,53.83,0,0,1,1485.65,549.1Zm27.84,1.32.27.3.41.44A9.3,9.3,0,0,0,1513.49,550.42Zm1,1.06c.41.54,1.21,1.81,2.21,3.29A20.11,20.11,0,0,0,1514.44,551.48Zm0,0c.41.54,1.21,1.81,2.21,3.29A20.11,20.11,0,0,0,1514.44,551.48Zm-1-1.06.27.3.41.44A9.3,9.3,0,0,0,1513.49,550.42Zm-27.84-1.32h0s6.09-3.15,7.21-5.62A53.83,53.83,0,0,1,1485.65,549.1Zm0,0h0s6.09-3.15,7.21-5.62A53.83,53.83,0,0,1,1485.65,549.1Zm27.84,1.32.27.3.41.44A9.3,9.3,0,0,0,1513.49,550.42Zm1,1.06c.41.54,1.21,1.81,2.21,3.29A20.11,20.11,0,0,0,1514.44,551.48Zm-28.79-2.38h0s6.09-3.15,7.21-5.62A53.83,53.83,0,0,1,1485.65,549.1Zm27.84,1.32.27.3.41.44A9.3,9.3,0,0,0,1513.49,550.42Zm1,1.06c.41.54,1.21,1.81,2.21,3.29A20.11,20.11,0,0,0,1514.44,551.48Zm0,0c.41.54,1.21,1.81,2.21,3.29A20.11,20.11,0,0,0,1514.44,551.48Zm-1-1.06.27.3.41.44A9.3,9.3,0,0,0,1513.49,550.42Zm-27.84-1.32h0s6.09-3.15,7.21-5.62A53.83,53.83,0,0,1,1485.65,549.1Zm0,0h0s6.09-3.15,7.21-5.62A53.83,53.83,0,0,1,1485.65,549.1Zm27.84,1.32.27.3.41.44A9.3,9.3,0,0,0,1513.49,550.42Zm1,1.06c.41.54,1.21,1.81,2.21,3.29A20.11,20.11,0,0,0,1514.44,551.48Zm0,0c.41.54,1.21,1.81,2.21,3.29A20.11,20.11,0,0,0,1514.44,551.48Zm-1-1.06.27.3.41.44A9.3,9.3,0,0,0,1513.49,550.42Zm-27.84-1.32h0s6.09-3.15,7.21-5.62A53.83,53.83,0,0,1,1485.65,549.1Zm0,0h0s6.09-3.15,7.21-5.62A53.83,53.83,0,0,1,1485.65,549.1Zm27.84,1.32.27.3.41.44A9.3,9.3,0,0,0,1513.49,550.42Zm1,1.06c.41.54,1.21,1.81,2.21,3.29A20.11,20.11,0,0,0,1514.44,551.48Z" transform="translate(-724.07 -265.52)"/><path class="cls-2" d="M1065.05,593.28c1.1-2-.34-3.69-1.34-4.62-9.38-8.74-16.74-19.22-25.13-28.81-3-3.47-3.76-8.42-6.94-11.91a20.64,20.64,0,0,1-4.32-7.67c-.91-2.8-.42-4.91,2.42-5.66,3.58-1,3-2.74,1.57-5-.39-.6-.73-1.24-1.11-1.84s-1.38-1.52-.54-2.15,1.35.58,1.76,1.19q3.67,5.49,7.25,11.07c1.73,2.69,3.37,5.44,5,8.17-.66,3.08,1.9,5,3.48,6.37,7.09,6.29,12.7,14.06,20.36,19.74,4.44,3.3,8.66,6.91,12.89,10.48.8.67,2.83,2.06-.43,2.38-.65.07-1.42.95-1.79,1.64-1.43,2.72-4.79,4-5.48,7.19-.32,1.48-1.48,1.1-2.27.94C1068.64,594.39,1066.86,593.78,1065.05,593.28Z" transform="translate(-724.07 -265.52)"/><path class="cls-3" d="M1524.29,809c-2.64-1.8-6.57-.93-8.53-4.13a5.71,5.71,0,0,1,5-3.41c6.24-.33,10.29-5,15.43-7.38,2.16-1,4.25-.71,6.3-1.24a11.22,11.22,0,0,0,7.7-6.22c1.53-3.38,3.49-5.11,7.11-5.08,2.55,0,5.64-2.48,7.28-.89s.42,5.23.58,8a11.23,11.23,0,0,1-5.13,10.7c-.68.46-1.58,1-1.8,1.68-2.85,9-11.08,7.93-17.78,9.32A28.42,28.42,0,0,1,1524.29,809Z" transform="translate(-724.07 -265.52)"/><path class="cls-2" d="M847.61,444.12c.92.44.39.88.39,1.88-.63,2.91,0,2-.79,3.68-.21.32,0,.11-.21.32l-1,1c-.57.88-.55,1.55-1,2-1,1,0,0-.92.89-.76.73-2,.76-2.6,1.57a6.72,6.72,0,0,1-.48.54h0c-.65.65-.84.8-.92.87a13.91,13.91,0,0,1-1.81,1.54c-2.08,1.41-3.62,3.51-5.66,5-6.26,4.6-12.79,8.1-20.73,8.69-6.17.47-12.1,2.35-18.12,3.75-4,.94-7.9.7-9.63-4.12,2.28-.37,2.86-2.09,3.19-4,6.89-.61,12.48-3.88,18-7.87,2.41-1.75,5.61-3.38,9.07-3.17,4.43.71,7.7-2.27,11.3-3.89,4.95-2.21,9.52-5.28,14.27-8,.8-.46,2-1.28,2.54-.35s-.79,1.55-1.46,2.18c-1,.88-2,1.63-2.94,2.56-.36.36-.7,1.29-.52,1.51.45.55,1,.06,1.51-.3C841.93,448.32,844.77,446.23,847.61,444.12Z" transform="translate(-724.07 -265.52)"/><path class="cls-2" d="M1093.46,794.94c2.61,2.79,4.77,0,6.93-.76s2.56-.44,2.24,1.78c-.89,6.17-8.28,13.88-15.18,15.09a67.83,67.83,0,0,1-23.82.29,16.6,16.6,0,0,1-2.76-.76c-2.07-.78-3.94-1.38-.75-3.59,1.83-1.27,5.25-3.78,4-5.1-1.63-1.76-3.16,2.06-5.05,3-1.27.62-2.4,1.55-3.65,2.23-.65.35-1.2,1.92-2.15.56-.75-1.09-.58-2,.76-2.95,3-2.1,6.18-4.1,8.68-6.9a9.6,9.6,0,0,0,1-1c2.92-4.44,5.8-8.77,11.65-3.36.57.52,2.08,0,3.16,0,2.69.74,5.11,2.71,8.17,1.74A15.08,15.08,0,0,1,1093.46,794.94Z" transform="translate(-724.07 -265.52)"/><path class="cls-3" d="M1174.15,742.36c1.45-1.49,2.32-2.81,3,.8,1.27,7.11,4.85,13.47,7.72,20,.53,1.22,1.36,2.26,3,2.13.08.37.17.74.25,1.11l.24,1.08c.7,5.67,1.17,11.39,2.18,17,.61,3.37-.09,4.48-3.46,3.58a8.57,8.57,0,0,0-2.15,0c-3.29-2.3-6.48-2.15-9.87,0-1.37.86-2.55,3.25-4.82,1.46,1.61-3,3.89-5.76,2.91-9.53l.7.23v-.84c-.14-3.55-.44-7-3.81-9.24-1.38-.91-1.51-1.95-.88-3.63,1.47-4,3-8.11-.89-11.73-1.09-1,0-1.88.4-2.49a11.11,11.11,0,0,0,2.12-4.83c3.07-.35,2.91-2.91,3.43-5Z" transform="translate(-724.07 -265.52)"/><path class="cls-3" d="M1093.46,794.94a15.08,15.08,0,0,0-6.75.24c-3.06,1-5.48-1-8.17-1.74-.42-2.24-2.7-2-4-3-1.74-1.28-3.32-2.51-1.94-4.94,1.12-2,2.15-3.14,5-1.95a8.17,8.17,0,0,0,9.29-2.87c3.27-4.82,8.12-5.69,12.8-7.35a9,9,0,0,0,5.81-5.59,8.73,8.73,0,0,1,5.72-5.45c2.16,1.2.06,5.66,4.12,5.4-.06.32,0,.84-.21.92-2.7,1.23-1.09,3.53-1.38,5.35-3.44,2.72-4.09,7.12-6.15,10.65C1104.25,790.37,1099.47,793.31,1093.46,794.94Z" transform="translate(-724.07 -265.52)"/><path class="cls-2" d="M1637.92,517.18c-.5.73-1.85-2.23-2,.56-.64,10.83-1.76,21.64-2,32.47-.18,7.12.79,14.27,1.26,21.41s-1.33,14.18-3.37,21.09c-3.6,12.11-6.18,24.52-10.31,36.49-1.2,3.48-2.12,7.08-4.12,10.24,1.88-9,3.81-17.91,5.65-26.88,2.16-10.6,3.61-21.31,5.17-32,1.71-11.76.41-23.55,1.26-35.27s-.08-23.37.2-35c0-1-.35-2.09.94-2.31s.9,1,1.17,1.71C1633,512.83,1635.83,514.69,1637.92,517.18Z" transform="translate(-724.07 -265.52)"/><path class="cls-2" d="M1156.6,821.83c-1.57,1.74-1.33,2.78,1.16,2.69,3.2-.11,6.4-.36,9.6-.49.7,0,1.12-.67,2.21.41,2.68,2.67.86,3.55-1,4.89-5.16,3.65-11.16,4.72-17.21,5.39-5.09.56-10.23.73-15.34,1-1.49.09-2.49.11-1.62-2.09s1.94-4.64,1.79-7.24c-.05-.74-.07-1.49-.89-1.78s-.91.49-1.3.9c-1.46,1.54-3,3.07-4.5,4.52-.81.75-1.18,2.47-2.66,1.92-1.1-.41-1-1.84-1.11-2.87a9.26,9.26,0,0,1,3.23-8.59,19,19,0,0,1,3.6-2.89c2.54-1.36,4.77-6,8.2-.94.79,1.18,2.47.48,3.76.48C1148.28,819.38,1152.45,820.57,1156.6,821.83Z" transform="translate(-724.07 -265.52)"/><path class="cls-2" d="M1170.16,789.52c2.27,1.79,3.45-.6,4.82-1.46,3.39-2.13,6.58-2.28,9.87,0-1.19,3.07-4.07,4.84-5.7,7.61a37.49,37.49,0,0,0-5,18.13c-.14,5.15-2.86,6-6.52,6.88a5.35,5.35,0,0,0-2.12-3c-1.87-1.55-4.14-3.19-3.61-6.25l-.15-.15c-2.58-5.56-.43-10,3.23-14.2.72-.81.34-1.21-.66-1.26-.81,0-1.61-.16-2.42-.24C1165.24,794.42,1167.45,791.63,1170.16,789.52Z" transform="translate(-724.07 -265.52)"/><path class="cls-2" d="M800.45,348.5c1.79,1.29,2.15-.75,3.11-1.35,5.55-3.47,10.1-8.93,17.56-8.6a15.7,15.7,0,0,1,5.57,1.2c5.11,2.14,5.52,5.88,1.13,9.45a18.1,18.1,0,0,1-11,3.75c-4.34.14-7.46,2.22-10.43,4.89-2.14,1.91-4.07,4.07-6.34,5.8-3.36,2.56-4-.68-5.18-2.72Z" transform="translate(-724.07 -265.52)"/><path class="cls-2" d="M786.56,275.49a14.1,14.1,0,0,0,1.09,1.19c7.62,6.68,14.15,14.58,22.49,20.44,4.08,2.88,8.57,5.18,12.69,8,1.09.75,4.3,2,1.79,3.7-1.69,1.13-2.32,7.07-6.71,2.4-2.11-2.24-5.37-3.53-8.29-4.84-10.92-4.9-17.67-13.68-22.7-24.06-.79-1.64-.89-3.63-1.23-5.47C785.59,276.35,785.47,275.64,786.56,275.49Z" transform="translate(-724.07 -265.52)"/><path class="cls-3" d="M1161.87,795.62c.81.08,1.61.2,2.42.24,1,0,1.38.45.66,1.26-3.66,4.16-5.81,8.64-3.23,14.2l-.25.41.4-.26c-.53,3.06,1.74,4.7,3.61,6.25a5.35,5.35,0,0,1,2.12,3c-3.56,1.4-7.19,2.17-11,1.13-4.15-1.26-8.32-2.45-12.1-4.65-1.2-2.51-4.55-4.56-1.36-7.93,2.13-2.26,4-4.48,7.6-4.42,5,.08,7-4.11,9.57-7.4C1160.8,796.79,1161.06,796,1161.87,795.62Z" transform="translate(-724.07 -265.52)"/><path class="cls-2" d="M734.62,450.3c.94-.25,2,.32,2.8-.95,1.65-2.7,4.19-2.9,6.42-1.05s4.91,3.06,4.69,7.17c-.33,6.18-1.67,11.33-6.71,15.41-1.25,1-1.11,3.74-1.61,5.67-8.33-3.14-11.76-9.75-13-18.05-.54-3.64.41-5.68,4.33-6.26C732.43,452.11,735,453,734.62,450.3Zm11.44,6.85c-.4-1.62-.44-4.08-2.12-6-.54-.61-1.14-1.35-2.11-.88a1.4,1.4,0,0,0-.59,1.86c1,3.13-1,4.92-3,6.6-1.47,1.21-3.22,2.08-4.63,3.33-2.19,2-1.5,4.05.19,6,1.08,1.23,3,1.78,3.64.38,1.39-3,4.39-3.86,6.38-6C745,461.13,746.32,459.86,746.06,457.15Z" transform="translate(-724.07 -265.52)"/><path class="cls-2" d="M982.77,544.61c4.29,12.85,9.39,25.44,12.93,38.55.3,1.13.48,2.3.72,3.45-8.13-10.82-14.72-22.61-21.7-34.15-.72-1.21-1.29-1.87.81-2.23C978.84,549.67,981,547.37,982.77,544.61Z" transform="translate(-724.07 -265.52)"/><path class="cls-3" d="M991.3,452.34c-.25,2.41-2.21,4.47-1.43,7.08a39.08,39.08,0,0,0-6.69-3c-3.76-1.33-4.83-5.25-5.85-8.68-.3-1-.62-2.18-.87-3.29-.39-1.76-1.77-3.47.13-5.19s4.19-2.66,6.83-1.58c1.39.57,2.74,1.29,4.32.76.44.34.65.12.76-.33l1.3-.08c-2.17,4.51,1.15,9,.17,13.49-.14.67.73.8,1.35.83Z" transform="translate(-724.07 -265.52)"/><path class="cls-2" d="M1581.86,598.44c-1.92-.2-1.86-1.9-2.31-3.16-1.58-4.34-4.19-8.3-4.25-13.18,0-3.26-3.62-5.25-3.49-8.68,4.71.18,9.44.53,14.15.46,1.63,0,1.92,0,1.22,1.5C1583.81,582.69,1582.37,590.46,1581.86,598.44Z" transform="translate(-724.07 -265.52)"/><path class="cls-2" d="M1364.75,323.69c-1.63,2.95-5,2.5-7.45,3.16-10.49,2.88-21.36,3.94-32.13,5.36,1.25-6.2,2.88-7.54,8.78-7.75,9.23-.34,18.45-.84,27.68-1.22A16.89,16.89,0,0,1,1364.75,323.69Z" transform="translate(-724.07 -265.52)"/><path class="cls-2" d="M1113.72,774c.29-1.82-1.32-4.12,1.38-5.35.17-.08.15-.6.21-.92-4.06.26-2-4.2-4.12-5.4l.08.11c.59-.23.37-.5,0-.77.89-2,3.18-1.85,4.59-3.06.58-.5,1.22-.2,1.18.57-.15,3.27,1.86,5.75,2.91,8.59C1121.8,772.66,1120.13,774.23,1113.72,774Z" transform="translate(-724.07 -265.52)"/><path class="cls-2" d="M1585.61,631.56c3.69,7,4.21,14.67,4.87,22.32a39.79,39.79,0,0,0-3.56-2.71c-3.18-1.88-3.88-4.52-2.54-7.78C1586,639.55,1585.55,635.54,1585.61,631.56Z" transform="translate(-724.07 -265.52)"/><path class="cls-3" d="M1167.48,714.71c1,3.58,3.81,6.28,4.61,10a5.46,5.46,0,0,1-.22,3.32C1164.07,724.77,1162.74,720.73,1167.48,714.71Z" transform="translate(-724.07 -265.52)"/><path class="cls-2" d="M1469.09,333.57c.32-.53.68-1.33-.36-1.12-2.71.54-1.48-.34-.74-1.53,2.12-3.42,6-4.36,8.91-6.68,1.46,1.54,1,4.12,0,4.52C1474,329.92,1471.75,332.07,1469.09,333.57Z" transform="translate(-724.07 -265.52)"/><path class="cls-2" d="M1541.9,568c1.51,3.6,3.06,7.18,4.5,10.81.28.71.36,2.2.12,2.3-1.07.42-1.61-.63-2.19-1.33-2.8-3.38-4.32-7.09-2.71-11.53Z" transform="translate(-724.07 -265.52)"/><path class="cls-2" d="M1514.83,442.36c-2.66-1.7-2.3-4.14,1.1-7.54.47,0,1.06.24,1.39,0,.88-.55.72-2.49,2.49-1.89.09,0,.14.51.11.52-1.51.61-1.44,3.26-3.15,3.05-2.71-.33-2.23.25-.82,1.68C1517.89,440.19,1517,441.45,1514.83,442.36Z" transform="translate(-724.07 -265.52)"/><path class="cls-2" d="M761.87,481.83c-3.32,0-6.64.06-10,.14-.54,0-1.4.1-1.54.41-.34.77.25,1.33,1,1.54,1.6.45,1.94,1.57,1.71,3a4.29,4.29,0,0,1-2.69-.79c-1.52-1.08-3.24-2.44-2.83-4.23s2.44-.42,3.68-.45C754.78,481.37,758.33,481.68,761.87,481.83Z" transform="translate(-724.07 -265.52)"/><path class="cls-2" d="M1479,558.45c-.14-.63.33-.82.76-1,2.6,2.33.52,5.39,1.18,8.06.26,1-.54,0-.89-.18a6.58,6.58,0,0,1-3.2-3.49l1.86-2.26c.24.46-.06,1.25.75,1.33.29,0,.84-.2.86-.36A1.73,1.73,0,0,0,1479,558.45Z" transform="translate(-724.07 -265.52)"/><path class="cls-2" d="M1523.58,497.73c-3.53-2.13,0-4.88-.64-7.27,1.12,1.91,3.74,3.16,2.62,6.07a3.87,3.87,0,0,0-.06,1.28c-.31-.33-.61-.66-.93-1-.71-.74.84-2.92-1.18-2.49C1522.57,494.51,1523.39,496.55,1523.58,497.73Z" transform="translate(-724.07 -265.52)"/><path class="cls-2" d="M1140.2,385.84c.73-3.45-1.19-7.17,1.11-10.45-.53,1.79,4,3.91-.43,5.54-.76.28.4,1.13.69,1.7C1142.39,384.25,1142.13,385.4,1140.2,385.84Z" transform="translate(-724.07 -265.52)"/><path class="cls-2" d="M1141.63,394c-1.2-1.15-3-2-2.14-4.2.67.43,1.44,1.33,2,1.21,1.66-.36,3,.16,3,1.66S1142.49,393.17,1141.63,394Z" transform="translate(-724.07 -265.52)"/><path class="cls-2" d="M1467.53,355.78c.08-1.43.16-2.87.23-4.31,1,1-.37,3.14,2.22,3.74.74.17-1.18,3.61-2.36,4.69-1,.94.06,1.38-.34,1.88-3-1.28.31-3.08-.38-4.54.41,0,1,.06,1.17-.15C1468.47,356.52,1468.06,356.08,1467.53,355.78Z" transform="translate(-724.07 -265.52)"/><path class="cls-2" d="M743.19,435.29c.29.88.54,1.77.89,2.62s2.18,1.57,1,2.51-2.09-.54-2.62-1.49c-.74-1.3-1.51-2.37-3.12-2.51A6.58,6.58,0,0,1,743.19,435.29Z" transform="translate(-724.07 -265.52)"/><path class="cls-2" d="M1158.18,439.91c-.88-1.85-1.28-3.69,0-5.53.67.71-.12,1.71,1.48,2.63C1162.56,438.68,1158.69,438.84,1158.18,439.91Z" transform="translate(-724.07 -265.52)"/><path class="cls-2" d="M1464.68,337.85c.76-1.1-.2-3.86,2.74-2.85C1468,337.35,1465.84,337.14,1464.68,337.85Z" transform="translate(-724.07 -265.52)"/><path class="cls-2" d="M1049.52,601.17c-.32-1.16-.06-2,1.19-2.42.72,0,1.82-.48,1.65.91C1052.14,601.37,1050.81,601.31,1049.52,601.17Z" transform="translate(-724.07 -265.52)"/><path class="cls-2" d="M1174.14,742.46c-.52,2.09-.36,4.65-3.43,5Q1172.44,745,1174.14,742.46Z" transform="translate(-724.07 -265.52)"/><path class="cls-2" d="M1460.45,373.25c-.72-.95-1.47-2-.3-3,.87-.77,1,.44,1.54.76A1.87,1.87,0,0,1,1460.45,373.25Z" transform="translate(-724.07 -265.52)"/><path class="cls-2" d="M1562.53,548.74c-.15.68.31,1.48-.56,1.59-.59.07-.69-.46-.63-1s-.25-1.51.79-1.62C1562.24,547.69,1562.43,548.46,1562.53,548.74Z" transform="translate(-724.07 -265.52)"/><path class="cls-1" d="M1175.77,420.44c-.2.07-.62.23-1,.35-.07,0-.3-.22-.28-.28.14-.41.21-.95.51-1.18C1175.46,419,1175.34,419.58,1175.77,420.44Z" transform="translate(-724.07 -265.52)"/><path class="cls-2" d="M1188.62,364c-.53.33-.8.6-1.11.65-.49.09-1-.11-.85-.7a1.1,1.1,0,0,1,.79-.57C1187.68,363.31,1188,363.61,1188.62,364Z" transform="translate(-724.07 -265.52)"/><path class="cls-2" d="M1140,387.69c-.62,0-1.16-.27-1.08-.94,0-.27.58-.48.89-.72C1139.89,386.58,1140,387.14,1140,387.69Z" transform="translate(-724.07 -265.52)"/><path class="cls-2" d="M1367.6,323.64c-.53.67-1,.73-1.52-.06C1366.62,322.8,1367.1,323.48,1367.6,323.64Z" transform="translate(-724.07 -265.52)"/><path class="cls-2" d="M1459.67,373.21l.75.08c-.14.24-.28.48-.41.72C1459.89,373.75,1459.78,373.48,1459.67,373.21Z" transform="translate(-724.07 -265.52)"/><path class="cls-3" d="M1515.7,476l.44-.82a.8.8,0,0,1-.05,1.2Z" transform="translate(-724.07 -265.52)"/><path class="cls-2" d="M1049.62,603.47c0-.28,0-.56,0-.84l.73.42Z" transform="translate(-724.07 -265.52)"/><path class="cls-3" d="M1454.65,394.11l.3-1.22c.08.09.21.16.23.26.08.47.1.93-.6.9Z" transform="translate(-724.07 -265.52)"/><path class="cls-2" d="M988.5,438.12c-.11.45-.32.67-.76.33Z" transform="translate(-724.07 -265.52)"/><path class="cls-2" d="M997.07,587.9l0-.11Z" transform="translate(-724.07 -265.52)"/><path class="cls-2" d="M753.13,487l.74.47Z" transform="translate(-724.07 -265.52)"/><path class="cls-2" d="M1454.85,734.87l.1-.24.34.22-.21.24Z" transform="translate(-724.07 -265.52)"/><path class="cls-2" d="M1582.16,601.28a3.29,3.29,0,0,1-.3-.46c0-.07.06-.18.09-.28a3,3,0,0,1,.35.47S1582.21,601.19,1582.16,601.28Z" transform="translate(-724.07 -265.52)"/><path class="cls-3" d="M1111.31,761.68c.33.27.55.54,0,.77a3.39,3.39,0,0,1-.15-.52C1111.11,761.85,1111.24,761.76,1111.31,761.68Z" transform="translate(-724.07 -265.52)"/><path class="cls-2" d="M1188.28,767.52l-.24-1.08Z" transform="translate(-724.07 -265.52)"/><path class="cls-2" d="M1467.73,351.42l-.8-.7Z" transform="translate(-724.07 -265.52)"/><path class="cls-2" d="M1468.54,334.38l-.08.07Z" transform="translate(-724.07 -265.52)"/><path class="cls-3" d="M1413.49,805.18l-.25.46c-.08-.08-.24-.17-.23-.23a2.42,2.42,0,0,1,.23-.49Z" transform="translate(-724.07 -265.52)"/><path class="cls-2" d="M1479.79,555.22l.5-.73C1480.12,554.73,1480,555,1479.79,555.22Z" transform="translate(-724.07 -265.52)"/><path class="cls-2" d="M814,295c-.24-.24-1.57-1.45-1.81-1.68L812,292c.66-.18,4,3.49,4,4Z" transform="translate(-724.07 -265.52)"/><path class="cls-2" d="M1571.71,573.28l-.64-.56C1571.53,572.63,1571.76,572.8,1571.71,573.28Z" transform="translate(-724.07 -265.52)"/><path class="cls-3" d="M1061.21,386l-.28.08h.22Z" transform="translate(-724.07 -265.52)"/><path class="cls-1" d="M1076.7,547.53c5.42,6.3,12.25,11,19.26,15.11,6.38,3.79,12.55,7.67,17.71,13,.83.86,1.87,2.11.72,3.06-.76.64-1.39-.85-1.91-1.51-3.57-4.57-8.77-6.9-13.56-9.71-15.8-9.25-30.24-19.84-38.24-37.11-.11-.25-.6-.32-.92-.47-4.32-9.56-8.72-19.09-13-28.69-2.53-5.74-4.81-11.59-7.21-17.39l1.44-.15a.25.25,0,0,0,.26.28l.38.46c5,11.5,9.73,23.16,15.33,34.44a166.91,166.91,0,0,0,12.5,21.43,16.59,16.59,0,0,0,4.45,5Z" transform="translate(-724.07 -265.52)"/><path class="cls-1" d="M1132,570c5.46,8.66,7.85,18.56,11.42,28a162.83,162.83,0,0,1,6.28,18.61c2,7.93,3.58,16,5.31,23.94a4.16,4.16,0,0,1-.27,1.46,12,12,0,0,1-.66-1.22c-2.79-6.65-3.7-13.82-5.66-20.71-3-10.75-6.82-21.24-10.66-31.72-2.29-6.23-3.69-12.8-7.24-18.54a.54.54,0,0,0,.23-.62l0,0Z" transform="translate(-724.07 -265.52)"/><path class="cls-2" d="M1041.68,484.44l-.38-.46Z" transform="translate(-724.07 -265.52)"/><path class="cls-1" d="M1467.53,355.78c.53.3.94.74.54,1.31-.16.21-.76.11-1.17.15C1466.75,356.6,1466.73,356,1467.53,355.78Z" transform="translate(-724.07 -265.52)"/><path class="cls-1" d="M1479,558.45a1.73,1.73,0,0,1,1.32,2.06c0,.16-.57.38-.86.36-.81-.08-.51-.87-.75-1.33Z" transform="translate(-724.07 -265.52)"/><path class="cls-2" d="M865.6,388c-.4-2,.82-2.89,2.42-2.44,2.53.71,6.15-.11,6.75,3.95,1.33,9.09-1.37,17.07-6.49,24.5-9.83,14.31-24.28,20.47-40.61,23.56-3.22.61-5.85-.18-7.48-2.75-1.89-3-1.13-6.67.62-9.15,3-4.19,7.9-6.08,12.62-7.92,4.31,1.76,8.56,2.23,13.07.3C859.81,412.38,866.33,402.51,865.6,388Z" transform="translate(-724.07 -265.52)"/><path class="cls-2" d="M867,347.68c-.58,2.9-3.86,2.78-5.28,4.74a11.55,11.55,0,0,0-6.48-1.06l-.8-2.06c2-1.46,3.94-2.88,5.85-4.39,4-3.16,7.87-6.51,12.76-8.28,10.24-3.71,19.6-.79,28.72,3.83a9.82,9.82,0,0,0,2.39,1.13A1.74,1.74,0,0,1,905.4,344v0c-1.08,1.33-2.33,2.57-2.59,4.25a8.83,8.83,0,0,1-2.91,5.26c-3.46,3.07-8.86,6.14-11.32,6-1.22-.09-2.49-.69-2.19-1.76.4-1.47-2.54-2.92.08-4.2.58-.28,1-.71.37-1.36,2.8-1.1,5.94-1.58,7.88-4.22a10,10,0,0,0,.93-2.2c-1.06-.39-1.38.66-1.93,1.11-4.07,3.32-9.7,3.9-13.5,1.19-1.55-1.1-2.84-2.57-4.42-3.62C872.75,342.46,868.13,344.22,867,347.68Z" transform="translate(-724.07 -265.52)"/><path class="cls-2" d="M773.7,451c-1.28,1-2,.75-2.63-.84-.79-2.14.17-3.42,1.84-4.4,4.19-2.46,8.28-5.13,12.63-7.25,5.06-2.45,8.13-6.85,11.4-10.95,5.27-6.61,8.66-14.34,11.85-22.13.74-1.81,2.14-3.35,3-5.12,1.58-3.18,4.33-.84,6.46-1.39.53-.14.53,1.43.16,2.18-5.37,10.87-8.47,22.85-16.22,32.56a48.61,48.61,0,0,1-22.51,15.64,2.64,2.64,0,0,1-2.43-.24,1.06,1.06,0,0,0-.32-.15C775.18,448.32,774.33,449.53,773.7,451Z" transform="translate(-724.07 -265.52)"/><path class="cls-1" d="M796.29,383.39c2.33-6.17,4.17-12.64,8.63-17.69,3.48-3.94,14.58-5.11,18.88-2.45,1.38.87,1.31,2.15,1.31,3.47a27.91,27.91,0,0,0-1.6,3.53c-1.41,4.78-4.42,8-9.33,8.84-5.29.94-10.56,1.78-15.19,4.76C798.06,384.45,797.15,383.81,796.29,383.39Zm21.42-18.54c-3.58,0-7.08.39-10.23,2.31a1.66,1.66,0,0,0-.93,1.75c.52-.13,1.06-.22,1.56-.4,3.42-1.23,7-1.16,10.54-1.18,1.36,0,3.09.09,3-1.58s-1.95-.4-2.91-.88A2.67,2.67,0,0,0,817.71,364.85Z" transform="translate(-724.07 -265.52)"/><path class="cls-2" d="M796.29,383.39c.86.42,1.77,1.06,2.7.46,4.65-3,9.93-3.82,15.24-4.77a12,12,0,0,0,9.27-8.78,26,26,0,0,1,1.61-3.58c2.66,2,1.68,4.43.65,6.7a20.85,20.85,0,0,1-11.59,11.18c-6.85,2.55-11.17,7.41-15.23,12.93-.82,1.11-1.79,2.69-3.4,2.06s-3.81-1.2-4-3.56c-.11-1.69-1.55-3.82,1.21-4.82l0,0a4.4,4.4,0,0,0,1.26-2.44c0-.25.1-.56.2-1.07C794.25,385.91,796.45,385.2,796.29,383.39Z" transform="translate(-724.07 -265.52)"/><path class="cls-2" d="M787.2,410.15c1.69-3.59,7.57-4.86,10.07-2.11,1.18,1.31-.07,2.27-.92,3-4,3.39-8,6.83-12.2,10-6.66,5-11.15,12.11-17.36,17.54-1.95,1.71-3.93,2.66-6.5,2.25.42-2.83,3.11-4.05,4.45-6.27,5.8-9.61,13.29-17.59,23.11-23.23.72-.42,2.4-.43,1.84-1.59C789.24,408.77,788.14,410.35,787.2,410.15Z" transform="translate(-724.07 -265.52)"/><path class="cls-1" d="M902.77,338.67a1,1,0,0,1-1,1.79h0c-9.12-4.62-18.48-7.54-28.72-3.83-4.89,1.77-8.76,5.12-12.76,8.28-1.74,1.38-3.55,2.68-5.34,4l-1.52.38a3.41,3.41,0,0,0-2.25.44,1,1,0,0,1-.84.16,3.63,3.63,0,0,1-2.26-2.42c-.16-.44-.06-1.58.63-1.14,5,3.24,7.59-1.6,10.25-3.7,5.68-4.49,11.63-8.13,18.52-10.22,3.57-1.08,7.1.28,10.67.44a12.72,12.72,0,0,1,4.32,1l8.79,3.72a1.38,1.38,0,0,1,.24.14A12.07,12.07,0,0,0,902.77,338.67Z" transform="translate(-724.07 -265.52)"/><path class="cls-1" d="M787.2,410.15c.94.2,2-1.38,2.49-.45.56,1.16-1.12,1.17-1.84,1.59-9.82,5.64-17.31,13.62-23.11,23.23-1.34,2.22-4,3.44-4.45,6.27-2.39,2.7-4.77,5.4-7.18,8.08a3.77,3.77,0,0,1-1,.62c0-.34-.06-.78.12-1,8.41-10.55,13.63-23.58,24.59-32.11C780,413.9,783.71,412.2,787.2,410.15Z" transform="translate(-724.07 -265.52)"/><path class="cls-1" d="M847.37,444.3q-4.14,3.06-8.28,6.14c-.48.36-1.06.85-1.51.3-.18-.22.16-1.15.52-1.51.9-.93,2-1.68,2.94-2.56.67-.63,2-1.32,1.46-2.18s-1.74-.11-2.54.35c-4.75,2.67-9.32,5.74-14.27,8-3.6,1.62-6.87,4.6-11.3,3.89,5.67-3.36,11.25-6.88,17-10,4.24-2.3,8.16-5.36,13.13-6.11,1.1-.17,2.3-1.08,3.26.23S848.36,443.23,847.37,444.3Z" transform="translate(-724.07 -265.52)"/><path class="cls-1" d="M865.6,388c.73,14.52-5.79,24.39-19.1,30.05-4.51,1.93-8.76,1.46-13.07-.3,1.28-2.67,3.75-.33,5.44-1.29,3.18.93,5.93-.21,8.59-1.81l2.19-1.08.83-.65.82-.52c7.35-3,14-14.46,14.06-24.1l.21-.08Z" transform="translate(-724.07 -265.52)"/><path class="cls-2" d="M868.34,359.52c1.43,1.19,4.85-.85,4.77,2.21-.09,3.54-2.47,6.13-5.74,7.62-2.48,1.13-5,1-7-.91-1.65-1.68-.87-3.51.7-5,1.2-1.15,3-1.67,3.69-3.33C866,360.27,867.27,360.41,868.34,359.52Z" transform="translate(-724.07 -265.52)"/><path class="cls-1" d="M867,347.68c1.16-3.46,5.78-5.22,8.82-3.21,1.58,1,2.87,2.52,4.42,3.62,3.8,2.71,9.43,2.13,13.5-1.19.55-.45.87-1.5,1.93-1.11a10,10,0,0,1-.93,2.2c-1.94,2.64-5.08,3.12-7.88,4.22-3.87.29-7-.66-9.56-4C874.27,344.23,870.49,346.38,867,347.68Z" transform="translate(-724.07 -265.52)"/><path class="cls-1" d="M833.43,376.53c0,4.17-6.49,12.39-10.83,13.34-.66.15-1.6.57-2-.2-.52-1.13.77-1.23,1.34-1.67,5.28-4.17,10-8.62,8.42-16.32-.06-.28.14-.62.22-.93a5.93,5.93,0,0,1,1.17.62C833.4,372.65,833.07,374.58,833.43,376.53Z" transform="translate(-724.07 -265.52)"/><path class="cls-1" d="M765.08,452.39c-1.53-.6-2.71,1.62-4.22.36.8-.45,1.59-.92,2.41-1.33,2.09-1,4.13-1,5.23,1.25a42.32,42.32,0,0,0,3,4.41,10.27,10.27,0,0,0,5.15,4.24c.5.17,1.23.13,1.24,1a6.1,6.1,0,0,1-1.72-.12,13.92,13.92,0,0,1-8.86-8.2C766.79,452.75,766.33,452.07,765.08,452.39Z" transform="translate(-724.07 -265.52)"/><path class="cls-1" d="M868.34,359.52c-1.07.89-2.31.75-3.55.57a24.07,24.07,0,0,0-5.71-6.42,2.27,2.27,0,0,0-2.6-.25,2.61,2.61,0,0,1-1.06.28c-1,.08-2.15.69-2.63-.41-.38-.88,1.17-1.26,1.87-1.84a11.38,11.38,0,0,1,7,1Z" transform="translate(-724.07 -265.52)"/><path class="cls-1" d="M850.28,367.75c.07-1.9.67-3.05,1.86-3.76s3-2.4,4.09-1.15c1.44,1.57-1.12,2.19-1.9,3-2.07,2.08-2.16,3.95-.6,6.28.36.55,1.48,1.51.58,2.11s-1.59-.57-2.12-1.31A9.49,9.49,0,0,1,850.28,367.75Z" transform="translate(-724.07 -265.52)"/><path class="cls-1" d="M787.32,467.72c-.33,1.92-.91,3.64-3.19,4-.4-2,2.48-4.49-1-6.1-.31-.15.45-.9,1.1-.81A3.21,3.21,0,0,1,787.32,467.72Z" transform="translate(-724.07 -265.52)"/><path class="cls-2" d="M850.48,412.91l-.83.65Z" transform="translate(-724.07 -265.52)"/><path class="cls-3" d="M991.7,457.49a3,3,0,0,1-.53-.17s0-.18,0-.28a3.61,3.61,0,0,1,.55.12S991.71,457.36,991.7,457.49Z" transform="translate(-724.07 -265.52)"/><path class="cls-3" d="M991.32,452.36l.12-.21-.14.19Z" transform="translate(-724.07 -265.52)"/><path class="cls-1" d="M1243.47,355a1.34,1.34,0,0,1-.85-2c.12-.25.56-.36.85-.54l.36,2A4.54,4.54,0,0,1,1243.47,355Z" transform="translate(-724.07 -265.52)"/><path class="cls-3" d="M1163.63,680.21c0,.08.12.17.11.25s-.1.14-.16.21C1163.6,680.52,1163.61,680.36,1163.63,680.21Z" transform="translate(-724.07 -265.52)"/><path class="cls-3" d="M1163.26,683.34l.14-.26-.17.23Z" transform="translate(-724.07 -265.52)"/><path class="cls-3" d="M1164,678.29l.25.14-.22-.16Z" transform="translate(-724.07 -265.52)"/><path class="cls-1" d="M1474.23,721.67l-.73.26.29-.71Z" transform="translate(-724.07 -265.52)"/><path class="cls-1" d="M814,294c0-.23-.23-.43-.56-.55a2.54,2.54,0,0,1-1.28-1.2c-.53-.94-2.19-1.53-1-2.74.16-.17,2.23,1.42,3.38,2.23,3.88,2.73,8.71,2.31,12.92,3.94,5,1.93,10.67,3.19,11.19,10,.17,2.32-.44,4.71-.77,7.06-.29,2-.67,4,.82,5.82.32.37,1.19.79.42,1.35a1.87,1.87,0,0,1-1.61-.23,4.8,4.8,0,0,1-2.08-4.67c.12-1.79.31-3.57.56-5.35.9-6.47-1.6-9.92-7.9-11.11-4.42-.84-12-2.52-13-3.45a7.5,7.5,0,0,1-1-1.07Z" transform="translate(-724.07 -265.52)"/><path class="cls-2" d="M1161.87,811.47l-.4.26.25-.41Z" transform="translate(-724.07 -265.52)"/><path class="cls-1" d="M746.06,457.15c.26,2.71-1,4-2.26,5.3-2,2.11-5,3-6.38,6-.66,1.4-2.56.85-3.64-.38-1.69-1.91-2.38-4-.19-6,1.41-1.25,3.16-2.12,4.63-3.33,2-1.68,4-3.47,3-6.6a1.4,1.4,0,0,1,.59-1.86c1-.47,1.57.27,2.11.88C745.62,453.07,745.66,455.53,746.06,457.15Z" transform="translate(-724.07 -265.52)"/><path class="cls-2" d="M817.71,364.85a2.67,2.67,0,0,1,1.06,0c1,.48,2.84-.87,2.91.88s-1.67,1.57-3,1.58c-3.55,0-7.12-.05-10.54,1.18-.5.18-1,.27-1.56.4a1.66,1.66,0,0,1,.93-1.75C810.63,365.24,814.13,364.87,817.71,364.85Z" transform="translate(-724.07 -265.52)"/><path class="cls-1" d="M1188.62,364c-.53.33-.8.6-1.11.65-.49.09-1-.11-.85-.7a1.1,1.1,0,0,1,.79-.57C1187.68,363.31,1188,363.61,1188.62,364Z" transform="translate(-724.07 -265.52)"/><path class="cls-3" d="M1090,371c-5-7-12-15-9-30s11-11,15-21c3.67-9.17,8.49,26.14,8.49,26.14Z" transform="translate(-724.07 -265.52)"/><path class="cls-1" d="M1245.38,363.35C1244,360,1244,362,1242,356c-1.41-4.24,2.83-13.45,10-16s10.44-7,10.44-7l3.56,15Z" transform="translate(-724.07 -265.52)"/><path class="cls-1" d="M1026.91,615.07" transform="translate(-724.07 -265.52)"/><path class="cls-1" d="M1021.71,616c4.79-.49,3.92-7.4,7.35-10.45s6.39-3.61,8.94-3.54,7.5,4.5,9.5,2.5.39-3.26,2.5-6.5,6-5,10-6,7.69,3.5,10.6.5,4.5-5.87,6.4-6.5c1.5-.5,4.64-1.49,4.64-1.49L1080,597.4l-22.73,14.3-28.81,6.8Z" transform="translate(-724.07 -265.52)"/><path class="cls-1" d="M1455.53,730.23C1458,731,1470,730,1471,728s-2-7.6,0-11.3,5-5.7,8-5.7a29.08,29.08,0,0,0,5.8-.65l4.22,2.39L1485,728l-17,19-16-11Z" transform="translate(-724.07 -265.52)"/><path class="cls-1" d="M1484.31,552.64c-.34.84-.78,1.9-1.49,2.24s-1.67-.23-2.54-.39c-.16.24-.33.48-.49.73,0,.73,0,1.46,0,2.19,2.6,2.33.52,5.39,1.18,8.06.26,1-.54,0-.89-.18a6.58,6.58,0,0,1-3.2-3.49c-1.5-2.92-3.06-5.82-4.63-8.7,4-.43,12.59-3.68,13.39-4-.6.36-1.23.7-1.87,1s-2.09.33-1.88,1.71c.19,1.2,1,1.12,1.85.61C1484,552.29,1484.5,552.18,1484.31,552.64Z" transform="translate(-724.07 -265.52)"/><path class="cls-1" d="M1650,350.79c-3.3-9.13-11.17-13.85-18.76-18.74-5.7-3.68-11.8-6.81-17.16-10.92q-17.85-13.69-39.67-9.62c-17.15,3.23-34.52,4.46-51.85,5.43-16.24.91-32.31-2.38-48.34-4.7-10.11-1.47-20.16-2.55-30.21,0-10.77,2.69-21.59,4.66-32.78,4.74-9,.06-17.91.8-26.86,1.4-13.19.89-26.37,2.5-39.58,2.74-17.78.32-35.58.78-53.37-.22-6.34-.36-12.67,1.79-18.81,1.6-15.16-.46-30.24,1-45.36.88-6.41,0-12.82.31-19.24-1.12-13.49-3-27.12-5.32-40.62-8.29-7.69-1.69-15.51-2.49-23.24-3.94-13.37-2.49-26.71-5.13-40.13-7.29-11.78-1.9-23.06,1.13-33.92,5.22-14.19,5.33-28.34,10.49-43.52,12.28-25.84,3-51.51,8.28-77.76,5.55-13.75-1.43-27.69-1.72-41.13-5.21-10.26-2.67-21.08-4.49-28.82-13a6.43,6.43,0,0,0-3.11-1.65c-.66-.2-1.45-.15-1.86-1.27-3.53-9.47-11.1-14.45-20.3-17-7.67-2.16-15.53-3.65-23.33-5.33-12.54-2.71-24.65-6.36-34.8-14.7-1-.78-1.79-2.54-3.1-2s-1.26,2.46-1.63,3.83a4.55,4.55,0,0,0,0,1.43c.18,2.46-.46,3-2.79,1.63-1.24-.7-2.76-2.15-4.53-.88-2,1.42-2,3.56-1.45,5.53,1.37,5.44,3.09,10.76,6.38,15.43,6,8.53,14.32,14.17,23.47,18.75,6.66,3.33,7.29,4.24,2.22,9.33-9.36,9.41-15,20.76-18.89,33.09-1.55,4.93-4.68,8.47-7.88,12.16-5.53,6.4-11.24,12.69-14.13,20.88a13.1,13.1,0,0,1-3.41,5.58,77.19,77.19,0,0,0-20.56,30.17c-1.32,3.5-3,8-6.42,9.22-8.13,2.93-11.25,10.18-15.78,16.17a15.14,15.14,0,0,0-2.85,8.75c-.22,11.25,6.36,19.65,18.56,23.51,1.05.33,2.55,0,2.69,1.78.39,4.92,3.39,7.16,7.91,8.38,1.59.43,3.35,1.29,4.91,1.7,6,1.58,12.21,2.15,18.08-.07a46.77,46.77,0,0,0,10.17-5.82,31.53,31.53,0,0,1,19.18-5.85c2.63-.3,5.41.72,7.89-.88h0a7.87,7.87,0,0,0,.74.32,6.53,6.53,0,0,0,1.11.3,7.39,7.39,0,0,0,3-.15l.41-.1.74-.25h0l1.72-.36c1.09-.23,2.18-.47,3.27-.68.56-.11,1.11-.21,1.67-.3l1.62-.28a48.52,48.52,0,0,0,16.52-6.38c.72-.47,1.45-.9,2.2-1.31.41-.22.81-.42,1.22-.62.59-.28,1.18-.55,1.78-.8.36-.15.72-.3,1.09-.43l.78-.29c1.46-.53,3-1,4.5-1.4,5.94-1.62,12.35-1.8,17.69-5.4a2.6,2.6,0,0,1,3,0c5.83,3.71,12.31,6.49,17.84,10.49,10.06,7.28,20.1,14.6,29.66,22.64a171.41,171.41,0,0,1,17.6,17.43c11.72,13.13,21.07,27.83,30.31,42.67,5,8.09,9.64,16.52,15.07,24.26,6.58,9.4,12.5,19.39,20.72,27.65,9.33,9.37,19.16,17.89,32.21,21.54,11.58,3.25,23.38,2.65,35.12,1.06,2.37-.32,2.63.53,2.58,2.31.09.28.19.55.28.83,4.36,17,8.78,33.93,8,51.7-.29,6.39-1.21,12.9,3.36,18.45a3.63,3.63,0,0,1,.55,2.74c-1,4.49-.6,9-.51,13.54.2,11.47-1.25,22.84-1.62,34.26-.24,7.54-1,14.22-7.35,19.43-4.77,3.93-7.8,9.49-11.65,14.27-4.88,6-10.31,11.87-17.29,15.81-1.77,1-1.56,2.61-1.07,4.1s.15,3.77,2.23,3.54c2.62-.27,3.89,1.44,5.65,2.56a10.46,10.46,0,0,0,3.54,1.64,64,64,0,0,0,28-.78c6.83-1.79,15.44-10.17,14.86-17.74-.11-1.47,0-3.24,1.16-4.35,3.78-3.68,5.87-8.32,7.71-13.12a2.61,2.61,0,0,1,2.93-1.9c6.39.16,9.21-3.63,6.39-9.4-2.37-4.85-2.31-9.86-2.85-14.9-.15-1.42-.27-2.84-.45-4.25A244.32,244.32,0,0,1,1118,709.6c.09-2.85.06-6.09,3.2-7.84,2.5-1.39,3.3-3.6,3.27-6.31,0-5.73,0-11.45,0-17.17,0-1-.3-2.72.58-2.9,1.5-.32,1,1.51,1.3,2.33a72.65,72.65,0,0,0,10.12,20.44c3.27,4.52,7.37,8.91,9,14,4,12.34,7.35,25,5.91,38.28-1,9.19-1.19,18.26,2.19,27.14,1,2.61,1.72,5.78.66,8.47-4,10.25-9.08,19.88-18.82,26.08-2.72,1.73-5.4,3.55-8,5.52-5,3.83-6.73,12-2.19,15.71,3,2.47,6.71,5.85,11.18,6a122.27,122.27,0,0,0,14.67-.82,39.62,39.62,0,0,0,16.91-5.4c6.16-3.65,10-8.26,10.07-16.14a45,45,0,0,1,4-19.16c1.78-3.7,3.53-7.66,8.93-7.29,3,.21,3.38-2.24,3.27-4.49-.13-2.73-.51-5.46-.87-8.17-1.06-8-1-16.13-4.08-23.88-2.79-7.07-5.78-14.1-7.45-21.6-3.07-13.81-3.51-27.88-4.41-41.92-.27-4.28-1.17-8.54-1.17-12.81a219.63,219.63,0,0,0-3.47-36.74c-1.39-8.1-3.52-16.08-5-24.18-1.35-7.32-.43-8.19,6.77-9.84,15.85-3.64,31.77-2,47.64-.71,8.91.71,17.61,3.09,26.53,4a104.19,104.19,0,0,1,16.91,2.72,217.82,217.82,0,0,0,24.74,5.5c8.85,1.28,17.77,2.11,26.63,3.26,17.65,2.29,35.18,2.85,52.64-.94a86.7,86.7,0,0,0,21.59-7.23c6.42-3.32,12.77-6.16,20.43-1.91,4.65,2.59,10.49,3,15.73,4.56,11.09,3.37,22.22,6.62,33.85,7.4,2.62.18,3.51,1.22,3.84,3.53.93,6.61,1.26,13.39,3.09,19.75a80,80,0,0,1,2.59,30.33,129.84,129.84,0,0,1-17.46,53.66c-6.78,11.42-13.49,22.92-21.2,33.76-4.26,6-6.63,13.26-12.82,17.93-5,3.81-9.76,8-14.63,12.05-3.13,2.59-4.32,5.5-2,9.36s5.28,4,8.85,2.2c1-.49,2-.9,1.81.72-.33,2.92,1.53,3.25,3.65,3.62.49.09,1,.16,1.47.22a34.59,34.59,0,0,0,3.66.24,59,59,0,0,0,6.23-.26l4.78-.45c.57-.05,1.14-.11,1.72-.15s1.14-.09,1.71-.12h.07c.9-1.24,2.19-.19,3.24-.55l.17,0,.45,0,.63-.06h.09c.39,0,.78-.06,1.16-.07,9.62-.19,15.92-5.07,17.13-14.54a18.25,18.25,0,0,1,.32-1.83c.06-.29.14-.57.22-.84a8.52,8.52,0,0,1,6.17-6.26q.42-.13.87-.24l0,0c.26-.06.52-.14.77-.22a10,10,0,0,0,1.73-.79c.18-.11.36-.22.53-.34s.32-.21.48-.33l.94-.67a13.52,13.52,0,0,0,1.67-1.41c.13-.13.26-.27.38-.41l0,0a7.55,7.55,0,0,0,.88-1.27,6.21,6.21,0,0,0,.34-.74,6.57,6.57,0,0,0,.32-1.06,8.11,8.11,0,0,0,.18-1.37c.81-15.68,3.72-31,11.38-44.84A309.89,309.89,0,0,1,1505,702c7.1-10,13.88-20.26,18.06-32,.24-.65.39-2.09,1.21-1.7s1.32,1.65,1.6,2.63c3.36,11.65,8.31,22.78,10.17,34.93,2.33,15.18,2.17,30.16-1.63,45-2.84,11.11-7.53,21.62-11.53,32.35-3.45,9.25-7.36,18.34-14.19,25.79-3.88,4.24-7.64,8.61-9.46,14.21-.9,2.73-2.92,5.84-.49,8.36,2.24,2.32,5.13.71,7.67-.42.7-.31,2.2-1.11,1.6.72-.78,2.4,1,3.13,2.25,3.86A33.92,33.92,0,0,0,1525,840.4c7.26.62,14-1.34,20.54-3.7,5.32-1.92,11.5-4.07,13.27-10,1.59-5.32,2.32-11.39,1-16.89-1-4.08.22-6.24,2.93-8.57,2.16-1.85,4.47-3.78,4.79-6.86.42-4,.41-8.11.86-12.14,1.62-14.48,1.59-29.16,5.62-43.36,3.9-13.75,6.51-27.83,10-41.67s10.61-26.52,15.86-39.82c2.78-7,1.24-12.54-2.55-17.95-5.59-8-8.68-17.13-10.86-26.24-3.46-14.47.09-28.8,4.67-42.65a216.24,216.24,0,0,0,7.58-27.78c2.83-15.11,4.61-30.42,8.56-45.3,4.65-17.55,9.54-35.05,14.34-52.56.19-.73-.2-2.06.79-2,1.27,0,.87,1.55,1,2.29.77,7.07,1.29,14.16,2,21.23,2,18.92,1.26,37.91,1.41,56.86.1,12-.72,24-.92,35.93-.13,7.83.8,15.73,0,23.47-.86,8.32-2.93,16.56-4.93,24.72-3.51,14.35-7.36,28.64-9.2,43.31-.71,5.68-.88,11.7,2,17.15a6.5,6.5,0,0,0,.37.63c.29.46.61.91.92,1.35a.61.61,0,0,0,.85.15h0a7.6,7.6,0,0,0,1.38-2.51,7.41,7.41,0,0,0,.37-1c.51-2.08.18-4.37,1.6-6.22a23,23,0,0,1-.55,7.21l-.39,3.45a1,1,0,0,1,0,.17v0a.86.86,0,0,1-.22,1.36c-.07.29-.14.57-.2.86s-.14.63-.19.95-.09.51-.13.76c-.07.44-.13.88-.17,1.32,0,.19,0,.38,0,.56-.55,6.58,1.3,12.82,3.91,19a4.62,4.62,0,0,0,4.42,2.85c1.09,0,.74-2.45.74-3.78,0-8.39,2-16.43,4.15-24.45.16-.61.21-1.58,1.13-1.52.18,0,.38,1.22.4,1.87.14,4.06-.1,8.16.49,12.15.31,2.06-.22,5.94,2.1,5.9,2.65,0,1.14-4.15,2.51-6.07a.51.51,0,0,0,0-.35c-.94-8.23,2.68-15.47,4.83-23.07s5-14.82,5.92-22.69c1-8.53-.41-16.95-.56-25.42l-.27-.63c-.47-2.45-1-4.9-1.4-7.35-1.39-8-3.87-15.76-3.67-24,.27-10.79.13-21.58.25-32.37.09-8.37,0-16.77.56-25.11,1-14.81,2.47-29.59,2.9-44.46.31-10.72,2-21.39,2.82-32.1,1.61-20.1,3.75-40.17,3.25-60.38-.16-6.79-.47-13.63.12-20.38A31.73,31.73,0,0,0,1650,350.79ZM793.8,271.24a5.25,5.25,0,0,1,1.54.59c11.28,9.4,25.19,11.9,38.87,15.18,7.4,1.77,15.1,1.9,22.28,4.88,5.31,2.2,9.26,5.78,12.8,10a5.83,5.83,0,0,1,.91,6.38c-6,13.39-19,18.35-32.09,14.68-5.49-1.55-10-5.42-9.11-12,.84-6.14-2.68-9.23-7.46-11.7A70.41,70.41,0,0,1,814,295a9.28,9.28,0,0,0-1.08-1l-.73-.71c-6.05-4.14-11.64-8.74-15.1-15.39-.94-1.8-3-2.8-3.34-4.95A9.25,9.25,0,0,1,793.8,271.24Zm15.82,35.16c-10.92-4.9-17.67-13.68-22.7-24.06-.79-1.64-.89-3.63-1.23-5.47-.1-.52-.22-1.23.87-1.38a14.1,14.1,0,0,0,1.09,1.19c7.62,6.68,14.15,14.58,22.49,20.44,4.08,2.88,8.57,5.18,12.69,8,1.09.75,4.3,2,1.79,3.7-1.69,1.13-2.32,7.07-6.71,2.4C815.8,309,812.54,307.71,809.62,306.4Zm97.58,43.29A48.73,48.73,0,0,1,898,364.37c-2,2.19-4.12,3.77-7.67,1.53-7.8-4.93-15.44-1.86-18.35,7-.63,1.92-1.63,3.2-3.62,3.47-3.2.43-5.79-.93-8-3-.43-.4-.62-1-1-1.44s-1.3-1.19-1.61-1c-.73.34-.38,1.25-.23,1.92.93,4.12,6.66,8.11,11.28,6.51,3.67-1.27,5,.76,7,2.34s2.7,4.08,5,5.31c.23.13.25.69.37.91C884,393,885,395,885,397a50.49,50.49,0,0,1,.14,5.49,11,11,0,0,1-2.23,4.38c-1.08,1.29-.87,2.82-1.91,6.13-1.27,4-2.11,6.29-4.87,7.56C873,422,870,422,867,426c-.55.73-3.7,4.4-4,5a18.66,18.66,0,0,1-2.09,3.69c-2.11,2.46-2.53,6.48-6.69,7.18-1.61.27-2.05,2.41-3.44,3.28a4.82,4.82,0,0,0-2,2.6A3.05,3.05,0,0,1,848,449a6,6,0,0,0-1,1l-1,1v2a11.91,11.91,0,0,1,0,3c-1,2-1,1-2,3a43.87,43.87,0,0,1-2,4,17.92,17.92,0,0,0-1,2c0,.2-.14-.15,0,2,0,.33,0,1,0,1a4.55,4.55,0,0,1-.48.9c-3,3.65-7.37,4.59-11.66,5.77-8.94,2.46-18,2.61-27.2,2.34a21.74,21.74,0,0,0-11.95,2.88c-.66.4-2.11,2.87-3.06-.1-.2-.59-.42.25-.48.36-5.58,10.55-14.85,11.47-25.12,9.55a61.92,61.92,0,0,1-7.18-2.22l-.74-.47,0-.06a4.29,4.29,0,0,1-2.69-.79c-1.52-1.08-3.24-2.44-2.83-4.23s2.44-.42,3.68-.45c3.54-.11,7.09.2,10.63.35,3.32-.2,6.63-.49,10-.57,3.5-.08,6-1.83,8.27-4.28.45-.51,1.33-1.06.89-1.77-.64-1.07-1.43-.14-2.13.18-12.72,5.68-25.68,3.52-38.64,1.16-8.33-3.14-11.76-9.75-13-18.05-.54-3.64.41-5.68,4.33-6.26.89-.13,3.45.8,3.08-1.94-1.86.11-4.42,1.53-5.36.19s1.13-3.35,2.1-4.91c2.15-3.48,3.69-7.56,8-9.16a6.58,6.58,0,0,1,3.82-1.13,34.26,34.26,0,0,0,9.3-12.51c4.46-10.41,11.27-19.08,18.63-27.34,3.72-4.18,4.84-9.47,7.6-14,4.57-7.49,10.65-13.83,16.16-20.59,1.68-3.45,3.3-6.78,5-10.23,4-15.81,15-26.88,25-38.56,1-1.1,1.28-1,1.3.07.07,5,2.36,8.7,6.29,11.72,5,3.83,10.73,3.42,16.42,3.53a9.93,9.93,0,0,0,3.91-.34c3.7-1.51,5.26.69,7.59,3.08,3.06,3.13,1.24,3.9-1.22,5.26-1.34.74-2.45,1.9-3.76,2.73-2,1.26-3.8,2.67-6.4.85-1.56-1.09-3.45-.54-4.87.91-.66.67-1.65,1.26-1,2.38.78,1.37,1.63.28,2.4-.1s1.68-.91,2.35-.32c4.25,3.75,7.19.18,10.37-1.8,7.25-4.52,14.18-9.9,23.46-9.1,2.71.24,5.39.9,8.08,1.37,4.9.67,9.32,2.68,13.63,5C910,341,910.16,342.68,907.2,349.69Zm154,36.33a0,0,0,0,1,0,0l0,.05h-.22ZM1120,767.78c1.81,4.88.14,6.45-6.27,6.23-3.44,2.72-4.09,7.12-6.15,10.65-3.32,5.71-8.1,8.65-14.11,10.28,2.61,2.79,4.77,0,6.93-.76s2.56-.44,2.24,1.78c-.89,6.17-8.28,13.88-15.18,15.09a67.83,67.83,0,0,1-23.82.29,16.6,16.6,0,0,1-2.76-.76c-2.07-.78-3.94-1.38-.75-3.59,1.83-1.27,5.25-3.78,4-5.1-1.63-1.76-3.16,2.06-5.05,3-1.27.62-2.4,1.55-3.65,2.23-.65.35-1.2,1.92-2.15.56-.75-1.09-.58-2,.76-2.95,3-2.1,6.18-4.1,8.68-6.9a9.6,9.6,0,0,0,1-1c2.92-4.44,5.8-8.77,11.65-3.36.57.52,2.08,0,3.16,0-.42-2.24-2.7-2-4-3-1.74-1.28-3.32-2.51-1.94-4.94,1.12-2,2.15-3.14,5-1.95a8.17,8.17,0,0,0,9.29-2.87c3.27-4.82,8.12-5.69,12.8-7.35a9,9,0,0,0,5.81-5.59,8.73,8.73,0,0,1,5.72-5.45l.08.11a3.39,3.39,0,0,1-.15-.52c0-.08.12-.17.19-.25.89-2,3.18-1.85,4.59-3.06.58-.5,1.22-.2,1.18.57C1116.93,762.46,1118.94,764.94,1120,767.78Zm1.5-102.17c-.86,9.6-.35,19-.48,28.42,0,3.05-.45,5.56-3.31,7.32-2.2,1.36-2.86,3.69-2.89,6.23-.1,8.73-.31,17.45-.33,26.18,0,2.37-.79,2.55-2.63,1.63s-4-1.15-5.06-2.47c-1.39-1.72,1.13-3.19,1.58-4.91,1.12-4.21,1.62-8.15-2.39-11.36-1.36-1.09-2.8-2.45-2-4.81a3,3,0,0,0-1.36-3.46c-4.76-1.91-3.58-5.75-3.49-9.37.05-1.79.44-3.49-.41-5.47-1.06-2.48.17-4.36,3-6.06,4.27-2.58,4.29-10.05,1.15-13.86-2.11-2.57-4.77-4.84-3.7-9.15,1.15-4.63-2.27-7.56-6.09-8.7-5.41-1.61-6.77-6-8.17-10.26-1.33-4.07-2.1-8.29-4-12.22-1.3-2.71-1.66-5,2.82-6,7.49-1.59,15.15-1.56,22.57-3.22,1.51-.34,1.52.52,1.84,1.42q6.33,18.06,12.67,36.12C1121.26,663,1121.94,664.32,1121.49,665.61Zm53.23-244.82c-.07,0-.3-.22-.28-.28.14-.41.21-.95.51-1.18.51-.37.39.25.82,1.11C1175.57,420.51,1175.15,420.67,1174.72,420.79Zm12.79-56.17c-.49.09-1-.11-.85-.7a1.1,1.1,0,0,1,.79-.57c.23,0,.52.26,1.17.62C1188.09,364.3,1187.82,364.57,1187.51,364.62Zm82.06-37.49c-3.68,3.85-9,6.06-11.31,11.23-1.11,2.54-4.06,2.13-5.53,4.17a22.43,22.43,0,0,0-2.36,2.88c-.41.81-.82,3.25-1.95.31-.22-.58-.7-.58-1.17-.28s-.92.86-.37,1.45c.79.83.14,1.26-.16,2.06-.74,2-2.78-1.11-2.92.8-.08,1.12,1,2.27,1.37,3.49.22.83-.5,1.24-1.34,1.24a4.54,4.54,0,0,1-.36.5,9.21,9.21,0,0,0,1.31,6.78c1.34,2,.26,2.74-1.47,2.65-4.18-.23-7.93-.81-11-4.7a17.47,17.47,0,0,0-1.93-2.08,1.68,1.68,0,0,0-.39-.63c-5.7-5.7-16-8-22-7-5,.84-11.62,4.36-18,4s-35.54-16.3-48,0c-13,17-9,38,6.83,48.66l.32,0c.17.14.34.28.52.41a37.47,37.47,0,0,0,16.38,6.84c2.08.34,3.72,1.49,5.56,2.23,2.69,1.09,2.08,8.57-.75,10.52-.46.32-.9.65-1.32,1l0,0C1162,428.37,1153,429,1153,438s11,11,14,18,7,22,.21,26.7a98.37,98.37,0,0,0-11.56,9.64c-1.54-1.28-.79-4.54-.8-6.93-1.35-12.66-2.62-25.32-2.52-38.08,0-1,.91-2.79-.69-2.95s-1.21,1.55-1.35,2.74c-2,17,.55,33.8,1.34,50.68q1.33,28.45,5,56.7c1.51,11.48,2.45,23,3.65,34.54.94,6.11,1.74,12.25,2.86,18.33,2.18,11.81,2.8,23.81,5.34,35.63,2.49,11.59,2.54,23.7,4.13,35.51,2,15,.86,30.31,3.53,45.24a178.87,178.87,0,0,0,10,34.66,18.06,18.06,0,0,1,1.65,6.92c.08.37.17.74.25,1.11l.24,1.08c.7,5.67,1.17,11.39,2.18,17,.61,3.37-.09,4.48-3.46,3.58a8.57,8.57,0,0,0-2.15,0c-1.19,3.07-4.07,4.84-5.7,7.61a37.49,37.49,0,0,0-5,18.13c-.14,5.15-2.86,6-6.52,6.88-3.56,1.4-7.19,2.17-11,1.13-1.57,1.74-1.33,2.78,1.16,2.69,3.2-.11,6.4-.36,9.6-.49.7,0,1.12-.67,2.21.41,2.68,2.67.86,3.55-1,4.89-5.16,3.65-11.16,4.72-17.21,5.39-5.09.56-10.23.73-15.34,1-1.49.09-2.49.11-1.62-2.09s1.94-4.64,1.79-7.24c-.05-.74-.07-1.49-.89-1.78s-.91.49-1.3.9c-1.46,1.54-3,3.07-4.5,4.52-.81.75-1.18,2.47-2.66,1.92-1.1-.41-1-1.84-1.11-2.87a9.26,9.26,0,0,1,3.23-8.59,19,19,0,0,1,3.6-2.89c2.54-1.36,4.77-6,8.2-.94.79,1.18,2.47.48,3.76.48-1.2-2.51-4.55-4.56-1.36-7.93,2.13-2.26,4-4.48,7.6-4.42,5,.08,7-4.11,9.57-7.4.49-.64.75-1.45,1.56-1.81,3.37-1.2,5.58-4,8.29-6.1,1.61-3,3.89-5.76,2.91-9.53l.7-.61c-.14-3.55-.44-7-3.81-9.24-1.38-.91-1.51-1.95-.88-3.63,1.47-4,3-8.11-.89-11.73-1.09-1,0-1.88.4-2.49a11.11,11.11,0,0,0,2.12-4.83q1.72-2.49,3.43-5v-.1c2.8-5.34.84-9.93-2.28-14.33-7.8-3.26-9.13-7.3-4.39-13.32.41-4.93,1.53-10.1-4.25-13-2.94-2.87-6.63-4.55-10.35-6-6.54-2.51-11.5-8.2-18.79-9.26-.71-.1-1.31-1.87-1.72-3-3.49-9.25-7.08-18.45-10.33-27.78q-5.86-16.82-11.2-33.82c-3.44-10.9-8.14-21.71-16.06-30.37-6.89-7.53-15-13.79-23.37-19.69A145.58,145.58,0,0,1,1043.72,546c-.66,3.08,1.9,5,3.48,6.37,7.09,6.29,12.7,14.06,20.36,19.74,4.44,3.3,8.66,6.91,12.89,10.48.8.67,2.83,2.06-.43,2.38-.65.07-1.42.95-1.79,1.64-1.43,2.72-4.79,4-5.48,7.19-.32,1.48-1.48,1.1-2.27.94-1.84-.36-3.62-1-5.43-1.47-3.11-2.17-6-1.74-8.44,1-1.69,1.94-4.51,2.24-5.9,4.48.72,0,1.82-.48,1.65.91-.22,1.71-1.55,1.65-2.84,1.51,0,.49.07,1,.11,1.46l.73.42-.74.42c-2.3,3.47-4.64,3.62-8,1-2.42-1.91-5.7-3.64-8.16.7-.57,1-2.07,1.52-3.16,2.22-1.94,1.25-2.45,3-1.64,4.8.24.52,1.26,1.66,0,2.11-2.22.77-4.35,3.14-6.91.73-3.31-3.11-6.76-6.07-9.85-9.37-5.28-5.64-10.8-11.1-14.77-17.83l0,.11-.65-1.29c-8.13-10.82-14.72-22.61-21.7-34.15l-.19-.32c17-2.76,32.79-27,27.47-52.14-5.39-25.49-5.74-9.91-9-36-1-8,.49-16.06,6.44-16,12.56,0-4.07-23.5,29.15-32.4,9.22-2.47,12.62-7,12.44-12.46a8.28,8.28,0,0,0-.07-1.93,10.35,10.35,0,0,1-.16-1.35c-.08-2.09-1.44-4.88.07-6.09.77-.62,1.44-.34,2.1.22h0c2,3.05,10.6,8.65,14.82,1.85s2.7-11.45,7-14.13S1067,383,1070,384s11.68,1.74,13.84-1.13,5.39-10.18,2.78-19.52S1099,357,1101,351s-7-9-6-15,2.1-9.24.55-15.12c1.72-4.12.91-6.42-3-8.17-3.58-1.61-7.13-3.41-11.2-3.52-.6,0-1.36.56-1.84-.29a11.33,11.33,0,0,1,1.85-.91,18.2,18.2,0,0,1,2.47-.43c7.5-3,15.1-2.27,22.82-.9,20.09,3.55,40.27,6.65,60.32,10.43,10.3,1.94,20.7,3.87,30.71,6.74,12.82,3.67,25.63,3,38.54,3.28,10.9.21,21.68-1.54,32.55-1.62.73,0,1.77-.85,2.14.35C1271.22,326.8,1270,326.68,1269.57,327.13Zm291.77,222.19c.06-.66-.25-1.51.79-1.62.11,0,.3.76.4,1-.15.68.31,1.48-.56,1.59C1561.38,550.4,1561.28,549.87,1561.34,549.32ZM1455,734.63l.34.22-.21.24-.23-.23C1454.88,734.79,1454.92,734.71,1455,734.63Zm-41.71,71c-.08-.08-.24-.17-.23-.23a2.42,2.42,0,0,1,.23-.49l.25.26Zm44-16.37c-.92,3.66-.78,7.45-3,10.93-3.28,5.22-8.52,5.28-13.49,5.94-5.77.76-11.62,1-17.43,1.44-2.06.18-4.87.38-5.64-1.16s1.49-3.5,2.63-5.13c1.63-2.34,3.44-4.56,5.14-6.86.47-.63,1.48-1.36.84-2.12-.86-1-1.85.08-2.49.56-4.3,3.19-8.6,6.4-12.73,9.81-2.08,1.72-4.07,1.78-5.68,0-1.78-2-.68-4,1.08-5.57,6.88-6.07,14.76-11,20.36-18.5.28-.37.79-1,1-.88,5.52,1.53,12.13-1.37,16.67,4.18,2,2.5,4.91,2.75,8,2.57C1455.69,784.27,1458.34,784.72,1457.19,789.27Zm64.74-123.62a200.74,200.74,0,0,1-24.25,41.2c-1.87,2.46-5.79,5.33-10.27,3.8-2.87-1-4.81.24-7.09,2.16-1.48,1.24-2.31,5.07-5.82,3.08-.83-.47-.68.41-.66,1,.07,1.43,0,2.87,0,4.3l.44.45c.9,3.5-1.46,5.67-3.82,7-2,1.13-4.66,1.51-6.91,2.06a23.43,23.43,0,0,0-6,2.65c-.54.31-.86,1.46-1.59.92-.92-.69.06-1.46.4-2.12,3-5.73,6.18-11.34,8.25-17.48,4.17-12.38,9.11-24.56,9.93-37.83.33-5.51-.34-11-1-16.42-.21-1.84-.29-3.25,2.07-3.7,2.83-.53,3-3.15,3.56-5.28a158.05,158.05,0,0,0,3.46-22.28,6.84,6.84,0,0,1,.31-2.44c1.06-1.93,1.6-5,4.21-4.83,2.45.15,1.87,3.21,2.46,5a26.71,26.71,0,0,1,1,8.52c0,5.21,1.6,9.68,6.28,12.56,3.64,2.25,6.09,1.28,7.93-2.62a98.29,98.29,0,0,0,5.76-17.21c.18-.67,0-1.63.85-1.74,1.05-.15.87.92,1,1.53a257.32,257.32,0,0,0,9.75,33.21A5.67,5.67,0,0,1,1521.93,665.65Zm43.21,123a11.23,11.23,0,0,1-5.13,10.7c-.68.46-1.58,1-1.8,1.68-2.85,9-11.08,7.93-17.78,9.32a28.42,28.42,0,0,1-16.14-1.3c1.44,3.45,4.83,3.44,7.64,3.8,6.09.77,12.11-.32,18.07-1.74,5.61-1.34,6.12-.18,6.81,5.35,1.31,10.66-3.53,13.84-15.31,18.15-9.1,3.33-18.33,3.66-27.57,0-2-.8-2.65-1.4-1.81-3.55,1.69-4.33,3.12-8.76,4.62-13.17.38-1.11,1-2.67-.26-3.23-1.49-.64-1.68,1.21-2.21,2.13-1,1.75-2.39,3.51-2.72,5.41-.83,4.81-3.75,6.25-8.17,6.65-2,.18-1.86-.18-1.61-1.71a24,24,0,0,1,5-10.89c2.94-3.82,5.51-7.93,9-11.34a5.71,5.71,0,0,1,5-3.41c6.24-.33,10.29-5,15.43-7.38,2.16-1,4.25-.71,6.3-1.24a11.22,11.22,0,0,0,7.7-6.22c1.53-3.38,3.49-5.11,7.11-5.08,2.55,0,5.64-2.48,7.28-.89S1565,785.91,1565.14,788.63Zm22-213.25c-3.37,7.31-4.81,15.08-5.32,23.06l.09,2.1a3,3,0,0,1,.35.47s-.09.18-.14.27c.18,10.14.55,20.2,6,29.32,3.33,5.58,5.77,11.66,9.48,17.06,1.63,2.38.58,8.86-1.37,10.72-.84.8-1,.1-1.55-.45-1.33-1.42-2.81-2.71-4.23-4a38.28,38.28,0,0,0-3.55-2.71c-3.18-1.88-3.88-4.52-2.54-7.78,1.57-3.84,1.17-7.85,1.23-11.83-2.66-3.3-5.09-6.8-8.42-9.52-.37-.3-.92-.64-1-1-1.22-8.31-8.8-9.09-14.44-11.86-3.7-1.81-6.25-6.1-4.49-9.75,2.45-5.1,1.46-10-3.29-12.89a11.78,11.78,0,0,1-5.69-7.63c-3.32-13.15-10.65-24.2-17.58-35.69-10.83-18-26.33-31.33-41-45.63-11.07-10.84-19-23.78-26.31-37.23-3.24-5.95-5.76-12.23-8.87-18.22-.77-.11-1.41,0-1.67.87q2.29,6.09,4.6,12.17c3.36,5.32,6,11,8.85,16.62,6,11.72,14.57,21.25,23.82,30.24,10.58,10.29,22,19.73,30.83,31.71,4.49,6.13,8.28,12.78,12.65,19,3.35,4.77,6.58,9.55,8.22,15.22.07.18.15.35.22.53h-.59c0-.09.06-.19.09-.28-1.69-.45-3.22-1.64-4.87-2.3a2.18,2.18,0,0,0-.34-.14c-2.65-1.1-10.55-2.83-13.54-4.11-1.88-.8-4.35-4.14-6.18-6.83l0-.06c-1-1.48-1.8-2.75-2.21-3.29a1.64,1.64,0,0,0-.18-.22l-.09-.1-.41-.44-.27-.3-.07-.08-.08-.09-.17-.19h0c-1.94-2.17-5.82-6.49-8.16-8-3-2-11-1-12.1,1.46h0c-1.12,2.47-7.21,5.62-7.21,5.62h0l0,0c-.6.36-1.23.7-1.87,1s-2.09.33-1.88,1.71c.19,1.2,1,1.12,1.85.61.28-.16.78-.27.59.19-.34.84-.78,1.9-1.49,2.24s-1.67-.23-2.54-.39c-.16.24-.33.48-.49.73,0,.73,0,1.46,0,2.19,2.6,2.33.52,5.39,1.18,8.06.26,1-.54,0-.89-.18a6.58,6.58,0,0,1-3.2-3.49c-1.5-2.92-3.06-5.82-4.63-8.7h0c-8.4-15.44-17.38-30.6-22.16-47.81-1.8-6.47-4.84-12.61-7.55-18.8-1.15-2.61-2.67-5.35-6.46-3.79,6.87,8,8.58,18.29,12,27.8a204.77,204.77,0,0,0,18.9,39.58c4.73,7.6,8.49,15.8,13.85,23a3.37,3.37,0,0,1,.27,1.32,5.49,5.49,0,0,1-1.69.17c-8.95-2.12-17.53-.25-26,2.46a96.55,96.55,0,0,0-29.82,16c-7.66,6-16.2,10.07-25,13.68-9.3,3.83-18.43,8-28.4,10.32s-19.92,2.52-29.91,2.71c-15.44.3-30.67-2.11-45.9-4.6-5.28-.86-10.5-2-15.76-2.87-2.18-.37-2.57-1.36-1.61-3a24.9,24.9,0,0,0,3.12-10.86c0-.34-.39-1.06.7-1.19,9.62-1.09,16.25-7.16,22.38-13.89.75-.83,1.55-1.72,2.36-2.47,2.85-2.63,6.55-1.43,7.87,2.39,1.39,4,7.14,6.92,11.29,6.3,6.22-1,9-5.41,11.18-10.39,2.35-5.39,7.62-7.29,11.36-2.81,6.14,7.37,14,8.14,22.45,8,4-.07,7.66-.08,11.79,2,9.32,4.71,17.52-2.4,18.52-11.4a7.06,7.06,0,0,1,2-4c3-2,2.69-5,6.87-6,5.65-1.28,11-1.95,16.88-.42,9.67,2.52,14.09-4.85,14.15-12.43.1-13.58-4.32-25.53-16.57-33.4a19.63,19.63,0,0,1-6.16-5.92c-2.06-1-.87-2.5-.33-3.57,3.28-6.56,2.87-8.48-3.1-12.31a19.89,19.89,0,0,0-4.75-2.42c-4-1.25-4.35-3.67-2.55-6.95.22-.42.67-.8.71-1.22.48-5.68,3.84-9.1,8.6-11.74,1.51-.84,2.36-2.88,3.51-4.36-.28-2.49,2.94-4.84.08-7.67-.51-.5-1.08-1.83-2-2.37-5.19-3.2-10.71-5.81-16.89-5.89s-9.2-4.53-12.81-8.31a6,6,0,0,1-.55-.45c-3-2.78-4.18-5.24-.51-8.87,2.68-2.64,1.1-9.41-2-12.2-2.86-2.59-5.64-5.26-8.61-7.72-1.45-1.21-1.31-1.88.19-2.72a87.14,87.14,0,0,1,21.06-8.19c4.81-1.23,6.91-4.8,8.32-8.77,1-2.71-1.35-4.88-3.34-6.37a43.06,43.06,0,0,1-12.58-15.83c-1.54-3.1-1.87-6.72-4.3-9.46-4.07-4.6-9.71-6.23-15.21-8-2-.64-2.72-1-2.08-3.27,1.53-5.29.37-6.39-5-8.84-10.59-4.79-22.15-4.8-33.16-7.45-2.9-.7-6.6-1-4.73-5.71,1.25-6.2,2.88-7.54,8.78-7.75,9.23-.34,18.45-.84,27.68-1.22a16.89,16.89,0,0,1,3.12.45l1.33-.11c.54-.78,1-.1,1.52.06,16.05-1.05,32.09-2.2,48.14-3.13,10.27-.59,20.09-3.56,30.15-5.24a70,70,0,0,1,26.19.66,4.65,4.65,0,0,1,2.28,1.58s1.64,4.49,1.15,6.73S1466,327,1463,332s-1,10,1.68,15.38,1.32,9.62,0,14.4S1456,369,1451,376s0,15,1,20,10,10,12,12,10,3,19-2,9-6,11-5.13,0,8.13,0,11.13,5,9,14,14,7,8,6,11.08-3,4.92-2.62,10.9,12.59,5,12.49,10.34-6.9,7.68-10.6,12-1.3,14.69,1.53,16.23A13,13,0,0,1,1521,495c1,4,0,5,2.9,11.71S1537,515,1543.81,516s8.19,4,10.19,10-2,8-1,12,4,7,3.83,15,4.17,16,8.55,19.68,13.62,3.3,22.12,1.43C1587.6,574.34,1587.49,574.71,1587.18,575.38Zm-118.64-241-.08.07,0,0Zm-13.87,59.67a.14.14,0,0,0,0,.06l-.07-.05h.09c.09-.39.18-.77.28-1.16.08.09.21.16.23.26C1455.26,393.6,1455.28,394,1454.67,394.05ZM1644,615.35c1.53,12.6,1.33,24.93-3,37.09-2.38,6.58-3.76,13.51-5.61,20.28a13.68,13.68,0,0,1-.62,1.56c-.8-.36-.6-1.14-.64-1.74a69.09,69.09,0,0,1,4.46-29,43,43,0,0,0,2.25-13.74c0-.79.32-1.93-.82-2-.82-.09-1,1-1.08,1.62-2.65,15.06-9.92,28.77-12.91,43.75a78.66,78.66,0,0,0-1.6,20.63,10.88,10.88,0,0,1-.32,2.31c-.84-.39-1-1.24-1.32-2-4.13-8.89-2.36-18-1.64-27.28,1.06-13.71,5.38-26.54,9.22-39.54.93-3.14,1-6.55,1.36-9.84.09-.84.52-2.05-.57-2.41-.28-.09-1.36,1.27-1.59,2.1-1.23,4.34-2.53,8.68-3.38,13.1-1.37,7.13-5.37,13.23-7.43,20.07-.9,3-1.7,6-2.61,8.92-.25.81-.22,2.23-1.25,2.13-.79-.08-.38-1.39-.39-2.18a59.86,59.86,0,0,1,2.85-19.75c1.88-9,3.81-17.91,5.65-26.88,2.16-10.6,3.61-21.31,5.17-32,1.71-11.76.41-23.55,1.26-35.27s-.08-23.37.2-35c0-1-.35-2.09.94-2.31s.9,1,1.17,1.71c1.22,3.2,4.09,5.06,6.18,7.55a5.41,5.41,0,0,1,1.76,4.8c-1,18,.56,36.08-.61,54.06C1638.18,589.59,1642.44,602.25,1644,615.35Z" transform="translate(-724.07 -265.52)"/><path class="cls-1" d="M1454.67,394.05a.14.14,0,0,0,0,.06l-.07-.05h.09Z" transform="translate(-724.07 -265.52)"/><path class="cls-1" d="M1454.67,394.05c.09-.39.18-.77.28-1.16.08.09.21.16.23.26C1455.26,393.6,1455.28,394,1454.67,394.05Z" transform="translate(-724.07 -265.52)"/><path class="cls-1" d="M1468.54,334.38l-.08.07,0,0Z" transform="translate(-724.07 -265.52)"/><path class="cls-1" d="M1562,550.33c-.59.07-.69-.46-.63-1s-.25-1.51.79-1.62c.11,0,.3.76.4,1C1562.38,549.42,1562.84,550.22,1562,550.33Z" transform="translate(-724.07 -265.52)"/><path class="cls-2" d="M1161.65,700.32c.67-8.3-1.63-33.25-5.64-48.78S1167,672,1167,672l1.49,34.49S1167.08,702,1165,702,1161.57,701.4,1161.65,700.32Z" transform="translate(-724.07 -265.52)"/><path class="cls-1" d="M1555,543.07" transform="translate(-724.07 -265.52)"/><path class="cls-1" d="M1061.21,386a0,0,0,0,1,0,0l0,.05h-.22Z" transform="translate(-724.07 -265.52)"/></g></svg>