<svg xmlns="http://www.w3.org/2000/svg" viewBox="0 0 803.88 767.92"><defs><style>.cls-1{fill:#2d4d4b;}.cls-2{fill:#426968;}.cls-3{opacity:0.5;}.cls-4{fill:#fff;}</style></defs><g id="birght"><path class="cls-1" d="M591.86,749.22c.5-6-.3-12.09-.65-18.17a16.38,16.38,0,0,0-2.73-7.71c-5.81-9-10.46-18.79-16.77-27.52-1-1.37-2.25-2.45-3.15-3.88-5.44-8.68-7.07-17.86-3.84-27.73a47.22,47.22,0,0,0,1.43-4.8,12.57,12.57,0,0,1,4.4-7.6,10,10,0,0,0,1.53-1.52c1.9-2.37,5.3-3.74,5.51-7.24.3-5.14.72-10.44-2.47-14.95-2.91-4.12-6.75-7.41-10.5-10.75a19,19,0,0,0-7.87-4.09c-3.5-.94-4.75-4.3-6.63-6.76a34.76,34.76,0,0,0-18.55-13,102.72,102.72,0,0,1-14.51-5.15c-3.85-1.77-8.11-2.7-12.23-3.83-1.39-.38-2.75-.82-4.13-1.2-4.52-1.24-7-3.83-8.32-8.7-2.37-8.68-5.82-17.07-8.91-25.56a8.77,8.77,0,0,1-.79-3.45c.21-3.94,1.37-7.77,1.33-11.75A3.37,3.37,0,0,1,485,532c3.65-4.13,8-7,13.61-7.76,1.66-.21,3.32-.4,5-.59a29.77,29.77,0,0,1,13,1.43c3.11,1,5.8.25,8.47-1.22,1.25-.69,2.54-1.34,3.72-2.14,5-3.47,10.92-5,16.57-7a45.36,45.36,0,0,0,10-5.37,7.18,7.18,0,0,0,1.86-10.45,33.44,33.44,0,0,1-3.58-7c-1.76-4.5-5.14-8-7.52-12.13a5.88,5.88,0,0,0-2.24-1.74c-4.21-2.4-6.77-6.33-9.37-10.17-2-2.9-1.86-6.07-.64-9.3,1.44-3.81,2-7.84,4.67-11.33,1.3-1.71.89-4.86.9-7.36a16.2,16.2,0,0,1,1.6-7.29c1.58-3.21,2.1-6.83,3.83-10,2.11-3.88,5.38-5.56,9.61-6.5,5.83-1.3,9.27-5.49,11.07-11.07a23.58,23.58,0,0,0,.79-7.48,33.7,33.7,0,0,1,.36-7.15,7,7,0,0,0-2-6.28c-3.47-3.7-4.33-8.44-5.44-13.08-.38-1.58.26-3.05.94-4.49,2.86-6.07,6.64-11.38,12.34-15.1a15.25,15.25,0,0,0,4.5-4.55c3.78-5.78,9.92-8.08,15.94-10.4a7.4,7.4,0,0,1,5.94.6q4.34,2.18,8.77,4.13c4.4,1.94,9,1.4,13.39.32A68.57,68.57,0,0,0,637,335a36.46,36.46,0,0,0,11.18-9.94,60.86,60.86,0,0,1,10.56-10.71c4.07-3.22,9.34-3.91,14.57-4.39,7.71-.71,15.25-.7,22.71,1.77a4.44,4.44,0,0,0,5.78-2.36,13.83,13.83,0,0,1,4.11-4.92c3.88-3,4.13-7,3.26-11.37a122.88,122.88,0,0,0-5.78-18.81c-2.72-7.33-8-13.16-13.25-19a60.52,60.52,0,0,1-11.33-17.67c-3.11-7.62-1.32-14,3.78-20.54,6.75-8.72,16-13.7,24.8-19.56,4.13-2.77,8.74-2.94,13.46-1.33,8.43,2.87,17.21,2.73,25.94,2.69a107.75,107.75,0,0,1,17.5,1.61c5.75.92,9.3,5.21,12.72,9.38,1.85,2.25,3.67,4.49,6.25,5.83,3.91,2,6.69,5.36,9.64,8.39,4.23,4.33,9.41,4.18,14.61,3.94a54.55,54.55,0,0,0,9.46-1.79,23.13,23.13,0,0,0,10-5.3c4.95-4.39,8.57-10.17,9.09-17a76.87,76.87,0,0,0-.77-18.59,31.68,31.68,0,0,1,1.45-16.25,12,12,0,0,1,6.65-7.22c6.24-2.49,11.9-6.08,17.74-9.29a44.16,44.16,0,0,1,14.86-4.7c5.08-.78,7.95.81,10.44,5.3,2.32,4.16,4.81,8.21,7,12.45,1.77,3.4,2.41,7.15,4.48,10.49a23.47,23.47,0,0,0,13.91,10.45c5.17,1.6,10.48,1.74,15.75,2.19,3.67.32,7.26-1.23,11-1.61a69.88,69.88,0,0,0,11.22-2.41c5.33-1.49,10.71-.87,16.09-.83a5.38,5.38,0,0,1,3,1.08c2.28,1.63,3.89.63,5.62-1,2.34-2.21,3.25-5.27,5-7.83a32.7,32.7,0,0,1,7.61-8c5-3.65,9.79-7.59,15-11,5.59-3.67,20.08-4.14,25.52-.81,3.45,2.11,4.73,5.67,6.57,8.81,3.42,5.85,6.53,11.89,9.68,17.9,1.73,3.28,2.52,7,4.34,10.25a17.15,17.15,0,0,0,4.72,5.79,41.85,41.85,0,0,1,5.53,5.1,32.88,32.88,0,0,0,10.44,7.31c6.4,2.86,12.35,6.74,18.62,9.95a13.92,13.92,0,0,1,3.81,3.17c3.19,3.6,7.21,6.28,10.53,9.73a39.46,39.46,0,0,1,5,6.51,96.83,96.83,0,0,0,8,10.53,106.58,106.58,0,0,0,9.37,10.36c2.56,2.34,4.37,2.73,7.39,1.06,2-1.12,4.14-1,6.3-1,5.05.07,9.89-.64,13.25-4.94,2.32-3,3.45-6.57,4.27-10.17,1.27-5.6,2.19-11.28,4-16.74a17.41,17.41,0,0,0,.67-5.69,21.82,21.82,0,0,1,6.94-16.35,24.57,24.57,0,0,1,14.24-6.89c2.6-.34,5.13-1,7.68-1.33,6.24-.79,12.39-.22,17.91,3.18a7.21,7.21,0,0,0,4,1.15c3.6,0,7.2,0,10.79-.09a12.66,12.66,0,0,1,6.21,1.45c3.21,1.61,6.47,3.16,9.62,4.89a21,21,0,0,1,8.12,8.41c2.26,4.06,4.57,8.14,5.54,12.79a6.33,6.33,0,0,0,1.34,2.91c4.24,4.72,7.6,10.1,11.33,15.19,1.56,2.13,4.13,2.76,6,4.43,4.33,3.79,7.21,8.53,10,13.46a60,60,0,0,1,6.14,16.59c1.9,8.65-.57,16.24-3.69,23.55-2.26,5.28-7.54,8.08-13.65,8.56-5.16.4-10.07,1.72-14.3,4.92a4.45,4.45,0,0,1-1.62.71,5,5,0,0,0-4.09,5.51c.16,2.64-1.06,4.73-1.94,7.08-1.68,4.54-3.88,9.2-3.81,14,.1,7-1.27,14-.88,21,.17,3-1.4,5-3.34,7.42-2.85,3.51-6.29,6.48-8.9,10.12-1.26,1.75-1.42,4.27-1.55,6.53a42.17,42.17,0,0,0-.09,7.19c.59,4.92-1.84,8.46-4.79,11.9-2.58,3-6.07,5-8.68,8a3.09,3.09,0,0,1-2.23,1.05c-3.82.13-7.65.63-11.48,0a6.64,6.64,0,0,0-1-.27c-10.62.14-21.22-2.06-31.86-.35a23.16,23.16,0,0,1-3.23.22c-3.29.06-3.5.16-3.58,3.29-.24,9.8-3.37,18.91-7.46,27.55-2.22,4.7-7.11,7.32-12.34,8.54-1.75.41-3.56.49-5.32.86a5.08,5.08,0,0,0-4.35,4.26c-.72,5.2-1.57,10.53-.64,15.7.88,4.9,3.07,9.52,5.5,13.92a16.22,16.22,0,0,1,2.22,10.33,22.16,22.16,0,0,1-3.66,9.47c-2.29,3.37-4.07,7.08-6.63,10.28-.3.37-.44.93-.81,1.16-4.9,3.11-2.88,8-3.21,12.33-.11,1.43,1.25,2.27,2.47,2.79,3.55,1.51,6.48,4,9.92,5.77a23,23,0,0,1,8.15,7.42,5.52,5.52,0,0,0,1.09,1.4c5.74,3.79,6.7,10.33,8.77,16a14.54,14.54,0,0,1-.46,11.2c-.83,1.75-.89,3.9-1.08,5.89-.16,1.61-.43,3.29-1.54,4.32-2.1,2-3,4.54-4.31,6.94-2.55,4.77-6.74,8-10.65,11.55a19.12,19.12,0,0,0-6.62,11.84c-.13,1-.33,1.89-.47,2.84-.63,4.08-.59,8.07,1.19,11.94,2,4.35,2.35,9.23,3.84,13.66s.16,9.51,2.92,13.81c1,1.64.43,4-.93,6-3.27,4.95-3.43,10.24-.5,15.52a16.82,16.82,0,0,1,1.23,2.57c2,5.79,4.68,11.3,4.21,17.86a16.2,16.2,0,0,1-4.88,10.69,10.7,10.7,0,0,0-3.39,8.31,16.7,16.7,0,0,1-3.1,10.49,5.91,5.91,0,0,0-.7,5.79,80.85,80.85,0,0,0,3.84,8.86c2.39,4.59,2.43,8.73-1.07,12.88-5,6-6.84,13.19-7.25,20.85-.43,8.11-4.09,14.21-11.25,18.21-5.53,3.09-11.43,5.41-17.09,8.24a8.92,8.92,0,0,1-3.81.93,58.55,58.55,0,0,1-23.42-4.1c-7-2.73-14.17-3.2-21.5-2.45-2.39.25-4.8.75-7.16.42-8.24-1.12-14.25,3.17-19.87,8.16-3.84,3.42-7.14,7.46-11,10.84-4.1,3.57-5.4,8.22-5.36,13.14a46.92,46.92,0,0,1-2.86,16.84,22.17,22.17,0,0,1-10.92,12.36,115.7,115.7,0,0,0-10.77,5.74,7.28,7.28,0,0,1-7.82.31c-6.81-3.68-14.22-5.48-21.76-6.81a24.89,24.89,0,0,1-3.68-1.38c-5.53-1.86-11-3.5-17-3.6-6.54-.11-12.93-2-17.76-7.1A8,8,0,0,0,911,855c-4.55-3.31-5.82-7.54-4.66-13.07,1.4-6.67,5.28-12.2,7.85-18.33,2.41-5.75,2-11.67,1.63-17.58-.15-2.27-2.58-3.08-4.73-1.94a3.52,3.52,0,0,0-1.33,1.18c-3.28,5.18-8.82,7.3-13.89,9.79-5.31,2.61-10.86,2.82-15.83-1.39a9.45,9.45,0,0,0-6-2c-6-.2-12-.21-17.88-1.41a7.07,7.07,0,0,0-5.78,1.48c-7.36,5.75-15.61,4.59-23.76,2.91-4.51-.93-9-.77-13.55-1.33-2-.24-3.92.87-5.65,2-4,2.7-6.79,6.6-9.77,10.28-2.57,3.17-3.14,7-3.79,11-1.5,9.23-2.51,18.75-9.37,26.16-2.35,2.53-4.6,5.22-7,7.66-4.63,4.77-6.25,10.53-6.29,16.65a54.21,54.21,0,0,1-2.48,15.08,9.15,9.15,0,0,1-1.63,3.18,103.77,103.77,0,0,1-6.87,7.78c-2.95,2.94-9.62,3.25-13.85,1a65.78,65.78,0,0,1-10.56-7.39,15.35,15.35,0,0,0-12.54-3.31A15.9,15.9,0,0,1,713,901.16a40.18,40.18,0,0,1-7.38-5c-3.38-3-6.54-6.29-10-9.24-4-3.39-6-8-6.95-13.07-.51-2.89.44-5.73,1.55-8.35,2.24-5.24,3.68-10.39,2.69-16.31-.74-4.43-1.43-8.92-2-13.35-.73-5.62-1.47-11.4-1.07-17.17a35.7,35.7,0,0,0-.25-5.36C688.87,804.24,682.52,801,675,799c-1.43-.38-2.76.14-4.16.65-6.28,2.31-12.57,2.8-18.66-.69a28.52,28.52,0,0,0-7-2.69c-7.85-2-15.14-6.32-23.31-6.87-6.93-.47-12.07-4.55-17.41-7.82s-8.13-9.5-10.86-15.29C590.93,760.79,592.34,755,591.86,749.22ZM619.1,582.17c2.4,0,4.8-.07,7.19,0a22.37,22.37,0,0,1,17.1,8.45,39.47,39.47,0,0,1,7.51,14.56c1.62,6.49,1.43,13.23,1.68,19.89.09,2.24-.22,4.81,1.74,6.29,2.6,1.94,4.66,4.47,8.26,5.35a28.58,28.58,0,0,1,11.64,6.11,38.49,38.49,0,0,1,11.28,17.94c.68,2.15.56,4.66,1.62,6.55a26.69,26.69,0,0,1,2.68,9.54c1,7,3.31,13.64,5.53,20.29a15.74,15.74,0,0,0,3.66,5.7c.33.36.71.72,1.23.48s.54-.73.51-1.23c-.1-2.15.19-4.41-.37-6.43a37,37,0,0,1-.44-18c.79-3.74,1.59-7.54,4.25-10.52a33.13,33.13,0,0,1,12.91-8.87c11.2-4.3,19.57-12.26,27.43-20.85,2.45-2.69,4.53-5.79,5-9.68,1.54-11.44,15.71-20.7,27.88-18.84,2,.31,4,2.27,6,1.14s1.27-4,2.26-5.86c1.2-2.25,2.61-4.48,5.5-4.54,2.66-.06,4.36,1.66,5.59,3.87,1.81,3.27,1.28,6.72.78,10.16-.38,2.65-1.91,4.88-2.83,7.33-1.39,3.73-1.42,7.72-2.33,11.52-1.81,7.56-6.09,13.91-10.61,20.1-2.56,3.5-5.31,6.89-9.35,8.66s-8,3.85-12.15,5.3a11.81,11.81,0,0,0-8.3,9.93,45.44,45.44,0,0,0,.23,13.22,12.15,12.15,0,0,1-1.07,7.61c-2.08,4-4.89,7.76-8.93,10.1a299.32,299.32,0,0,0-26.53,17.51c-5.85,4.25-6.3,6.83-5.16,13.88a10,10,0,0,1,0,4.25c-1,3.84-.73,5.19,2.74,7.08,5.12,2.8,9.6,6.61,14.87,9.13a10.8,10.8,0,0,1,4.25,3.78c2.58,3.8,6.48,5.17,10.68,5.57,5.24.49,9.84-1.51,13.92-4.71a57.72,57.72,0,0,1,6.71-4c4.73-2.79,10.28-3.12,15.11-5.48,4.6-2.26,9.14-2.23,14.16-.87,8.76,2.37,16.45,6.2,22.8,12.78A49.6,49.6,0,0,0,827.59,775a21.12,21.12,0,0,1,4.52,3.37c3,2.91,5.71,6.07,9.44,8.21,5.76,3.3,12.36,5.17,17.22,10a5.45,5.45,0,0,0,2.5,1.35c.58.15,1,.48,1.57-.12,2.32-2.58,5.76-3.27,8.56-5.06,8.57-5.49,17.55-9.79,28.14-9a3.21,3.21,0,0,0,1.42-.12c8.69-3.66,21.56,5.65,24.37,13.21a51.07,51.07,0,0,1,3.53,16c.29,8.13-2.6,15.45-6.54,22.33-2.1,3.66-4.26,7.19-4.37,11.55-.07,2.53,1,4.52,3.39,5.21a28.93,28.93,0,0,0,8,1.6c9.14,0,17.56,2.72,25.87,6.08.51.2,1,1.11,1.5.5.64-.86-.55-1.11-1-1.51a42.34,42.34,0,0,1-7.27-8.37c-1.37-2.24-3.09-3.34-5.91-2.94a12.57,12.57,0,0,1-10.4-2.91c-6.53-6-6.7-14.22.41-19.75,3.29-2.57,5.66-5.74,8.21-8.87,2.32-2.85,4.1-6.24,7.77-7.75s5-3.85,5.38-8c.28-3.14.17-6.42,1.73-9.39a29.21,29.21,0,0,1,15.53-13.66c5.76-2.31,11.81-3.48,18.17-1.93,4.16,1,8.49,1.64,12.61-.47a39.73,39.73,0,0,1,7.11-2.42,18.23,18.23,0,0,1,11.27,0,13.31,13.31,0,0,0,10.07-.48,39.49,39.49,0,0,1,16-3c2.35,0,4.67,1,7.08.7a101.09,101.09,0,0,0,18.77-4,6.58,6.58,0,0,0,3.56-3.36c1.59-2.86,3.41-5.48,3.56-9.11.11-3,1.86-5.87,2.61-8.86,1.18-4.72,2.54-9.4,3-14.29.64-6.34,3.41-12.14,4.93-18.27a42.89,42.89,0,0,1,6.63-13.77c2.71-4,6.88-6.65,9.44-10.75.29-.47,1.08-.51,1-1.25-.58.13-1.18.22-1.75.4-4.1,1.3-8.22,2.47-12.6,2.23a5.32,5.32,0,0,1-4.84-3.71,5,5,0,0,1,1.81-5.79,11.71,11.71,0,0,1,4.38-2.27c4.49-1.18,8.81-2.72,12.56-5.78,4.24-3.46,4.69-4.72,1.09-8.93a3.68,3.68,0,0,1-.43-4.85c2.29-4,8.25-4,11.6.21a15.19,15.19,0,0,1,2.45,15.84c-.52,1.34-1.26,2.6-1.9,3.9a20.38,20.38,0,0,1,3.14-2.9c3.54-2.11,3.75-5.11,2.78-8.65a71.34,71.34,0,0,1-1.74-8c-1-6.58-1.8-13.25-3.76-19.58-1.37-4.43-2-8.52-.45-12.88.1-.29.32-.68-.09-.89-.13-.07-.45.09-.61.23q-8.1,7-16.18,14.09a5.72,5.72,0,0,0-1.29,2.52,91.11,91.11,0,0,1-10.93,20.9c-4.56,6.37-9.48,12.26-16.39,16.27-1.83,1.06-3.5,2.47-5.26,3.7-1.13.79-2.39,1.62-2.61,3.25a59,59,0,0,1-3.24,13.15,3.59,3.59,0,0,0,.18,3.44c3,4.7,1.32,8.89-1.39,13-2.5,3.77-5.53,7.15-8.18,10.81a17.94,17.94,0,0,1-8.48,6.92A118.52,118.52,0,0,1,1025.6,737c-2.62.45-5.41,1.54-8.11.7-2-.63-4-.36-6-.61-2.24-.28-2.94.61-2.85,2.85.19,5,.17,10.07.15,15.11a23.48,23.48,0,0,1-3.4,11.83,9,9,0,0,1-5.05,4.41c-8.72,2.54-15.85,1.28-21.83-6.84a6.69,6.69,0,0,1-1.67-4.94c.58-4.71.84-9.5,1.86-14.12,1.62-7.3,4.74-14.28,4-22.06a9.14,9.14,0,0,1,1.61-5.41c3.54-5.72,7.91-10.48,14.59-12.57a29.26,29.26,0,0,0,6-2.11,20.16,20.16,0,0,1,13.38-2.87c1.44.21,1.33-.38.93-1.34-1-2.26-1.11-4.41.95-6.22.46-.41,1-.91.78-1.5-.4-.93-1.24-.23-1.86-.22-3.69.06-7.42.57-10.82-1.56-4-2.48-8.46-3.83-12.71-5.57-4.8-2-8.92-4.9-13.12-7.61-3.62-2.32-5.18-6.78-5.49-11.24a8.74,8.74,0,0,0-.85-3.81,12.21,12.21,0,0,1-1.38-7.63,7.35,7.35,0,0,0-.65-3.49c-2.19-5.29-1.81-10.84-1.49-16.31.28-4.63,6.31-7.94,10.3-5.57,4.82,2.86,8,7.24,8.52,13a76.24,76.24,0,0,0,5.73,22c1.51,3.8,5.06,5.32,8.73,6a18.22,18.22,0,0,1,6.38,2.13,13.11,13.11,0,0,0,9.21,2.16,46.62,46.62,0,0,0,11.22-3.36c.72-.32,1.2-1.16,1.81-1.73,2.44-2.28,4.73-4.69,7.37-6.81a40.48,40.48,0,0,0,8.6-8.64c4.3-6.44,8.13-13.18,13.66-18.72a4.35,4.35,0,0,0,.65-1.27,35.58,35.58,0,0,1,9.17-11.81c3.52-2.93,6.63-6.21,9.92-9.34.65-.62,2-1,1.7-2.06s-1.5-.86-2.45-1.08c-4.52-1-6.15-5.36-3.49-9.14a7.23,7.23,0,0,1,4.16-3.27c4.88-1,9.6-3,14.72-2.68a34,34,0,0,0,9.89-1.11c1.52-.36,3.08-.06,4.59-.65,5-2,9-4.41,7.2-11.32-1-3.66-2.21-7.21-2.64-11.06-.3-2.8.87-5.59-.32-8.35s.07-6.05-1.5-8.69c-3.16-5.34-4.13-11.37-5.76-17.2-1-3.49-.37-7.12-1.27-10.61-1.41-5.46-3.84-9.45-10.23-10.31-5.33-.72-10.44.39-15.63.62-2.14.1-3.77,1.75-4.67,4a20.28,20.28,0,0,0-1.51,6.59c-.17,3.44-1.58,6.87-.83,10.25a16.14,16.14,0,0,1-.89,10.43c-1.64,3.85-4.54,5.47-8.26,5.82-3.39.32-5.88-1.62-7.8-4.29a15.91,15.91,0,0,1-.83-1.59c-2.3-4.13-4.15-5.06-8.63-4.15-2.1.42-4.14,1.18-6.23,1.59a6.16,6.16,0,0,0-4.28,3c-3.06,5.29-7,9.9-10.7,14.73-5.42,7.14-10.78,14.34-18.11,19.7-6.1,4.46-12.68,7.63-20.54,7.24-3.47-.18-7,.18-10.43-.1a41.38,41.38,0,0,1-16.73-4.72c-2.13-1.16-3.46-3.24-5.4-4.68a30.26,30.26,0,0,1-10-13.29,32.53,32.53,0,0,1-1.79-15.18c.5-5.09,2.66-9.27,7.66-11.19,6.38-2.45,12.82-3.7,19.25.18,3.29,2,6.77,3.72,10.82,1.93a2.56,2.56,0,0,1,1.43,0c2.63.5,4.45-.86,6.42-2.36,2.84-2.16,5.46-4.67,8.44-6.52a55.57,55.57,0,0,0,7.33-5.65c2.94-2.54,6.07-4.83,10.15-5.57,8.9-1.6,16.85-5.39,22.3-12.74,4.6-6.2,10.7-9.65,17.64-12.19a19.26,19.26,0,0,1,12.3-.38c4.27,1.24,8.61,2.1,13,1.22a45.2,45.2,0,0,1,12.42-1.23,30.94,30.94,0,0,0,8.83-1c3.57-.76,7.12-.89,10.38,1.29,3.59,2.41,7.83,3.49,11.62,5.53,1.34.72,1.65.17,1.45-1.16-.42-2.83-.83-5.59-3-7.85a9.61,9.61,0,0,1-3-7.08,13.75,13.75,0,0,0-.65-4.21c-.26-.9-.73-1.75-2-.52-3.76,3.77-8.67,5.25-13.65,6.61-3.66,1-7.36,1.95-10.45,4.48a11.17,11.17,0,0,1-4.24,1.85c-5.67,1.5-11.34-3-11.56-8.92-.2-5.28,3.15-8.39,6.72-11.22,5.11-4,11-6.66,17.09-8.95,1.18-.45,2.43-.73,2.24-2.28-.42-3.41.59-7-1.07-10.26a6.6,6.6,0,0,1-.49-3.88c.5-3.72-1.25-7.33-.51-11.05.06-.28-.22-.63-.34-.94a2.87,2.87,0,0,0-.82.55,14.67,14.67,0,0,0-.89,1.54c-4.32,7.5-10.7,11.89-19.44,11.71-8.22-.16-16.22-1.86-24.2-4.09s-13.84-7.14-19-13.32c-4.4-5.29-7.07-11.57-10.21-17.57a18.72,18.72,0,0,1-2.14-8.6c0-2.49-.82-3.74-3.19-4.36a16.13,16.13,0,0,1-11-9,28,28,0,0,0-7.73-10.11c-3-2.45-3.56-5.58-2.42-9,1.89-5.66,8-11.34,14.7-6.48,1,.7,2,1.3,3,2,2.09,1.54,4.1,3.29,6.94,3.41,8.69.38,14.38,5.69,18.54,12.46,3.19,5.2,6.41,10.54,8.15,16.55a3.6,3.6,0,0,0,3.37,2.72c8,.82,16.08,1.52,24,2.88,4.37.75,8.88,1.33,12.85,4a23.51,23.51,0,0,1,9.08,10.66c.25.63.73,1.34,1.59,1.2.66-.11.86-.8,1-1.36a35,35,0,0,1,3.38-7.52,15.1,15.1,0,0,0,.95-12.8c-3.14-8.6-6.79-17-10.77-25.21-1.1-2.27-2.24-4.51-2-7.15.16-2.23,1.86-4.62,3.93-5a8.66,8.66,0,0,1,6.6.89,15.26,15.26,0,0,1,5.69,5.81c.49.95.93,2.14,2.23,2s1-1.42,1.33-2.24a43.25,43.25,0,0,1,3-5.74c3.33-5.49,6.77-10.89,9.11-17,1.23-3.2.81-5.51-1.92-7.56s-5-4.59-7.88-6.08c-7.46-3.81-15.13-6-23.18-1.14-3.12,1.88-3.5,2.86-.56,5.12a40.21,40.21,0,0,1,5.9,5.21c2.49,2.83,2.06,6.41-.89,8.45a6.62,6.62,0,0,1-5.9.52,6.37,6.37,0,0,0-6,.74c-3.45,2.21-8.55,1.22-11.4-1.71-3-3.1-6-6.24-9.14-9.17-2.41-2.24-4.85-4.86-8.47-4.71-3.9.17-7.08-1.23-10.47-3-10-5.09-20.57-8.75-30.55-13.88-4-2-6.46-5.56-10.08-7.82a2.56,2.56,0,0,1-.89-1.51c-.53-2.18-1.94-3.81-3.24-5.52-3.4-4.47-7.17-8.87-8.24-14.49-.86-4.46-2-8.81-3-13.21a6.77,6.77,0,0,0-3.78-4.94c-3.12-1.41-6.34-2.81-9.93-2.63a5.91,5.91,0,0,1-3.14-.59,17.61,17.61,0,0,0-12.75-1.73c-2.37.55-4.85,1.3-7.42.9A6.82,6.82,0,0,0,948,272a11,11,0,0,1-4.82,2.93c-4.13,1.53-8.32,3-12.31,4.87a10.7,10.7,0,0,1-8.63.47c-3.8-1.33-7.32-3.26-11.32-4.2a20.72,20.72,0,0,1-10.71-6.87c-2-2.24-4.19-4.29-6.35-6.37-4.42-4.26-7-9.11-6.42-15.58a12.93,12.93,0,0,1,11.92-11.94c5.6-.44,10,1.72,14.13,5a18.13,18.13,0,0,0,6.25,3.32c2.17.64,4.26,1.57,6.42,2.26a17.13,17.13,0,0,0,8.75.76c5.48-1.07,11-2.32,16.64-2a77,77,0,0,0,9,0,11.53,11.53,0,0,1,9.83,4.24,19.11,19.11,0,0,0,9.6,5.87c5.61,1.37,10.67,3.87,15.95,5.92,1.76.68,3.91.88,5.15,2.41a14.91,14.91,0,0,0,9.84,5.47c4.52.73,8,4,10.24,7.89,2.7,4.76,5.26,9.47,9.77,12.79a7.7,7.7,0,0,1,2.15,2.4,6.93,6.93,0,0,0,4.44,3.39,19.47,19.47,0,0,1,10,6.58c2,2.27,4.14,2.48,7.08,1.82,5.21-1.18,10.3-3.31,15.69-3.28,11.81.07,23.66-.91,35.41,1.4,4.74.93,5.17.37,5.6-4.37.17-1.84.84-3.95-.29-5.6a54.38,54.38,0,0,0-7.89-8.79c-1-1-1.89-1.22-2.7.5-1.8,3.81-4.25,5.2-7.87,4.84a8.39,8.39,0,0,1-6.94-6.43c-1-4.27-1.75-8.62-2.79-12.91-.81-3.35-2.95-6.15-3.22-9.8-.37-5.22-2-10.25-3.95-15.14-.83-2.16-2.19-3.63-4.83-3.26a15.4,15.4,0,0,1-3.59,0c-5.61-.6-11.16-1.38-16.87-1.49-7.45-.16-14.62,2.7-22.08,1.42-1-.16-1.26.3-.73,1.26a12.16,12.16,0,0,0,2.91,3.15,12.27,12.27,0,0,1,3.58,5.3,23.26,23.26,0,0,0,2.91,5.73,7.16,7.16,0,0,1-.58,9c-3.71,4.5-9.84,6-14.58,2a94.19,94.19,0,0,0-17.2-11.37c-5.72-3-9.45-8.37-14.33-12.4-2.85-2.35-5.13-5.64-7.34-8.71-3.1-4.31-6.16-8.61-7.23-14.19a20.42,20.42,0,0,0-10-14.21,17.92,17.92,0,0,1-4.53-4.05,4.31,4.31,0,0,1-1.17-4.28c.68-2.32-.19-3.56-2.54-3.88a9.91,9.91,0,0,0-5.6.94c-2.79,1.32-5.55,2.57-7.89,4.83-3.64,3.5-8.3,4.85-13.36,5.32-5.69.53-11.37,1.52-17.06,1.19A118.92,118.92,0,0,1,897,203.79c-5.42-1.09-9.27.94-12.3,5.08a23.8,23.8,0,0,1-4.73,4.83c-1.51,1.17-3.47,1.78-4.73,3.05-4.3,4.28-9.72,6.93-14.51,10.47a23.44,23.44,0,0,0-6.48,6.61c-3,5-3.46,10.81-4.65,16.37-.36,1.71.52,2,2,1.9,2.71-.14,5.43-.7,8.14,0,2.25.56,4,2.52,6.21,2.74,4.62.46,8.07,3.46,11.9,5.39,5,2.5,10.38,4.88,13.36,10.2.66,1.17,1.84,1.32,3.16,1,5.95-1.3,8.06-.52,11.3,4.68,1.84,2.95,2.74,6.68,7.08,7.08.1,0,.18.15.28.23,2.74,2.21,3.05,5.35.64,9-.89,1.35-1.44,2.17.8,2.14,10.25-.15,20.42-.56,30.48-3.25,6.26-1.66,12.86-1.28,18.57,2.81,10.86,7.77,8,19.28-1.27,24.43a5.68,5.68,0,0,0-3.1,4.11c-.54,2.74-2.31,4.89-4.8,5.3-4.05.67-8.2,1.47-12.37.88-7.4-1.06-14.76-2.57-22.2-3.14-6-.45-11.06-2.65-16-5.53-1.86-1.08-3.35-2.65-5.32-3.62a25.28,25.28,0,0,1-13.2-15.33c-2-6.24-4.08-12.43-7.36-18.16-.52-.92-.7-2-1.15-3-.78-1.71-1.78-3.14-4-2.82a3,3,0,0,1-2.66-.83c-3.12-3.24-7.48-4.1-11.36-5.84-5.19-2.34-11.3-.57-12.91,4.23-2.13,6.3-5.76,12.07-6.54,18.84s-3.63,12.81-5.21,19.27c-1.21,5-1.76,10.16-3.78,14.85a29.58,29.58,0,0,0-2.05,9.32c-.57,6.76,3.23,12,6.69,17.23,1,1.58,2.16,3.09,3.15,4.73,2.39,4,4.29,8.19,7.81,11.47,6.18,5.75,10.49,12.94,14.61,20.22,1.35,2.37,2.25,5,3.8,7.26a41,41,0,0,1,6.49,13.79,21.45,21.45,0,0,0,2.49,5.53c4.49,7.85,8.18,15.94,7.59,25.37-.09,1.47-1.88,3.91,1.33,4.72,1.95.49,3.82,1.61,5.91,1,1.83-.53,3.6-1.28,5.39-1.95a10.65,10.65,0,0,1,2-.78c7.35-.94,14.67-1.93,22,.57,2.26.77,4.43,1.74,6.71,2.46,2,.63,3.56,1,5.17-.81a12.59,12.59,0,0,1,3.57-2.38c2.14-1.11,4.56-.45,6.42,1.62s2.37,4.59,1.09,6.58a34.1,34.1,0,0,1-7.61,8.06,10.16,10.16,0,0,1-6.35,2.09,44.66,44.66,0,0,1-9.94-1.09c-7.58-1.55-14.87-2.19-22.25,1.69-6.89,3.62-12.55,1.78-17.68-4.43-.94-1.13-1.75-1.23-2.64-.27a13.74,13.74,0,0,1-5.17,3.18c-4.21,1.72-10.05,1.45-12.63-2.72s-4.87-8.19-5.83-13c-1.31-6.58-4.05-12.7-6.57-18.88a9.66,9.66,0,0,0-8.66-6.47c-2.5-.24-5.13-.7-7-2.37-6.33-5.5-11.74-11.6-11.65-20.75,0-2.4.36-4.86,0-7.18-1.16-6.67-2.24-13.36-3.89-19.94-1.62-6.41-2.14-12.9.22-19.26a3.94,3.94,0,0,0-.54-3.7,14.2,14.2,0,0,1-2.18-8.91,13.8,13.8,0,0,0-2.8-10.69c-.9-1.15-.91-3.68-2.36-3.58s-2.66,2.18-3.53,3.66c-3.43,5.85-8.9,9.38-14.75,11.94-4.23,1.84-8.58,3.54-12.91,5.22-4.81,1.87-6,5.36-6.67,9.9-.73,5.39-1.55,10.78-4.13,15.79-1.53,2.95-3.12,5.86-4.69,8.79-.18.32-.86.58-.41,1.05.14.14.7,0,1-.18a6.49,6.49,0,0,0,.79-.71c6.6-5.11,12.83-10.66,19.65-15.48a11.73,11.73,0,0,1,15,1.4c4.39,4.49,4,10.31.6,14.17a49.72,49.72,0,0,1-6.1,6c-2.32,1.87-4.89,3.45-6.83,5.76-1,1.16-2.08,2.37-.78,4.11a7.83,7.83,0,0,1,.66,8.77c-.54,1.09-1,2.35,0,3.34,1.78,1.75,3.29,3.77,5.63,5a34.42,34.42,0,0,1,11.12,8.24,3.64,3.64,0,0,0,2.43,1.38c6,.66,10.22,5,15.08,7.85s9.08,6.93,13,11.15a20.94,20.94,0,0,1,4.16,6.6c2.09,5.15,2.59,10.61,3.6,16,.42,2.22.78,4.47,2.34,6.25,7,7.88,8.25,17.72,7.45,27.35A37,37,0,0,1,836,521.4a83.53,83.53,0,0,1-10.76,8.87c-2.13,1.59-4.28,3.7-4.29,6.28,0,3.48-1.08,6.84-.76,10.33a14.43,14.43,0,0,1-1.94,7.91c-1.21,2.33-2.88,4.48-3.72,6.93a10.75,10.75,0,0,1-4.42,5.48,111.84,111.84,0,0,0-11.76,9.62,109.87,109.87,0,0,0-12.63,13c-5.22,6.48-9.66,6.4-15.43.58-4.89-4.94-7-10.57-4.91-17.57,2.23-7.38,3-15.26,7-22,4.51-7.49,7.63-15.64,11.47-23.44,2-4,.12-9.87-3.5-12.49-2.76-2-4.42-1.9-6.81.51-3.22,3.25-5.51,7.18-8.09,10.9-2.43,3.49-4.59,7.13-8.1,9.88-2.64,2.06-5.58,2.7-8.55,3.32-6,1.24-11.81,1.39-17-2.8-2-1.6-2.78-3.86-4.12-5.79-2.65-3.79-3.67-8.27-4.08-12.78-.31-3.43-.65-6.85-1.29-10.24s-1.26-4.07-4.74-3.81-6.36-.84-9.39-1.93c-1-.36-1.92-1-2.91-1.41-6.24-2.7-12.08-.55-15.3,5.38a83.84,83.84,0,0,1-5.88,9.42c-3.83,5.25-9.23,8.36-15.66,7.79-5.27-.47-10.5-.41-15.74-.41-3.92,0-7.34-.93-10.21-3.54a6.61,6.61,0,0,0-4.57-1.7c-6.83-.11-13.25-2.62-20-3.41-3.51-.41-6.85-2-10.53-1.58a6.52,6.52,0,0,1-4.41-1.31c-1.92-1.35-3.9-1.17-5.82-.68a28,28,0,0,0-8.79,3.89c-2.69,1.82-5.21,4.1-5.5,7.61-.31,3.87-1.68,7.42-2.74,11.07-1.54,5.3-4.88,9.18-9.23,12.34a37.88,37.88,0,0,0-3.44,2.56c-2.76,2.51-2.88,5-.94,8.2,3.17,5.32,7.62,9.48,12,13.7a16,16,0,0,0,5,3.45,54.15,54.15,0,0,1,10.74,5.7c1.67,1.13,3.48,2.5,5.54,2.34C606.25,581,612.63,583,619.1,582.17Zm3.28,142.92a33.85,33.85,0,0,1-.77,10c-2.2,8.68-4.48,17.35-8.15,25.54-1.7,3.79-3.28,7.2-.14,10.92a4.49,4.49,0,0,1,.68,2c.38,2,1.65,3,3.59,3.48a73.48,73.48,0,0,0,15.1,2.34c1.67.07,3.45-.39,5,.42a53,53,0,0,0,11.3,4.35c1.66.45,3.76.81,4.79,2.25,2,2.72,4.59,2.4,7.33,2.52a3.46,3.46,0,0,0,3.75-2.13c1.38-3.49,3.74-6.38,5.6-9.57,2-3.44,3.64-7.35,7.82-9,6.59-2.65,15.52,0,19.81,5.76,3,4,4,8.47,4.68,13.3.81,6.18,2,12.28-1.09,18.2-.54,1,0,2.06.11,3.12A92.38,92.38,0,0,1,702.6,822c-.17,3.57-.8,7.13.11,10.63a85.55,85.55,0,0,1,2.63,21.22,28.74,28.74,0,0,1-4.57,16.28c-1.3,2-1.41,3.69.42,5.37a12.86,12.86,0,0,1,1.32,1.68c3.89,5,7.18,10.4,12,14.61,2.79,2.42,6.08,2.77,9.28,2.35,5.19-.68,10.08-.08,14.41,2.69,3.27,2.1,6.2,4.77,9.74,6.46,1.38.66,2.6,3.23,4.15,1.68,1.32-1.32-.38-3.14-1.23-4.65-4.61-8.14-8.12-16.45-5.71-26.21a18.09,18.09,0,0,1,10.8-13,47.57,47.57,0,0,1,15.16-4c3.63-.29,5-2.29,5.1-6.08a9,9,0,0,0-1.19-4.42A62.84,62.84,0,0,1,770,834.08a28.7,28.7,0,0,1,2.64-21.79,27.43,27.43,0,0,1,9.26-9.79c3.15-2.08,5.4-4.14,3.62-8.25-.53-1.23,1-3.13-.68-3.83-1.22-.5-2.84-.13-4.26,0a16.4,16.4,0,0,0-2.4.71,28.51,28.51,0,0,1-8,1.38,14,14,0,0,0-6.89,1.6c-2.43,1.26-4.89,2.47-7.28,3.79-5,2.78-9,6.35-9.29,12.65a8.52,8.52,0,0,1-.72,2c-1.62,5-4.28,9.53-6.19,14.39-2.26,5.73-5.29,11-10,15.14-3,2.66-8.52,4.17-11.31,2.28-4.69-3.18-8.77-6.93-8.69-13.44A51.32,51.32,0,0,1,711,820.68c1.84-8.62,3.48-17.27,3.11-26.16-.09-2.15.1-4.31.05-6.47-.09-3.65-.84-7.06-3.53-9.83-3.37-3.49-6.86-6.91-8.28-11.8a4.88,4.88,0,0,0-1.35-2.09c-3-2.81-5.51-6-8.26-9-3.37-3.67-5.66-7.68-5.24-12.86.12-1.56.19-3.12.16-4.67,0-2.13-1-2.81-3-1.94-7.35,3.27-15.13,5.14-23,6.77-3.32.69-7,1.15-10.17-.75-6.88-4.07-10.53-10.34-11.25-18.14a8.49,8.49,0,0,0-2.9-5.85c-4.7-4.4-7.2-9.48-6-16.23.89-5,4.27-9.35,9.1-10.72,4.32-1.23,8.19.07,11.94,1.9,2.89,1.41,5.36,3.6,8.58,4.42a5.89,5.89,0,0,1,2.39,1.54c.83.76,1.63,2.61,2.44,2.11,1.2-.73-.36-2.06-.57-3.16-.84-4.32-.51-8.8-1.85-13-2.4-7.57-2.42-15.82-6.61-22.87.21-4.87-2.54-7.65-6.64-9.54a20,20,0,0,1-3-1.94c-6.44-4.61-9.94-11.2-12-18.58C633,624.06,633.75,616,633.06,608c-.34-4-2.55-6.34-5.6-8.1-2.23-1.29-3.22-.39-3.86,2.18-.88,3.46-.17,7.1-1.76,10.52-3.5,7.55-6.34,15.44-11.94,21.82-2.6,3-5.24,5.94-8.54,8.1-5.4,3.52-10.6,7.18-14.74,12.26-2.41,3-5.66,5.24-8,8.23-3.53,4.44-5.67,11.84,1.82,15.37,5.33,2.5,10,6.11,15,9,7,4,13.72,8.26,18.4,15.06S623.53,716.32,622.38,725.09ZM731.16,464.72c3.32,1.13,6.52-.29,9.69-1.71,2-.89,3.68-2,3.87-4.63a31.92,31.92,0,0,1,1.43-5.53c1.56-5.9,2.77-11.85,1.19-18-.92-3.58-1.78-7.2-3-10.66a27.53,27.53,0,0,0-5.14-9.21c-4.68-5.3-9-11.08-10.43-18.38a4.16,4.16,0,0,0-2.15-3.18c-2.74-1.14-5.3-3-8.32-3.15a42.71,42.71,0,0,1-11.11-2.57c-3.67-1.25-7.46-2.84-10.39-5.54-5-4.62-10.22-9-14.82-14.09a11.47,11.47,0,0,0-3.45-2.51c-2.1-1-3.81-2.43-3.86-5.13,0-2.88,1.78-4.28,4-5.46,1.58-.85,3.43-1.39,4.72-2.55,3.55-3.23,7.26-3.23,11.23-1.13a77.49,77.49,0,0,0,8.8,4c6.67,2.51,13.34,3.47,20.08.23a11.69,11.69,0,0,1,2-.6c6.12-1.72,12.13-3.73,17.17-7.76a19.7,19.7,0,0,1,8.12-4.36c3.41-.73,5.37-3.45,7.78-5.56.18-.15.35-.32.52-.49a3.52,3.52,0,0,0-.82.2c-3.13,1.74-6.59,2.83-9.69,4.5a35.73,35.73,0,0,1-18.93,4.27,21,21,0,0,0-4.59.43,19.3,19.3,0,0,1-8.91-.13A27.07,27.07,0,0,0,708,345a26.08,26.08,0,0,1-13.7-3.29,3.1,3.1,0,0,0-2-.41A7.84,7.84,0,0,1,686,339a8.62,8.62,0,0,0-7-2c-5.41.49-9.77,2.79-12.68,7.58a38.91,38.91,0,0,1-6.9,8.66c-1.49,1.35-3.38,2.15-4.52,4-2.48,4.07-5.34,7.91-7.84,12-1.74,2.84-4.22,5.79-4.47,8.85-.48,5.79,0,11.67-.84,17.49-.25,1.77.8,3.44.82,5.28a71.63,71.63,0,0,1-1.89,17.36,28.75,28.75,0,0,1-5.93,12.46c-1.58,1.84-3.78,2.9-5.14,4.88-3.85,5.59-9.19,9.7-14.36,13.9a36.28,36.28,0,0,0-7.1,8.43,5,5,0,0,0-.82,4.05c1.32,3.7.55,7.56,1.19,11.34,1.15,6.76-1.12,12.95-5.46,18.32-1.68,2.08-1.67,2.32,1.16,2.62a31.56,31.56,0,0,1,10.87,3.36,3.37,3.37,0,0,0,2.05.52c3.43-.54,6.62.39,9.82,1.46,3.76,1.24,7.85.79,11.59,1.85a20.77,20.77,0,0,0,13.31-.24,18.5,18.5,0,0,1,5.5-1.48c3.65-.15,5.79-2.12,7.81-4.88,2.68-3.63,5.08-7.62,8.77-10.33,3.93-2.89,7.92-5.75,11.77-8.72a27.65,27.65,0,0,1,19-5.83,18.68,18.68,0,0,0,9.36-1.92C719.49,465.3,725.17,465.34,731.16,464.72ZM1276.07,292a31,31,0,0,1,0-4.73c.71-4.35-1.81-6.65-5.11-8.52a10,10,0,0,0-6.16-1.42,22.31,22.31,0,0,1-12.26-1.8,26.84,26.84,0,0,1-14.71-18.33c-.62-2.5-.21-5-.93-7.42a11,11,0,0,1,.46-8.06c1.58-3.29,1.36-6.77,1.31-10.22a5.45,5.45,0,0,0-1.78-4.16c-2.43-2.11-4.64-4.44-7.11-6.54-4.7-4-9.36-6-15.56-3.48-3.06,1.25-5.2,2.69-5.78,6a12.26,12.26,0,0,1-2.25,5.21c-1.5,2-4.25,2.83-6.25,1.4a8.3,8.3,0,0,1-3.69-4.67c-1.11-4.4-1.49-8.74.39-13,.72-1.64.52-2.1-1.33-2-2.87.15-5.75.07-8.62.1-5.25.06-7.59,2.43-7.53,7.54a20,20,0,0,1-.46,4.6c-.4,1.79-.28,3.94,1.45,5.16,3.81,2.67,6.86,6.45,11.17,8.29,5,2.13,8,6.17,11.12,10.22a6.93,6.93,0,0,1,1.25,3.64c.62,4.87-1.43,8.69-4,12.64-2.15,3.32-4.69,5.71-8.38,6.84a59.35,59.35,0,0,1-13.68,2.26c-5,.33-10.06.06-15.1.07a8.62,8.62,0,0,1-4.49-1c-3.64-2.05-7.44-1.64-11-.05s-7,1.25-10.56.66a19.82,19.82,0,0,0-5.6,0c-5.9.61-12.11,1.79-16.28-4.35a6.62,6.62,0,0,0-1.3-1.23c-4.85-3.92-9.51-8-12.46-13.66-1-1.9-2.24-3.67-3.39-5.49-.48-.77-.79-2-1.88-1.72-.43.13.06,1.48.32,2.26.41,1.25,1.09,2.53,1,3.78-.14,3.45,1.55,5.89,3.81,8.15.34.33.81.71.87,1.12.42,3.17,2.76,4.55,5.28,5.8a12.75,12.75,0,0,1,1.83,1.11c6.61,4.78,11.88,10.92,17.12,17.09.52.61.59,1.58,1.46,1.95a22.78,22.78,0,0,1,7.79,4.95c2.68-1.64,4.45-4.25,6.75-6.3.35-.32.65-.7,1-1,3.39-3,7.53-5,11.27-7.52a5.34,5.34,0,0,1,6.89,1.13c1.48,1.87,1.19,4.51-.87,6.87a15.06,15.06,0,0,1-3.11,3c-3.79,2.38-6.86,5.54-10,8.64a14.56,14.56,0,0,0-4.77,8.95c-.17,1.4-1.14,2.68.76,3.58,1.62.77,3,1.12,4.52-.46,3.07-3.31,7.15-4.79,11.46-5.36a8.79,8.79,0,0,0,5-2.42c3.15-2.77,6.36-5.48,11.07-5,1.38.14,2.76-.63,4.08-1.22a26.94,26.94,0,0,1,11.45-2.47c4.64.07,9.18.08,13.83,1.35s9.32,1.92,13.5,4.36c2.49,1.46,5.17,1.12,7.69.63,6.2-1.2,12.07-.73,17.68,2.33a44.51,44.51,0,0,0,25.62,6.55c4.34-.11,5.66-1.11,6.81-5.43C1276.5,298.13,1275.68,295,1276.07,292ZM735.62,234.6h0c3.11,0,6.24.17,9.34,0,6.7-.45,11,3.53,14.74,8.15a7.68,7.68,0,0,1,.53,8.81,16.08,16.08,0,0,1-7.08,6.86c-6.52,3.2-12.34,7.17-15.83,13.92a42.78,42.78,0,0,1-5.12,7.32c-1.75,2.12-3.05,4.25-2.73,7.12a4.46,4.46,0,0,1-.32,1.74c-2.2,7-5.75,13.34-9.07,19.78-3.18,6.18-9.36,9.67-14.23,14.33a4.61,4.61,0,0,1-3.64,1.29c-5.6-.94-11.38-.76-16.85-2.62-.41-.14-1.11-.89-1.36.07-.11.45.6.59,1.1.65,5.72.71,11,2.95,16.26,5.1a11.64,11.64,0,0,0,5.5,1.15,28.56,28.56,0,0,1,10.92,1.3c4.72,1.55,9.38,1.33,14,.62,2.23-.35,4.54.07,6.7-.79.93-.37,2.32-.07,2.62-1.38.26-1.11-.92-1.57-1.54-2.25a20.63,20.63,0,0,1-5.21-10c-.9-4.65,1.54-8.11,4.37-11.2a9.71,9.71,0,0,0,2.82-7.8c-1.09-11.73,4.31-21.22,10.22-30.62,2.64-4.2,6.6-7.24,9.27-11.34a50.5,50.5,0,0,1,13.78-13.86c4.12-2.88,4.75-8,2.13-12.42a36.41,36.41,0,0,0-11.33-11.77c-2.08-1.4-4.26-2.55-5.56-4.91-.56-1-1.48-2.32-3-2.2-4.55.33-9.21-.47-13.63.32s-8.3,0-12.28-1c-4.83-1.21-9.49-3-14.4-4.09a5.24,5.24,0,0,0-5.41,1.43c-3.16,3-4.92,7-8.25,9.89a82.76,82.76,0,0,0-8.27,7.4,14.61,14.61,0,0,0-3.92,7.47c-.45,2.72.52,4.33,3.07,5.36,3.19,1.3,6.57,2.16,9.44,4.21,2.69,1.92,5,1.41,7.75-.52,4.9-3.44,10.21-6.19,16.61-5.56C730.32,234.82,733,234.6,735.62,234.6ZM551.88,437.92h-.15c0,2.52,0,5,0,7.55,0,.59-.25,1.27.36,1.64s1.07-.23,1.49-.63a28.26,28.26,0,0,1,4.36-3.1,7.75,7.75,0,0,1,9.09,0,21.11,21.11,0,0,0,2.71,1.74c4.85,2.13,6.46,3.81,4.52,11.45-1.54,6.08-4.37,11.81-5.16,18.13-.09.71-.55,1.5.21,1.95.92.53,1.21-.35,1.52-1,1.11-2.29,2.94-4.05,4.47-6a14.52,14.52,0,0,0,2.75-5.68c1-4,2.69-7.58,6.55-9.83a8,8,0,0,0,3.7-4.28,24.75,24.75,0,0,1,7.09-10.59c1.54-1.4,2.21-3,1.56-4.75-1.9-5.18-.15-9.9,1.63-14.57.85-2.23.88-3.85-.77-5.84-3-3.61-3.59-7.66-2.15-12.39a81.1,81.1,0,0,1,7-16.45c3.61-6.38,6.62-13.28,13.44-17.22a10,10,0,0,0,2.8-2.77c3-4,5.58-8.35,9.51-11.58.24-.2.3-.59.45-.9-.33,0-.65-.09-1-.1a5.63,5.63,0,0,0-2.64,1,11.61,11.61,0,0,1-8.36,1.22c-6.77-1.84-13.47-3.91-20.16-6-2.51-.79-4.55-.76-6.41,1.43a48.1,48.1,0,0,1-5.24,5.35c-2.45,2.11-2.44,2.29-.16,4.8,2,2.19,2.55,4.87,2.82,7.57a7,7,0,0,1-5,7c-2.73.55-4.08,2.15-4.37,5a10.5,10.5,0,0,0,2,7.43,124.81,124.81,0,0,1,9.2,14.91c1.9,3.5,3.59,7.61,1.84,12a10.07,10.07,0,0,0-.11,6.62,7,7,0,0,1-3.77,8.44,10.76,10.76,0,0,1-7.4.08c-4.65-1.47-9.17-3.27-13.88-4.59a17.69,17.69,0,0,0-8.05-.54c-4.56.81-6.42,3.24-6.28,7.77C551.93,434.09,551.88,436,551.88,437.92ZM1230,359.32h.14c0-1.2,0-2.4,0-3.59,0-2.74-.32-3-3.11-3-1.35,0-2.57,1.14-3.84.61-2.88-1.22-5.07.15-7.26,1.66-5.16,3.56-11.15,3.86-17.08,4.38a9,9,0,0,1-3.8-1,30.59,30.59,0,0,1-16.8-14.24c-1.79-3.2-4.26-3.38-6.35-.35-1.68,2.46-4.07,4-6.15,5.9-1,.95-2.41,1.57-3.3,2.72-1.54,2-.89,3.55,1.56,4.17a9.43,9.43,0,0,0,3.17.4c4.82-.44,9.1,1.21,13.45,3.07,3.91,1.68,5.81,5.31,4.85,8.53-.87,3-4.54,4.42-8.79,3.64-4.42-.82-8.79-2.13-13.36-.68-1.08.34-2.38-.08-3.57,0-1,.06-2-1.66-2.87-.42s.41,2.47.76,3.7c.17.61.91,1.08,1.42,1.58,3.81,3.82,7.64,7.62,11.43,11.46a5.82,5.82,0,0,0,3.67,1.9c5.09.61,9.26,3.53,13.56,5.95,4.69,2.64,7.68,7.16,10.9,11.26a14.8,14.8,0,0,0,8.17,5.37c1.6.44,3.45.65,4.85-.47,4.08-3.22,7.06-7.12,6.9-12.67a257.13,257.13,0,0,1,.72-28.31c.22-2.76,1.79-4.61,3.88-6.16a4.24,4.24,0,0,1,5.3-.08c1.35.85,1.93.1,1.77-1.41C1230,362,1230,360.64,1230,359.32ZM1018.58,165c-3,0-4.36.8-4.2,2.89.59,7.32-2.68,13.41-6.06,19.41a26.62,26.62,0,0,1-5.59,6.38,24.16,24.16,0,0,1-9.7,5.87,1.88,1.88,0,0,0-1.13.72c-.17.36.43.42.72.59,5.26,3,10.4,6.31,16.24,8.18a4.72,4.72,0,0,1,1.59.78c4.64,3.89,9.22,7.86,13.88,11.72,2.26,1.87,4.42,4.27,7.72,3.88a31.18,31.18,0,0,0,6.56-1.63c8.5-3,17.05-2.58,25.65-.56.43.1,1,.52,1.26,0,.36-.68-.17-1.13-.82-1.25-4.3-.81-7-3.93-9.8-6.86-4-4.12-7.88-8.35-11.92-12.38a38.41,38.41,0,0,1-8.29-13.17c-2.47-6.1-6.51-11.35-8.79-17.53a19,19,0,0,0-3.12-4.78C1021.68,165.88,1020.52,164.36,1018.58,165ZM495,540a26.38,26.38,0,0,0,3,12.77c2.24,4.63,3.33,9.65,5.17,14.41a8.54,8.54,0,0,0,3.21,4.37c3.64,2.58,8.21,3.54,11.65,6.19,4.91,3.8,10.45,4.2,16.15,4.64.58,0,1.54.32,1.67.09.5-.8-.49-1.18-.87-1.69a44.68,44.68,0,0,1-8.66-28.52,33.35,33.35,0,0,1,2.44-12.52c1.46-3.35,1.3-3.4-2.21-3.27-6.45.24-12.94.43-19.15-1.71a24.5,24.5,0,0,0-8.43-1.24c-3.1,0-4,.81-4,4C495,538.28,495,539.12,495,540Zm288.72-87.79a4.92,4.92,0,0,0-4.7,1.72,11.2,11.2,0,0,1-4.74,3.1,6.43,6.43,0,0,0-3,2.52c-1.56,1.95-3.06,4-4.47,6-2.34,3.39-5.27,5.62-9.54,6.18a13.07,13.07,0,0,0-6.4,3,16.79,16.79,0,0,1-7.36,3.47c-2.22.43-4.51.36-6.67,1.09-.62.21-1.09.45-1.11,1.18s.52.58.93.77a23.13,23.13,0,0,0,11.68,2.5c2.87-.23,5.62-1.2,8.42-1.27,3.63-.1,6.11-1.89,8.27-4.32a50.18,50.18,0,0,1,8.45-7.65c3.68-2.62,7.57-4.19,12.41-2.88a80.18,80.18,0,0,1,8.11,2.68c4.71,1.84,10.15,1.88,14.08,5.67.49.46,1,1.29,1.78.59,1-.91,0-1.49-.62-2a27,27,0,0,1-6.08-7.46,27.34,27.34,0,0,0-12.73-12,6.94,6.94,0,0,1-2.07-1.38A5.1,5.1,0,0,0,783.67,452.17Zm91.52-293.68a3.22,3.22,0,0,0-1.42.12c-5.86,2.88-12.28,4.72-17.29,9.17a18.18,18.18,0,0,1-3.84,2.46c-3.79,2-7.66,5.53-5.35,10.57a6.81,6.81,0,0,1,.3,2.83c0,3.24,0,6.48-.2,9.7-.06,1.11-.17,1.75,1.12.89a6.69,6.69,0,0,0,1.45-1c7.68-8.75,17.4-15.33,25.29-23.85a8.47,8.47,0,0,1,4-2.92,2.64,2.64,0,0,0,2.14-2.92C881.08,161.45,877.64,158.49,875.19,158.49ZM774.43,287.76c.45,1.19-.76,3.34-1.09,5.55-.9,6.09-1.16,12.32-3.34,18.16-.43,1.16-.34,1.94.67,2.36,3.1,1.28,3.85,3.63,3.42,6.69-.07.46-.62,1.24.31,1.46a1.94,1.94,0,0,0,1.72-.28,5.76,5.76,0,0,0,2.21-5c-.17-6.82-.12-13.65-.14-20.47,0-3.64,1-7,3.94-9.23s3.15-5.09,2.33-8.25c-.27-1.07-.27-2.13-.46-3.17-.53-3,.19-5.91.22-8.86a1.34,1.34,0,0,0-.32-1c-.37-.28-.64.17-.82.44-2.32,3.24-5.83,5.72-6.34,10.13a11.38,11.38,0,0,1-1.18,3.37A12.1,12.1,0,0,0,774.43,287.76ZM1148,426c.73-4.12-1.19-6.76-4.31-8.81a19.92,19.92,0,0,1-2.17-1.84c-.51-.46-.93-1.24-1.77-.67a1.8,1.8,0,0,0-1,2.11c.38,1.12.78,2.25,1.27,3.33a18.78,18.78,0,0,1,1.87,8.27c-.15,7.75-.12,15.54-5.88,21.79-.31.33-.66,1,.31,1.33,2.09.6,8.13-1.72,8.7-3.91,1-4,3.21-7.58,3.17-12C1148.14,432.41,1148.16,429.14,1148,426ZM804.25,252.65c.09-2.17.08-2.21-.41-2.19-.79,0-.79.78-1.07,1.26-3.23,5.4-3.75,11.46-4.16,17.54-.15,2.16.61,4.22.86,6.35.45,4,.21,8.11,1.58,12a80.94,80.94,0,0,1,3,11l.78,3.85c0,.3-.24.79.3.82s.63-.39.63-.75c0-.71-.14-1.43-.13-2.14.08-5.72-.66-11.45.59-17.17.43-2,.81-4.31-.55-6.28-3.56-5.14-4.23-10.67-2.63-16.67A66.94,66.94,0,0,0,804.25,252.65ZM992.49,827c.1-1.92.24-4.42.34-6.93a1.21,1.21,0,0,0-.33-.94c-.37-.22-.59.25-.82.49-2.2,2.21-4.54,4.31-7.5,5.35-2.31.81-2,1.78-.79,3.27a26.25,26.25,0,0,1,5.79,13.93c.5,4,.51,8.1-2.33,11.59a31.55,31.55,0,0,0-2.76,4.59,1.24,1.24,0,0,0-.13,1c.23.46.59,0,.9,0,2.58-.53,4.72-1.74,5.61-4.34,1.84-5.42,3.26-11.07,2.72-16.73C992.85,834.66,992.73,831.12,992.49,827ZM582.72,609.37c.39-3.38-2.06-4.63-4.49-5.63-3.44-1.41-6.63-3.27-10-4.87-3.51-1.69-6.81-4-10.71-4.81-.56-.12-1.28-.73-1.63-.19s.14,1.32.69,1.86a74.61,74.61,0,0,0,5.91,5.76c2.37,1.85,4.18,4.93,6.75,5.7,3.67,1.09,5.83,3.5,8.3,5.86,1.73,1.64,2.54,1.55,4-.36A4.53,4.53,0,0,0,582.72,609.37Zm508,194.68c1.48-.19,2.53-.13,3.6-.39a39.14,39.14,0,0,0,14.81-6.68c3.25-2.41,6.52-4.27,6.87-8.81.09-1.23,1.22-3,.37-3.54s-2.2,1-3.11,1.91a62.14,62.14,0,0,1-13,10.43c-3.19,1.88-6.68,3.16-9.74,5.23-.6.4-1.62.84-1.3,1.82C1089.26,804.22,1090.48,804.05,1090.74,804.05ZM558,524.79c2.55.36,4.23-1,5.7-3.17,1.89-2.77,2.89-6,5-8.67a2,2,0,0,0,.12-2.64c-.35-.44-.65-1.29-1-1.3-.53,0-.94.7-1,1.28a8.78,8.78,0,0,1-4.23,5.95,58.6,58.6,0,0,1-6.36,3.27c-1.56.78-4.07,1.55-3.62,3.28s2.92,2.09,4.91,2Zm562.37,204.37q-.15,2.85-.32,5.7c0,.31-.31.72.16.89.16.06.44-.13.62-.27,2.61-2.13,4.5-4.62,3.55-8.22-.6-2.28-1.45-4.49-2.21-6.72-.11-.32-.32-.82-.52-.84-.64-.06-.58.6-.73,1C1119.76,723.44,1120.35,726.32,1120.35,729.16Z" transform="translate(-482.67 -147.67)"/><path class="cls-2" d="M619.1,582.17c-6.47.83-12.85-1.13-19.32-.63-2.06.16-3.87-1.21-5.54-2.34a54.15,54.15,0,0,0-10.74-5.7,16,16,0,0,1-5-3.45c-4.38-4.22-8.83-8.38-12-13.7-1.94-3.24-1.82-5.69.94-8.2a37.88,37.88,0,0,1,3.44-2.56c4.35-3.16,7.69-7,9.23-12.34,1.06-3.65,2.43-7.2,2.74-11.07.29-3.51,2.81-5.79,5.5-7.61a28,28,0,0,1,8.79-3.89c1.92-.49,3.9-.67,5.82.68a6.52,6.52,0,0,0,4.41,1.31c3.68-.45,7,1.17,10.53,1.58,6.73.79,13.15,3.3,20,3.41a6.61,6.61,0,0,1,4.57,1.7c2.87,2.61,6.29,3.54,10.21,3.54,5.24,0,10.47-.06,15.74.41,6.43.57,11.83-2.54,15.66-7.79A83.84,83.84,0,0,0,690,506.1c3.22-5.93,9.06-8.08,15.3-5.38,1,.43,1.9,1,2.91,1.41,3,1.09,6,2.18,9.39,1.93s4.1.45,4.74,3.81,1,6.81,1.29,10.24c.41,4.51,1.43,9,4.08,12.78,1.34,1.93,2.12,4.19,4.12,5.79,5.23,4.19,11.07,4,17,2.8,3-.62,5.91-1.26,8.55-3.32,3.51-2.75,5.67-6.39,8.1-9.88,2.58-3.72,4.87-7.65,8.09-10.9,2.39-2.41,4-2.51,6.81-.51,3.62,2.62,5.46,8.5,3.5,12.49-3.84,7.8-7,15.95-11.47,23.44-4.06,6.75-4.81,14.63-7,22-2.13,7,0,12.63,4.91,17.57,5.77,5.82,10.21,5.9,15.43-.58a109.87,109.87,0,0,1,12.63-13,111.84,111.84,0,0,1,11.76-9.62,10.75,10.75,0,0,0,4.42-5.48c.84-2.45,2.51-4.6,3.72-6.93a14.43,14.43,0,0,0,1.94-7.91c-.32-3.49.74-6.85.76-10.33,0-2.58,2.16-4.69,4.29-6.28A83.53,83.53,0,0,0,836,521.4a37,37,0,0,0,10.44-22.59c.8-9.63-.47-19.47-7.45-27.35-1.56-1.78-1.92-4-2.34-6.25-1-5.37-1.51-10.83-3.6-16a20.94,20.94,0,0,0-4.16-6.6c-3.94-4.22-8.14-8.33-13-11.15s-9.06-7.19-15.08-7.85a3.64,3.64,0,0,1-2.43-1.38A34.42,34.42,0,0,0,787.26,414c-2.34-1.19-3.85-3.21-5.63-5-1-1-.52-2.25,0-3.34a7.83,7.83,0,0,0-.66-8.77c-1.3-1.74-.19-2.95.78-4.11,1.94-2.31,4.51-3.89,6.83-5.76a49.72,49.72,0,0,0,6.1-6c3.42-3.86,3.79-9.68-.6-14.17a11.73,11.73,0,0,0-15-1.4c-6.82,4.82-13,10.37-19.65,15.48a6.49,6.49,0,0,1-.79.71c-.31.16-.87.32-1,.18-.45-.47.23-.73.41-1.05,1.57-2.93,3.16-5.84,4.69-8.79,2.58-5,3.4-10.4,4.13-15.79.62-4.54,1.86-8,6.67-9.9,4.33-1.68,8.68-3.38,12.91-5.22,5.85-2.56,11.32-6.09,14.75-11.94.87-1.48,2-3.55,3.53-3.66s1.46,2.43,2.36,3.58a13.8,13.8,0,0,1,2.8,10.69,14.2,14.2,0,0,0,2.18,8.91,3.94,3.94,0,0,1,.54,3.7c-2.36,6.36-1.84,12.85-.22,19.26,1.65,6.58,2.73,13.27,3.89,19.94.41,2.32.07,4.78,0,7.18-.09,9.15,5.32,15.25,11.65,20.75,1.92,1.67,4.55,2.13,7,2.37a9.66,9.66,0,0,1,8.66,6.47c2.52,6.18,5.26,12.3,6.57,18.88,1,4.82,3.31,9,5.83,13s8.42,4.44,12.63,2.72a13.74,13.74,0,0,0,5.17-3.18c.89-1,1.7-.86,2.64.27,5.13,6.21,10.79,8.05,17.68,4.43,7.38-3.88,14.67-3.24,22.25-1.69a44.66,44.66,0,0,0,9.94,1.09,10.16,10.16,0,0,0,6.35-2.09,34.1,34.1,0,0,0,7.61-8.06c1.28-2,.78-4.5-1.09-6.58s-4.28-2.73-6.42-1.62a12.59,12.59,0,0,0-3.57,2.38c-1.61,1.78-3.19,1.44-5.17.81-2.28-.72-4.45-1.69-6.71-2.46-7.3-2.5-14.62-1.51-22-.57a10.65,10.65,0,0,0-2,.78c-1.79.67-3.56,1.42-5.39,1.95-2.09.6-4-.52-5.91-1-3.21-.81-1.42-3.25-1.33-4.72.59-9.43-3.1-17.52-7.59-25.37a21.45,21.45,0,0,1-2.49-5.53A41,41,0,0,0,864.21,398c-1.55-2.22-2.45-4.89-3.8-7.26-4.12-7.28-8.43-14.47-14.61-20.22-3.52-3.28-5.42-7.52-7.81-11.47-1-1.64-2.1-3.15-3.15-4.73-3.46-5.24-7.26-10.47-6.69-17.23a29.58,29.58,0,0,1,2.05-9.32c2-4.69,2.57-9.88,3.78-14.85,1.58-6.46,4.44-12.59,5.21-19.27s4.41-12.54,6.54-18.84c1.61-4.8,7.72-6.57,12.91-4.23,3.88,1.74,8.24,2.6,11.36,5.84a3,3,0,0,0,2.66.83c2.25-.32,3.25,1.11,4,2.82.45,1,.63,2.08,1.15,3,3.28,5.73,5.32,11.92,7.36,18.16a25.28,25.28,0,0,0,13.2,15.33c2,1,3.46,2.54,5.32,3.62,5,2.88,10.08,5.08,16,5.53,7.44.57,14.8,2.08,22.2,3.14,4.17.59,8.32-.21,12.37-.88,2.49-.41,4.26-2.56,4.8-5.3a5.68,5.68,0,0,1,3.1-4.11c9.29-5.15,12.13-16.66,1.27-24.43-5.71-4.09-12.31-4.47-18.57-2.81-10.06,2.69-20.23,3.1-30.48,3.25-2.24,0-1.69-.79-.8-2.14,2.41-3.62,2.1-6.76-.64-9-.1-.08-.18-.22-.28-.23-4.34-.4-5.24-4.13-7.08-7.08-3.24-5.2-5.35-6-11.3-4.68-1.32.29-2.5.14-3.16-1-3-5.32-8.4-7.7-13.36-10.2-3.83-1.93-7.28-4.93-11.9-5.39-2.21-.22-4-2.18-6.21-2.74-2.71-.69-5.43-.13-8.14,0-1.51.07-2.39-.19-2-1.9,1.19-5.56,1.64-11.35,4.65-16.37a23.44,23.44,0,0,1,6.48-6.61c4.79-3.54,10.21-6.19,14.51-10.47,1.26-1.27,3.22-1.88,4.73-3.05a23.8,23.8,0,0,0,4.73-4.83c3-4.14,6.88-6.17,12.3-5.08a118.92,118.92,0,0,0,16.57,2.27c5.69.33,11.37-.66,17.06-1.19,5.06-.47,9.72-1.82,13.36-5.32,2.34-2.26,5.1-3.51,7.89-4.83a9.91,9.91,0,0,1,5.6-.94c2.35.32,3.22,1.56,2.54,3.88a4.31,4.31,0,0,0,1.17,4.28,17.92,17.92,0,0,0,4.53,4.05,20.42,20.42,0,0,1,10,14.21c1.07,5.58,4.13,9.88,7.23,14.19,2.21,3.07,4.49,6.36,7.34,8.71,4.88,4,8.61,9.39,14.33,12.4a94.19,94.19,0,0,1,17.2,11.37c4.74,4,10.87,2.53,14.58-2a7.16,7.16,0,0,0,.58-9,23.26,23.26,0,0,1-2.91-5.73,12.27,12.27,0,0,0-3.58-5.3,12.16,12.16,0,0,1-2.91-3.15c-.53-1-.26-1.42.73-1.26,7.46,1.28,14.63-1.58,22.08-1.42,5.71.11,11.26.89,16.87,1.49a15.4,15.4,0,0,0,3.59,0c2.64-.37,4,1.1,4.83,3.26,1.91,4.89,3.58,9.92,3.95,15.14.27,3.65,2.41,6.45,3.22,9.8,1,4.29,1.75,8.64,2.79,12.91a8.39,8.39,0,0,0,6.94,6.43c3.62.36,6.07-1,7.87-4.84.81-1.72,1.66-1.48,2.7-.5a54.38,54.38,0,0,1,7.89,8.79c1.13,1.65.46,3.76.29,5.6-.43,4.74-.86,5.3-5.6,4.37-11.75-2.31-23.6-1.33-35.41-1.4-5.39,0-10.48,2.1-15.69,3.28-2.94.66-5.11.45-7.08-1.82a19.47,19.47,0,0,0-10-6.58,6.93,6.93,0,0,1-4.44-3.39,7.7,7.7,0,0,0-2.15-2.4c-4.51-3.32-7.07-8-9.77-12.79-2.2-3.87-5.72-7.16-10.24-7.89a14.91,14.91,0,0,1-9.84-5.47c-1.24-1.53-3.39-1.73-5.15-2.41-5.28-2.05-10.34-4.55-15.95-5.92a19.11,19.11,0,0,1-9.6-5.87,11.53,11.53,0,0,0-9.83-4.24,77,77,0,0,1-9,0c-5.68-.35-11.16.9-16.64,2a17.13,17.13,0,0,1-8.75-.76c-2.16-.69-4.25-1.62-6.42-2.26a18.13,18.13,0,0,1-6.25-3.32c-4.1-3.28-8.53-5.44-14.13-5a12.93,12.93,0,0,0-11.92,11.94c-.53,6.47,2,11.32,6.42,15.58,2.16,2.08,4.36,4.13,6.35,6.37A20.72,20.72,0,0,0,910.93,276c4,.94,7.52,2.87,11.32,4.2a10.7,10.7,0,0,0,8.63-.47c4-1.88,8.18-3.34,12.31-4.87A11,11,0,0,0,948,272a6.82,6.82,0,0,1,6.4-2.51c2.57.4,5.05-.35,7.42-.9a17.61,17.61,0,0,1,12.75,1.73,5.91,5.91,0,0,0,3.14.59c3.59-.18,6.81,1.22,9.93,2.63a6.77,6.77,0,0,1,3.78,4.94c1,4.4,2.16,8.75,3,13.21,1.07,5.62,4.84,10,8.24,14.49,1.3,1.71,2.71,3.34,3.24,5.52a2.56,2.56,0,0,0,.89,1.51c3.62,2.26,6.11,5.79,10.08,7.82,10,5.13,20.59,8.79,30.55,13.88,3.39,1.73,6.57,3.13,10.47,3,3.62-.15,6.06,2.47,8.47,4.71,3.16,2.93,6.13,6.07,9.14,9.17,2.85,2.93,8,3.92,11.4,1.71a6.37,6.37,0,0,1,6-.74,6.62,6.62,0,0,0,5.9-.52c3-2,3.38-5.62.89-8.45a40.21,40.21,0,0,0-5.9-5.21c-2.94-2.26-2.56-3.24.56-5.12,8-4.83,15.72-2.67,23.18,1.14,2.91,1.49,5.22,4.08,7.88,6.08s3.15,4.36,1.92,7.56c-2.34,6.08-5.78,11.48-9.11,17a43.25,43.25,0,0,0-3,5.74c-.34.82-.1,2.11-1.33,2.24s-1.74-1.06-2.23-2a15.26,15.26,0,0,0-5.69-5.81,8.66,8.66,0,0,0-6.6-.89c-2.07.41-3.77,2.8-3.93,5-.19,2.64,1,4.88,2,7.15,4,8.24,7.63,16.61,10.77,25.21a15.1,15.1,0,0,1-.95,12.8,35,35,0,0,0-3.38,7.52c-.15.56-.35,1.25-1,1.36-.86.14-1.34-.57-1.59-1.2a23.51,23.51,0,0,0-9.08-10.66c-4-2.71-8.48-3.29-12.85-4-7.94-1.36-16-2.06-24-2.88a3.6,3.6,0,0,1-3.37-2.72c-1.74-6-5-11.35-8.15-16.55-4.16-6.77-9.85-12.08-18.54-12.46-2.84-.12-4.85-1.87-6.94-3.41-1-.71-2-1.31-3-2-6.72-4.86-12.81.82-14.7,6.48-1.14,3.41-.6,6.54,2.42,9a28,28,0,0,1,7.73,10.11,16.13,16.13,0,0,0,11,9c2.37.62,3.19,1.87,3.19,4.36a18.72,18.72,0,0,0,2.14,8.6c3.14,6,5.81,12.28,10.21,17.57,5.13,6.18,10.89,11.06,19,13.32s16,3.93,24.2,4.09c8.74.18,15.12-4.21,19.44-11.71a14.67,14.67,0,0,1,.89-1.54,2.87,2.87,0,0,1,.82-.55c.12.31.4.66.34.94-.74,3.72,1,7.33.51,11.05a6.6,6.6,0,0,0,.49,3.88c1.66,3.28.65,6.85,1.07,10.26.19,1.55-1.06,1.83-2.24,2.28-6,2.29-12,4.92-17.09,8.95-3.57,2.83-6.92,5.94-6.72,11.22.22,5.9,5.89,10.42,11.56,8.92a11.17,11.17,0,0,0,4.24-1.85c3.09-2.53,6.79-3.47,10.45-4.48,5-1.36,9.89-2.84,13.65-6.61,1.23-1.23,1.7-.38,2,.52a13.75,13.75,0,0,1,.65,4.21,9.61,9.61,0,0,0,3,7.08c2.12,2.26,2.53,5,3,7.85.2,1.33-.11,1.88-1.45,1.16-3.79-2-8-3.12-11.62-5.53-3.26-2.18-6.81-2.05-10.38-1.29a30.94,30.94,0,0,1-8.83,1,45.2,45.2,0,0,0-12.42,1.23c-4.44.88-8.78,0-13-1.22a19.26,19.26,0,0,0-12.3.38c-6.94,2.54-13,6-17.64,12.19-5.45,7.35-13.4,11.14-22.3,12.74-4.08.74-7.21,3-10.15,5.57a55.57,55.57,0,0,1-7.33,5.65c-3,1.85-5.6,4.36-8.44,6.52-2,1.5-3.79,2.86-6.42,2.36a2.56,2.56,0,0,0-1.43,0c-4,1.79-7.53.06-10.82-1.93-6.43-3.88-12.87-2.63-19.25-.18-5,1.92-7.16,6.1-7.66,11.19a32.53,32.53,0,0,0,1.79,15.18,30.26,30.26,0,0,0,10,13.29c1.94,1.44,3.27,3.52,5.4,4.68a41.38,41.38,0,0,0,16.73,4.72c3.46.28,7-.08,10.43.1,7.86.39,14.44-2.78,20.54-7.24,7.33-5.36,12.69-12.56,18.11-19.7,3.67-4.83,7.64-9.44,10.7-14.73a6.16,6.16,0,0,1,4.28-3c2.09-.41,4.13-1.17,6.23-1.59,4.48-.91,6.33,0,8.63,4.15a15.91,15.91,0,0,0,.83,1.59c1.92,2.67,4.41,4.61,7.8,4.29,3.72-.35,6.62-2,8.26-5.82a16.14,16.14,0,0,0,.89-10.43c-.75-3.38.66-6.81.83-10.25a20.28,20.28,0,0,1,1.51-6.59c.9-2.25,2.53-3.9,4.67-4,5.19-.23,10.3-1.34,15.63-.62,6.39.86,8.82,4.85,10.23,10.31.9,3.49.29,7.12,1.27,10.61,1.63,5.83,2.6,11.86,5.76,17.2,1.57,2.64.32,5.93,1.5,8.69s0,5.55.32,8.35c.43,3.85,1.69,7.4,2.64,11.06,1.81,6.91-2.16,9.35-7.2,11.32-1.51.59-3.07.29-4.59.65a34,34,0,0,1-9.89,1.11c-5.12-.34-9.84,1.65-14.72,2.68a7.23,7.23,0,0,0-4.16,3.27c-2.66,3.78-1,8.1,3.49,9.14,1,.22,2.2.12,2.45,1.08s-1,1.44-1.7,2.06c-3.29,3.13-6.4,6.41-9.92,9.34a35.58,35.58,0,0,0-9.17,11.81,4.35,4.35,0,0,1-.65,1.27c-5.53,5.54-9.36,12.28-13.66,18.72a40.48,40.48,0,0,1-8.6,8.64c-2.64,2.12-4.93,4.53-7.37,6.81-.61.57-1.09,1.41-1.81,1.73a46.62,46.62,0,0,1-11.22,3.36,13.11,13.11,0,0,1-9.21-2.16,18.22,18.22,0,0,0-6.38-2.13c-3.67-.7-7.22-2.22-8.73-6a76.24,76.24,0,0,1-5.73-22c-.48-5.73-3.7-10.11-8.52-13-4-2.37-10,.94-10.3,5.57-.32,5.47-.7,11,1.49,16.31a7.35,7.35,0,0,1,.65,3.49,12.21,12.21,0,0,0,1.38,7.63,8.74,8.74,0,0,1,.85,3.81c.31,4.46,1.87,8.92,5.49,11.24,4.2,2.71,8.32,5.66,13.12,7.61,4.25,1.74,8.76,3.09,12.71,5.57,3.4,2.13,7.13,1.62,10.82,1.56.62,0,1.46-.71,1.86.22.24.59-.32,1.09-.78,1.5-2.06,1.81-1.91,4-.95,6.22.4,1,.51,1.55-.93,1.34a20.16,20.16,0,0,0-13.38,2.87,29.26,29.26,0,0,1-6,2.11c-6.68,2.09-11.05,6.85-14.59,12.57a9.14,9.14,0,0,0-1.61,5.41c.77,7.78-2.35,14.76-4,22.06-1,4.62-1.28,9.41-1.86,14.12a6.69,6.69,0,0,0,1.67,4.94c6,8.12,13.11,9.38,21.83,6.84a9,9,0,0,0,5.05-4.41,23.48,23.48,0,0,0,3.4-11.83c0-5,0-10.08-.15-15.11-.09-2.24.61-3.13,2.85-2.85,2,.25,4,0,6,.61,2.7.84,5.49-.25,8.11-.7a118.52,118.52,0,0,0,19.36-4.79,17.94,17.94,0,0,0,8.48-6.92c2.65-3.66,5.68-7,8.18-10.81,2.71-4.08,4.43-8.27,1.39-13a3.59,3.59,0,0,1-.18-3.44,59,59,0,0,0,3.24-13.15c.22-1.63,1.48-2.46,2.61-3.25,1.76-1.23,3.43-2.64,5.26-3.7,6.91-4,11.83-9.9,16.39-16.27a91.11,91.11,0,0,0,10.93-20.9,5.72,5.72,0,0,1,1.29-2.52q8.07-7.08,16.18-14.09c.16-.14.48-.3.61-.23.41.21.19.6.09.89-1.5,4.36-.92,8.45.45,12.88,2,6.33,2.76,13,3.76,19.58a71.34,71.34,0,0,0,1.74,8c1,3.54.76,6.54-2.78,8.65a20.38,20.38,0,0,0-3.14,2.9c.64-1.3,1.38-2.56,1.9-3.9a15.19,15.19,0,0,0-2.45-15.84c-3.35-4.17-9.31-4.18-11.6-.21a3.68,3.68,0,0,0,.43,4.85c3.6,4.21,3.15,5.47-1.09,8.93-3.75,3.06-8.07,4.6-12.56,5.78a11.71,11.71,0,0,0-4.38,2.27,5,5,0,0,0-1.81,5.79,5.32,5.32,0,0,0,4.84,3.71c4.38.24,8.5-.93,12.6-2.23.57-.18,1.17-.27,1.75-.4,0,.74-.75.78-1,1.25-2.56,4.1-6.73,6.75-9.44,10.75a42.89,42.89,0,0,0-6.63,13.77c-1.52,6.13-4.29,11.93-4.93,18.27-.5,4.89-1.86,9.57-3,14.29-.75,3-2.5,5.88-2.61,8.86-.15,3.63-2,6.25-3.56,9.11a6.58,6.58,0,0,1-3.56,3.36,101.09,101.09,0,0,1-18.77,4c-2.41.34-4.73-.67-7.08-.7a39.49,39.49,0,0,0-16,3,13.31,13.31,0,0,1-10.07.48,18.23,18.23,0,0,0-11.27,0,39.73,39.73,0,0,0-7.11,2.42c-4.12,2.11-8.45,1.48-12.61.47-6.36-1.55-12.41-.38-18.17,1.93a29.21,29.21,0,0,0-15.53,13.66c-1.56,3-1.45,6.25-1.73,9.39-.36,4.1-1.61,6.41-5.38,8s-5.45,4.9-7.77,7.75c-2.55,3.13-4.92,6.3-8.21,8.87-7.11,5.53-6.94,13.77-.41,19.75a12.57,12.57,0,0,0,10.4,2.91c2.82-.4,4.54.7,5.91,2.94a42.34,42.34,0,0,0,7.27,8.37c.43.4,1.62.65,1,1.51-.45.61-1-.3-1.5-.5-8.31-3.36-16.73-6.09-25.87-6.08a28.93,28.93,0,0,1-8-1.6c-2.36-.69-3.46-2.68-3.39-5.21.11-4.36,2.27-7.89,4.37-11.55,3.94-6.88,6.83-14.2,6.54-22.33a51.07,51.07,0,0,0-3.53-16c-2.81-7.56-15.68-16.87-24.37-13.21a3.21,3.21,0,0,1-1.42.12c-10.59-.75-19.57,3.55-28.14,9-2.8,1.79-6.24,2.48-8.56,5.06-.54.6-1,.27-1.57.12a5.45,5.45,0,0,1-2.5-1.35c-4.86-4.85-11.46-6.72-17.22-10-3.73-2.14-6.44-5.3-9.44-8.21a21.12,21.12,0,0,0-4.52-3.37,49.6,49.6,0,0,1-11.79-8.66c-6.35-6.58-14-10.41-22.8-12.78-5-1.36-9.56-1.39-14.16.87-4.83,2.36-10.38,2.69-15.11,5.48a57.72,57.72,0,0,0-6.71,4c-4.08,3.2-8.68,5.2-13.92,4.71-4.2-.4-8.1-1.77-10.68-5.57a10.8,10.8,0,0,0-4.25-3.78c-5.27-2.52-9.75-6.33-14.87-9.13-3.47-1.89-3.74-3.24-2.74-7.08a10,10,0,0,0,0-4.25c-1.14-7-.69-9.63,5.16-13.88a299.32,299.32,0,0,1,26.53-17.51c4-2.34,6.85-6.09,8.93-10.1a12.15,12.15,0,0,0,1.07-7.61,45.44,45.44,0,0,1-.23-13.22,11.81,11.81,0,0,1,8.3-9.93c4.2-1.45,8.11-3.53,12.15-5.3s6.79-5.16,9.35-8.66c4.52-6.19,8.8-12.54,10.61-20.1.91-3.8.94-7.79,2.33-11.52.92-2.45,2.45-4.68,2.83-7.33.5-3.44,1-6.89-.78-10.16-1.23-2.21-2.93-3.93-5.59-3.87-2.89.06-4.3,2.29-5.5,4.54-1,1.88-.25,4.71-2.26,5.86s-4-.83-6-1.14c-12.17-1.86-26.34,7.4-27.88,18.84-.52,3.89-2.6,7-5,9.68-7.86,8.59-16.23,16.55-27.43,20.85a33.13,33.13,0,0,0-12.91,8.87c-2.66,3-3.46,6.78-4.25,10.52a37,37,0,0,0,.44,18c.56,2,.27,4.28.37,6.43,0,.5,0,1-.51,1.23s-.9-.12-1.23-.48a15.74,15.74,0,0,1-3.66-5.7c-2.22-6.65-4.55-13.25-5.53-20.29a26.69,26.69,0,0,0-2.68-9.54c-1.06-1.89-.94-4.4-1.62-6.55a38.49,38.49,0,0,0-11.28-17.94,28.58,28.58,0,0,0-11.64-6.11c-3.6-.88-5.66-3.41-8.26-5.35-2-1.48-1.65-4-1.74-6.29-.25-6.66-.06-13.4-1.68-19.89a39.47,39.47,0,0,0-7.51-14.56,22.37,22.37,0,0,0-17.1-8.45C623.9,582.1,621.5,582.17,619.1,582.17Zm178.48,82.77c-.52,5.26,1.93,10,6.38,13.76a24.45,24.45,0,0,0,4.69,3.29c5.52,2.83,11.23,4.49,17.56,2.79a103.91,103.91,0,0,0,29.27-13.07c2.22-1.43,5-2.45,7-2,5,1,10.15,1.44,14.84,3.74,2.78,1.36,5.42,3,8.42,4a27.08,27.08,0,0,0,14.07.85c4.67-.92,8.61-2.52,11.4-6.58a64.49,64.49,0,0,0,4.32-8.23c3.95-8,7.65-8.08,14-5.65,5,1.89,8.31.8,11.51-3.61,1.38-1.92,3-3,5.39-2.66a16.13,16.13,0,0,0,2.51.06c3.11-.08,5.15-1.35,5.65-3.46a6,6,0,0,0-3.39-7.15c-3.79-1.4-7.64-2.69-11.86-1.45-2.4.71-5.31,1.09-7.4.07a22.74,22.74,0,0,0-14.85-1.86,32,32,0,0,0-8.52,2.48,21,21,0,0,0-9.91,11.28c-1.36,3.3-1.68,3.36-5.08,2.21-4.88-1.65-9-4.84-13.94-6.5a73.1,73.1,0,0,1-8.48-3.71c-4.28-2.09-9-3.66-13.84-2.83-6.94,1.17-13.93,1.53-20.92,2-3.41.24-3.93-.36-3.4-3.75a19.39,19.39,0,0,1,1.31-4.08,66.68,66.68,0,0,0,2.29-6.78,141.89,141.89,0,0,0,3.57-19.26c.58-4.61,1-9.49-.2-14a54.7,54.7,0,0,1-1.92-13,8.72,8.72,0,0,1,2.22-6.48,5.61,5.61,0,0,0-.78-8.23c-.74-.6-1.54-1.11-2.29-1.7-3.32-2.6-6.81-2.32-9.43,1-1.41,1.8-3,3.43-4.4,5.18-4.23,5.18-6.33,10.94-5.08,17.85a49.46,49.46,0,0,1,.91,9.23c-.07,4.56-.86,9-1.35,13.47-1.17,10.72-4.75,20.21-11.73,28.64A36.32,36.32,0,0,0,797.58,664.94ZM903.34,421.27a22.59,22.59,0,0,0,3.32,12.28c3.75,6,9.3,6.51,14,1.83,2.88-2.84,3.51-6.41,4.37-10,.71-3,1.24-3.36,4.17-2.61a21.21,21.21,0,0,1,2,.68c7.45,2.8,15,4.55,23,2.92,6.62-1.34,13.07-3.08,18.68-6.86,6.67-4.5,11.48-10.77,15.26-17.79a115.79,115.79,0,0,0,9.1-22.09c2.34-7.86,6-15.24,8.49-23.11,1.59-5.11,2.27-9.63-1.16-14.19-1.43-1.91-2-4.33-2.75-6.6-2.24-6.41-7.7-10.75-13-10.36-3.37.24-6,2.1-8.48,4.27-4.53,4-4.2,7.07-2,11.16,2.43,4.57,1.27,8.44-.69,12.49-1.67,3.45-4.2,6.4-5.8,9.9a17,17,0,0,1-9,8.74,272.24,272.24,0,0,1-26.26,10.16c-6.63,2.11-12.11,5.92-17.09,10.65-3.23,3.06-5.62,6.81-8.61,10.05A28.33,28.33,0,0,0,903.34,421.27ZM891.15,592.65c-.45,4.15,1,8.12,3.18,12A24.59,24.59,0,0,0,917.7,617a260.3,260.3,0,0,0,26-4.37,6.75,6.75,0,0,0,5.1-4.59c1.8-5.27-.88-10.1-6.29-11.9-1.58-.53-3.12-1-4.32-2.34-2.25-2.59-5.27-3.58-8.66-3.64-1.42,0-3,.49-4.26-.21-1.69-.92-4.68.76-5-1.27-.21-1.25,1.81-3.38,3-5,5.2-6.86,8.83-14.34,9.26-23.2.37-7.59-1.43-14.58-4-21.65-2.09-5.78-5.53-11.13-6-17.53-.38-5.7-1-11.11,5.08-14.81a9.81,9.81,0,0,0,4.6-8.89c-.34-5.32-8.28-12.52-15.85-8.06-4.74,2.78-9.59,5.3-14.44,7.85-2.34,1.23-4.77,2.57-6.16,4.83-2.11,3.46-4.64,6.7-6.21,10.48a17.56,17.56,0,0,0-1.37,4.8c-1.27,10.95,2.84,20.37,9.25,28.58,3.49,4.46,4.34,9.67,6.71,14.38.42.82-.19,1.6-.38,2.4-1.21,5.29-4.58,9.41-7.29,13.9C893.63,581.49,890.7,586.34,891.15,592.65Zm8.22,162.58a38.12,38.12,0,0,0,17.25-3c2.83-1.25,5-3.32,7.23-5.18a35,35,0,0,0,11.58-16.52c2.17-7,4.14-14.21,3.49-21.78a7.21,7.21,0,0,1,3.31-6.71c3.12-2.22,4.4-6.5,3-9.42-2-4.16-6.11-6.44-10.08-5.39a3.56,3.56,0,0,1-3.57-.76,7.17,7.17,0,0,0-10.35,1.89A66.1,66.1,0,0,0,914.45,706a32.52,32.52,0,0,1-3.78,9.56c-2.06,3.29-4.61,5.43-8.75,4.92a14.77,14.77,0,0,0-2.82.42c-3.17.23-6.75,1.45-9.46-.4a23.44,23.44,0,0,1-10.39-17.59,49.22,49.22,0,0,0-2.17-9.73,9.53,9.53,0,0,0-4.32-5.57c-2.25-1.32-5.59-1.46-7.12,0-2,1.8-3.1,4-2,6.74.27.68.73,1.34,0,1.94-2.75,2.28-4.48,5.71-7.78,7.33-5.27,2.59-7.63,5.55-4.24,13.89,1,2.55,2.39,4.93,3.34,7.54,3.34,9.22,8.78,17.07,17.13,22.33C880.59,752.64,889.94,755.83,899.37,755.23ZM653.58,557.11c-5.65-.09-10.59,6.13-8.94,11.2a14.58,14.58,0,0,0,3.59,5.72,39.66,39.66,0,0,1,6.78,9.63,35.42,35.42,0,0,0,9.61,11.79,26.68,26.68,0,0,0,15.43,5.89c6.36.23,12.61-1.13,19-.85,4.36.19,8.54.87,12,3.92a7.16,7.16,0,0,0,2.14,1.28c3.83,1.49,8.21,1.77,11.14,5.2.06.07.22.06.33.11a5.75,5.75,0,0,0,6.6-1.23,7.52,7.52,0,0,0,2.38-8.13c-.74-2.79-.37-3.34,2.23-2.65,5.55,1.49,11,1.06,16.55-.08,3.45-.71,6.23-3.92,5.86-6.69-.4-3.09-2.85-4.91-6.86-5-2.64,0-5.28.18-7.91,0a22.11,22.11,0,0,1-11.07-3.39c-4.47-2.94-7.08-7.43-10.13-11.46-3.82-5-8.51-7.47-14.66-7.47a45,45,0,0,0-12.68,1.43c-5.79,1.64-12.13.45-17.95,2.37-4.29,1.41-6.93-.75-8.92-3.83C664.51,559.42,658.81,558.5,653.58,557.11Zm362.58,74.38h2.23c12.11,0,19.51-4.81,23.73-16a33.14,33.14,0,0,0,.71-20.75c-1.43-5.29-3.95-10.16-5.77-15.3a14.65,14.65,0,0,0-7.67-8.62c-2-.92-3.82-1.27-5.69.21a5.11,5.11,0,0,0-2.09,5.68,5,5,0,0,1-.05,3.42c-2,5.15-2.42,10.65-2.87,16.07-.27,3.28-1.71,5.4-4,7.5-3.16,2.84-7,3.9-10.82,5.18-4.85,1.61-8,6-7.56,10.45.51,5.26,5,10.42,9.66,11.25A42.48,42.48,0,0,0,1016.16,631.49Zm-290.17-2c0-5-.29-5.64-3-7.85a14.28,14.28,0,0,0-6.11-2.9,25,25,0,0,1-6-2.34c-7.11-3.48-13.37.56-13.23,8.53.08,5.36-.48,6.07-5.93,7.38-.81.2-1.63.35-2.43.59-8.26,2.46-10.39,11.44-4.36,17.62,1.73,1.77,4.07,2.46,5.79,4.16,4.71,4.66,11.11,4.58,15.78-.2a106.05,106.05,0,0,1,10.93-9.75C723,640.42,725,634.54,726,629.47Zm249.58,71.75a6.64,6.64,0,0,0,6.26-5.41c.8-4.62.9-9.2-2.07-13.31a15.53,15.53,0,0,1-1.53-3.59A22.34,22.34,0,0,0,969.42,668a5.9,5.9,0,0,0-7.55.91c-2,2.06-2,3.52-.43,6.83,3.36,6.93,7.3,13.6,8.86,21.32C971,700.42,972.46,701.26,975.57,701.22Z" transform="translate(-482.67 -147.67)"/><path class="cls-2" d="M622.38,725.09c1.15-8.77-3.79-15.64-8.55-22.57s-11.43-11-18.4-15.06c-5-2.93-9.69-6.54-15-9-7.49-3.53-5.35-10.93-1.82-15.37,2.37-3,5.62-5.27,8-8.23,4.14-5.08,9.34-8.74,14.74-12.26,3.3-2.16,5.94-5.14,8.54-8.1,5.6-6.38,8.44-14.27,11.94-21.82,1.59-3.42.88-7.06,1.76-10.52.64-2.57,1.63-3.47,3.86-2.18,3,1.76,5.26,4.1,5.6,8.1.69,7.93,0,16,2.15,23.78,2.06,7.38,5.56,14,12,18.58a20,20,0,0,0,3,1.94c4.1,1.89,6.85,4.67,6.64,9.54,4.19,7,4.21,15.3,6.61,22.87,1.34,4.24,1,8.72,1.85,13,.21,1.1,1.77,2.43.57,3.16-.81.5-1.61-1.35-2.44-2.11a5.89,5.89,0,0,0-2.39-1.54c-3.22-.82-5.69-3-8.58-4.42-3.75-1.83-7.62-3.13-11.94-1.9-4.83,1.37-8.21,5.75-9.1,10.72-1.21,6.75,1.29,11.83,6,16.23a8.49,8.49,0,0,1,2.9,5.85c.72,7.8,4.37,14.07,11.25,18.14,3.21,1.9,6.85,1.44,10.17.75,7.82-1.63,15.6-3.5,23-6.77,2-.87,2.95-.19,3,1.94,0,1.55,0,3.11-.16,4.67-.42,5.18,1.87,9.19,5.24,12.86,2.75,3,5.3,6.15,8.26,9a4.88,4.88,0,0,1,1.35,2.09c1.42,4.89,4.91,8.31,8.28,11.8,2.69,2.77,3.44,6.18,3.53,9.83,0,2.16-.14,4.32-.05,6.47.37,8.89-1.27,17.54-3.11,26.16A51.32,51.32,0,0,0,709.78,831c-.08,6.51,4,10.26,8.69,13.44,2.79,1.89,8.34.38,11.31-2.28,4.66-4.18,7.69-9.41,10-15.14,1.91-4.86,4.57-9.4,6.19-14.39a8.52,8.52,0,0,0,.72-2c.29-6.3,4.26-9.87,9.29-12.65,2.39-1.32,4.85-2.53,7.28-3.79a14,14,0,0,1,6.89-1.6,28.51,28.51,0,0,0,8-1.38,16.4,16.4,0,0,1,2.4-.71c1.42-.15,3-.52,4.26,0,1.71.7.15,2.6.68,3.83,1.78,4.11-.47,6.17-3.62,8.25a27.43,27.43,0,0,0-9.26,9.79A28.7,28.7,0,0,0,770,834.08,62.84,62.84,0,0,0,775,846.66a9,9,0,0,1,1.19,4.42c-.09,3.79-1.47,5.79-5.1,6.08a47.57,47.57,0,0,0-15.16,4,18.09,18.09,0,0,0-10.8,13c-2.41,9.76,1.1,18.07,5.71,26.21.85,1.51,2.55,3.33,1.23,4.65-1.55,1.55-2.77-1-4.15-1.68-3.54-1.69-6.47-4.36-9.74-6.46-4.33-2.77-9.22-3.37-14.41-2.69-3.2.42-6.49.07-9.28-2.35-4.84-4.21-8.13-9.64-12-14.61a12.86,12.86,0,0,0-1.32-1.68c-1.83-1.68-1.72-3.34-.42-5.37a28.74,28.74,0,0,0,4.57-16.28,85.55,85.55,0,0,0-2.63-21.22c-.91-3.5-.28-7.06-.11-10.63a92.38,92.38,0,0,0-.84-13.47c-.1-1.06-.65-2.09-.11-3.12,3.13-5.92,1.9-12,1.09-18.2-.64-4.83-1.71-9.31-4.68-13.3-4.29-5.76-13.22-8.41-19.81-5.76-4.18,1.67-5.8,5.58-7.82,9-1.86,3.19-4.22,6.08-5.6,9.57a3.46,3.46,0,0,1-3.75,2.13c-2.74-.12-5.38.2-7.33-2.52-1-1.44-3.13-1.8-4.79-2.25a53,53,0,0,1-11.3-4.35c-1.52-.81-3.3-.35-5-.42a73.48,73.48,0,0,1-15.1-2.34c-1.94-.5-3.21-1.45-3.59-3.48a4.49,4.49,0,0,0-.68-2c-3.14-3.72-1.56-7.13.14-10.92,3.67-8.19,5.95-16.86,8.15-25.54A33.85,33.85,0,0,0,622.38,725.09Zm24.4-60a16.05,16.05,0,0,0,0-2.86c-.5-2.85-4.39-5.15-6.48-3.73-1.64,1.13-3.53,2.46-4,4.41-1.46,5.52-4.37,10.25-7.32,15-1.26,2-1.63,4.26-.21,6.4s3.66,1.88,5.82,1.83a4.82,4.82,0,0,0,3.4-1.72c1.62-1.62,2.61-3.68,4-5.48C645,674.79,646.26,670.05,646.78,665.05Z" transform="translate(-482.67 -147.67)"/><path class="cls-2" d="M731.16,464.72c-6,.62-11.67.58-17,3.32a18.68,18.68,0,0,1-9.36,1.92,27.65,27.65,0,0,0-19,5.83c-3.85,3-7.84,5.83-11.77,8.72-3.69,2.71-6.09,6.7-8.77,10.33-2,2.76-4.16,4.73-7.81,4.88a18.5,18.5,0,0,0-5.5,1.48,20.77,20.77,0,0,1-13.31.24c-3.74-1.06-7.83-.61-11.59-1.85-3.2-1.07-6.39-2-9.82-1.46a3.37,3.37,0,0,1-2.05-.52,31.56,31.56,0,0,0-10.87-3.36c-2.83-.3-2.84-.54-1.16-2.62,4.34-5.37,6.61-11.56,5.46-18.32-.64-3.78.13-7.64-1.19-11.34a5,5,0,0,1,.82-4.05,36.28,36.28,0,0,1,7.1-8.43c5.17-4.2,10.51-8.31,14.36-13.9,1.36-2,3.56-3,5.14-4.88a28.75,28.75,0,0,0,5.93-12.46,71.63,71.63,0,0,0,1.89-17.36c0-1.84-1.07-3.51-.82-5.28.83-5.82.36-11.7.84-17.49.25-3.06,2.73-6,4.47-8.85,2.5-4.06,5.36-7.9,7.84-12,1.14-1.86,3-2.66,4.52-4a38.91,38.91,0,0,0,6.9-8.66c2.91-4.79,7.27-7.09,12.68-7.58a8.62,8.62,0,0,1,7,2,7.84,7.84,0,0,0,6.22,2.31,3.1,3.1,0,0,1,2,.41A26.08,26.08,0,0,0,708,345a27.07,27.07,0,0,1,8.11,1.06,19.3,19.3,0,0,0,8.91.13,21,21,0,0,1,4.59-.43,35.73,35.73,0,0,0,18.93-4.27c3.1-1.67,6.56-2.76,9.69-4.5a3.52,3.52,0,0,1,.82-.2c-.17.17-.34.34-.52.49-2.41,2.11-4.37,4.83-7.78,5.56a19.7,19.7,0,0,0-8.12,4.36c-5,4-11,6-17.17,7.76a11.69,11.69,0,0,0-2,.6c-6.74,3.24-13.41,2.28-20.08-.23a77.49,77.49,0,0,1-8.8-4c-4-2.1-7.68-2.1-11.23,1.13-1.29,1.16-3.14,1.7-4.72,2.55-2.18,1.18-4,2.58-4,5.46.05,2.7,1.76,4.09,3.86,5.13a11.47,11.47,0,0,1,3.45,2.51c4.6,5.06,9.81,9.47,14.82,14.09,2.93,2.7,6.72,4.29,10.39,5.54a42.71,42.71,0,0,0,11.11,2.57c3,.19,5.58,2,8.32,3.15a4.16,4.16,0,0,1,2.15,3.18c1.41,7.3,5.75,13.08,10.43,18.38a27.53,27.53,0,0,1,5.14,9.21c1.25,3.46,2.11,7.08,3,10.66,1.58,6.1.37,12.05-1.19,18a31.92,31.92,0,0,0-1.43,5.53c-.19,2.63-1.89,3.74-3.87,4.63C737.68,464.43,734.48,465.85,731.16,464.72Zm-62.82,7.56c2.87.46,5.06-.51,7.29-.56,6.09-.14,12-1.33,18-2.43,4.27-.78,8.63-1.52,12.36-4.23a47.4,47.4,0,0,0,13.26-15.27c2.56-4.49,4.27-9.24,3.93-14.57a20,20,0,0,0-7.88-14.71c-4.2-3.4-8.75-6.06-14.57-6.06-6.51,0-11.72,2.93-16.65,6.59-3.53,2.62-6.62,5.88-10.13,8.47-10,7.31-19.92,14.59-32.32,17.69-8,2-14.79,6.8-20.83,12.22-3.9,3.5-7.48,7.62-6.73,13.91.53,4.42,1.94,8,6,9.9,3.73,1.79,7-.05,9.81-2.47,4.62-4,9.74-7.28,15.86-7.57C653.4,472.83,661.19,473.6,668.34,472.28Z" transform="translate(-482.67 -147.67)"/><path class="cls-2" d="M1276.07,292c-.39,3,.43,6.11-.4,9.23-1.15,4.32-2.47,5.32-6.81,5.43a44.51,44.51,0,0,1-25.62-6.55c-5.61-3.06-11.48-3.53-17.68-2.33-2.52.49-5.2.83-7.69-.63-4.18-2.44-8.91-3.1-13.5-4.36s-9.19-1.28-13.83-1.35a26.94,26.94,0,0,0-11.45,2.47c-1.32.59-2.7,1.36-4.08,1.22-4.71-.48-7.92,2.23-11.07,5a8.79,8.79,0,0,1-5,2.42c-4.31.57-8.39,2.05-11.46,5.36-1.47,1.58-2.9,1.23-4.52.46-1.9-.9-.93-2.18-.76-3.58a14.56,14.56,0,0,1,4.77-8.95c3.17-3.1,6.24-6.26,10-8.64a15.06,15.06,0,0,0,3.11-3c2.06-2.36,2.35-5,.87-6.87a5.34,5.34,0,0,0-6.89-1.13c-3.74,2.52-7.88,4.47-11.27,7.52-.36.32-.66.7-1,1-2.3,2-4.07,4.66-6.75,6.3a22.78,22.78,0,0,0-7.79-4.95c-.87-.37-.94-1.34-1.46-1.95-5.24-6.17-10.51-12.31-17.12-17.09a12.75,12.75,0,0,0-1.83-1.11c-2.52-1.25-4.86-2.63-5.28-5.8-.06-.41-.53-.79-.87-1.12-2.26-2.26-4-4.7-3.81-8.15.06-1.25-.62-2.53-1-3.78-.26-.78-.75-2.13-.32-2.26,1.09-.31,1.4,1,1.88,1.72,1.15,1.82,2.4,3.59,3.39,5.49,3,5.66,7.61,9.74,12.46,13.66a6.62,6.62,0,0,1,1.3,1.23c4.17,6.14,10.38,5,16.28,4.35a19.82,19.82,0,0,1,5.6,0c3.51.59,7,.9,10.56-.66s7.39-2,11,.05a8.62,8.62,0,0,0,4.49,1c5,0,10.09.26,15.1-.07a59.35,59.35,0,0,0,13.68-2.26c3.69-1.13,6.23-3.52,8.38-6.84,2.57-3.95,4.62-7.77,4-12.64a6.93,6.93,0,0,0-1.25-3.64c-3.12-4-6.11-8.09-11.12-10.22-4.31-1.84-7.36-5.62-11.17-8.29-1.73-1.22-1.85-3.37-1.45-5.16a20,20,0,0,0,.46-4.6c-.06-5.11,2.28-7.48,7.53-7.54,2.87,0,5.75.05,8.62-.1,1.85-.1,2.05.36,1.33,2-1.88,4.25-1.5,8.59-.39,13A8.3,8.3,0,0,0,1200,230c2,1.43,4.75.65,6.25-1.4a12.26,12.26,0,0,0,2.25-5.21c.58-3.34,2.72-4.78,5.78-6,6.2-2.51,10.86-.53,15.56,3.48,2.47,2.1,4.68,4.43,7.11,6.54a5.45,5.45,0,0,1,1.78,4.16c0,3.45.27,6.93-1.31,10.22a11,11,0,0,0-.46,8.06c.72,2.42.31,4.92.93,7.42a26.84,26.84,0,0,0,14.71,18.33,22.31,22.31,0,0,0,12.26,1.8,10,10,0,0,1,6.16,1.42c3.3,1.87,5.82,4.17,5.11,8.52A31,31,0,0,0,1276.07,292ZM1221,257.12h0a35,35,0,0,0,0-5c-.63-4.43-2-8.6-5.19-11.93a5.36,5.36,0,0,0-6.15-1.51,5.23,5.23,0,0,0-2.36,5.9c1.31,3.72.85,7.54,1.31,11.3.44,3.6-1,5.57-3.88,7.19a12.68,12.68,0,0,0-5.62,5.37c-1.39,2.91.08,5.65,3.28,6a8.08,8.08,0,0,0,4.22-.5c2.08-.89,4.19-1.75,6.35-2.43a11.15,11.15,0,0,0,8.09-10.46C1221,259.75,1221,258.44,1221,257.12Z" transform="translate(-482.67 -147.67)"/><path class="cls-2" d="M735.62,234.6c-2.64,0-5.3.22-7.91,0-6.4-.63-11.71,2.12-16.61,5.56-2.75,1.93-5.06,2.44-7.75.52-2.87-2-6.25-2.91-9.44-4.21-2.55-1-3.52-2.64-3.07-5.36a14.61,14.61,0,0,1,3.92-7.47,82.76,82.76,0,0,1,8.27-7.4c3.33-2.85,5.09-6.91,8.25-9.89a5.24,5.24,0,0,1,5.41-1.43c4.91,1.05,9.57,2.88,14.4,4.09,4,1,7.95,1.73,12.28,1s9.08,0,13.63-.32c1.56-.12,2.48,1.16,3,2.2,1.3,2.36,3.48,3.51,5.56,4.91a36.41,36.41,0,0,1,11.33,11.77c2.62,4.44,2,9.54-2.13,12.42A50.5,50.5,0,0,0,761,254.78c-2.67,4.1-6.63,7.14-9.27,11.34-5.91,9.4-11.31,18.89-10.22,30.62a9.71,9.71,0,0,1-2.82,7.8c-2.83,3.09-5.27,6.55-4.37,11.2a20.63,20.63,0,0,0,5.21,10c.62.68,1.8,1.14,1.54,2.25-.3,1.31-1.69,1-2.62,1.38-2.16.86-4.47.44-6.7.79-4.61.71-9.27.93-14-.62a28.56,28.56,0,0,0-10.92-1.3,11.64,11.64,0,0,1-5.5-1.15c-5.27-2.15-10.54-4.39-16.26-5.1-.5-.06-1.21-.2-1.1-.65.25-1,1-.21,1.36-.07,5.47,1.86,11.25,1.68,16.85,2.62a4.61,4.61,0,0,0,3.64-1.29c4.87-4.66,11-8.15,14.23-14.33,3.32-6.44,6.87-12.81,9.07-19.78a4.46,4.46,0,0,0,.32-1.74c-.32-2.87,1-5,2.73-7.12a42.78,42.78,0,0,0,5.12-7.32c3.49-6.75,9.31-10.72,15.83-13.92a16.08,16.08,0,0,0,7.08-6.86,7.68,7.68,0,0,0-.53-8.81c-3.71-4.62-8-8.6-14.74-8.15-3.1.2-6.23,0-9.34,0Z" transform="translate(-482.67 -147.67)"/><path class="cls-2" d="M551.88,437.92c0-1.91,0-3.83,0-5.75-.14-4.53,1.72-7,6.28-7.77a17.69,17.69,0,0,1,8.05.54c4.71,1.32,9.23,3.12,13.88,4.59a10.76,10.76,0,0,0,7.4-.08,7,7,0,0,0,3.77-8.44,10.07,10.07,0,0,1,.11-6.62c1.75-4.37.06-8.48-1.84-12a124.81,124.81,0,0,0-9.2-14.91,10.5,10.5,0,0,1-2-7.43c.29-2.86,1.64-4.46,4.37-5a7,7,0,0,0,5-7c-.27-2.7-.84-5.38-2.82-7.57-2.28-2.51-2.29-2.69.16-4.8a48.1,48.1,0,0,0,5.24-5.35c1.86-2.19,3.9-2.22,6.41-1.43,6.69,2.1,13.39,4.17,20.16,6a11.61,11.61,0,0,0,8.36-1.22,5.63,5.63,0,0,1,2.64-1c.32,0,.64.07,1,.1-.15.31-.21.7-.45.9-3.93,3.23-6.53,7.56-9.51,11.58a10,10,0,0,1-2.8,2.77c-6.82,3.94-9.83,10.84-13.44,17.22a81.1,81.1,0,0,0-7,16.45c-1.44,4.73-.84,8.78,2.15,12.39,1.65,2,1.62,3.61.77,5.84-1.78,4.67-3.53,9.39-1.63,14.57.65,1.76,0,3.35-1.56,4.75a24.75,24.75,0,0,0-7.09,10.59,8,8,0,0,1-3.7,4.28c-3.86,2.25-5.58,5.84-6.55,9.83a14.52,14.52,0,0,1-2.75,5.68c-1.53,2-3.36,3.73-4.47,6-.31.62-.6,1.5-1.52,1-.76-.45-.3-1.24-.21-1.95.79-6.32,3.62-12.05,5.16-18.13,1.94-7.64.33-9.32-4.52-11.45a21.11,21.11,0,0,1-2.71-1.74,7.75,7.75,0,0,0-9.09,0,28.26,28.26,0,0,0-4.36,3.1c-.42.4-.82,1-1.49.63s-.37-1.05-.36-1.64c0-2.52,0-5,0-7.55Z" transform="translate(-482.67 -147.67)"/><path class="cls-2" d="M1230,359.32c.07,1.32.07,2.64.22,3.95.16,1.51-.42,2.26-1.77,1.41a4.24,4.24,0,0,0-5.3.08c-2.09,1.55-3.66,3.4-3.88,6.16a257.13,257.13,0,0,0-.72,28.31c.16,5.55-2.82,9.45-6.9,12.67-1.4,1.12-3.25.91-4.85.47a14.8,14.8,0,0,1-8.17-5.37c-3.22-4.1-6.21-8.62-10.9-11.26-4.3-2.42-8.47-5.34-13.56-5.95a5.82,5.82,0,0,1-3.67-1.9c-3.79-3.84-7.62-7.64-11.43-11.46-.51-.5-1.25-1-1.42-1.58-.35-1.23-1.59-2.5-.76-3.7s1.84.48,2.87.42c1.19-.06,2.49.36,3.57,0,4.57-1.45,8.94-.14,13.36.68,4.25.78,7.92-.68,8.79-3.64,1-3.22-.94-6.85-4.85-8.53-4.35-1.86-8.63-3.51-13.45-3.07a9.43,9.43,0,0,1-3.17-.4c-2.45-.62-3.1-2.2-1.56-4.17.89-1.15,2.27-1.77,3.3-2.72,2.08-1.92,4.47-3.44,6.15-5.9,2.09-3,4.56-2.85,6.35.35a30.59,30.59,0,0,0,16.8,14.24,9,9,0,0,0,3.8,1c5.93-.52,11.92-.82,17.08-4.38,2.19-1.51,4.38-2.88,7.26-1.66,1.27.53,2.49-.59,3.84-.61,2.79,0,3.15.22,3.11,3,0,1.19,0,2.39,0,3.59Z" transform="translate(-482.67 -147.67)"/><path class="cls-2" d="M1018.58,165c1.94-.62,3.1.9,4.2,2.3a19,19,0,0,1,3.12,4.78c2.28,6.18,6.32,11.43,8.79,17.53a38.41,38.41,0,0,0,8.29,13.17c4,4,7.94,8.26,11.92,12.38,2.82,2.93,5.5,6.05,9.8,6.86.65.12,1.18.57.82,1.25-.26.48-.83.06-1.26,0-8.6-2-17.15-2.44-25.65.56a31.18,31.18,0,0,1-6.56,1.63c-3.3.39-5.46-2-7.72-3.88-4.66-3.86-9.24-7.83-13.88-11.72a4.72,4.72,0,0,0-1.59-.78c-5.84-1.87-11-5.14-16.24-8.18-.29-.17-.89-.23-.72-.59a1.88,1.88,0,0,1,1.13-.72,24.16,24.16,0,0,0,9.7-5.87,26.62,26.62,0,0,0,5.59-6.38c3.38-6,6.65-12.09,6.06-19.41C1014.22,165.78,1015.55,165,1018.58,165Z" transform="translate(-482.67 -147.67)"/><path class="cls-2" d="M495,540c0-.84,0-1.68,0-2.51,0-3.16.89-4,4-4a24.5,24.5,0,0,1,8.43,1.24c6.21,2.14,12.7,1.95,19.15,1.71,3.51-.13,3.67-.08,2.21,3.27a33.35,33.35,0,0,0-2.44,12.52A44.68,44.68,0,0,0,535,580.74c.38.51,1.37.89.87,1.69-.13.23-1.09,0-1.67-.09-5.7-.44-11.24-.84-16.15-4.64-3.44-2.65-8-3.61-11.65-6.19a8.54,8.54,0,0,1-3.21-4.37c-1.84-4.76-2.93-9.78-5.17-14.41A26.38,26.38,0,0,1,495,540Z" transform="translate(-482.67 -147.67)"/><path class="cls-2" d="M784,452a4.4,4.4,0,0,1,3.68,1.11,25.21,25.21,0,0,0,3.88,2.51,27.59,27.59,0,0,1,11.6,11.47,27,27,0,0,0,6.08,7.46c.58.5,1.6,1.08.62,2-.74.7-1.29-.13-1.78-.59-3.93-3.79-9.37-3.83-14.08-5.67a80.18,80.18,0,0,0-8.11-2.68c-4.84-1.31-8.73.26-12.41,2.88a50.18,50.18,0,0,0-8.45,7.65c-2.16,2.43-4.64,4.22-8.27,4.32-2.8.07-5.55,1-8.42,1.27a23.13,23.13,0,0,1-11.68-2.5c-.41-.19-.95-.11-.93-.77s.49-1,1.11-1.18c2.16-.73,4.45-.66,6.67-1.09a16.79,16.79,0,0,0,7.36-3.47,14.53,14.53,0,0,1,4.7-2.62,22.66,22.66,0,0,0,3.46-1.33c3.87-2,6-2.3,8.16-5.82a31,31,0,0,1,3.61-4.85c.93-1,1.06-1.79,2.58-2.67.65-.37,1.31-.76,1.93-1.2a10.88,10.88,0,0,0,1.28-1.1,11.59,11.59,0,0,1,4.73-2.92A4.7,4.7,0,0,1,784,452Z" transform="translate(-482.67 -147.67)"/><path class="cls-2" d="M875.19,158.49c2.45,0,5.89,3,6.17,5a2.64,2.64,0,0,1-2.14,2.92,8.47,8.47,0,0,0-4,2.92c-7.89,8.52-17.61,15.1-25.29,23.85a6.69,6.69,0,0,1-1.45,1c-1.29.86-1.18.22-1.12-.89.16-3.22.18-6.46.2-9.7a6.81,6.81,0,0,0-.3-2.83c-2.31-5,1.56-8.6,5.35-10.57a18.18,18.18,0,0,0,3.84-2.46c5-4.45,11.43-6.29,17.29-9.17A3.22,3.22,0,0,1,875.19,158.49Z" transform="translate(-482.67 -147.67)"/><path class="cls-2" d="M774.43,287.76a12.1,12.1,0,0,1,1.13-8.07,11.38,11.38,0,0,0,1.18-3.37c.51-4.41,4-6.89,6.34-10.13.18-.27.45-.72.82-.44a1.34,1.34,0,0,1,.32,1c0,2.95-.75,5.88-.22,8.86.19,1,.19,2.1.46,3.17.82,3.16.66,6-2.33,8.25s-4,5.59-3.94,9.23c0,6.82,0,13.65.14,20.47a5.76,5.76,0,0,1-2.21,5,1.94,1.94,0,0,1-1.72.28c-.93-.22-.38-1-.31-1.46.43-3.06-.32-5.41-3.42-6.69-1-.42-1.1-1.2-.67-2.36,2.18-5.84,2.44-12.07,3.34-18.16C773.67,291.1,774.88,289,774.43,287.76Z" transform="translate(-482.67 -147.67)"/><path class="cls-2" d="M1148,426c.2,3.1.18,6.37.21,9.63,0,4.39-2.14,8-3.17,12-.57,2.19-6.61,4.51-8.7,3.91-1-.28-.62-1-.31-1.33,5.76-6.25,5.73-14,5.88-21.79a18.78,18.78,0,0,0-1.87-8.27c-.49-1.08-.89-2.21-1.27-3.33a1.8,1.8,0,0,1,1-2.11c.84-.57,1.26.21,1.77.67a19.92,19.92,0,0,0,2.17,1.84C1146.77,419.28,1148.69,421.92,1148,426Z" transform="translate(-482.67 -147.67)"/><path class="cls-2" d="M804.25,252.65a66.94,66.94,0,0,1-1.22,7.63c-1.6,6-.93,11.53,2.63,16.67,1.36,2,1,4.31.55,6.28-1.25,5.72-.51,11.45-.59,17.17,0,.71.14,1.43.13,2.14,0,.36-.23.77-.63.75s-.25-.52-.3-.82l-.78-3.85a80.94,80.94,0,0,0-3-11c-1.37-3.87-1.13-8-1.58-12-.25-2.13-1-4.19-.86-6.35.41-6.08.93-12.14,4.16-17.54.28-.48.28-1.23,1.07-1.26C804.33,250.44,804.34,250.48,804.25,252.65Z" transform="translate(-482.67 -147.67)"/><path class="cls-2" d="M992.49,827c.24,4.15.36,7.69.7,11.26.54,5.66-.88,11.31-2.72,16.73-.89,2.6-3,3.81-5.61,4.34-.31.06-.67.5-.9,0a1.24,1.24,0,0,1,.13-1,31.55,31.55,0,0,1,2.76-4.59c2.84-3.49,2.83-7.56,2.33-11.59a26.25,26.25,0,0,0-5.79-13.93c-1.25-1.49-1.52-2.46.79-3.27,3-1,5.3-3.14,7.5-5.35.23-.24.45-.71.82-.49a1.21,1.21,0,0,1,.33.94C992.73,822.55,992.59,825.05,992.49,827Z" transform="translate(-482.67 -147.67)"/><path class="cls-2" d="M582.72,609.37a4.53,4.53,0,0,1-1.1,3.32c-1.49,1.91-2.3,2-4,.36-2.47-2.36-4.63-4.77-8.3-5.86-2.57-.77-4.38-3.85-6.75-5.7a74.61,74.61,0,0,1-5.91-5.76c-.55-.54-1.1-1.21-.69-1.86s1.07.07,1.63.19c3.9.85,7.2,3.12,10.71,4.81,3.32,1.6,6.51,3.46,10,4.87C580.66,604.74,583.11,606,582.72,609.37Z" transform="translate(-482.67 -147.67)"/><path class="cls-2" d="M1090.74,804.05c-.26,0-1.48.17-1.55,0-.32-1,.7-1.42,1.3-1.82,3.06-2.07,6.55-3.35,9.74-5.23a62.14,62.14,0,0,0,13-10.43c.91-.94,2.16-2.46,3.11-1.91s-.28,2.31-.37,3.54c-.35,4.54-3.62,6.4-6.87,8.81a39.14,39.14,0,0,1-14.81,6.68C1093.27,803.92,1092.22,803.86,1090.74,804.05Z" transform="translate(-482.67 -147.67)"/><path class="cls-2" d="M558,524.79h-.54c-2,.09-4.49-.39-4.91-2s2.06-2.5,3.62-3.28a58.6,58.6,0,0,0,6.36-3.27,8.78,8.78,0,0,0,4.23-5.95c.09-.58.5-1.28,1-1.28.33,0,.63.86,1,1.3a2,2,0,0,1-.12,2.64c-2.06,2.66-3.06,5.9-5,8.67C562.21,523.79,560.53,525.15,558,524.79Z" transform="translate(-482.67 -147.67)"/><path class="cls-2" d="M1120.35,729.16c0-2.84-.59-5.72.55-8.47.15-.39.09-1.05.73-1,.2,0,.41.52.52.84.76,2.23,1.61,4.44,2.21,6.72,1,3.6-.94,6.09-3.55,8.22-.18.14-.46.33-.62.27-.47-.17-.17-.58-.16-.89Q1120.2,732,1120.35,729.16Z" transform="translate(-482.67 -147.67)"/><path class="cls-1" d="M797.58,664.94a36.32,36.32,0,0,1,8.62-24.12c7-8.43,10.56-17.92,11.73-28.64.49-4.48,1.28-8.91,1.35-13.47a49.46,49.46,0,0,0-.91-9.23c-1.25-6.91.85-12.67,5.08-17.85,1.43-1.75,3-3.38,4.4-5.18,2.62-3.35,6.11-3.63,9.43-1,.75.59,1.55,1.1,2.29,1.7a5.61,5.61,0,0,1,.78,8.23,8.72,8.72,0,0,0-2.22,6.48,54.7,54.7,0,0,0,1.92,13c1.16,4.47.78,9.35.2,14a141.89,141.89,0,0,1-3.57,19.26,66.68,66.68,0,0,1-2.29,6.78,19.39,19.39,0,0,0-1.31,4.08c-.53,3.39,0,4,3.4,3.75,7-.49,14-.85,20.92-2,4.87-.83,9.56.74,13.84,2.83a73.1,73.1,0,0,0,8.48,3.71c4.9,1.66,9.06,4.85,13.94,6.5,3.4,1.15,3.72,1.09,5.08-2.21a21,21,0,0,1,9.91-11.28,32,32,0,0,1,8.52-2.48A22.74,22.74,0,0,1,932,639.58c2.09,1,5,.64,7.4-.07,4.22-1.24,8.07,0,11.86,1.45a6,6,0,0,1,3.39,7.15c-.5,2.11-2.54,3.38-5.65,3.46a16.13,16.13,0,0,1-2.51-.06c-2.4-.3-4,.74-5.39,2.66-3.2,4.41-6.54,5.5-11.51,3.61-6.38-2.43-10.08-2.34-14,5.65a64.49,64.49,0,0,1-4.32,8.23c-2.79,4.06-6.73,5.66-11.4,6.58a27.08,27.08,0,0,1-14.07-.85c-3-1-5.64-2.62-8.42-4-4.69-2.3-9.87-2.74-14.84-3.74-2.08-.41-4.83.61-7,2a103.91,103.91,0,0,1-29.27,13.07c-6.33,1.7-12,0-17.56-2.79A24.45,24.45,0,0,1,804,678.7C799.51,674.92,797.06,670.2,797.58,664.94Z" transform="translate(-482.67 -147.67)"/><path class="cls-1" d="M903.34,421.27a28.33,28.33,0,0,1,7.53-18.48c3-3.24,5.38-7,8.61-10.05,5-4.73,10.46-8.54,17.09-10.65a272.24,272.24,0,0,0,26.26-10.16,17,17,0,0,0,9-8.74c1.6-3.5,4.13-6.45,5.8-9.9,2-4.05,3.12-7.92.69-12.49-2.17-4.09-2.5-7.15,2-11.16,2.44-2.17,5.11-4,8.48-4.27,5.34-.39,10.8,3.95,13,10.36.79,2.27,1.32,4.69,2.75,6.6,3.43,4.56,2.75,9.08,1.16,14.19-2.46,7.87-6.15,15.25-8.49,23.11a115.79,115.79,0,0,1-9.1,22.09c-3.78,7-8.59,13.29-15.26,17.79-5.61,3.78-12.06,5.52-18.68,6.86-8.09,1.63-15.59-.12-23-2.92a21.21,21.21,0,0,0-2-.68c-2.93-.75-3.46-.38-4.17,2.61-.86,3.59-1.49,7.16-4.37,10-4.72,4.68-10.27,4.14-14-1.83A22.59,22.59,0,0,1,903.34,421.27Z" transform="translate(-482.67 -147.67)"/><path class="cls-1" d="M891.15,592.65c-.45-6.31,2.48-11.16,5.38-15.94,2.71-4.49,6.08-8.61,7.29-13.9.19-.8.8-1.58.38-2.4-2.37-4.71-3.22-9.92-6.71-14.38-6.41-8.21-10.52-17.63-9.25-28.58a17.56,17.56,0,0,1,1.37-4.8c1.57-3.78,4.1-7,6.21-10.48,1.39-2.26,3.82-3.6,6.16-4.83,4.85-2.55,9.7-5.07,14.44-7.85,7.57-4.46,15.51,2.74,15.85,8.06a9.81,9.81,0,0,1-4.6,8.89c-6.1,3.7-5.46,9.11-5.08,14.81.43,6.4,3.87,11.75,6,17.53,2.57,7.07,4.37,14.06,4,21.65-.43,8.86-4.06,16.34-9.26,23.2-1.24,1.63-3.26,3.76-3,5,.33,2,3.32.35,5,1.27,1.29.7,2.84.18,4.26.21,3.39.06,6.41,1,8.66,3.64,1.2,1.38,2.74,1.81,4.32,2.34,5.41,1.8,8.09,6.63,6.29,11.9a6.75,6.75,0,0,1-5.1,4.59,260.3,260.3,0,0,1-26,4.37,24.59,24.59,0,0,1-23.37-12.36C892.16,600.77,890.7,596.8,891.15,592.65Z" transform="translate(-482.67 -147.67)"/><path class="cls-1" d="M899.37,755.23c-9.43.6-18.78-2.59-27.3-8-8.35-5.26-13.79-13.11-17.13-22.33-1-2.61-2.3-5-3.34-7.54-3.39-8.34-1-11.3,4.24-13.89,3.3-1.62,5-5,7.78-7.33.73-.6.27-1.26,0-1.94-1.08-2.75.06-4.94,2-6.74,1.53-1.41,4.87-1.27,7.12,0a9.53,9.53,0,0,1,4.32,5.57,49.22,49.22,0,0,1,2.17,9.73,23.44,23.44,0,0,0,10.39,17.59c2.71,1.85,6.29.63,9.46.4a14.77,14.77,0,0,1,2.82-.42c4.14.51,6.69-1.63,8.75-4.92a32.52,32.52,0,0,0,3.78-9.56,66.1,66.1,0,0,1,6.81-17.63,7.17,7.17,0,0,1,10.35-1.89,3.56,3.56,0,0,0,3.57.76c4-1.05,8.13,1.23,10.08,5.39,1.37,2.92.09,7.2-3,9.42a7.21,7.21,0,0,0-3.31,6.71c.65,7.57-1.32,14.73-3.49,21.78A35,35,0,0,1,923.85,747c-2.25,1.86-4.4,3.93-7.23,5.18A38.12,38.12,0,0,1,899.37,755.23Z" transform="translate(-482.67 -147.67)"/><path class="cls-1" d="M653.58,557.11c5.23,1.39,10.93,2.31,14.44,7.77,2,3.08,4.63,5.24,8.92,3.83,5.82-1.92,12.16-.73,17.95-2.37a45,45,0,0,1,12.68-1.43c6.15,0,10.84,2.43,14.66,7.47,3,4,5.66,8.52,10.13,11.46a22.11,22.11,0,0,0,11.07,3.39c2.63.19,5.27,0,7.91,0,4,.07,6.46,1.89,6.86,5,.37,2.77-2.41,6-5.86,6.69-5.51,1.14-11,1.57-16.55.08-2.6-.69-3-.14-2.23,2.65a7.52,7.52,0,0,1-2.38,8.13,5.75,5.75,0,0,1-6.6,1.23c-.11,0-.27,0-.33-.11-2.93-3.43-7.31-3.71-11.14-5.2a7.16,7.16,0,0,1-2.14-1.28c-3.43-3-7.61-3.73-12-3.92-6.34-.28-12.59,1.08-19,.85a26.68,26.68,0,0,1-15.43-5.89A35.42,35.42,0,0,1,655,583.66a39.66,39.66,0,0,0-6.78-9.63,14.58,14.58,0,0,1-3.59-5.72C643,563.24,647.93,557,653.58,557.11Z" transform="translate(-482.67 -147.67)"/><path class="cls-1" d="M1016.16,631.49a42.48,42.48,0,0,1-10.22-.86c-4.64-.83-9.15-6-9.66-11.25-.43-4.43,2.71-8.84,7.56-10.45,3.83-1.28,7.66-2.34,10.82-5.18,2.32-2.1,3.76-4.22,4-7.5.45-5.42.82-10.92,2.87-16.07a5,5,0,0,0,.05-3.42,5.11,5.11,0,0,1,2.09-5.68c1.87-1.48,3.69-1.13,5.69-.21a14.65,14.65,0,0,1,7.67,8.62c1.82,5.14,4.34,10,5.77,15.3a33.14,33.14,0,0,1-.71,20.75c-4.22,11.14-11.62,15.93-23.73,16Z" transform="translate(-482.67 -147.67)"/><path class="cls-1" d="M726,629.47c-1,5.07-3,10.95-8.55,15.24a106.05,106.05,0,0,0-10.93,9.75c-4.67,4.78-11.07,4.86-15.78.2-1.72-1.7-4.06-2.39-5.79-4.16-6-6.18-3.9-15.16,4.36-17.62.8-.24,1.62-.39,2.43-.59,5.45-1.31,6-2,5.93-7.38-.14-8,6.12-12,13.23-8.53a25,25,0,0,0,6,2.34,14.28,14.28,0,0,1,6.11,2.9C725.7,623.83,726,624.47,726,629.47Z" transform="translate(-482.67 -147.67)"/><path class="cls-1" d="M975.57,701.22c-3.11,0-4.59-.8-5.27-4.19-1.56-7.72-5.5-14.39-8.86-21.32-1.6-3.31-1.58-4.77.43-6.83a5.9,5.9,0,0,1,7.55-.91,22.34,22.34,0,0,1,8.81,10.94,15.53,15.53,0,0,0,1.53,3.59c3,4.11,2.87,8.69,2.07,13.31A6.64,6.64,0,0,1,975.57,701.22Z" transform="translate(-482.67 -147.67)"/><path class="cls-1" d="M646.78,665.05c-.52,5-1.78,9.74-4.89,13.85-1.36,1.8-2.35,3.86-4,5.48a4.82,4.82,0,0,1-3.4,1.72c-2.16,0-4.41.32-5.82-1.83s-1.05-4.35.21-6.4c3-4.75,5.86-9.48,7.32-15,.51-2,2.4-3.28,4-4.41,2.09-1.42,6,.88,6.48,3.73A16.05,16.05,0,0,1,646.78,665.05Z" transform="translate(-482.67 -147.67)"/><path class="cls-1" d="M668.34,472.28c-7.15,1.32-14.94.55-22.67.91-6.12.29-11.24,3.59-15.86,7.57-2.81,2.42-6.08,4.26-9.81,2.47-4-1.91-5.42-5.48-6-9.9-.75-6.29,2.83-10.41,6.73-13.91,6-5.42,12.84-10.22,20.83-12.22,12.4-3.1,22.36-10.38,32.32-17.69,3.51-2.59,6.6-5.85,10.13-8.47,4.93-3.66,10.14-6.58,16.65-6.59,5.82,0,10.37,2.66,14.57,6.06a20,20,0,0,1,7.88,14.71c.34,5.33-1.37,10.08-3.93,14.57A47.4,47.4,0,0,1,706,465.06c-3.73,2.71-8.09,3.45-12.36,4.23-5.94,1.1-11.89,2.29-18,2.43C673.4,471.77,671.21,472.74,668.34,472.28Z" transform="translate(-482.67 -147.67)"/><path class="cls-1" d="M1221,257.12c0,1.32,0,2.63,0,3.95a11.15,11.15,0,0,1-8.09,10.46c-2.16.68-4.27,1.54-6.35,2.43a8.08,8.08,0,0,1-4.22.5c-3.2-.39-4.67-3.13-3.28-6a12.68,12.68,0,0,1,5.62-5.37c2.87-1.62,4.32-3.59,3.88-7.19-.46-3.76,0-7.58-1.31-11.3a5.23,5.23,0,0,1,2.36-5.9,5.36,5.36,0,0,1,6.15,1.51c3.18,3.33,4.56,7.5,5.19,11.93a35,35,0,0,1,0,5Z" transform="translate(-482.67 -147.67)"/></g><g id="new"><g class="cls-3"><path class="cls-4" d="M633,427.31h44.4l37.8,110.1h1.2V427.31h38.4v204h-44.4l-37.5-110.1h-1.2v110.1H633Z" transform="translate(-482.67 -147.67)"/><path class="cls-4" d="M779.38,427.31H885v41.4h-62.4v38.4h54.9v40.8h-54.9v42H885v41.4H779.38Z" transform="translate(-482.67 -147.67)"/><path class="cls-4" d="M892.78,427.31h44.7l14.1,146.4h.6l16.2-146.4h43.8l16.5,146.4h.6l15-146.4h40.5l-24.3,204h-59.1l-13.5-130.8h-.6l-13.5,130.8h-56.4Z" transform="translate(-482.67 -147.67)"/></g></g></svg>