<svg id="Layer_1" data-name="Layer 1" xmlns="http://www.w3.org/2000/svg" viewBox="0 0 400.62 218.63"><defs><style>.cls-1,.cls-10,.cls-7{fill:#895042;}.cls-12,.cls-2{fill:#a68d84;}.cls-11,.cls-3,.cls-6{fill:none;}.cls-10,.cls-11,.cls-3,.cls-7{stroke:#895042;}.cls-10,.cls-11,.cls-12,.cls-3,.cls-4,.cls-6,.cls-7,.cls-8,.cls-9{stroke-miterlimit:10;}.cls-12,.cls-3,.cls-4,.cls-6,.cls-9{stroke-width:0.25px;}.cls-4,.cls-5,.cls-8{fill:#9b7469;}.cls-4,.cls-6,.cls-8{stroke:#9b7469;}.cls-7{stroke-width:2px;}.cls-10,.cls-11,.cls-8{stroke-width:0.5px;}.cls-9{fill:#9a7369;stroke:#9a7369;}.cls-12{stroke:#a68d84;}</style></defs><path class="cls-1" d="M448.64,132.23c.1.86-3.83,2.35-7.3,3.07a32.46,32.46,0,0,1-8.49.51c-4.66-.16-9.32,0-14,0-6.94-.05-7.56-.05-8.82,0-1.48.06-2.26.11-10,.67l-9,.69c-7.06.59-8.79.88-9.7,1a64.83,64.83,0,0,0-6.94,1.57l-1.59-7.5c1.28-.37,2.52-.67,3.68-.93,3.71-.88,5.57-1,5.66-1.82s-2-1.95-3.45-2.4a9.38,9.38,0,0,0-2.21-.4l.41-7.1c1.19.29,2.35.59,3.54.85,1.85.46,2.54.59,10.15,2.06,9.85,1.92,10.32,2,12.46,2.37,4.59.81,4.38.65,9.7,1.55,2.33.4,2.12.38,10.32,1.87,6.59,1.2,8,1.44,9.72,1.71.65.11,1.81.27,7.14,1C446.29,131.91,448.55,131.59,448.64,132.23Z" transform="translate(-48.15 -14.99)"/><path class="cls-1" d="M389,34.43c.52,1.34-2.83,4.14-3.19,4.43-2,1.66-3.16,1.87-6.82,3.58-2.05,1-3.76,1.9-7.13,3.76-3.14,1.71-5.5,3.13-6.23,3.58a82.84,82.84,0,0,0-10,6.62,96.12,96.12,0,0,0-7.45,7.18c-4,4.09-6.06,6.17-7.44,8.33a26.35,26.35,0,0,0-3.94,9.56,26.78,26.78,0,0,0,.16,10.38,24.91,24.91,0,0,0,4.23,9.55c2.38,3.18,5,4.73,10,7.67a84.72,84.72,0,0,0,8.51,4.19l-2.4,6.83c-.33,0-1.17.13-3.14,2.72-1.74,2.27-1.85,3.15-2.52,3.18-1.26,0-2.31-3-2.73-4.22-.86-2.43-.48-3.07-1.12-4.43-.95-2-2.71-2.46-5.47-3.84-3.61-1.82-6.11-3.07-8.18-5.58-2-2.35-3.49-5.74-6-8.06a4.92,4.92,0,0,0-2-1.26c-1.5-.37-2.19.48-3.14,0A3.45,3.45,0,0,1,321.61,95c.54-2,3.49-2,3.63-3.39S322.08,89.5,321.7,87s2.4-5.53,2.95-6.12c1.12-1.25,2-1.73,1.93-2.5-.17-1.34-2.86-1.63-2.86-2.38.07-1,5.07-.8,5.57-2.86.19-.72-.38-1-.69-2.61-.05-.16-.65-3.53.81-4.89.45-.42.71-.26,2.82-.56s3.19-.45,4-1c1.42-1,2.54-2.91,2.11-3.63-.52-1-3.71.13-5.35.91-.85.37-1.3.69-5.37,3.52-2.85,2-3.42,2.37-4.35,2.27-1.62-.22-1.74-1.92-3.64-2.27-1.5-.29-2.21.27-4.75.91-2,.48-1.79.18-6.57.9-3.4.48-3,.56-5.47.91a81.81,81.81,0,0,1-8.2.67c-2.9.13-4.54.21-6.87.11-4-.16-5.37-.62-8.61-.22s-4.16,1.15-4.66,1.58c-1,.93-1.21,1.84-2.21,2a2.87,2.87,0,0,1-2.95-1.57c-.59-1.28.19-2.27-.4-3.31-.45-.78-1.43-1-2.92-1.12l.66-7c1.52.16,3.28.29,5.85.48s5.66.37,9.42.51c3.3.13,5.75.16,8.51.18,5.09,0,7.68.08,9.56,0,3.47-.21,6.11-.58,7.89-.85,3.85-.59,6.7-1.25,9.39-1.9,2.52-.58,2.19-.56,9.73-2.53,5.65-1.5,6.22-1.6,8.17-2.22,2.31-.72,4.07-1.38,7.61-2.72,2.21-.85,2.74-1.07,9.11-3.58s6.2-2.45,7.73-3.07c3.47-1.44,3.73-1.65,8.34-3.57,1.28-.56,4-1.71,7.59-3.07a36.12,36.12,0,0,1,7.89-2.4C385.59,33.77,388.56,33.31,389,34.43Z" transform="translate(-48.15 -14.99)"/><path class="cls-2" d="M378.76,127.11c1.43.45,3.55,1.52,3.45,2.4s-1.95.94-5.66,1.82c-1.16.26-2.4.56-3.68.93a40.54,40.54,0,0,0-4.42,1.44c-4.76,1.92-6.45,3.9-8.18,2.86-1.31-.77-1-2.19-2.55-3.07s-3.49-.21-4.94.32c-.67.27-3.74,1.41-3.66,2.75s3.37,1.28,3.94,3.52a3.85,3.85,0,0,1-.59,2.83c-.83,1.31-2,1.39-3.35,2.06-2.14,1-3.33,2.85-4.64,4.86a29.82,29.82,0,0,0-3.23,7.28c-.74,2.3-.79,3.29-1.74,4-1.36,1-3.21.29-4.66-.24a12,12,0,0,1-5.35-4.3c-1.14-1.49-1.9-2.48-1.71-3.65.24-1.66,2.21-2.25,2-3.39a1.64,1.64,0,0,0-1.33-1.15c-1-.14-1.38.93-2.93,1.81-.5.3-2.47,1.42-3.85.59-.78-.48-1.07-1.42-1.52-2.86-.74-2.4-.64-4.29-.9-4.32s-.26,3.47-1.62,4.11c-.9.4-1.76-.77-4-2.4a32.52,32.52,0,0,0-7.9-4c-2.33-.77-4.2-1-4.25-1.81s1.81-1.13,1.83-2.17c0-.82-1.17-1.68-2.24-1.92s-1.52.21-3.73.91-3.49,1.07-3.95.45.43-1.41.19-3.17a3.57,3.57,0,0,0-1.21-2.51c-.78-.48-1.54,0-3.54.8a35.11,35.11,0,0,1-5,1.47,21.37,21.37,0,0,1-4.57.24,25.86,25.86,0,0,1-6.58-.56c-2.36-.62-2.38-1.13-4.64-1.5-1.59-.24-1.95,0-3.94-.45-1.81-.35-3.36-.78-3.36-.78a10.25,10.25,0,0,0-2.11-.58c-1.24-.06-1.41.45-3.14.8a9.29,9.29,0,0,1-3.85-.11c-1.07-.27-1.24-.56-1.31-.69-.38-.83.81-1.74,1.21-3.39.62-2.49-.78-5.53-1.83-5.58-.55,0-1,.85-1.71,2-1,1.9-.76,2.59-1.52,3.29-1.07,1-2.81.61-4,.34-1.66-.4-1.71-1-3.42-1.36-1.12-.27-2.95-.69-3.95.46a2.51,2.51,0,0,0-.52,2.61c.42.59,1.21.13,3,.45a8.38,8.38,0,0,1,2.64.91c.64.38,2.69,1.52,2.61,2.72s-2.47,1.29-7.37,4c-2.35,1.28-3,1.95-4.35,1.82-2.16-.22-3.21-2.14-4.16-1.6s-.19,2.45-1.12,4.67c-.59,1.44-1.45,2-3.92,3.87-5.28,3.95-6.66,5.55-7.3,5s.62-2.27.1-5.23c-.17-1-.45-1.58-1.9-4.33-3.05-5.68-3.4-6.24-3.14-7a1.48,1.48,0,0,1,.59-.8c.83-.57,2.33-.7,4.26-2.49,1-.93,2.64-2.45,2.42-4-.19-1.29-1.9-2.09-5.37-3.63-1.74-.78-2.09-.78-2.31-.57-1,.94,1.55,5,.1,6.92a1.83,1.83,0,0,1-1.31.77.55.55,0,0,1-.31-.08c-.55-.32-.12-1.47-.71-3.17a9,9,0,0,0-1.21-2.17c-.41-.58-.79-1.06-1.62-2-1.21-1.39-2.24-2.46-3.14-3.39-1.55-1.6-1.36-1.36-2.23-2.3a38.08,38.08,0,0,1-3.43-4c-.59-.78-1.19-1.74-2.33-3.63-1-1.61-1.12-1.87-2.64-4.44-2.16-3.65-3.28-5.44-2.73-7.15a.1.1,0,0,0,0,0c.07-.19.33-.38,1.9-1.76,1.1-1,1.34-1.15,1.31-1.47,0-.64-1-1.12-2.3-1.71-1.69-.75-2.52-1.12-3.05-.91-1.12.48-.93,2.11-2.73,5.1C182,98,181.61,98,181.47,98c-1.33.08-2.45-3.66-2.83-5.34s-2.8-4.75-3.83-3.63c-.21.22-1.83,1.9-2.85,1.36s-1.12-3.71-1.09-6.35c0-1.31.07-2.45-.12-2.51s-.41,3.1-2.33,4.67c-.74.62-.93.3-3.24,1.23-2.16.91-2,1.2-3.32,1.6A7,7,0,0,1,157,89c-.86-.4-2-.91-2.24-2-.36-1.66,2-2.89,1.62-4.3a2,2,0,0,0-2.52-1.15c-.62.35-.45,1.15-1.12,2.38a5.18,5.18,0,0,1-2,2.16c-1.26.64-2.26-.11-5.37-1.25a42.41,42.41,0,0,0-5.26-1.58c-2.31-.53-2.66-.32-5.78-.8-3.68-.59-6.32-1-6.37-1.71s2.33-1,6.61-3.15A28.64,28.64,0,0,0,140,74.47a19,19,0,0,0,4.85-5,19.24,19.24,0,0,0,2.21-4.83,15.3,15.3,0,0,0,.69-4.81,14.75,14.75,0,0,0-.69-4.22A22.83,22.83,0,0,0,146,51.89c-.26-.69-.57-1.36-.88-2a1.27,1.27,0,0,0,.43,0c1.43,0,2.26-.48,5-.35,3.12.16,3.81.86,4.12,1.37.5.9-.08,1.49.21,3.07.4,2.1,2.07,4.24,3.42,4.08.81-.08.88-.88,2.57-2.72a15,15,0,0,1,3.19-2.73,18.59,18.59,0,0,1,4.7-1.52,21.85,21.85,0,0,1,3.36-.69c.57,0,1.71,0,2.73,0a7.83,7.83,0,0,0,1.67,0c.8-.08.88-.21,1.73-.32a8.1,8.1,0,0,1,2.26,0,7.38,7.38,0,0,0,1.9.22c1,0,1.48,0,1.83,0a15,15,0,0,0,1.86-.1c.76-.06.76-.11,1.4-.16,1.21-.11,1.5,0,2.52-.11a19.88,19.88,0,0,0,2.05-.29c.28,0,1.49-.22,3.16-.56s1.71-.4,2.49-.51c.24,0,1-.16,2-.37l.1,0a25.86,25.86,0,0,0,3.35-1c.28-.1,1.52-.56,3.4-1.41a43.25,43.25,0,0,0,4.54-2.41c3.38-2.05,4.23-3.52,5-3.06,1,.64-.17,3.63,1.35,5.12a4,4,0,0,0,3.12.69c.76-.05,3-.18,3.42-1.46.24-.72-.26-1.69-1.28-3.58s-1.41-2-1.31-2.46c.31-1.36,3.83-.08,7.13-2.56,1.19-.91,1.81-1.81,2.28-1.55s.12,1.95.15,5.29a16.14,16.14,0,0,0,.61,5.28c.79,2.35,2.29,2.38,2.29,3.77,0,1.87-2.57,2.37-2.55,4.24,0,1.36,1.38,2.51,2.33,3,1.29.62,2,.08,3.64.22,1.74.16,2.88,1,4.35,1.95,0,0,2.52,1.62,8.7,4.88,4.78,2.51,7.16,3.76,9.11,3.52,1.78-.24,3.42-1.09,6.59-.9,1.49.08,2.47.34,2.92,1.12.59,1-.19,2,.4,3.31a2.87,2.87,0,0,0,2.95,1.57c1-.21,1.24-1.12,2.21-2,.5-.43,1.48-1.18,4.66-1.58s4.62.06,8.61.22c2.33.1,4,0,6.87-.11a81.81,81.81,0,0,0,8.2-.67c2.43-.35,2.07-.43,5.47-.91,4.78-.72,4.57-.42,6.57-.9,2.54-.64,3.25-1.2,4.75-.91,1.9.35,2,2,3.64,2.27.93.1,1.5-.3,4.35-2.27,4.07-2.83,4.52-3.15,5.37-3.52,1.64-.78,4.83-1.9,5.35-.91.43.72-.69,2.67-2.11,3.63-.86.56-1.93.72-4,1s-2.37.14-2.82.56c-1.46,1.36-.86,4.73-.81,4.89.31,1.65.88,1.89.69,2.61-.5,2.06-5.5,1.82-5.57,2.86,0,.75,2.69,1,2.86,2.38.07.77-.81,1.25-1.93,2.5-.55.59-3.33,3.66-2.95,6.12s3.71,3,3.54,4.56-3.09,1.34-3.63,3.39A3.45,3.45,0,0,0,323,98.6c1,.48,1.64-.37,3.14,0a4.92,4.92,0,0,1,2,1.26c2.48,2.32,4,5.71,6,8.06,2.07,2.51,4.57,3.76,8.18,5.58,2.76,1.38,4.52,1.81,5.47,3.84.64,1.36.26,2,1.12,4.43.42,1.23,1.47,4.25,2.73,4.22.67,0,.78-.91,2.52-3.18,2-2.59,2.81-2.72,3.14-2.72.66,0,.81.32,2.14,1,2.49,1.31,3.09.56,4.54,1.71a24.84,24.84,0,0,1,2.33,2.94c1.35,1.84,1.5,2.16,2,2.4,1.09.51,1.85-.29,3.85-.91a12.21,12.21,0,0,1,4.35-.53A9.38,9.38,0,0,1,378.76,127.11Z" transform="translate(-48.15 -14.99)"/><path class="cls-1" d="M377,119.61l-.41,7.1a12.21,12.21,0,0,0-4.35.53c-2,.62-2.76,1.42-3.85.91-.52-.24-.67-.56-2-2.4a24.84,24.84,0,0,0-2.33-2.94c-1.45-1.15-2.05-.4-4.54-1.71-1.33-.69-1.48-1.06-2.14-1l2.4-6.83,1.64.74a97.67,97.67,0,0,0,9.27,3.74C373,118.54,375,119.1,377,119.61Z" transform="translate(-48.15 -14.99)"/><path class="cls-1" d="M372.87,132.26l1.59,7.5c-.19.06-.36.08-.5.14a32.55,32.55,0,0,0-7,2.72,25.26,25.26,0,0,0-5.46,4.43,26,26,0,0,0-2.07,2.46,38.27,38.27,0,0,0-2.33,3.28c-1.52,2.27-2.28,3.39-2.86,4.32-1.07,1.79-1.78,3.26-2.42,4.54a47.1,47.1,0,0,0-2,4.3,22.65,22.65,0,0,0-.95,9.55c.21,1.93.59,3.93.59,3.93.48,2.4.78,3,.62,4.27a5.56,5.56,0,0,1-1.52,3.39,3.94,3.94,0,0,1-3.33,1c-1.17-.32-1.79-1.26-3.05-3.26-1.8-2.85-2.71-4.29-3.78-6.14a47.1,47.1,0,0,0-4.25-6.11,40.11,40.11,0,0,0-5.45-5.18,80.79,80.79,0,0,0-8.53-6.06c-6.9-4.43-10.34-6.64-11.68-7.34a139.61,139.61,0,0,0-13.19-5.63c-2.9-1.15-5.52-2.16-9.11-3.39a95.9,95.9,0,0,0-10.63-3.26,65.61,65.61,0,0,0-14.88-1.36c-6.3,0-9.53,0-13.34,1.36a45.49,45.49,0,0,0-7.44,3.77,51.78,51.78,0,0,0-7,4.78c-1.69,1.36-1.81,1.65-7.73,7.66-3.59,3.63-5.68,5.71-9,7.66-2.31,1.39-3.47,1.68-4.54,1.71-2.76.08-6-1.53-7-4.27-.57-1.58.07-2.3.16-5.1.08-3.26-.69-5.61-1.83-9.05-1.3-3.93-2-4.09-4.25-9.53-1.36-3.23-1-2.86-3-8.17-2.21-5.77-3.35-8.67-5.16-11.58a43.5,43.5,0,0,0-4.42-5.8,44.49,44.49,0,0,0-8.18-7,64.52,64.52,0,0,0-10.49-5.63,135,135,0,0,0-15.48-6.14A111.61,111.61,0,0,0,140,91.85,104,104,0,0,0,125.53,90a121.35,121.35,0,0,0-15,.16c-5.52.35-9.39.69-9.39.69s-3.21.3-9.58.51a16.68,16.68,0,0,1-5.92-.69c-1-.32-3.93-1.18-3.93-2.38,0-.91,1.67-1.65,4.09-2.56,5.54-2.06,10-3.2,11.39-3.58s4.5-1.41,10.77-3.57c2.81-1,5.4-1.9,10.63-3.74,11.75-4.22,8.06-3,7.7-3a23.36,23.36,0,0,1,3.07-1.25c2.83-1,4.54-1.63,6.06-3.58A11.92,11.92,0,0,0,137.68,61c.38-3.42-.72-6-1.83-8.7a22.4,22.4,0,0,0-4.33-7.24,16.42,16.42,0,0,1-2.5-3.15c-.76-1.25-1.78-3-1.21-4.08a2.39,2.39,0,0,1,2.57-.85,3.18,3.18,0,0,1,1.38.64,12.24,12.24,0,0,1,2.42,3.28c.29.45,5.4,8.49,11,9,.31.64.62,1.31.88,2a22.83,22.83,0,0,1,1.07,3.76,14.75,14.75,0,0,1,.69,4.22,15.3,15.3,0,0,1-.69,4.81,19.24,19.24,0,0,1-2.21,4.83,19,19,0,0,1-4.85,5,28.64,28.64,0,0,1-5.47,3.15c-4.28,2.11-6.66,2.43-6.61,3.15s2.69,1.12,6.37,1.71c3.12.48,3.47.27,5.78.8a42.41,42.41,0,0,1,5.26,1.58c3.11,1.14,4.11,1.89,5.37,1.25a5.18,5.18,0,0,0,2-2.16c.67-1.23.5-2,1.12-2.38a2,2,0,0,1,2.52,1.15c.4,1.41-2,2.64-1.62,4.3.21,1,1.38,1.55,2.24,2a7,7,0,0,0,4.85.1c1.3-.4,1.16-.69,3.32-1.6,2.31-.93,2.5-.61,3.24-1.23,1.92-1.57,2-4.67,2.33-4.67s.12,1.2.12,2.51c0,2.64,0,5.77,1.09,6.35s2.64-1.14,2.85-1.36c1-1.12,3.45,1.87,3.83,3.63s1.5,5.42,2.83,5.34c.14,0,.5-.08,1.43-1.6,1.8-3,1.61-4.62,2.73-5.1.53-.21,1.36.16,3.05.91,1.3.59,2.3,1.07,2.3,1.71,0,.32-.21.5-1.31,1.47-1.57,1.38-1.83,1.57-1.9,1.76a.1.1,0,0,1,0,0c-.55,1.71.57,3.5,2.73,7.15,1.52,2.57,1.64,2.83,2.64,4.44,1.14,1.89,1.74,2.85,2.33,3.63a38.08,38.08,0,0,0,3.43,4c.87.94.68.7,2.23,2.3.9.93,1.93,2,3.14,3.39.83,1,1.21,1.47,1.62,2a9,9,0,0,1,1.21,2.17c.59,1.7.16,2.85.71,3.17a.55.55,0,0,0,.31.08l2.21,3a1.48,1.48,0,0,0-.59.8c-.26.8.09,1.36,3.14,7,1.45,2.75,1.73,3.31,1.9,4.33.52,3-.74,4.67-.1,5.23s2-1,7.3-5c2.47-1.9,3.33-2.43,3.92-3.87.93-2.22.22-4.14,1.12-4.67s2,1.38,4.16,1.6c1.36.13,2-.54,4.35-1.82,4.9-2.69,7.33-2.67,7.37-4s-2-2.34-2.61-2.72a8.38,8.38,0,0,0-2.64-.91c-1.83-.32-2.62.14-3-.45a2.51,2.51,0,0,1,.52-2.61c1-1.15,2.83-.73,3.95-.46,1.71.4,1.76,1,3.42,1.36,1.14.27,2.88.67,4-.34.76-.7.47-1.39,1.52-3.29.66-1.2,1.16-2.08,1.71-2,1.05,0,2.45,3.09,1.83,5.58-.4,1.65-1.59,2.56-1.21,3.39.07.13.24.42,1.31.69a9.29,9.29,0,0,0,3.85.11c1.73-.35,1.9-.86,3.14-.8a10.25,10.25,0,0,1,2.11.58s1.55.43,3.36.78c2,.4,2.35.21,3.94.45,2.26.37,2.28.88,4.64,1.5a25.86,25.86,0,0,0,6.58.56,21.37,21.37,0,0,0,4.57-.24,35.11,35.11,0,0,0,5-1.47c2-.75,2.76-1.28,3.54-.8a3.57,3.57,0,0,1,1.21,2.51c.24,1.76-.61,2.59-.19,3.17s1.79.22,3.95-.45,2.71-1.15,3.73-.91,2.24,1.1,2.24,1.92c0,1-1.86,1.39-1.83,2.17s1.92,1,4.25,1.81a32.52,32.52,0,0,1,7.9,4c2.28,1.63,3.14,2.8,4,2.4,1.36-.64,1.26-4.11,1.62-4.11s.16,1.92.9,4.32c.45,1.44.74,2.38,1.52,2.86,1.38.83,3.35-.29,3.85-.59,1.55-.88,1.95-1.95,2.93-1.81a1.64,1.64,0,0,1,1.33,1.15c.19,1.14-1.78,1.73-2,3.39-.19,1.17.57,2.16,1.71,3.65a12,12,0,0,0,5.35,4.3c1.45.53,3.3,1.23,4.66.24.95-.69,1-1.68,1.74-4a29.82,29.82,0,0,1,3.23-7.28c1.31-2,2.5-3.82,4.64-4.86,1.35-.67,2.52-.75,3.35-2.06a3.85,3.85,0,0,0,.59-2.83c-.57-2.24-3.85-2.19-3.94-3.52s3-2.48,3.66-2.75c1.45-.53,3.3-1.25,4.94-.32s1.24,2.3,2.55,3.07c1.73,1,3.42-.94,8.18-2.86A40.54,40.54,0,0,1,372.87,132.26Z" transform="translate(-48.15 -14.99)"/><path class="cls-1" d="M266.73,58.83l-.66,7c-3.17-.19-4.81.66-6.59.9-2,.24-4.33-1-9.11-3.52-6.18-3.26-8.7-4.88-8.7-4.88-1.47-1-2.61-1.79-4.35-1.95-1.59-.14-2.35.4-3.64-.22-1-.45-2.3-1.6-2.33-3,0-1.87,2.52-2.37,2.55-4.24,0-1.39-1.5-1.42-2.29-3.77a16.14,16.14,0,0,1-.61-5.28c0-3.34.45-4.94-.15-5.29s-1.09.64-2.28,1.55c-3.3,2.48-6.82,1.2-7.13,2.56-.1.43.28.59,1.31,2.46S224.27,44,224,44.74c-.43,1.28-2.66,1.41-3.42,1.46a4,4,0,0,1-3.12-.69C216,44,217.18,41,216.14,40.39c-.79-.46-1.64,1-5,3.06a43.25,43.25,0,0,1-4.54,2.41c-1.88.85-3.12,1.31-3.4,1.41a25.86,25.86,0,0,1-3.35,1l-.1,0c-1,.21-1.76.32-2,.37-.78.11-.73.16-2.49.51s-2.88.53-3.16.56A19.88,19.88,0,0,1,190,50c-1,.11-1.31,0-2.52.11-.64,0-.64.1-1.4.16a15,15,0,0,1-1.86.1c-.35,0-.83,0-1.83,0a7.38,7.38,0,0,1-1.9-.22,8.1,8.1,0,0,0-2.26,0c-.85.11-.93.24-1.73.32a7.83,7.83,0,0,1-1.67,0c-1,0-2.16,0-2.73,0a21.85,21.85,0,0,0-3.36.69,18.59,18.59,0,0,0-4.7,1.52,15,15,0,0,0-3.19,2.73c-1.69,1.84-1.76,2.64-2.57,2.72-1.35.16-3-2-3.42-4.08-.29-1.58.29-2.17-.21-3.07-.31-.51-1-1.21-4.12-1.37-2.73-.13-3.56.38-5,.35a1.27,1.27,0,0,1-.43,0c-4.3-8.57-13.08-12.2-13.08-12.71v0c.1-.22,2.36,1.09,5.45,2.4a55.79,55.79,0,0,0,7.89,2.53A72.45,72.45,0,0,0,155.72,44a88.22,88.22,0,0,0,10.49.32c2.14,0,5.06,0,8.94-.32,5-.4,8.79-1,9.72-1.2a76.3,76.3,0,0,0,10.94-2.57A97.25,97.25,0,0,0,206.41,36c2.12-.93,4.64-2,7.9-3.76,2.83-1.47,4.94-2.73,6.68-3.74,3.09-1.84,4.66-2.75,6.54-4.11a48.54,48.54,0,0,0,6.37-5.1c2.8-2.69,3.16-3.79,4.85-4.08a22.65,22.65,0,0,1,4.85.16l1.83.18c.59.06-.22,1.58-1.07,3.23-1.78,3.53-2.69,5.32-3.19,7.32a17.75,17.75,0,0,0-.45,3.92,34.69,34.69,0,0,0,.45,7.16,38.56,38.56,0,0,0,2.12,8.51,15.13,15.13,0,0,0,2.45,4.78,14.5,14.5,0,0,0,4.09,3.23,31.12,31.12,0,0,0,7.44,3.07,54,54,0,0,0,7,1.71C265.07,58.59,265.85,58.72,266.73,58.83Z" transform="translate(-48.15 -14.99)"/><path class="cls-1" d="M217,126.1c.22,1.52-1.4,3-2.42,4-1.93,1.79-3.43,1.92-4.26,2.49l-2.21-3a1.83,1.83,0,0,0,1.31-.77c1.45-1.92-1.14-6-.1-6.92.22-.21.57-.21,2.31.57C215.09,124,216.8,124.81,217,126.1Z" transform="translate(-48.15 -14.99)"/><path class="cls-3" d="M126.26,71.8a23.36,23.36,0,0,1,3.07-1.25c2.83-1,4.54-1.63,6.06-3.58A11.92,11.92,0,0,0,137.68,61c.38-3.42-.72-6-1.83-8.7a22.4,22.4,0,0,0-4.33-7.24,16.42,16.42,0,0,1-2.5-3.15c-.76-1.25-1.78-3-1.21-4.08a2.39,2.39,0,0,1,2.57-.85,3.18,3.18,0,0,1,1.38.64,12.24,12.24,0,0,1,2.42,3.28c.29.45,5.4,8.49,11,9a1.27,1.27,0,0,0,.43,0c1.43,0,2.26-.48,5-.35,3.12.16,3.81.86,4.12,1.37.5.9-.08,1.49.21,3.07.4,2.1,2.07,4.24,3.42,4.08.81-.08.88-.88,2.57-2.72a15,15,0,0,1,3.19-2.73,18.59,18.59,0,0,1,4.7-1.52,21.85,21.85,0,0,1,3.36-.69c.57,0,1.71,0,2.73,0a7.83,7.83,0,0,0,1.67,0c.8-.08.88-.21,1.73-.32a8.1,8.1,0,0,1,2.26,0,7.38,7.38,0,0,0,1.9.22c1,0,1.48,0,1.83,0a15,15,0,0,0,1.86-.1c.76-.06.76-.11,1.4-.16,1.21-.11,1.5,0,2.52-.11a19.88,19.88,0,0,0,2.05-.29c.28,0,1.49-.22,3.16-.56s1.71-.4,2.49-.51c.24,0,1-.16,2-.37l.1,0a25.86,25.86,0,0,0,3.35-1c.28-.1,1.52-.56,3.4-1.41a43.25,43.25,0,0,0,4.54-2.41c3.38-2.05,4.23-3.52,5-3.06,1,.64-.17,3.63,1.35,5.12a4,4,0,0,0,3.12.69c.76-.05,3-.18,3.42-1.46.24-.72-.26-1.69-1.28-3.58s-1.41-2-1.31-2.46c.31-1.36,3.83-.08,7.13-2.56,1.19-.91,1.81-1.81,2.28-1.55s.12,1.95.15,5.29a16.14,16.14,0,0,0,.61,5.28c.79,2.35,2.29,2.38,2.29,3.77,0,1.87-2.57,2.37-2.55,4.24,0,1.36,1.38,2.51,2.33,3,1.29.62,2,.08,3.64.22,1.74.16,2.88,1,4.35,1.95,0,0,2.52,1.62,8.7,4.88,4.78,2.51,7.16,3.76,9.11,3.52,1.78-.24,3.42-1.09,6.59-.9,1.49.08,2.47.34,2.92,1.12.59,1-.19,2,.4,3.31a2.87,2.87,0,0,0,2.95,1.57c1-.21,1.24-1.12,2.21-2,.5-.43,1.48-1.18,4.66-1.58s4.62.06,8.61.22c2.33.1,4,0,6.87-.11a81.81,81.81,0,0,0,8.2-.67c2.43-.35,2.07-.43,5.47-.91,4.78-.72,4.57-.42,6.57-.9,2.54-.64,3.25-1.2,4.75-.91,1.9.35,2,2,3.64,2.27.93.1,1.5-.3,4.35-2.27,4.07-2.83,4.52-3.15,5.37-3.52,1.64-.78,4.83-1.9,5.35-.91.43.72-.69,2.67-2.11,3.63-.86.56-1.93.72-4,1s-2.37.14-2.82.56c-1.46,1.36-.86,4.73-.81,4.89.31,1.65.88,1.89.69,2.61-.5,2.06-5.5,1.82-5.57,2.86,0,.75,2.69,1,2.86,2.38.07.77-.81,1.25-1.93,2.5-.55.59-3.33,3.66-2.95,6.12s3.71,3,3.54,4.56-3.09,1.34-3.63,3.39A3.45,3.45,0,0,0,323,98.6c1,.48,1.64-.37,3.14,0a4.92,4.92,0,0,1,2,1.26c2.48,2.32,4,5.71,6,8.06,2.07,2.51,4.57,3.76,8.18,5.58,2.76,1.38,4.52,1.81,5.47,3.84.64,1.36.26,2,1.12,4.43.42,1.23,1.47,4.25,2.73,4.22.67,0,.78-.91,2.52-3.18,2-2.59,2.81-2.72,3.14-2.72.66,0,.81.32,2.14,1,2.49,1.31,3.09.56,4.54,1.71a24.84,24.84,0,0,1,2.33,2.94c1.35,1.84,1.5,2.16,2,2.4,1.09.51,1.85-.29,3.85-.91a12.21,12.21,0,0,1,4.35-.53,9.38,9.38,0,0,1,2.21.4c1.43.45,3.55,1.52,3.45,2.4s-1.95.94-5.66,1.82c-1.16.26-2.4.56-3.68.93a40.54,40.54,0,0,0-4.42,1.44c-4.76,1.92-6.45,3.9-8.18,2.86-1.31-.77-1-2.19-2.55-3.07s-3.49-.21-4.94.32c-.67.27-3.74,1.41-3.66,2.75s3.37,1.28,3.94,3.52a3.85,3.85,0,0,1-.59,2.83c-.83,1.31-2,1.39-3.35,2.06-2.14,1-3.33,2.85-4.64,4.86a29.82,29.82,0,0,0-3.23,7.28c-.74,2.3-.79,3.29-1.74,4-1.36,1-3.21.29-4.66-.24a12,12,0,0,1-5.35-4.3c-1.14-1.49-1.9-2.48-1.71-3.65.24-1.66,2.21-2.25,2-3.39a1.64,1.64,0,0,0-1.33-1.15c-1-.14-1.38.93-2.93,1.81-.5.3-2.47,1.42-3.85.59-.78-.48-1.07-1.42-1.52-2.86-.74-2.4-.64-4.29-.9-4.32s-.26,3.47-1.62,4.11c-.9.4-1.76-.77-4-2.4a32.52,32.52,0,0,0-7.9-4c-2.33-.77-4.2-1-4.25-1.81s1.81-1.13,1.83-2.17c0-.82-1.17-1.68-2.24-1.92s-1.52.21-3.73.91-3.49,1.07-3.95.45.43-1.41.19-3.17a3.57,3.57,0,0,0-1.21-2.51c-.78-.48-1.54,0-3.54.8a35.11,35.11,0,0,1-5,1.47,21.37,21.37,0,0,1-4.57.24,25.86,25.86,0,0,1-6.58-.56c-2.36-.62-2.38-1.13-4.64-1.5-1.59-.24-1.95,0-3.94-.45-1.81-.35-3.36-.78-3.36-.78a10.25,10.25,0,0,0-2.11-.58c-1.24-.06-1.41.45-3.14.8a9.29,9.29,0,0,1-3.85-.11c-1.07-.27-1.24-.56-1.31-.69-.38-.83.81-1.74,1.21-3.39.62-2.49-.78-5.53-1.83-5.58-.55,0-1,.85-1.71,2-1,1.9-.76,2.59-1.52,3.29-1.07,1-2.81.61-4,.34-1.66-.4-1.71-1-3.42-1.36-1.12-.27-2.95-.69-3.95.46a2.51,2.51,0,0,0-.52,2.61c.42.59,1.21.13,3,.45a8.38,8.38,0,0,1,2.64.91c.64.38,2.69,1.52,2.61,2.72s-2.47,1.29-7.37,4c-2.35,1.28-3,1.95-4.35,1.82-2.16-.22-3.21-2.14-4.16-1.6s-.19,2.45-1.12,4.67c-.59,1.44-1.45,2-3.92,3.87-5.28,3.95-6.66,5.55-7.3,5s.62-2.27.1-5.23c-.17-1-.45-1.58-1.9-4.33-3.05-5.68-3.4-6.24-3.14-7a1.48,1.48,0,0,1,.59-.8c.83-.57,2.33-.7,4.26-2.49,1-.93,2.64-2.45,2.42-4-.19-1.29-1.9-2.09-5.37-3.63-1.74-.78-2.09-.78-2.31-.57-1,.94,1.55,5,.1,6.92a1.83,1.83,0,0,1-1.31.77.55.55,0,0,1-.31-.08c-.55-.32-.12-1.47-.71-3.17a9,9,0,0,0-1.21-2.17c-.41-.58-.79-1.06-1.62-2-1.21-1.39-2.24-2.46-3.14-3.39-1.55-1.6-1.36-1.36-2.23-2.3a38.08,38.08,0,0,1-3.43-4c-.59-.78-1.19-1.74-2.33-3.63-1-1.61-1.12-1.87-2.64-4.44-2.16-3.65-3.28-5.44-2.73-7.15a.1.1,0,0,0,0,0c.07-.19.33-.38,1.9-1.76,1.1-1,1.34-1.15,1.31-1.47,0-.64-1-1.12-2.3-1.71-1.69-.75-2.52-1.12-3.05-.91-1.12.48-.93,2.11-2.73,5.1C182,98,181.61,98,181.47,98c-1.33.08-2.45-3.66-2.83-5.34s-2.8-4.75-3.83-3.63c-.21.22-1.83,1.9-2.85,1.36s-1.12-3.71-1.09-6.35c0-1.31.07-2.45-.12-2.51s-.41,3.1-2.33,4.67c-.74.62-.93.3-3.24,1.23-2.16.91-2,1.2-3.32,1.6A7,7,0,0,1,157,89c-.86-.4-2-.91-2.24-2-.36-1.66,2-2.89,1.62-4.3a2,2,0,0,0-2.52-1.15c-.62.35-.45,1.15-1.12,2.38a5.18,5.18,0,0,1-2,2.16c-1.26.64-2.26-.11-5.37-1.25a42.41,42.41,0,0,0-5.26-1.58c-2.31-.53-2.66-.32-5.78-.8-3.68-.59-6.32-1-6.37-1.71s2.33-1,6.61-3.15A28.64,28.64,0,0,0,140,74.47a19,19,0,0,0,4.85-5,19.24,19.24,0,0,0,2.21-4.83,15.3,15.3,0,0,0,.69-4.81,14.75,14.75,0,0,0-.69-4.22A22.83,22.83,0,0,0,146,51.89c-.26-.69-.57-1.36-.88-2-4.3-8.57-13.08-12.2-13.08-12.71v0c.1-.22,2.36,1.09,5.45,2.4a55.79,55.79,0,0,0,7.89,2.53A72.45,72.45,0,0,0,155.72,44a88.22,88.22,0,0,0,10.49.32c2.14,0,5.06,0,8.94-.32,5-.4,8.79-1,9.72-1.2a76.3,76.3,0,0,0,10.94-2.57A97.25,97.25,0,0,0,206.41,36c2.12-.93,4.64-2,7.9-3.76,2.83-1.47,4.94-2.73,6.68-3.74,3.09-1.84,4.66-2.75,6.54-4.11a48.54,48.54,0,0,0,6.37-5.1c2.8-2.69,3.16-3.79,4.85-4.08a22.65,22.65,0,0,1,4.85.16l1.83.18c.59.06-.22,1.58-1.07,3.23-1.78,3.53-2.69,5.32-3.19,7.32a17.75,17.75,0,0,0-.45,3.92,34.69,34.69,0,0,0,.45,7.16,38.56,38.56,0,0,0,2.12,8.51,15.13,15.13,0,0,0,2.45,4.78,14.5,14.5,0,0,0,4.09,3.23,31.12,31.12,0,0,0,7.44,3.07,54,54,0,0,0,7,1.71c.83.13,1.61.26,2.49.37,1.52.16,3.28.29,5.85.48s5.66.37,9.42.51c3.3.13,5.75.16,8.51.18,5.09,0,7.68.08,9.56,0,3.47-.21,6.11-.58,7.89-.85,3.85-.59,6.7-1.25,9.39-1.9,2.52-.58,2.19-.56,9.73-2.53,5.65-1.5,6.22-1.6,8.17-2.22,2.31-.72,4.07-1.38,7.61-2.72,2.21-.85,2.74-1.07,9.11-3.58s6.2-2.45,7.73-3.07c3.47-1.44,3.73-1.65,8.34-3.57,1.28-.56,4-1.71,7.59-3.07a36.12,36.12,0,0,1,7.89-2.4c2.07-.32,5-.78,5.47.34.52,1.34-2.83,4.14-3.19,4.43-2,1.66-3.16,1.87-6.82,3.58-2.05,1-3.76,1.9-7.13,3.76-3.14,1.71-5.5,3.13-6.23,3.58a82.84,82.84,0,0,0-10,6.62,96.12,96.12,0,0,0-7.45,7.18c-4,4.09-6.06,6.17-7.44,8.33a26.35,26.35,0,0,0-3.94,9.56,26.78,26.78,0,0,0,.16,10.38,24.91,24.91,0,0,0,4.23,9.55c2.38,3.18,5,4.73,10,7.67a84.72,84.72,0,0,0,8.51,4.19l1.64.74a97.67,97.67,0,0,0,9.27,3.74c2.36.8,4.38,1.36,6.33,1.87,1.19.29,2.35.59,3.54.85,1.85.46,2.54.59,10.15,2.06,9.85,1.92,10.32,2,12.46,2.37,4.59.81,4.38.65,9.7,1.55,2.33.4,2.12.38,10.32,1.87,6.59,1.2,8,1.44,9.72,1.71.65.11,1.81.27,7.14,1,6.3.88,8.56.56,8.65,1.2.1.86-3.83,2.35-7.3,3.07a32.46,32.46,0,0,1-8.49.51c-4.66-.16-9.32,0-14,0-6.94-.05-7.56-.05-8.82,0-1.48.06-2.26.11-10,.67l-9,.69c-7.06.59-8.79.88-9.7,1a64.83,64.83,0,0,0-6.94,1.57c-.19.06-.36.08-.5.14a32.55,32.55,0,0,0-7,2.72,25.26,25.26,0,0,0-5.46,4.43,26,26,0,0,0-2.07,2.46,38.27,38.27,0,0,0-2.33,3.28c-1.52,2.27-2.28,3.39-2.86,4.32-1.07,1.79-1.78,3.26-2.42,4.54a47.1,47.1,0,0,0-2,4.3,22.65,22.65,0,0,0-.95,9.55c.21,1.93.59,3.93.59,3.93.48,2.4.78,3,.62,4.27a5.56,5.56,0,0,1-1.52,3.39,3.94,3.94,0,0,1-3.33,1c-1.17-.32-1.79-1.26-3.05-3.26-1.8-2.85-2.71-4.29-3.78-6.14a47.1,47.1,0,0,0-4.25-6.11,40.11,40.11,0,0,0-5.45-5.18,80.79,80.79,0,0,0-8.53-6.06c-6.9-4.43-10.34-6.64-11.68-7.34a139.61,139.61,0,0,0-13.19-5.63c-2.9-1.15-5.52-2.16-9.11-3.39a95.9,95.9,0,0,0-10.63-3.26,65.61,65.61,0,0,0-14.88-1.36c-6.3,0-9.53,0-13.34,1.36a45.49,45.49,0,0,0-7.44,3.77,51.78,51.78,0,0,0-7,4.78c-1.69,1.36-1.81,1.65-7.73,7.66-3.59,3.63-5.68,5.71-9,7.66-2.31,1.39-3.47,1.68-4.54,1.71-2.76.08-6-1.53-7-4.27-.57-1.58.07-2.3.16-5.1.08-3.26-.69-5.61-1.83-9.05-1.3-3.93-2-4.09-4.25-9.53-1.36-3.23-1-2.86-3-8.17-2.21-5.77-3.35-8.67-5.16-11.58a43.5,43.5,0,0,0-4.42-5.8,44.49,44.49,0,0,0-8.18-7,64.52,64.52,0,0,0-10.49-5.63,135,135,0,0,0-15.48-6.14A111.61,111.61,0,0,0,140,91.85,104,104,0,0,0,125.53,90a121.35,121.35,0,0,0-15,.16c-5.52.35-9.39.69-9.39.69s-3.21.3-9.58.51a16.68,16.68,0,0,1-5.92-.69c-1-.32-3.93-1.18-3.93-2.38,0-.91,1.67-1.65,4.09-2.56,5.54-2.06,10-3.2,11.39-3.58s4.5-1.41,10.77-3.57c2.81-1,5.4-1.9,10.63-3.74,11.75-4.22,8.06-3,7.7-3h0" transform="translate(-48.15 -14.99)"/><path class="cls-4" d="M163.37,62.49,165,59.71a11.23,11.23,0,0,1,1.21-1.88,8.67,8.67,0,0,1,1.72-1.47c.94-.66,2.28-1.6,2.58-1.25s-.63,2-.7,2.1c-.44.72-.62.72-1.12,1.48a3.9,3.9,0,0,0-1,2.49c.08.58.45,1,1.27,1.65a11.44,11.44,0,0,0,4.65,2c-2,3.15-2.74,3.69-3.09,3.52s-.13-.66-.5-1.65c-.18-.49-.73-1.94-1.87-2.33a2.92,2.92,0,0,0-2.23.4,4.65,4.65,0,0,0-1.06.74l-2.73-1.48Z" transform="translate(-48.15 -14.99)"/><path class="cls-4" d="M165.29,73.62a2.82,2.82,0,0,1-.76-2.16,3.78,3.78,0,0,1,.61-1.19,9.29,9.29,0,0,1,2.28-2.44l-.31,2.56L166.66,75Z" transform="translate(-48.15 -14.99)"/><path class="cls-4" d="M204.6,49.54l2.12,2.05a5.41,5.41,0,0,1-2.12,1.93,5.07,5.07,0,0,1-1,.34l-1.42-1.08Z" transform="translate(-48.15 -14.99)"/><path class="cls-4" d="M202.73,56.64l1.74,2,1.75,1.82a8.44,8.44,0,0,1-1,1.36,7.11,7.11,0,0,1-1.17,1l-2.58-1.65-2.27-1.7Z" transform="translate(-48.15 -14.99)"/><path class="cls-4" d="M202.22,69.76l1.32-.74c.33.32.77.76,1.26,1.31a8.45,8.45,0,0,1,1.06,1.36c.18.3.9,1.51.61,1.88s-1.39-.3-1.57-.4a4.66,4.66,0,0,1-1.41-1.31Z" transform="translate(-48.15 -14.99)"/><path class="cls-4" d="M209.61,49.83c.28-.5.57-1,.86-1.48,0,0,3.13-.51,3.34-.51s-1.57,2-1.57,2l-.53.45,1.59,1.42,2.07,1.87-2.27,2.28,2.58,1.93L217.25,59a6.13,6.13,0,0,1-3.6,1,8.58,8.58,0,0,1-3.49-1.19,16,16,0,0,1-1.77-1.08Z" transform="translate(-48.15 -14.99)"/><path class="cls-4" d="M218,68.06a4.21,4.21,0,0,0-2.37-2,3.39,3.39,0,0,0-2.74.68l-2.63,3.41,2,1.87.58.91.38-1.25,2-.34,2.78-1c.53,0,.7-.23.76-.34C219,69.47,218.31,68.54,218,68.06Z" transform="translate(-48.15 -14.99)"/><path class="cls-4" d="M225.9,68.34c0-.14-.19-.2-1.47-.57a8.72,8.72,0,0,1-2.18-.74A2.76,2.76,0,0,1,221,65.84a3.21,3.21,0,0,1,0-2.5c.11-.25.52-1.2,1.31-1.42a5.57,5.57,0,0,1,2.13.57c.76.27,1.14.43,1.62.28a1.69,1.69,0,0,0,.76-.51l1,3.74,2.68-2,3.54,4.37L232,70l.55,3.23a9,9,0,0,1-4.3-1c-.63-.34-1.25-.78-2-.57a3.78,3.78,0,0,0-1.67,1.59c-.4.66-.32.84-.66,1.14a1.83,1.83,0,0,1-3-1.08c0-.17,0-.49.76-1.42A10.78,10.78,0,0,1,223,70.5C224.68,69,226,68.75,225.9,68.34Z" transform="translate(-48.15 -14.99)"/><path class="cls-5" d="M244.31,62.27a2.81,2.81,0,0,1,.9,2.73c-.21.53-.57.42-1,1-.6.8-.29,1.49-.62,3.52-.24,1.5-.36,2.25-.91,2.73s-1.37.24-1.92.9a3.12,3.12,0,0,0-.41,1.71c-.28,3.9-.45,4.25-.61,4.43-.6.83-1.76.8-2.83.8-2,0-3-1-3.95-.34a2,2,0,0,0-.69,1.14L234.09,82c.76.1,1,.32,1.11.56.27.93-2.21,3.33-5.06,4.11-1.5.4-2,0-5.47.66-2,.35-2.47.59-2.52.91-.09.67,1.83,1.6,3,2.06,2,.72,2.68.26,3.63,1.12a4.89,4.89,0,0,1,1.31,3.07c.14,1.44-.67,1.63-1.4,4.54a8.23,8.23,0,0,1-.72,2.4,4.4,4.4,0,0,1-2.42,1.81c-3.61-.18-4.95-1.33-5.47-2.4-.4-.8-.43-1.71-1.21-3.28a11.53,11.53,0,0,0-1.52-2.27c-1,2.32-3.14,3.28-4.59,2.61-1.79-.85-1.71-4-1.48-5.33.12-.7.34-2.09,1.22-2.51.66-.32,1.09.21,3.13.34a4.58,4.58,0,0,0,1.62-.1c.74-.24,1.76-.83,1.71-1.36s-1.61-.38-2.64-1.61a3.69,3.69,0,0,1-.28-4.08c.45-.56,1.09-.51,2.33-.56,4.66-.21,4-1.15,8.3-1.25,1,0,2,0,2.21-.57.28-.74-1.14-1.7-.91-2.74.12-.51.62-.75,2-1.37,2.71-1.14,2.87-1,3.63-1.46A7.41,7.41,0,0,0,236.82,72a10.19,10.19,0,0,0,.71-4.78,16.83,16.83,0,0,0-.4-3.31l3.54-1.68A3,3,0,0,1,244.31,62.27Z" transform="translate(-48.15 -14.99)"/><path class="cls-6" d="M240.67,62.27a3,3,0,0,1,3.64,0,2.81,2.81,0,0,1,.9,2.73c-.21.53-.57.42-1,1-.6.8-.29,1.49-.62,3.52-.24,1.5-.36,2.25-.91,2.73s-1.37.24-1.92.9a3.12,3.12,0,0,0-.41,1.71c-.28,3.9-.45,4.25-.61,4.43-.6.83-1.76.8-2.83.8-2,0-3-1-3.95-.34a2,2,0,0,0-.69,1.14L234.09,82c.76.1,1,.32,1.11.56.27.93-2.21,3.33-5.06,4.11-1.5.4-2,0-5.47.66-2,.35-2.47.59-2.52.91-.09.67,1.83,1.6,3,2.06,2,.72,2.68.26,3.63,1.12a4.89,4.89,0,0,1,1.31,3.07c.14,1.44-.67,1.63-1.4,4.54a8.23,8.23,0,0,1-.72,2.4,4.4,4.4,0,0,1-2.42,1.81c-3.61-.18-4.95-1.33-5.47-2.4-.4-.8-.43-1.71-1.21-3.28a11.53,11.53,0,0,0-1.52-2.27c-1,2.32-3.14,3.28-4.59,2.61-1.79-.85-1.71-4-1.48-5.33.12-.7.34-2.09,1.22-2.51.66-.32,1.09.21,3.13.34a4.58,4.58,0,0,0,1.62-.1c.74-.24,1.76-.83,1.71-1.36s-1.61-.38-2.64-1.61a3.69,3.69,0,0,1-.28-4.08c.45-.56,1.09-.51,2.33-.56,4.66-.21,4-1.15,8.3-1.25,1,0,2,0,2.21-.57.28-.74-1.14-1.7-.91-2.74.12-.51.62-.75,2-1.37,2.71-1.14,2.87-1,3.63-1.46A7.41,7.41,0,0,0,236.82,72a10.19,10.19,0,0,0,.71-4.78,16.83,16.83,0,0,0-.4-3.31Z" transform="translate(-48.15 -14.99)"/><path class="cls-4" d="M216.06,108.29c-1-2.44-.78-3.33-1.9-4.51a4.14,4.14,0,0,0-2.43-1.36,3.88,3.88,0,0,0-2.58.59l-1.67.85a23.43,23.43,0,0,1,2.13,5.46c.49,2,.54,3.4,1.67,4.77a5.26,5.26,0,0,0,2.27,1.62,3.62,3.62,0,0,0,3.11-.09,3.24,3.24,0,0,0,1.6-1.87C218.64,112.28,217.36,111.55,216.06,108.29Z" transform="translate(-48.15 -14.99)"/><path class="cls-4" d="M227.82,108.12c.49.31.51,1.26.53,2a6.68,6.68,0,0,1-1.29,3.75,8.63,8.63,0,0,1-2.12,2.47,7.55,7.55,0,0,1-3.12,1.45c-1.59.81-2,.59-2.12.43-.42-.54.61-2.32,1.29-3.5a19,19,0,0,1,1.82-2.64C223.87,110.77,226.66,107.41,227.82,108.12Z" transform="translate(-48.15 -14.99)"/><path class="cls-4" d="M233.28,100.12a4.35,4.35,0,0,1,3.19,1.36,8.65,8.65,0,0,1,1.67,1.87,24.51,24.51,0,0,1,1.44,2.9c.34.72.61,1.29.76,1.62l-3.53,4.26c-1.07-1.41-2-2.65-2.72-3.67a14,14,0,0,1-2.33-4c-.32-1-.82-2.5-.15-3.49A2.23,2.23,0,0,1,233.28,100.12Z" transform="translate(-48.15 -14.99)"/><polygon class="cls-4" points="189.16 71.5 191.36 69.54 195.23 73.2 193.1 74.82 189.16 71.5"/><path class="cls-4" d="M238,97.05l2.88-5.48-6.78-.91L232,92.11a7,7,0,0,0,1.54,2.38,6.13,6.13,0,0,0,2.2,1.45Z" transform="translate(-48.15 -14.99)"/><path class="cls-4" d="M231.69,117.75a2,2,0,0,0,1.74-1.53l-.87-2-.87-2.13a3.88,3.88,0,0,0-1.9,2.47,2.87,2.87,0,0,0,0,1.36C230,116.74,230.67,117.78,231.69,117.75Z" transform="translate(-48.15 -14.99)"/><polygon class="cls-4" points="175.42 110.35 176.79 109.07 178.46 110.35 179.52 111.37 177.93 112.48 175.42 110.35"/><polygon class="cls-4" points="191.59 97.14 193.18 96.63 195.23 101.04 192.72 102 191.59 97.14"/><polygon class="cls-4" points="207.06 92.03 209.65 89.73 210.4 91.13 208.13 93.04 207.06 92.03"/><polygon class="cls-4" points="207.06 109.07 208.35 108.05 212.15 111.2 209.61 112.9 207.06 109.07"/><polygon class="cls-4" points="238.1 111.63 238.48 110.47 242.12 111.63 241.44 113.5 238.1 111.63"/><polygon class="cls-4" points="247.51 110.77 248.27 108.64 251.76 110.47 250.92 112.48 247.51 110.77"/><polygon class="cls-4" points="241.59 64.86 245.69 61.53 247.13 62.73 244.36 67.92 241.59 64.86"/><path class="cls-4" d="M248.08,74.39l5.16-2.3-1.14,5.28A7,7,0,0,1,254.22,79a4.13,4.13,0,0,1,1.14,1.79c.46,1.88-1.45,3.78-1.59,3.92l-5.69-4.35,2.2-2.55Z" transform="translate(-48.15 -14.99)"/><path class="cls-4" d="M258.85,74.22,262,77.54a6.49,6.49,0,0,0,2.28-2,3.83,3.83,0,0,0,1-3A2.48,2.48,0,0,0,264.09,71a2.15,2.15,0,0,0-2.43.43Z" transform="translate(-48.15 -14.99)"/><polygon class="cls-4" points="253.2 67.92 254.72 65.62 256.69 66.77 254.57 68.86 253.2 67.92"/><path class="cls-4" d="M284.05,73.2,287.92,76a1.88,1.88,0,0,0,.68-1.21c.1-1.17-1.42-1.94-1.59-2a3.19,3.19,0,0,0-1.45-.34Z" transform="translate(-48.15 -14.99)"/><path class="cls-4" d="M241.55,97.05l13,3.75-.38,1.28a18.42,18.42,0,0,0-5.23,2.64,3.36,3.36,0,0,1-2.2.85,3.05,3.05,0,0,1-1.82-.85Z" transform="translate(-48.15 -14.99)"/><path class="cls-4" d="M246,108a15.42,15.42,0,0,0,2.51.52c1.78.21,2.54,0,3.49.6a2.68,2.68,0,0,1,1.29,2,2.49,2.49,0,0,1-1.29,2.13,2.88,2.88,0,0,1-3.49-1Z" transform="translate(-48.15 -14.99)"/><path class="cls-4" d="M251.19,117.75a4.63,4.63,0,0,1,1.82-1.11,5.11,5.11,0,0,1,2.73.09,5.51,5.51,0,0,1,3.19,1.45,1.84,1.84,0,0,1,.68,1.27c0,.82-.88,1.35-1.06,1.45-.8.46-1.6.29-2.88,0a13.18,13.18,0,0,1-2.51-.85Z" transform="translate(-48.15 -14.99)"/><path class="cls-4" d="M265.76,126.1c.24-.19.05-.59.15-1.79a19,19,0,0,0,.3-2.13,3.68,3.68,0,0,0-.53-2,3.11,3.11,0,0,0-1.59-1.19c-.38-.16-1-.41-1.14-.17s.29.71.38,1.62-.26,1-.3,1.87a4.19,4.19,0,0,0,.83,2.64C264.41,125.71,265.37,126.4,265.76,126.1Z" transform="translate(-48.15 -14.99)"/><path class="cls-4" d="M258.47,98.84a2.29,2.29,0,0,1,0-2.13,1.8,1.8,0,0,1,1.14-.85l2.5,2,2.45,2.2-.55,1.21Z" transform="translate(-48.15 -14.99)"/><path class="cls-4" d="M264.32,91.6c.17-.3.42-.28,1.74-.6a16.63,16.63,0,0,1,2.05-.51,10,10,0,0,1,1.82,0c.66,0,1.2.11,1.6.17l1.29,2.64-.46,3.75-2.5,3a17.35,17.35,0,0,0-3-3.73,9.07,9.07,0,0,1-2.13-2.64C264.47,93.13,264,92.18,264.32,91.6Z" transform="translate(-48.15 -14.99)"/><path class="cls-4" d="M264.56,106.11a2.89,2.89,0,0,0,0,1.92,8.36,8.36,0,0,0,1,2.56l.69.69,3.56-2.22,3.34-2.69a4.22,4.22,0,0,0-1.37-1.31c-.74-.43-1.57-.37-3.18-.26a10.43,10.43,0,0,0-2.2.34C265.4,105.41,264.85,105.57,264.56,106.11Z" transform="translate(-48.15 -14.99)"/><path class="cls-4" d="M273.12,126.44c.24-.42.48-.43,2.28-1.19a22.09,22.09,0,0,1,2.58-1c1.12-.36,1.45-.34,1.74-.18s.42.38.91,1.45c.23.5.52,1.16.84,2l.6,1.37-7.28.68h-2.73c.11-.23.28-.58.45-1C273,127.32,272.83,127,273.12,126.44Z" transform="translate(-48.15 -14.99)"/><path class="cls-4" d="M272.89,77.8A3.35,3.35,0,0,1,274,76.26a2.59,2.59,0,0,1,1.75-.51,2.28,2.28,0,0,1,2,1.45,2.82,2.82,0,0,1-.46,2A9.54,9.54,0,0,1,275,82c-.65.62-1.52,1.42-2.58,2.3h-2.66Z" transform="translate(-48.15 -14.99)"/><path class="cls-4" d="M284.27,95.27l2.05-1.42,1.94-1.66a6.68,6.68,0,0,1,1,1.66,3.22,3.22,0,0,1,.46,1.58,2.21,2.21,0,0,1-.91,1.45l-1.45,1.7Z" transform="translate(-48.15 -14.99)"/><path class="cls-4" d="M275.7,110a3.33,3.33,0,0,1-.15-2.64,2.56,2.56,0,0,1,1-1.11,3.33,3.33,0,0,1,2.66-.17,5.7,5.7,0,0,1,2.05.85c.65.45,1.35.94,1.36,1.62s-.43,1-1.13,1.62a10.55,10.55,0,0,1-2.43,1.62l-2,.68Z" transform="translate(-48.15 -14.99)"/><path class="cls-4" d="M282.76,117.58a1.62,1.62,0,0,1-.31-1.28c.26-.69,1.49-.68,2.2-.68a7.23,7.23,0,0,1,2.2.43,5.52,5.52,0,0,1,1.82.76,4.75,4.75,0,0,1,1.45,1.79l-1.86,2.59Z" transform="translate(-48.15 -14.99)"/><path class="cls-4" d="M295.28,116.49c-.16-1.34-.31-2.68-.46-4a7.28,7.28,0,0,0,3,1.53,19.52,19.52,0,0,1,2.35.43,5.8,5.8,0,0,1,2.35,1.62l1,.93a3.91,3.91,0,0,1-2.12,1.42,5.93,5.93,0,0,1-3-.39,17.59,17.59,0,0,1-1.82-.6Z" transform="translate(-48.15 -14.99)"/><path class="cls-4" d="M311.29,92.45a3.67,3.67,0,0,1,.91-2.39,3.29,3.29,0,0,1,2.05-.85,5.38,5.38,0,0,1,2.05.09l-2.51,2.27-2.2,2.28Z" transform="translate(-48.15 -14.99)"/><path class="cls-4" d="M310.68,80.18a3.71,3.71,0,0,0,.91,1.62,3,3,0,0,0,1.59.85h2.05l-.6-1.23L317,76.94l.45-2.14V72.43h-2.05l-1.32,1.79Z" transform="translate(-48.15 -14.99)"/><path class="cls-4" d="M305.22,106.37l2.43-1.23a5.73,5.73,0,0,0-.69-3.83,4.47,4.47,0,0,0-1.59-1.53h-2.28l-.38.93Z" transform="translate(-48.15 -14.99)"/><path class="cls-4" d="M310,121.5a8.38,8.38,0,0,1,1.44,1.87A2.73,2.73,0,0,1,312,125a2.08,2.08,0,0,1-.68,1.28,2.9,2.9,0,0,1-2.81.43l-2.35,1.19a2.91,2.91,0,0,0,.53,1.62,3,3,0,0,0,3,.85,3.87,3.87,0,0,0,1.89-1l4.79-4.26a10.5,10.5,0,0,0-1.9-2,10.21,10.21,0,0,0-1.67-1.11Z" transform="translate(-48.15 -14.99)"/><path class="cls-4" d="M314.55,108.81a3.16,3.16,0,0,1,.68-2.56,2.22,2.22,0,0,1,2.2-.68c.71.2,1,.77,1.52,1.36a9,9,0,0,0,4.4,2.73c1.43.44,2.62.82,3.87.25,1-.47,1.54-1.33,2.89-1.45a2.06,2.06,0,0,1,1.36.26,3.23,3.23,0,0,1,1.14,2.13,5.31,5.31,0,0,1,.08,1.36l-2.13,3.41-1.36,2.13Z" transform="translate(-48.15 -14.99)"/><path class="cls-4" d="M318.12,132.49a20.15,20.15,0,0,1,1.51,2.21,6.25,6.25,0,0,0,1.14,1.71,3.1,3.1,0,0,0,2.05.68l1.37-1.19a10.59,10.59,0,0,1-1.75-2.56,8.61,8.61,0,0,0-1.29-2.39,4.54,4.54,0,0,0-1.36-1h-1.67Z" transform="translate(-48.15 -14.99)"/><path class="cls-4" d="M327.83,136.66a4.81,4.81,0,0,1,1.06-2.3,4.1,4.1,0,0,1,2.2-1.45c.29-.06,1.93-.42,2.81.69a3.75,3.75,0,0,1,.53,2.47c0,1-.27,1.27-.38,2.38a8.7,8.7,0,0,0,.08,2.22h-2.05a2.86,2.86,0,0,1-1.67.34,3,3,0,0,1-2.05-1.28A4.22,4.22,0,0,1,327.83,136.66Z" transform="translate(-48.15 -14.99)"/><polygon class="cls-4" points="292.13 112.48 295.09 111.19 295.39 112.48 292.66 113.5 292.13 112.48"/><path class="cls-7" d="M140.55,48.68c2.19,1.61-10.27-11.35-9.25-10.85.25.12,6.35,4,7,4.47a31.77,31.77,0,0,1,3.45,3.13,28.87,28.87,0,0,0,2.82,4.41" transform="translate(-48.15 -14.99)"/><path class="cls-4" d="M186.08,57.61a2.16,2.16,0,0,1,2-1.54,1.49,1.49,0,0,1,1,.51,2.59,2.59,0,0,1,.38,1.28c.2,1,1,1.53,2.12,2.3,1.62,1.11,2.45,1,2.81,1.88a2.18,2.18,0,0,1,0,1.53c-.43,1-1.54.75-2.35,1.87a2.75,2.75,0,0,0-.53,2.22c.2.62.71.74,3.11,1.87,1.08.51,1.63.78,2.2,1.11a14.37,14.37,0,0,1,2.58,2l1.44,2.2h-3.26l-5.39.24-1.9,4-1.51,3a17.22,17.22,0,0,1-2.74-1.37c-2-1.24-3.48-2.14-3.71-3.66-.12-.77.39-1.69,1.36-3.49a18.75,18.75,0,0,1,1.9-3.07c.52-.65.92-1,1-1.7a2.89,2.89,0,0,0-.69-1.88,5.83,5.83,0,0,0-3.18-2.21,6.56,6.56,0,0,1-2.05,2,5.21,5.21,0,0,1-2.74.76c-.73,0-2,0-2.35-.85s.63-2.44,1.37-3.15a5,5,0,0,1,1.44-.94,23.14,23.14,0,0,1,2.36-.7,6.62,6.62,0,0,0,1.81-1.09L185,62.46l1.37,1.2,1.21,1.27a8.43,8.43,0,0,0-.15-3.29C186.91,59.51,185.77,58.78,186.08,57.61Z" transform="translate(-48.15 -14.99)"/><path class="cls-4" d="M145.18,74.3l-2.73,2.82a7.51,7.51,0,0,0,2.73,2.38c2,1,8.58.68,8.58.68l3.11-1.87,4.17-2.9,1.45-1.11V70.56l-2.36,2.38a14.17,14.17,0,0,1-.38-3c0-1.31.17-1.72.08-3.07a4.53,4.53,0,0,0-.76-2.89c-.5-.55-1-.3-1.9-.77s-1-1.27-1.74-1.53a2,2,0,0,0-1.37.08l-1.59.13a3.31,3.31,0,0,0,.61,2.34c.32.39.5.32,1.29.94a6.93,6.93,0,0,1,1.44,1.45,4.21,4.21,0,0,1,.91,1.7,4.73,4.73,0,0,1-.68,3.07,7.83,7.83,0,0,1-1.6,2.13,6.94,6.94,0,0,1-2.88,1.87,5.94,5.94,0,0,1-4.25-.42Z" transform="translate(-48.15 -14.99)"/><path class="cls-8" d="M194.43,102.59a3,3,0,0,0,1,3,1.58,1.58,0,0,0,1.22.23c.73-.19,1.14-1,1.41-1.59.91-2,.73-3.11,1.32-5.34.71-2.72,1.28-2.25,1.92-5,.26-1.11.34-1.94,1-2.5a2.94,2.94,0,0,1,2.33-.57c.5.11.69.32,1.11.23a1.9,1.9,0,0,0,1.12-1,2.55,2.55,0,0,0,0-1.93l3.33-.88,3.44-.49V85.44c-1.64,0-2.22-.47-2.44-.91-.33-.64.1-1.17.12-2.73a4.88,4.88,0,0,0-.71-3.18c-.83-1-2.23-.79-3.14-.68A6.54,6.54,0,0,0,204,79.53l-3.16,2.93,3.59,1.61c.54.09,1.11.26,1.19.63.16.68-1.35,1.85-2.73,2.33a5.14,5.14,0,0,1-3.85-.12c-1.4-.67-1.47-1.59-2.93-2.5a6.38,6.38,0,0,0-3.24-.91L190,86.34l1.92,2.28,1.62-.69.1,3.9a11.83,11.83,0,0,1,1.11.87,8.63,8.63,0,0,1,1.62,1.82,6.38,6.38,0,0,1,.91,4.32,5.61,5.61,0,0,1-.91,2.27Z" transform="translate(-48.15 -14.99)"/><path class="cls-4" d="M173.64,69.87c.19-.23.88-.14,3.29,1.57l1.31,2.72,2.53,4.23q1.36,2,2.73,4.07.67,1,1.32,2.07l.4,2.64h-3a7.64,7.64,0,0,1-2.76,0,8.2,8.2,0,0,1-3.62-1.73l.81-3.38,1-3.48c-2.24.31-2.89.21-2.94,0s1.06-.56,1.42-1.66a3.15,3.15,0,0,0-.1-1.82c-.31-1.13-.79-1.39-1.52-2.73C174.14,71.71,173.34,70.25,173.64,69.87Z" transform="translate(-48.15 -14.99)"/><path class="cls-9" d="M290.65,104.72l2.43-1.65a2.46,2.46,0,0,1,2.58,1.65,2.79,2.79,0,0,1-2.58,3.09Z" transform="translate(-48.15 -14.99)"/><path class="cls-9" d="M280.43,87.37c-.71-.14-1.67,1-2.23,3.06l1.62,1.76a3.3,3.3,0,0,0,1.62-3C281.37,88.45,281,87.48,280.43,87.37Z" transform="translate(-48.15 -14.99)"/><path class="cls-9" d="M250.68,92.19h3.44c1.83-1.08,3-2.39,2.76-3s-1.95-.85-4.17-.19Z" transform="translate(-48.15 -14.99)"/><path class="cls-10" d="M178.21,175.33l-.56,0" transform="translate(-48.15 -14.99)"/><path class="cls-1" d="M205.58,165.36c.5.35-.21,3.71-2.19,6.33a11,11,0,0,1-6.92,4.16c-1.95.29-2.11-.29-6.13-.69a55,55,0,0,0-7.89-.08c-2.52.1-4.45.32-8.21.77-4.13.48-6.3.75-9.25,1.28-2.56.46-5,1.07-9.86,2.3s-7.28,1.84-10.32,2.72c-2.66.77-2.57.83-11.7,3.84-7.2,2.38-8.06,2.62-10.46,3.58a76.94,76.94,0,0,0-8.42,3.82,72.79,72.79,0,0,0-8.58,5.28,65.17,65.17,0,0,1-7.73,5.05c-2.8,1.49-3.92,1.76-4.63,1.17-1.07-.85-.93-3.39-.31-5.1.54-1.46,1.3-2,4.18-4.51a61.16,61.16,0,0,0,6.14-5.71,38.37,38.37,0,0,0,3.25-4.7c1.76-2.75,2.9-4.94,4.33-7.66,1.19-2.29,2.16-4.16,3.35-6.8,1.6-3.63,2.4-5.5,2.74-7.77a17.92,17.92,0,0,0-.24-6.89,17.67,17.67,0,0,0-3.26-6.49,27.73,27.73,0,0,0-6.08-6,53.5,53.5,0,0,0-6.66-4.19,83.19,83.19,0,0,0-9.58-5c-4.43-1.81-4.38-1.06-8.63-3-3-1.33-3.74-2-7.23-3.39-2.07-.82-3.88-1.41-5.38-1.89-1.78-.56-3.59-1.12-6-1.68-3.35-.8-6.46-1.28-6.46-1.28a21.75,21.75,0,0,1-4.85-1.29,10.3,10.3,0,0,1-2.12-1.2c-1-.69-2.33-1.68-2.21-2.64s1.38-1.33,1.9-1.52c1.88-.69,3.35-.24,5.16.08s.93-.08,5.92.35c2.88.24,5,.5,7.51.85,2.1.27,4.88.64,8.35,1.25,4.78.86,5,1.15,10.25,2.14,2.87.56,5,.88,9.17,1.55,5,.77,7.56,1.17,10.63,1.52,5.3.61,9.39.83,13,1,1.36.08,5,.27,9.7.35,4.38.08,7.68.05,10.39,0s4.93-.11,9.56-.24c5.95-.19,7.06-.27,8.75-.61a39,39,0,0,0,7-2.11,34.18,34.18,0,0,0,7.44-3.69c3.26-2.16,4.87-3.25,6-5.44.55-1.07.71-1.76,1.45-2.14,1.78-.9,4.35,1.47,5.83,2.83a20.78,20.78,0,0,1,4.42,5.8c8.08,16.28,15.24,25.09,14.72,33a79.06,79.06,0,0,0-.19,11.45,12.46,12.46,0,0,1,.07,1.28c-.12,0-1.26-8.14-1.26-8.14s-.76-2.24-1.43-4.16-.78-2.22-1.21-3.5c-.95-2.77-.88-2.72-2.07-6.19s-1.74-5.26-2.5-6.94c-1.4-3.07-1.54-2.72-2.56-5.26-1.26-3.1-1.57-4.88-3.29-6.41-.28-.24-1.92-1.68-2.94-1.09-.65.37-.62,1.25-1.53,2.88a9.81,9.81,0,0,1-1.23,1.79l-.6-2.21a3.75,3.75,0,0,0-1.87-2.38c-.77-.27-1.38.08-3,.67-1.14.45-2.33.77-3.49,1.2-2.43.93-4.5,1.65-5.38,2s-2.87.91-6.61,2c-2.66.8-4,1.23-4.54,1.36-2.83.78-3.63.83-6.39,1.63-2.43.7-3.66,1.07-4.4,1.71-1.33,1.15-1.24,2-3.09,3.58-1.57,1.31-2.52,1.44-3,1.44a4.13,4.13,0,0,1-1.91-.51l2-6.14-5-.26a10.17,10.17,0,0,0-5,.53c-2,.72-2.62,1.71-5.09,2.45a6.4,6.4,0,0,1-3.64.43c-1.92-.45-1.85-1.71-4-2.8a8.44,8.44,0,0,0-6.46-.35,8.17,8.17,0,0,0-1.81,1l5.37,4.35,8.73,7.34a18.76,18.76,0,0,0,3.11-.19c1.69-.21,2.48-.56,3.81-.24a5,5,0,0,1,1.73.75c.62.43,1.69,1.17,1.67,2.21a2.2,2.2,0,0,1-1,1.63,3.66,3.66,0,0,1-2.28.51c-1.76,0-1.88-.32-2.5-.08-1.21.48-1.78,2.35-1.9,3.58s.26,1.57.69,3.84a23.9,23.9,0,0,1,.38,5.69,21.72,21.72,0,0,1-.76,4.27c-.12.42-.31,1-1.66,4.85-.88,2.43-1.12,3-.84,3.74.46,1.15,1.91,1.44,2.43,1.55,1.19.24,1.85-.11,4.4-.94,1.64-.53,3.23-1,5-1.54,2.76-.8,3.09-.83,3.8-1.36a7.85,7.85,0,0,0,2.5-3.66,8.91,8.91,0,0,0,.31-4.51l2.5,2.45a7.18,7.18,0,0,0,4.7,3.07c.74.08,1.15,0,4.4-1,4.83-1.44,5.09-1.52,5.71-1.63,2.92-.51,2.85.19,5.3-.43,2.74-.64,3-1.55,5-1.44,1.35.08,1.88.56,3.49.35a4.37,4.37,0,0,0,2.64-1c.79-.72.62-1.2,1.52-2.13a3.39,3.39,0,0,1,2.21-1.28c.46,0,.91.13,2.19,1.09,2.43,1.84,2.86,2.83,3.64,2.64.5-.1.5-.53,1.59-2.1,1.22-1.74,1.83-2.62,2.74-2.83a3.4,3.4,0,0,1,2.52.69c1.09.75,1,1.44,1.88,1.79s1.42-.37,2.59,0a3,3,0,0,1,1.73,1.44c.81,1.58-.33,3.44.1,3.74.59.45,2.9-3,3.9-3.53C205.39,165.33,205.51,165.31,205.58,165.36Z" transform="translate(-48.15 -14.99)"/><path class="cls-2" d="M204,157.27s1.14,8.14,1.26,8.14c-1,.56-3.31,4-3.9,3.53-.43-.3.71-2.16-.1-3.74a3,3,0,0,0-1.73-1.44c-1.17-.37-1.57.37-2.59,0s-.79-1-1.88-1.79a3.4,3.4,0,0,0-2.52-.69c-.91.21-1.52,1.09-2.74,2.83-1.09,1.57-1.09,2-1.59,2.1-.78.19-1.21-.8-3.64-2.64-1.28-1-1.73-1.12-2.19-1.09a3.39,3.39,0,0,0-2.21,1.28c-.9.93-.73,1.41-1.52,2.13a4.37,4.37,0,0,1-2.64,1c-1.61.21-2.14-.27-3.49-.35-2-.11-2.28.8-5,1.44-2.45.62-2.38-.08-5.3.43-.62.11-.88.19-5.71,1.63-3.25,1-3.66,1.09-4.4,1a7.18,7.18,0,0,1-4.7-3.07l-2.5-2.45a8.91,8.91,0,0,1-.31,4.51,7.85,7.85,0,0,1-2.5,3.66c-.71.53-1,.56-3.8,1.36-1.76.53-3.35,1-5,1.54-2.55.83-3.21,1.18-4.4.94-.52-.11-2-.4-2.43-1.55-.28-.69,0-1.31.84-3.74,1.35-3.81,1.54-4.43,1.66-4.85a21.72,21.72,0,0,0,.76-4.27,23.9,23.9,0,0,0-.38-5.69c-.43-2.27-.81-2.56-.69-3.84s.69-3.1,1.9-3.58c.62-.24.74.13,2.5.08a3.66,3.66,0,0,0,2.28-.51,2.2,2.2,0,0,0,1-1.63c0-1-1.05-1.78-1.67-2.21a5,5,0,0,0-1.73-.75c-1.33-.32-2.12,0-3.81.24a18.76,18.76,0,0,1-3.11.19l-8.73-7.34-5.37-4.35a8.17,8.17,0,0,1,1.81-1,8.44,8.44,0,0,1,6.46.35c2.17,1.09,2.1,2.35,4,2.8a6.4,6.4,0,0,0,3.64-.43c2.47-.74,3.07-1.73,5.09-2.45a10.17,10.17,0,0,1,5-.53l5,.26-2,6.14a4.13,4.13,0,0,0,1.91.51c.52,0,1.47-.13,3-1.44,1.85-1.58,1.76-2.43,3.09-3.58.74-.64,2-1,4.4-1.71,2.76-.8,3.56-.85,6.39-1.63.55-.13,1.88-.56,4.54-1.36,3.74-1.12,5.64-1.71,6.61-2s3-1,5.38-2c1.16-.43,2.35-.75,3.49-1.2,1.6-.59,2.21-.94,3-.67a3.75,3.75,0,0,1,1.87,2.38l.6,2.21a9.81,9.81,0,0,0,1.23-1.79c.91-1.63.88-2.51,1.53-2.88,1-.59,2.66.85,2.94,1.09,1.72,1.53,2,3.31,3.29,6.41,1,2.54,1.16,2.19,2.56,5.26.76,1.68,1.33,3.47,2.5,6.94s1.12,3.42,2.07,6.19c.43,1.28.57,1.63,1.21,3.5S204,157.27,204,157.27Z" transform="translate(-48.15 -14.99)"/><path class="cls-3" d="M205.25,165.41c-1,.56-3.31,4-3.9,3.53-.43-.3.71-2.16-.1-3.74a3,3,0,0,0-1.73-1.44c-1.17-.37-1.57.37-2.59,0s-.79-1-1.88-1.79a3.4,3.4,0,0,0-2.52-.69c-.91.21-1.52,1.09-2.74,2.83-1.09,1.57-1.09,2-1.59,2.1-.78.19-1.21-.8-3.64-2.64-1.28-1-1.73-1.12-2.19-1.09a3.39,3.39,0,0,0-2.21,1.28c-.9.93-.73,1.41-1.52,2.13a4.37,4.37,0,0,1-2.64,1c-1.61.21-2.14-.27-3.49-.35-2-.11-2.28.8-5,1.44-2.45.62-2.38-.08-5.3.43-.62.11-.88.19-5.71,1.63-3.25,1-3.66,1.09-4.4,1a7.18,7.18,0,0,1-4.7-3.07l-2.5-2.45a8.91,8.91,0,0,1-.31,4.51,7.85,7.85,0,0,1-2.5,3.66c-.71.53-1,.56-3.8,1.36-1.76.53-3.35,1-5,1.54-2.55.83-3.21,1.18-4.4.94-.52-.11-2-.4-2.43-1.55-.28-.69,0-1.31.84-3.74,1.35-3.81,1.54-4.43,1.66-4.85a21.72,21.72,0,0,0,.76-4.27,23.9,23.9,0,0,0-.38-5.69c-.43-2.27-.81-2.56-.69-3.84s.69-3.1,1.9-3.58c.62-.24.74.13,2.5.08a3.66,3.66,0,0,0,2.28-.51,2.2,2.2,0,0,0,1-1.63c0-1-1.05-1.78-1.67-2.21a5,5,0,0,0-1.73-.75c-1.33-.32-2.12,0-3.81.24a18.76,18.76,0,0,1-3.11.19l-8.73-7.34-5.37-4.35a8.17,8.17,0,0,1,1.81-1,8.44,8.44,0,0,1,6.46.35c2.17,1.09,2.1,2.35,4,2.8a6.4,6.4,0,0,0,3.64-.43c2.47-.74,3.07-1.73,5.09-2.45a10.17,10.17,0,0,1,5-.53l5,.26-2,6.14a4.13,4.13,0,0,0,1.91.51c.52,0,1.47-.13,3-1.44,1.85-1.58,1.76-2.43,3.09-3.58.74-.64,2-1,4.4-1.71,2.76-.8,3.56-.85,6.39-1.63.55-.13,1.88-.56,4.54-1.36,3.74-1.12,5.64-1.71,6.61-2s3-1,5.38-2c1.16-.43,2.35-.75,3.49-1.2,1.6-.59,2.21-.94,3-.67a3.75,3.75,0,0,1,1.87,2.38l.6,2.21a9.81,9.81,0,0,0,1.23-1.79c.91-1.63.88-2.51,1.53-2.88,1-.59,2.66.85,2.94,1.09,1.72,1.53,2,3.31,3.29,6.41,1,2.54,1.16,2.19,2.56,5.26.76,1.68,1.33,3.47,2.5,6.94s1.12,3.42,2.07,6.19c.43,1.28.57,1.63,1.21,3.5s1.43,4.16,1.43,4.16S205.13,165.41,205.25,165.41Z" transform="translate(-48.15 -14.99)"/><path class="cls-3" d="M205.25,165.41a12.46,12.46,0,0,0-.07-1.28,79.06,79.06,0,0,1,.19-11.45c.52-8-6.64-16.76-14.72-33a20.78,20.78,0,0,0-4.42-5.8c-1.48-1.36-4-3.73-5.83-2.83-.74.38-.9,1.07-1.45,2.14-1.12,2.19-2.73,3.28-6,5.44a34.18,34.18,0,0,1-7.44,3.69,39,39,0,0,1-7,2.11c-1.69.34-2.8.42-8.75.61-4.63.13-7,.21-9.56.24s-6,.08-10.39,0c-4.73-.08-8.34-.27-9.7-.35-3.59-.18-7.68-.4-13-1-3.07-.35-5.59-.75-10.63-1.52-4.2-.67-6.3-1-9.17-1.55-5.21-1-5.47-1.28-10.25-2.14-3.47-.61-6.25-1-8.35-1.25-2.52-.35-4.63-.61-7.51-.85-5-.43-4,0-5.92-.35s-3.28-.77-5.16-.08c-.52.19-1.78.64-1.9,1.52s1.23,2,2.21,2.64a10.3,10.3,0,0,0,2.12,1.2,21.75,21.75,0,0,0,4.85,1.29s3.11.48,6.46,1.28c2.4.56,4.21,1.12,6,1.68,1.5.48,3.31,1.07,5.38,1.89,3.49,1.37,4.25,2.06,7.23,3.39,4.25,1.93,4.2,1.18,8.63,3a83.19,83.19,0,0,1,9.58,5,53.5,53.5,0,0,1,6.66,4.19,27.73,27.73,0,0,1,6.08,6,17.67,17.67,0,0,1,3.26,6.49,17.92,17.92,0,0,1,.24,6.89c-.34,2.27-1.14,4.14-2.74,7.77-1.19,2.64-2.16,4.51-3.35,6.8-1.43,2.72-2.57,4.91-4.33,7.66a38.37,38.37,0,0,1-3.25,4.7,61.16,61.16,0,0,1-6.14,5.71c-2.88,2.49-3.64,3.05-4.18,4.51-.62,1.71-.76,4.25.31,5.1.71.59,1.83.32,4.63-1.17a65.17,65.17,0,0,0,7.73-5.05,72.79,72.79,0,0,1,8.58-5.28,76.94,76.94,0,0,1,8.42-3.82c2.4-1,3.26-1.2,10.46-3.58,9.13-3,9-3.07,11.7-3.84,3-.88,5.47-1.49,10.32-2.72s7.3-1.84,9.86-2.3c2.95-.53,5.12-.8,9.25-1.28,3.76-.45,5.69-.67,8.21-.77a55,55,0,0,1,7.89.08c4,.4,4.18,1,6.13.69a11,11,0,0,0,6.92-4.16c2-2.62,2.69-6,2.19-6.33C205.51,165.31,205.39,165.33,205.25,165.41Z" transform="translate(-48.15 -14.99)"/><path class="cls-4" d="M168.85,133a3.38,3.38,0,0,1,1.47-1.76,3.15,3.15,0,0,1,2.48-.05c1.28.34,1.44.84,2.78,1.47a9.17,9.17,0,0,0,3.54.85,11.26,11.26,0,0,0,3.59-.34,13.45,13.45,0,0,0,2.53-.85l2.23.46c-.14.28-.34.68-.61,1.13a7.42,7.42,0,0,1-1.11,1.59,3.58,3.58,0,0,1-2.13,1l-3.79,1.08-.41-1.25-2.68.68-3.59.85a10.18,10.18,0,0,1-3,.85c-.74.09-1.14.3-1.52.06-.74-.46-.76-1.81-.76-2.16Z" transform="translate(-48.15 -14.99)"/><path class="cls-4" d="M190,146.56a5.32,5.32,0,0,0,2.06,1.36,6.13,6.13,0,0,0,1.67.29,21.31,21.31,0,0,0,2.79-.06c.48,0,1.2-.05,2.07-.06l-.86-3.69q-.78,0-1.62,0a23.71,23.71,0,0,0-3.24.34Z" transform="translate(-48.15 -14.99)"/><path class="cls-4" d="M174.64,147.79a3.18,3.18,0,0,1,1.67-.57,13,13,0,0,1,1.47-.17l2.63-.17.2,1.14-2.33,1.64,1.72,2.5,2.23,2.05a12,12,0,0,1-1.72,1c-1.17.57-2,1-2.58.61-.2-.11-.29-.25-.91-1.87a22.53,22.53,0,0,0-1.37-3.24,11.41,11.41,0,0,0-.65-1,1.33,1.33,0,0,1-.81-1.19A1.13,1.13,0,0,1,174.64,147.79Z" transform="translate(-48.15 -14.99)"/><path class="cls-4" d="M199.13,160.59a2.68,2.68,0,0,0,1.67-1.08,3.82,3.82,0,0,0,.5-.79v-1.14l-3.13,1h-2.33a12.54,12.54,0,0,0,1.31,1C198.09,160.32,198.57,160.64,199.13,160.59Z" transform="translate(-48.15 -14.99)"/><path class="cls-4" d="M188.18,155.22l.55-.82,4.61-1.2a2,2,0,0,1,0,1.37c-.29.65-1,.85-2,1.13a9.08,9.08,0,0,1-1.57.29Z" transform="translate(-48.15 -14.99)"/><polygon class="cls-4" points="120.71 146.87 123.23 145.1 125.41 146.35 123.06 147.66 121.92 148 120.71 146.87"/><path class="cls-4" d="M147.84,154.29a5.18,5.18,0,0,1,1.87-1.82,4.53,4.53,0,0,1,2.48-.57h2.88l.46,2.4a7.21,7.21,0,0,1-.86,1.47c-.65.85-1,.88-2.73,2.22-1,.78-1.15,1-1.62,1.08a2.58,2.58,0,0,1-1.92-.52l-2.63-1Z" transform="translate(-48.15 -14.99)"/><path class="cls-4" d="M160.51,155.92c.76-.6,1.14-.89,1.61-1.2a26.23,26.23,0,0,1,2.38-1.3c.8-.41,1.47-.71,1.92-.91h2.43l-.55,1.73a5.85,5.85,0,0,1-.91,1,7.06,7.06,0,0,1-1.72,1c-1,.47-.73.43-2.23,1.19-.56.29-1.33.66-2.28,1.08-.21-.08-1.8-.68-1.77-1.42C159.4,156.84,159.54,156.67,160.51,155.92Z" transform="translate(-48.15 -14.99)"/><path class="cls-1" d="M328.76,167.44c.31.27,4.05,3.55,3.66,4.22-.23.43-2-.85-4.94-1.39a19.83,19.83,0,0,0-5.56,0,36.41,36.41,0,0,0-8.21,2.16c-.76.27-3.85,1.37-8,3.31a66.83,66.83,0,0,0-7.39,3.85,63.68,63.68,0,0,0-8.49,6.48,98.42,98.42,0,0,0-7.08,6.94c-3.19,3.37-5.33,5.9-8.9,10.2-3.73,4.49-5.58,6.7-7.39,9.32s-1.93,3.07-4.75,7.18c-2.29,3.28-2.55,3.49-3.14,4.75-1.67,3.5-1.12,4.94-2.83,6.94-1.17,1.36-3.16,2.72-4.57,2A3,3,0,0,1,250,232c-1.95-3.74-2.57-3.68-3.54-5.79-1.33-2.94-.6-4-1.52-9.88a48.77,48.77,0,0,0-2.83-11,73.23,73.23,0,0,0-3.64-7.4,51.67,51.67,0,0,0-3.95-6.8,28.11,28.11,0,0,0-6.37-6.14,34.25,34.25,0,0,0-13-5.9,24.37,24.37,0,0,0-3.23-.54c-1.33-.18-2.55-.4-4.45-.72-5.66-.93-11-1.33-11-1.92,0-.32,1.53-.16,3.57-1.28a10.41,10.41,0,0,0,3.35-2.88c2.33-3.13,1.14-5.34,2.71-6.54,2.17-1.66,4.83,2.19,9.18,1,1.24-.32,2.5-1.36,5-3.47,1.14-1,2.16-1.92,6.94-6.81a63.7,63.7,0,0,1,5.71-5.6,51.9,51.9,0,0,1,4.33-3.15c2.18-1.45,3.94-2.41,4.82-2.89a42.94,42.94,0,0,1,5.28-2.51c2.86-1,5.33-1.14,10.27-1.36a77.24,77.24,0,0,1,9.61.19c2.45.19,4,.4,4.9.53s2.56.43,5,1c3.42.85,3.44,1.17,9.91,3.17,1.9.59,2.95.91,4.64,1.58,1.21.48,1.69.75,3.59,1.52,1.31.56,1.47.59,3.61,1.44,3.62,1.44,5.49,2.24,6.87,2.86,1.14.53,1.88.88,2.71,1.33.31.16.93.51,2.76,1.66,1.07.64,1.88,1.17,2.93,1.84.71.45,1.59,1,2.42,1.6a.8.8,0,0,1-.24.19c-2.18-1.34-5.54-3.34-9.58-5.39a121.86,121.86,0,0,0-15.29-6.38c-2-.67-1.28-.38-7.65-2.41-6.61-2.1-7.59-2.5-10-3a55.08,55.08,0,0,0-8.51-1.12,77.67,77.67,0,0,0-9.29.11,43.42,43.42,0,0,0-6,.48c-2.45.56-4.52,1.73-8.61,4a50.73,50.73,0,0,0-6.18,3.88c-1.17.88-1.57,1.25-6.16,5.55-2.57,2.4-4.92,5.1-7.39,7.6-.43.43-2.93,3-2.52,4.89,0,.13,0,.21,0,.21.15.46.74,1.07,3.29,2.3a49.37,49.37,0,0,0,5.56,2.16c3.21,1.12,3.85,1.36,4.56.91,1-.64,1.36-2.08,1.62-3.07.43-1.63,0-1.92.5-3.07a4.32,4.32,0,0,1,2.83-2.62c.9-.18,2.14-.05,2.33.56s-.93,1.1-1.21,2.51a3.28,3.28,0,0,0,3.54,4.09c1.52.16,1.85-.16,3.64-.11,1.45.05,2.19.08,2.83.69a3.73,3.73,0,0,1,1,2.49c0,1.06-.38,2.61-1.33,3-.57.21-1.14-.13-1.9-.61a7,7,0,0,1-2.05-1.85L239,178l2.07,2,3.14,3.07L248,187.2l4.26-.67L251.18,192l.57,2.17,3.45,5.23,3.28,5.68c.26-.88.69-2.13,1.21-3.65.69-2,1-3,1.26-3.53.57-1.28,1.95-3.31,5.92-4.75l5.19-4.91-1.36-1.15,1.36-2,1.69.91a18.13,18.13,0,0,1,3.63-5.93c2.05-2.13,3.5-2.45,9.11-5.2s5.18-3,9.82-5.13c1.21-.53,3.49-1.55,8.11-3.52a62.22,62.22,0,0,0,6.2-2.88,39,39,0,0,0,5.8-4,30.52,30.52,0,0,0,2.74,1.68,21.18,21.18,0,0,0-2.5-1.87,1.76,1.76,0,0,0,.29-.21c2.35,1.73,4.28,3.07,5.56,3.95A58.39,58.39,0,0,1,328.76,167.44Z" transform="translate(-48.15 -14.99)"/><path class="cls-1" d="M316.66,159.14a21.18,21.18,0,0,1,2.5,1.87,30.52,30.52,0,0,1-2.74-1.68A.8.8,0,0,0,316.66,159.14Z" transform="translate(-48.15 -14.99)"/><path class="cls-2" d="M316.42,159.33a39,39,0,0,1-5.8,4,62.22,62.22,0,0,1-6.2,2.88c-4.62,2-6.9,3-8.11,3.52-4.64,2.14-4.07,2.3-9.82,5.13s-7.06,3.07-9.11,5.2a18.13,18.13,0,0,0-3.63,5.93l-1.69-.91,3.92-7.5-4.45-.11c-3-.1-3.85-.16-4.56.56a4.59,4.59,0,0,0-.81,4.09,4.7,4.7,0,0,0,2,2.83l2.52,2.13,1.36,1.15-5.19,4.91c-4,1.44-5.35,3.47-5.92,4.75-.23.54-.57,1.55-1.26,3.53-.52,1.52-.95,2.77-1.21,3.65l-3.28-5.68-3.45-5.23-.57-2.17,1.12-5.44-4.26.67-3.82-4.09L241.08,180,239,178l5.49-2.91a7,7,0,0,0,2.05,1.85c.76.48,1.33.82,1.9.61,1-.35,1.35-1.9,1.33-3a3.73,3.73,0,0,0-1-2.49c-.64-.61-1.38-.64-2.83-.69-1.79,0-2.12.27-3.64.11a3.28,3.28,0,0,1-3.54-4.09c.28-1.41,1.4-1.87,1.21-2.51s-1.43-.74-2.33-.56A4.32,4.32,0,0,0,234.8,167c-.45,1.15-.07,1.44-.5,3.07-.26,1-.66,2.43-1.62,3.07-.71.45-1.35.21-4.56-.91a49.37,49.37,0,0,1-5.56-2.16c-2.55-1.23-3.14-1.84-3.29-2.3,0,0,0-.08,0-.21-.41-1.92,2.09-4.46,2.52-4.89,2.47-2.5,4.82-5.2,7.39-7.6,4.59-4.3,5-4.67,6.16-5.55a50.73,50.73,0,0,1,6.18-3.88c4.09-2.32,6.16-3.49,8.61-4a43.42,43.42,0,0,1,6-.48,77.67,77.67,0,0,1,9.29-.11,55.08,55.08,0,0,1,8.51,1.12c2.45.54,3.43.94,10,3,6.37,2,5.66,1.74,7.65,2.41a121.86,121.86,0,0,1,15.29,6.38C310.88,156,314.24,158,316.42,159.33Z" transform="translate(-48.15 -14.99)"/><path class="cls-1" d="M276,177.56l-3.92,7.5-1.36,2-2.52-2.13a4.7,4.7,0,0,1-2-2.83A4.59,4.59,0,0,1,267,178c.71-.72,1.57-.66,4.56-.56Z" transform="translate(-48.15 -14.99)"/><path class="cls-4" d="M307.23,155.86l3.44,2.33a19.42,19.42,0,0,1-1,2.5,8,8,0,0,1-1.22,2c-.71.74-1.28.72-3.14,1.3-1.35.43-2.66,1-4,1.54l-2.94,1.13h-4.45V162l-.35-5.05v-4.66a3.47,3.47,0,0,1-1.87-.68c-1.06-.78-1.91-2.31-1.57-2.84s2.94.12,4.75,1.48c1.21.9,1.48,1.59,2.63,2a4.88,4.88,0,0,0,3.09.12,1.5,1.5,0,0,1,1.32.91,1.89,1.89,0,0,1-.61,2.1c-.48.35-.78,0-1.57.22a3.79,3.79,0,0,0-1.92,1.54,5.55,5.55,0,0,0-1,2.33l-1.37,2.61a12.66,12.66,0,0,0,2.13,1.7,3.78,3.78,0,0,0,1.71.8,3.56,3.56,0,0,0,2.48-1.14,4.6,4.6,0,0,0,1.57-2,5,5,0,0,0,0-3.29Z" transform="translate(-48.15 -14.99)"/><path class="cls-4" d="M259.13,143.08c0-.31.8-.65,3.85-.85l2.42,1.42a6,6,0,0,0,3,1.87,5.61,5.61,0,0,0,1.62.17c1.38,0,1.69-.54,2.58-.39a3.18,3.18,0,0,1,1.92,1.36,4.58,4.58,0,0,1,.51,3.52l-.1.91,1.36-1.08v-5.34a2,2,0,0,1,1.21,0c.61.22.78.66,1.32,1a2.38,2.38,0,0,0,1.77.17v1.82l2.53.62,2.23,1.14L284.17,153l-.86,1.7c-.86.33-1.26.21-1.46,0-.36-.35-.09-.89-.46-1.47-.25-.39-.68-.53-1.52-.8a4.56,4.56,0,0,0-1.92-.39c-.23,0-.72.17-2.23,1.81-1.28,1.41-1.08,1.49-1.61,1.88-.68.49-1.59.58-3.39.74-2.51.22-2.84-.06-3-.23s-.31-.44-.4-2.84c-.05-1.31,0-2-.05-2.9a34,34,0,0,0-.26-3.41l-2.58.12-2.78.17-1.67.11a3.29,3.29,0,0,0,1-2.67C260.63,143.73,259.1,143.53,259.13,143.08Z" transform="translate(-48.15 -14.99)"/><path class="cls-4" d="M241.32,148c0-.7,1.46-1.43,2.63-1.59a4,4,0,0,1,1.16,0l3.19.4,3.84.11h2l.35,1.08L251.33,150a4.41,4.41,0,0,1-2.83,2.37,3.76,3.76,0,0,1-2.68-.57c-.89-.56-.8-1-1.82-1.93C242.48,148.51,241.33,148.58,241.32,148Z" transform="translate(-48.15 -14.99)"/><path class="cls-4" d="M252.15,158a3.1,3.1,0,0,1,.35-2c.32-.54.89-.86,2-1.48a12.71,12.71,0,0,0,1.82-1c.72-.56.67-.85,1.52-1.59s1.12-1,1.67-1,.57.37,1.72,1c.9.47,1.22.42,1.41.8s.19.84-.3,1.82l-1.77,1.84L258.22,158l-2.33,1.72c-.2.16-1.46,1.08-1.67,1.24a10.11,10.11,0,0,1-1.11-1.24A3.93,3.93,0,0,1,252.15,158Z" transform="translate(-48.15 -14.99)"/><path class="cls-4" d="M238.29,156a3.32,3.32,0,0,0,1,2.22,2.57,2.57,0,0,0,1.92.62,4.66,4.66,0,0,0,2.18-1,19.4,19.4,0,0,0,2.12-1.54v-1l-2.17-.63a4.11,4.11,0,0,0-2-.39,3.94,3.94,0,0,0-1.62.45Z" transform="translate(-48.15 -14.99)"/><polygon class="cls-4" points="197.38 147.99 198.29 149.7 200.56 147.43 201.88 146.35 200.82 145.11 197.38 147.99"/><path class="cls-4" d="M230.46,158.92a13.6,13.6,0,0,1,2.68.51,11.23,11.23,0,0,1,2,.73,8.37,8.37,0,0,1,1.93,1.42l.35.74-2.53-.34-3.36,0-2-.12a2,2,0,0,1-.76-1.76,1.56,1.56,0,0,1,.51-1A1.41,1.41,0,0,1,230.46,158.92Z" transform="translate(-48.15 -14.99)"/><path class="cls-4" d="M225.57,168.28a1.57,1.57,0,0,0,1.82.68l2-1.48,2-2-.56-1.14-2.22.81a3.79,3.79,0,0,0-2.13,1.18C226.11,166.65,225.29,167.55,225.57,168.28Z" transform="translate(-48.15 -14.99)"/><path class="cls-4" d="M254.93,167.3l2.38-2.72,1.82.85,1.12.34L258.63,167l-1.37,1.36-.61.29c-.3.28-1.16-.55-1.16-.55Z" transform="translate(-48.15 -14.99)"/><path class="cls-4" d="M263.16,167a7.91,7.91,0,0,1-.36-3,7.37,7.37,0,0,1,.86-2.79l.81-1.13a5.25,5.25,0,0,1,1.47,2c.3.75.2,1,.61,1.93a9.29,9.29,0,0,0,1,1.71c.62.88.78.88,1,1.3a3.41,3.41,0,0,1-.1,2.5l-1.47,2.1a10,10,0,0,1-1.77-1.47A8,8,0,0,1,263.16,167Z" transform="translate(-48.15 -14.99)"/><path class="cls-4" d="M274.45,165.66c1.31-1.2,1.63-1,2.43-1.93s.61-1.37,1.37-2a4.13,4.13,0,0,1,2.78-1,5.31,5.31,0,0,1,3,.79l.91.89L282,167a6.64,6.64,0,0,1-1.62,2.22,7.08,7.08,0,0,1-3.24,1.47,5.45,5.45,0,0,1-3.39.23,2,2,0,0,1-1.41-1,3.11,3.11,0,0,1,.61-2.44A6.85,6.85,0,0,1,274.45,165.66Z" transform="translate(-48.15 -14.99)"/><polygon class="cls-4" points="208.05 162.06 211.24 160.13 212.1 161.38 208.71 163.82 208.05 162.06"/><path class="cls-1" d="M400.83,181.54c.81.58,1.92,1.36,1.83,2.16-.14,1.09-2.55,1.52-2.85,1.57a8.5,8.5,0,0,1-5.16-1c-3.21-1.39-5.85-2.54-8-3.31-2.88-1-2.83-.67-7-2-2.4-.8-2.69-1-6.49-2.4-4.64-1.68-8-2.75-8.89-3-4.61-1.47-6.92-2.19-8.7-2.3-4.31-.21-6.47,1.15-7.18,0-.55-.8-.24-2.78,3.54-7.93l8.3.78.59-1.47-2.92-2.51-3.24-2.59c1.55-6.22,3.28-7,4.09-7.1,1.29-.16,2.09,1.15,5,3.9a77.22,77.22,0,0,0,6.49,5.33c3.23,2.54,3.35,2.25,8.7,6,4.16,3,3.87,3,7.27,5.34,1.48,1,3.62,2.43,7.9,5.23C396.5,177.75,398.52,179.88,400.83,181.54Z" transform="translate(-48.15 -14.99)"/><path class="cls-11" d="M354.7,157.46c1.55-6.22,3.28-7,4.09-7.1,1.29-.16,2.09,1.15,5,3.9a77.22,77.22,0,0,0,6.49,5.33c3.23,2.54,3.35,2.25,8.7,6,4.16,3,3.87,3,7.27,5.34,1.48,1,3.62,2.43,7.9,5.23,2.35,1.55,4.37,3.68,6.68,5.34.81.58,1.92,1.36,1.83,2.16-.14,1.09-2.55,1.52-2.85,1.57a8.5,8.5,0,0,1-5.16-1c-3.21-1.39-5.85-2.54-8-3.31-2.88-1-2.83-.67-7-2-2.4-.8-2.69-1-6.49-2.4-4.64-1.68-8-2.75-8.89-3-4.61-1.47-6.92-2.19-8.7-2.3-4.31-.21-6.47,1.15-7.18,0-.55-.8-.24-2.78,3.54-7.93l8.3.78.59-1.47-2.92-2.51Z" transform="translate(-48.15 -14.99)"/><path class="cls-12" d="M351.48,162.9c.76-1.42,2.11-4.13,2.87-5.55l6.06,5.24-.35,1.13Z" transform="translate(-48.15 -14.99)"/></svg>