<svg id="Layer_2" data-name="Layer 2" xmlns="http://www.w3.org/2000/svg" viewBox="0 0 659.36 719.24"><defs><style>.cls-1{fill:gray;}.cls-2{fill:#999;}.cls-3{fill:#b3b3b3;}</style></defs><path class="cls-1" d="M1288,910v2l-2,4-1,2c-13.45-8.57-31.75-20.54-51.49-35.43-28.45-21.46-52.53-41.6-62.08-52l-2.78-2a9.26,9.26,0,0,0-5.37-1.76,8,8,0,0,0-6.57,3.27,8.17,8.17,0,0,0,1.25,10.62c.3.44.68.94,1.12,1.48,7.37,9,30.42,30.74,61.64,54.29,20.44,15.43,40.71,28,54.28,36.54l-3,4-1,1h0c-13.52-7.89-37.08-18.47-61.77-37.09-30.91-23.32-56-44.65-63.62-53.75l-.6-.43a10.77,10.77,0,0,0-6.28-2.11,7.37,7.37,0,0,0-7,10.68,9.41,9.41,0,0,0,2.17,3.54c7.36,8.95,32.63,30.47,63.85,54,26.36,19.89,50.12,34.83,63.24,42.14h0l-1,2-2,4c-1-.44-1.79-.83-3-1.42-12.34-6.1-34.49-19.54-59.1-36.12-27.72-18.69-50.56-36-59-44.39l-2-1.38a8.78,8.78,0,0,0-12.22,2.32,8.53,8.53,0,0,0,1.48,11.3c6.72,8.05,29.76,27.41,58.23,48.6C1209.56,960.17,1232.5,974,1243,979l4-2-5,9c-13.33-4.26-30-11.81-49.19-21.59-8.84-4.51-18.07-9.52-27.49-14.95-27.51-15.88-51.09-32.23-66.46-45.47h0c-12.53-8.49-24.2-25.81-30.49-47.48a108.59,108.59,0,0,1-4.47-30.39c0-.8.08-1.62.1-2.44v0c0-.56,0-1.12,0-1.68v-.06a78.81,78.81,0,0,0-.44-8.29,83.05,83.05,0,0,0-1.46-9.16c-.23-1-.47-2-.73-3-.31-1.2-.65-2.37-1-3.5-.1-.33-.2-.65-.31-1q-.84-2.49-1.82-4.74s0,0,0-.06c-8.6-21.78-23.82-46.77-44.25-70.9q-3.16-3.74-6.38-7.31L987,693.13l-.44-.44L638.09,339.83c-9.9-10-9.93-25.92-.08-35.18l27.75-26.09c10-9.41,26.18-8.19,35.48,2.67l349.45,408a3.11,3.11,0,0,1,.23.28h0c6.79,7.91,12.79,17.91,19,29.24.1,0,.65,1.65.75,1.67a70.58,70.58,0,0,0,18,21c4,3,13.92,8.27,22.67,10.64a13.54,13.54,0,0,0,3.38.4l.49,0a10.6,10.6,0,0,1,1.26.17c9.35,1.82,20.38,7.63,30.32,16.68a81.75,81.75,0,0,1,8.27,8.69l.17,0c11.54,15.6,29.26,38.31,51.44,60.42,8.06,8,12,11.65,21,20,1.31,1.21,5.7,5.82,7,7C1253.81,882.94,1271.63,897.42,1288,910Z" transform="translate(-630.64 -266.76)"/><path class="cls-2" d="M1263.5,951l-.32.51-2.61,4.14c-1-.44-2.08-.95-3.26-1.54-9.85-4.87-26-14.42-44.57-26.51-4.7-3.05-9.56-6.27-14.53-9.61-16.69-11.25-31.6-22-42.68-30.59a198.46,198.46,0,0,1-16.36-13.8l-2-1.38a8.82,8.82,0,0,0-13.35,4.64h0a8.66,8.66,0,0,0-.11,4.57,8.42,8.42,0,0,0,1.47,3.06c6.45,11.28,27.72,31.9,55.14,52.65,28.37,21.46,54.83,36.63,66.93,39l.26.19-2.55,4c-13.33-4.26-30.66-11.68-49.84-21.46-8.84-4.51-18.07-9.52-27.49-15-27.51-15.88-51.09-32.23-66.46-45.47h0c-12.53-8.49-24.2-25.81-30.49-47.48a108.59,108.59,0,0,1-4.47-30.39c0-.8.08-1.62.1-2.44v0c0-.56,0-1.12,0-1.68v-.06a78.81,78.81,0,0,0-.44-8.29,83.05,83.05,0,0,0-1.46-9.16c-.23-1-.47-2-.73-3-.31-1.2-.65-2.37-1-3.5-.1-.33-.2-.65-.31-1q-.84-2.49-1.82-4.74s0,0,0-.06q-2.84-7.19-6.62-14.79c-8.93-17.94-21.69-37.29-37.63-56.11q-3.16-3.74-6.38-7.31l-11.49-11.63-9.07-9.19-.44-.44L640.37,334.37c-9.9-10-9.93-25.92-.08-35.18L665.7,275.3l2.34-2.2c10-9.41,26.18-8.19,35.48,2.67L1047,680a56.74,56.74,0,0,1,4,5l1,1.29,2,2.71a182.39,182.39,0,0,1,18.25,24.33c.1,0,.65,1.65.75,1.67a70.58,70.58,0,0,0,18,21c4,3,13.92,8.27,22.67,10.64a13.54,13.54,0,0,0,3.38.4l.49,0a10.6,10.6,0,0,1,1.26.17,55.14,55.14,0,0,1,17.35,7A142,142,0,0,0,1119.7,775c-23.89,36.51-27.42,76.47-7.87,89.27,8.16,5.34,19.05,5.1,30.71.35,11.21,11.15,29.12,26.41,50,42.24C1224.84,931.24,1253.81,949.11,1263.5,951Z" transform="translate(-630.64 -266.76)"/><path class="cls-2" d="M1277,929l-.94,2.14-1.29,2-.77.82c-13.52-7.89-37.8-19.93-62.49-38.55-20.84-15.73-39-30.55-51-41.32,1.48-1.12,3-2.31,4.44-3.56,10.89,10,25.36,21.95,41.65,34.27,31.47,23.81,59.82,41.4,70.17,44h0C1276.87,928.9,1276.92,929,1277,929Z" transform="translate(-630.64 -266.76)"/><path class="cls-2" d="M1290,908l-1,2-1.72,3.39c-13.45-8.57-31.75-21.39-51.49-36.28-22.61-17.05-42.09-33-53.91-44q1.71-2.11,3.37-4.34c9.63,9.37,21.52,20.08,34.69,31.1,32.22,27,61.26,46.74,69.69,47.81Z" transform="translate(-630.64 -266.76)"/><path class="cls-3" d="M1052,686.29c-35-14.88-125.17-96.8-222.06-203.68C757.55,402.8,698.67,328.1,668.75,280.25a6.68,6.68,0,0,1,1.36-8.66l1.45-1.22a6,6,0,0,1,.93-.66c8.11-4.71,22.68-4.5,31,6.06L1047,680a56.74,56.74,0,0,1,4,5Z" transform="translate(-630.64 -266.76)"/><path class="cls-3" d="M1193.42,816.63c-1.72-1.9-3.41-3.79-5.05-5.66Q1190.85,813.78,1193.42,816.63Z" transform="translate(-630.64 -266.76)"/><path class="cls-3" d="M1134.6,842.23a7,7,0,0,0-1.3,4.46c0,.1,0,.2,0,.3a2.43,2.43,0,0,0,0,.38c0,.11,0,.23.05.34a8.76,8.76,0,0,0,.62,2.13,9.41,9.41,0,0,0,2.17,3.54,112.14,112.14,0,0,0,9.62,9.78c11.79,10.92,31.42,27,54.23,44.24,26.36,19.89,50.15,36.08,63.27,43.39l.22.17,0,0c-9.69-1.9-38.66-19.77-70.91-44.17a573.57,573.57,0,0,1-44.88-37.25,12.13,12.13,0,0,0-11.48-2.84c-9.24,2.5-17.73,1.86-24.4-2.5-19.55-12.8-16-52.76,7.87-89.27a142,142,0,0,1,16.45-20.72,79.92,79.92,0,0,1,13,9.67,81.75,81.75,0,0,1,8.27,8.69l.17,0c1.53,2.06,3.16,4.25,4.9,6.55l1.3,1.71.48.62,1.47,1.92.37.48c1.21,1.57,2.47,3.18,3.76,4.82.71.9,1.44,1.82,2.18,2.74l1.12,1.4c.75.93,1.51,1.88,2.29,2.83s1.56,1.91,2.36,2.88c3.32,4,6.85,8.19,10.57,12.43h0c1.64,1.87,3.33,3.76,5.05,5.66,4.9,5.42,10.11,10.91,15.58,16.37,8.06,8,12,11.65,21,20,1.31,1.21,5.7,5.82,7,7,18.42,16.87,35.74,34.67,52.63,47.71-8.43-1.07-37.47-20.83-69.69-47.81-11.43-9.57-21.9-18.9-30.76-27.33a5,5,0,0,0-7.27.53l0,0c-3.39-3.12-6.15-5.84-8.17-8l-2.78-2a9.26,9.26,0,0,0-5.37-1.76,8,8,0,0,0-6.57,3.27,7.55,7.55,0,0,0-.65,1.08c-.08.16-.15.33-.22.5a5.31,5.31,0,0,0-.2.56,8.09,8.09,0,0,0-.33,1.67,3.39,3.39,0,0,0,0,.45.57.57,0,0,1,0,.13c0,.28,0,.57,0,.85a7.91,7.91,0,0,0,.13.85,2.74,2.74,0,0,0,.09.39c.07.28.16.56.26.84s.1.27.16.4h0c.12.26.24.52.38.77a9.05,9.05,0,0,0,1.62,2.12c.3.44.68.94,1.12,1.48,1.9,2.3,4.83,5.46,8.69,9.29,11.1,11,29.77,27.52,53,45,20.32,15.34,40.2,29.28,53.76,37.85-10.35-2.61-38.7-20.2-70.17-44-14.28-10.8-27.16-21.34-37.46-30.49a6.73,6.73,0,0,0-8.54-.29l-.09.07a143.83,143.83,0,0,1-12.61-12.43l-.6-.43a10.77,10.77,0,0,0-6.28-2.11A7.72,7.72,0,0,0,1134.6,842.23Z" transform="translate(-630.64 -266.76)"/><path class="cls-3" d="M1247.22,976.18c-12.1-2.39-38.56-17.56-66.93-39-27.42-20.75-48.69-41.37-55.14-52.65a8.76,8.76,0,0,0,1.25,1.34c6.72,8,29.76,27.41,58.23,48.6,27.21,20.26,51.41,36.24,61.91,41.22Z" transform="translate(-630.64 -266.76)"/><path class="cls-3" d="M1123.79,876.88a8.66,8.66,0,0,0-.11,4.57c-.72-2-.75-3.47,0-4.44A.71.71,0,0,1,1123.79,876.88Z" transform="translate(-630.64 -266.76)"/><path class="cls-3" d="M1067,753.71a32.69,32.69,0,0,1-13.16,18.2c-8.93-17.94-21.69-37.29-37.63-56.11q-3.16-3.74-6.38-7.31l-11.49-11.63a75.6,75.6,0,0,1,24.23,2.51C1053,707.5,1072.87,731.83,1067,753.71Z" transform="translate(-630.64 -266.76)"/></svg>