<svg id="Layer_2" data-name="Layer 2" xmlns="http://www.w3.org/2000/svg" viewBox="0 0 1183.05 362.23"><defs><style>.cls-1{fill:#bfe0e0;opacity:0.6;}.cls-2{fill:none;stroke:#bfe5e6;stroke-miterlimit:10;stroke-width:13px;}</style></defs><path id="front_wall" data-name="front wall" class="cls-1" d="M1835.65,891.34c0,105.39-264.44,190.83-590.65,190.83S654.35,996.73,654.35,891.34v-.13h-.09V720.13h0c.64,30.58,23.52,59.44,63.68,85,59,37.55,155.35,68,273.24,86.09,76.87,11.84,162.9,18.46,253.72,18.46s176.85-6.62,253.72-18.46C1616.58,873.06,1713,842.64,1772,805.06c40.11-25.53,63-54.38,63.59-84.93h0V888.05C1835.62,889.15,1835.65,890.24,1835.65,891.34Z" transform="translate(-654.26 -719.94)"/><g id="top_front"><path class="cls-2" d="M1830.81,719.94c0,105.39-261.71,190.83-584.56,190.83S661.69,825.33,661.69,719.94" transform="translate(-654.26 -719.94)"/></g></svg>