<svg xmlns="http://www.w3.org/2000/svg" viewBox="0 0 1076.55 571.27"><defs><style>.cls-1{fill:#532f2d;stroke:#532f2d;stroke-width:3px;}.cls-1,.cls-3,.cls-4{stroke-miterlimit:10;}.cls-2,.cls-3{fill:#fff;}.cls-3{stroke:#000;}.cls-4{fill:#6d332d;stroke:#a36b53;stroke-width:20px;}.cls-5{fill:#8f4747;}</style></defs><g id="Layer_3" data-name="Layer 3"><path class="cls-1" d="M1557,704.51c0,56.69-6.26,103.52-14.35,110.65a1,1,0,0,0-.27.32,79.37,79.37,0,0,1-15,18.51l0,0c-32.68,30.2-95.57,45.5-165,36q-14.43-2-28.09-5.18l-.11,0q-8.3-2.33-17-4.5c-41.81-12.48-71.21-14.7-111.19-20h-.08c-46-3.16-101-7.37-176-7.37-46.2,0-79,5.27-128,11.57l-.08,0c-63,11.58-108.22,29.47-190.46,29.47-91.95,0-170.65-26.82-202.88-64.81A68.94,68.94,0,0,1,493,780.74v0c-5.26-18.21-8.88-55-9-97.5-1.24-13.3-.09-54.94.5-63.72,2.41,11.14,9.06,38.11,17.41,47,32.5,36.08,111.86,61.56,204.58,61.56,83,0,128.57-17,192.1-28,49.41-6,82.47-11,129.07-11,75.65,0,131.09,4,177.47,7,40.34,5,70,7.11,112.16,19q8.76,2.07,17.12,4.27l.12,0c9.16,2,18.62,3.67,28.32,4.92,70,9,133.41-5.55,166.36-34.23l0,0c13.06-11.37,21.33-25,23.32-40.21a54.49,54.49,0,0,0,.45-6.74c0-1.86-.09-3.76-.25-5.68,0-.23,0-.46-.06-.69-1.17-13.11-5.6-27.46-13-42.64.3,0,12.76,28.2,12.79,28.46,4,31.82,3.22,13.31,4.32,66.34,0,0,0-.09,0-.13v.06C1556.94,693.91,1557,699.17,1557,704.51Z" transform="translate(-481.95 -304.29)"/></g><g id="Layer_2" data-name="Layer 2"><path class="cls-2" d="M1495.78,656a66.34,66.34,0,0,0,8-12.14q-1.05,2.24-2.31,4.36A50.93,50.93,0,0,1,1495.78,656Z" transform="translate(-481.95 -304.29)"/><path d="M1509.48,618.49a54.49,54.49,0,0,1-.45,6.74c-2,15.24-10.17,28.84-23.12,40.21a54.74,54.74,0,0,0,16-17c5.22-8.79,7.68-18.89,7.59-30Z" transform="translate(-481.95 -304.29)"/><path class="cls-3" d="M1509.48,618.49c0-1.86-.09-3.76-.25-5.68A51.4,51.4,0,0,1,1509.48,618.49Z" transform="translate(-481.95 -304.29)"/><path class="cls-4" d="M1546,643.49a54.49,54.49,0,0,1-.45,6.74c-2,15.24-10.11,28.84-23,40.21l0,0c-32.5,28.68-95,43.22-164,34.23q-14.36-1.87-27.93-4.92l-.11,0q-8.25-2.21-16.88-4.27c-41.59-11.86-70.82-14-110.59-19-45.73-3-100.39-7-175-7-45.94,0-78.54,5-127.26,11-62.64,11-107.62,28-189.4,28C620,728.5,541.7,703,509.66,666.94c-9-9.69-14.82-20.86-16.78-33.2-8.48-53.45,45.06-106,137-120.74,2.39-.39,10.13-1.63,16.64-2.64,5.37-.83,12.79-1.53,18.16-2.36,12.92-2,20.26-3.28,28.83-5,34.8-7,45.75-12,72.58-20,79.09-23.52,89.21-33.5,126.27-62,16.9-13,30.82-33,37.78-41s14-16.36,19.53-22.57c24.61-27.66,64.72-42.8,109.72-42.6,66.44-5.08,168.49,25.63,270.41,86.45,124.73,74.44,210.21,170.65,215.93,235.84,0,.23,0,.46.06.69C1545.91,639.73,1546,641.63,1546,643.49Z" transform="translate(-481.95 -304.29)"/></g><g id="Layer_6" data-name="Layer 6"><path class="cls-5" d="M1381,595.41a25.62,25.62,0,0,1-.29,3.7c-1.26,8.35-6.5,15.8-14.78,22h0c-20.9,15.72-61.12,23.69-105.51,18.76-6.15-.68-12.15-1.59-18-2.69l-.07,0c-3.54-.81-7.16-1.58-10.86-2.34-26.76-6.5-45.56-7.66-71.14-10.4-29.42-1.64-64.58-3.83-112.56-3.83-29.56,0-50.53,2.74-81.86,6-40.3,6-69.23,15.34-121.84,15.34-58.8,0-109.14-14-129.75-33.74-5.78-5.31-9.54-11.43-10.8-18.19-5.45-29.29,29-58.08,88.11-66.17l10.7-1.45c3.46-.45,8.23-.83,11.68-1.29,8.32-1.1,13-1.8,18.55-2.74,22.38-3.84,29.43-6.58,46.69-11,50.87-12.89,57.38-18.36,81.22-34,10.87-7.12,19.83-18.08,24.3-22.47s9-9,12.56-12.37c15.84-15.16,41.64-23.45,70.58-23.34,42.74-2.79,108.39,14,174,47.37,80.24,40.8,135.22,93.53,138.9,129.25,0,.13,0,.25,0,.38C1380.94,593.35,1381,594.39,1381,595.41Z" transform="translate(-481.95 -304.29)"/></g></svg>