<svg xmlns="http://www.w3.org/2000/svg" viewBox="0 0 1076.55 572.77"><defs><style>.cls-1{fill:#5f210f;}.cls-2{fill:#5d2511;stroke:#5d2511;stroke-width:3px;}.cls-2,.cls-4,.cls-5{stroke-miterlimit:10;}.cls-3,.cls-4{fill:#fff;}.cls-4{stroke:#000;}.cls-5{fill:#700;stroke:#b16959;stroke-width:13px;}.cls-6{fill:#8f2127;}</style></defs><g id="Layer_3" data-name="Layer 3"><path class="cls-1" d="M503.1,571.13a92.26,92.26,0,0,0-12.21,19.5c2.71-13.14,6-20.88,9.61-20.88A3.63,3.63,0,0,1,503.1,571.13Z" transform="translate(-481.95 -302.79)"/><path class="cls-2" d="M1557,704.51c0,56.69-6.26,103.52-14.35,110.65a1,1,0,0,0-.27.32,79.37,79.37,0,0,1-15,18.51l0,0c-32.68,30.2-95.57,45.5-165,36q-14.43-2-28.09-5.18l-.11,0q-8.3-2.33-17-4.5c-41.81-12.48-71.21-14.7-111.19-20h-.08c-46-3.16-101-7.37-176-7.37-46.2,0-79,5.27-128,11.57l-.08,0c-63,11.58-108.22,29.47-190.46,29.47-91.95,0-170.65-26.82-202.88-64.81A68.94,68.94,0,0,1,493,780.74v0c-5.26-18.21-8.88-55-9-97.5-1.24-13.3-.09-54.94.5-63.72,2.41,11.14,9.06,38.11,17.41,47,32.5,36.08,111.86,61.56,204.58,61.56,83,0,128.57-17,192.1-28,49.41-6,82.47-11,129.07-11,75.65,0,131.09,4,177.47,7,40.34,5,70,7.11,112.16,19q8.76,2.07,17.12,4.27l.12,0c9.16,2,18.62,3.67,28.32,4.92,70,9,133.41-5.55,166.36-34.23l0,0c13.06-11.37,21.33-25,23.32-40.21a54.49,54.49,0,0,0,.45-6.74c0-1.86-.09-3.76-.25-5.68,0-.23,0-.46-.06-.69-1.17-13.11-5.6-27.46-13-42.64.3,0,12.76,28.2,12.79,28.46,4,31.82,3.22,13.31,4.32,66.34,0,0,0-.09,0-.13v.06C1556.94,693.91,1557,699.17,1557,704.51Z" transform="translate(-481.95 -302.79)"/></g><g id="Layer_2" data-name="Layer 2"><path class="cls-3" d="M1495.78,656a66.34,66.34,0,0,0,8-12.14q-1.05,2.24-2.31,4.36A50.93,50.93,0,0,1,1495.78,656Z" transform="translate(-481.95 -302.79)"/><path d="M1509.48,618.49a54.49,54.49,0,0,1-.45,6.74c-2,15.24-10.17,28.84-23.12,40.21a54.74,54.74,0,0,0,16-17c5.22-8.79,7.68-18.89,7.59-30Z" transform="translate(-481.95 -302.79)"/><path class="cls-4" d="M1509.48,618.49c0-1.86-.09-3.76-.25-5.68A51.4,51.4,0,0,1,1509.48,618.49Z" transform="translate(-481.95 -302.79)"/><path class="cls-5" d="M1549.48,638.49a54.49,54.49,0,0,1-.45,6.74c-2,15.24-10.17,28.84-23.12,40.21l0,0c-32.68,28.68-95.57,43.22-165,34.23q-14.43-1.87-28.09-4.92l-.11,0q-8.3-2.21-17-4.27c-41.83-11.86-71.23-14-111.23-19-46-3-101-7-176-7-46.21,0-79,5-128,11-63,11-108.24,28-190.5,28-92,0-170.65-25.48-202.88-61.56-9-9.69-14.91-20.86-16.88-33.2C481.71,575.29,535.56,522.76,628,508c2.4-.39,10.19-1.63,16.74-2.64,5.4-.83,12.86-1.53,18.26-2.36,13-2,20.38-3.28,29-5,35-7,46-12,73-20,79.55-23.52,89.73-33.5,127-62,17-13,31-33,38-41s14.09-16.36,19.64-22.57c24.76-27.66,65.1-42.8,110.36-42.6,66.83-5.08,169.47,25.63,272,86.45,125.46,74.44,211.44,170.65,217.19,235.84,0,.23,0,.46.06.69C1549.39,634.73,1549.48,636.63,1549.48,638.49Z" transform="translate(-481.95 -302.79)"/></g><g id="Layer_6" data-name="Layer 6"><path class="cls-6" d="M1428,611.66a35.1,35.1,0,0,1-.36,4.79c-1.57,10.81-8.09,20.47-18.4,28.54h0c-26,20.36-76.09,30.68-131.35,24.3q-11.49-1.34-22.36-3.5l-.09,0q-6.6-1.56-13.52-3c-33.3-8.42-56.71-9.91-88.55-13.46-36.62-2.13-80.39-5-140.12-5-36.79,0-62.89,3.55-101.91,7.81C861.17,659.93,825.15,672,759.66,672c-73.2,0-135.86-18.09-161.52-43.69-7.19-6.88-11.87-14.81-13.44-23.57-6.79-37.94,36.08-75.22,109.68-85.7,1.91-.27,8.11-1.16,13.32-1.87,4.3-.59,10.24-1.09,14.54-1.68,10.35-1.42,16.23-2.32,23.09-3.55,27.87-5,36.63-8.52,58.12-14.19,63.33-16.7,71.43-23.78,101.11-44,13.53-9.22,24.68-23.42,30.25-29.1s11.22-11.61,15.64-16c19.71-19.63,51.82-30.37,87.86-30.23,53.2-3.61,134.92,18.19,216.53,61.36,99.88,52.83,168.34,121.12,172.91,167.39,0,.16,0,.33,0,.49C1427.93,609,1428,610.34,1428,611.66Z" transform="translate(-481.95 -302.79)"/></g></svg>