<svg id="Layer_2" data-name="Layer 2" xmlns="http://www.w3.org/2000/svg" viewBox="0 0 330.04 895.46"><defs><style>.cls-1{fill:gray;}.cls-2{fill:#999;}.cls-3{fill:#b3b3b3;}</style></defs><path class="cls-1" d="M1129.44,956.65l-.89,1.79-3.58,2.68-1.79,1.34c-8.19-13.68-19.21-32.57-30.2-54.72-15.83-31.93-28.36-60.71-32.24-74.3l-1.59-3a9.25,9.25,0,0,0-4-4,8,8,0,0,0-7.34,0,8.17,8.17,0,0,0-3.64,10.06c.07.52.19,1.14.34,1.82,2.59,11.3,13.45,41.1,30.83,76.14,11.38,22.94,23.89,43.24,32.2,57l-4.48,2.24-1.34.45h0c-8.56-13.11-24.9-33.12-38.65-60.82-17.2-34.68-30.08-65-32.84-76.53l-.34-.66a10.84,10.84,0,0,0-4.67-4.69,7.36,7.36,0,0,0-11,6.42c-.24.7-.11,2.1.35,4.14,2.58,11.29,15.55,41.85,32.93,76.88,14.67,29.58,29.24,53.57,37.7,66h0l-1.79,1.34-3.58,2.69c-.69-.84-1.23-1.55-2-2.6-8.31-11-22.1-32.91-36.69-58.75-16.43-29.12-29.11-54.8-32.94-66.12l-1.19-2.14a8.8,8.8,0,0,0-12-3.4,8.53,8.53,0,0,0-3.73,10.77c2.4,10.21,14.35,37.83,30.32,69.52,15.27,30.3,29.59,53,36.75,62.1h4.48l-8.5,5.81c-10-9.77-21.56-24-34.34-41.32-5.88-8-11.9-16.6-17.89-25.67-17.5-26.51-31.27-51.68-39.09-70.4,0,0,0,0,0,0-7.41-13.2-10.09-33.91-6-56.1a108.5,108.5,0,0,1,9.6-29.18c.4-.7.8-1.42,1.18-2.14l0,0c.26-.49.52-1,.77-1.49l0,0a80,80,0,0,0,3.32-7.61,83.26,83.26,0,0,0,2.79-8.85c.26-1,.49-2,.7-3,.26-1.21.48-2.41.66-3.58,0-.34.11-.67.15-1,.24-1.73.41-3.42.5-5v-.07c2.05-23.33-.38-52.48-7.85-83.21q-1.15-4.76-2.43-9.39L957.31,628l-.2-.59L803.38,155.93c-4.37-13.4,2.72-27.63,15.67-31.5l36.49-10.92c13.17-3.93,27.08,4.4,30.54,18.27L1016,653.05c0,.12.06.23.08.36h0c2.53,10.11,3.42,21.74,3.94,34.67.09,0-.15,1.76-.07,1.83a70.35,70.35,0,0,0,6.7,26.83c2.23,4.47,8.74,13.63,15.51,19.66a13.26,13.26,0,0,0,2.84,1.87l.42.26a10.73,10.73,0,0,1,1,.71c7.55,5.81,14.81,16,19.65,28.49a81.46,81.46,0,0,1,3.51,11.47l.17,0c3.34,19.11,9,47.35,19,77,3.61,10.8,5.5,15.78,9.83,27.28.63,1.67,2.49,7.76,3.12,9.4C1111,917.15,1120.43,938.08,1129.44,956.65Z" transform="translate(-802.09 -108.57)"/><path class="cls-2" d="M1089.18,982.36l-.51.32-4.19,2.53c-.69-.84-1.43-1.78-2.23-2.84-6.63-8.76-16.75-24.5-28-43.65-2.84-4.83-5.74-9.88-8.69-15.09-9.9-17.53-18.42-33.81-24.48-46.46a196.62,196.62,0,0,1-8.46-19.66l-1.2-2.14a8.81,8.81,0,0,0-14-1.83h0a8.72,8.72,0,0,0-2.14,4,8.23,8.23,0,0,0,0,3.39c.72,13,10.51,40.94,25.75,71.76,15.76,31.89,32.64,57.3,42.39,64.85l.15.28-4.09,2.48c-10-9.78-22.19-24.17-35-41.5-5.89-8-11.9-16.6-17.89-25.67-17.5-26.51-31.27-51.69-39.09-70.4,0,0,0,0,0,0-7.41-13.2-10.1-33.91-6-56.11a108.54,108.54,0,0,1,9.6-29.17c.4-.7.79-1.42,1.18-2.14v0c.26-.49.52-1,.77-1.49l0-.06a77.85,77.85,0,0,0,3.32-7.61,84.71,84.71,0,0,0,2.79-8.84c.25-1,.49-2,.7-3,.26-1.21.48-2.41.65-3.58.06-.34.11-.68.16-1,.24-1.74.4-3.42.49-5.05,0,0,0,0,0-.07.46-5.13.69-10.54.7-16.19,0-20-2.71-43-8.54-67q-1.17-4.75-2.44-9.39l-5.07-15.54-4-12.28-.19-.59L807.87,152.06c-4.37-13.39,2.71-27.62,15.67-31.49l33.41-10,3.08-.92c13.16-3.93,27.08,4.39,30.53,18.27l126.28,515.2a56.28,56.28,0,0,1,1.34,6.26s.13.7.29,1.59c.26,1.43.61,3.32.61,3.33a182.27,182.27,0,0,1,5.43,29.93c.08,0-.16,1.76-.08,1.83a70.71,70.71,0,0,0,6.7,26.83c2.24,4.47,8.75,13.63,15.51,19.66a13.7,13.7,0,0,0,2.85,1.87l.42.26a9.21,9.21,0,0,1,1,.71,55.32,55.32,0,0,1,12.38,14,141.82,141.82,0,0,0-24,11.17c-37.71,22-58.75,56.12-47,76.31,4.91,8.43,14.75,13.09,27.31,14.06,5,15,14.22,36.65,25.85,60.17C1063.46,947.38,1081.37,976.33,1089.18,982.36Z" transform="translate(-802.09 -108.57)"/><path class="cls-2" d="M1111.1,968.72l-1.79,1.49-2.07,1.25-1.06.39c-8.56-13.11-24.88-34.74-38.63-62.44-11.6-23.39-21.23-44.78-27.13-59.78,1.83-.34,3.69-.73,5.57-1.19,5.27,13.79,12.85,31,21.91,49.28,17.49,35.38,35,63.79,43.06,70.76l0,0C1111,968.57,1111.05,968.64,1111.1,968.72Z" transform="translate(-802.09 -108.57)"/><path class="cls-2" d="M1132.13,955.76l-1.79,1.34-3.06,2.26c-8.19-13.68-18.82-33.33-29.81-55.48-12.59-25.37-22.85-48.39-28.53-63.45,1.65-.75,3.3-1.55,5-2.37,4.42,12.69,10.26,27.58,17.11,43.33,16.74,38.55,33.87,69.21,40.93,73.94C1132,955.48,1132.06,955.62,1132.13,955.76Z" transform="translate(-802.09 -108.57)"/><path class="cls-3" d="M1018.47,651C993.81,622,949.85,508.39,911,369.45c-29-103.75-48.22-196.91-53.57-253.08a6.7,6.7,0,0,1,5.1-7.14l1.84-.44a6.08,6.08,0,0,1,1.12-.18c9.36-.58,22.3,6.13,25,19.31l126.28,515.2a56.28,56.28,0,0,1,1.34,6.26S1018.31,650.08,1018.47,651Z" transform="translate(-802.09 -108.57)"/><path class="cls-3" d="M1086.64,830.83c-.68-2.47-1.35-4.92-2-7.32Q1085.62,827.13,1086.64,830.83Z" transform="translate(-802.09 -108.57)"/><path class="cls-3" d="M1022.59,827.4a7,7,0,0,0-3.16,3.41,2.36,2.36,0,0,0-.12.28,1.83,1.83,0,0,0-.14.35c0,.11-.08.22-.11.32a9.31,9.31,0,0,0-.4,2.19c-.24.69-.1,2.1.36,4.13a109.92,109.92,0,0,0,4.23,13.06c5.65,15,16,38.24,28.7,63.83,14.67,29.58,28.7,54.7,37.16,67.11l.12.25,0,0c-7.81-6-25.72-35-43.65-71.23a574,574,0,0,1-23.46-53.39,12.11,12.11,0,0,0-9-7.68c-9.38-1.9-16.69-6.27-20.7-13.16-11.76-20.19,9.28-54.35,47-76.31a141.82,141.82,0,0,1,24-11.17,80.07,80.07,0,0,1,7.27,14.46,81.06,81.06,0,0,1,3.51,11.47l.17,0q.66,3.79,1.45,8.05c.12.69.26,1.39.4,2.11,0,.25.09.51.15.77.14.78.3,1.57.45,2.37,0,.2.07.4.12.6.38,1.94.78,4,1.2,6,.24,1.12.48,2.27.73,3.43.11.57.24,1.16.37,1.75.26,1.17.51,2.36.78,3.56s.54,2.4.83,3.63c1.16,5.09,2.46,10.39,3.89,15.84v0c.63,2.4,1.3,4.85,2,7.32,2,7,4.16,14.28,6.61,21.61,3.61,10.8,5.5,15.78,9.83,27.28.63,1.67,2.49,7.76,3.13,9.4,8.92,23.33,16.45,47,25.72,66.21-7.06-4.73-24.19-35.39-40.93-73.94-6-13.67-11.13-26.7-15.29-38.2a4.94,4.94,0,0,0-6.72-2.78l0,0c-1.64-4.31-2.89-8-3.71-10.85l-1.59-3a9.29,9.29,0,0,0-4-4,8,8,0,0,0-7.34,0,7.07,7.07,0,0,0-1.06.67l-.42.35c-.15.13-.29.27-.43.41a7.84,7.84,0,0,0-1,1.35,2.16,2.16,0,0,0-.22.39.41.41,0,0,1-.07.11c-.13.25-.24.52-.35.78s-.19.54-.26.82a2.74,2.74,0,0,0-.09.39,7.89,7.89,0,0,0-.15.87c0,.14,0,.28,0,.43h0a8,8,0,0,0,0,.85,8.61,8.61,0,0,0,.5,2.62c.07.53.19,1.15.34,1.83.67,2.91,1.87,7,3.61,12.2,5,14.8,14.31,37.93,27.22,63.93,11.3,22.82,22.84,44.18,31.14,57.91-8.09-7-25.57-35.38-43.06-70.76-7.94-16.05-14.74-31.24-19.86-44a6.72,6.72,0,0,0-7.51-4.08l-.11,0a143.73,143.73,0,0,1-5.71-16.76l-.35-.65a10.71,10.71,0,0,0-4.67-4.7A7.71,7.71,0,0,0,1022.59,827.4Z" transform="translate(-802.09 -108.57)"/><path class="cls-3" d="M1063.36,997.59c-9.75-7.55-26.63-33-42.39-64.85-15.24-30.82-25-58.78-25.75-71.76a8.79,8.79,0,0,0,.51,1.76c2.41,10.21,14.35,37.83,30.33,69.52,15.27,30.29,29.76,55.42,36.92,64.57Z" transform="translate(-802.09 -108.57)"/><path class="cls-3" d="M997.41,853.55a8.72,8.72,0,0,0-2.14,4c.23-2.08.88-3.44,2-4A.59.59,0,0,1,997.41,853.55Z" transform="translate(-802.09 -108.57)"/><path class="cls-3" d="M1001.75,718a32.64,32.64,0,0,1-19.91,10.39c0-20-2.71-43-8.54-67q-1.17-4.75-2.44-9.39l-5.07-15.54a75.39,75.39,0,0,1,20.55,13.09C1009.88,670.38,1016.78,701.05,1001.75,718Z" transform="translate(-802.09 -108.57)"/></svg>