<svg id="Layer_2" data-name="Layer 2" xmlns="http://www.w3.org/2000/svg" viewBox="0 0 1182.37 557.38"><defs><style>.cls-1{fill:#a5d3d3;}.cls-2{fill:none;stroke:#bfe5e6;stroke-miterlimit:10;stroke-width:13px;}.cls-3{fill:#b59b91;}.cls-4{fill:#b9ab95;}</style></defs><path id="back_wall" data-name="back wall" class="cls-1" d="M1835.55,720.13h0V886c-1.53-29.43-23.7-57.24-62-82C1676.61,741.47,1476.34,698.5,1245,698.5s-431.74,43-528.62,105.61c-39.63,25.61-62,54.49-62,85.06h-.09v-169h0c0-.43,0-.87,0-1.3C654.26,613.44,918.7,528,1244.91,528s590.65,85.44,590.65,190.83C1835.56,719.26,1835.56,719.7,1835.55,720.13Z" transform="translate(-654.26 -522.79)"/><g id="top_back"><path class="cls-2" d="M661,720.13c0-105.4,261.72-190.84,584.57-190.84s584.56,85.44,584.56,190.84" transform="translate(-654.26 -522.79)"/></g><path id="bottom" class="cls-1" d="M1835.64,890.56v.07c-.64,30.55-23.48,59.4-63.59,84.93-59,37.58-155.38,68-273.33,86.15-76.87,11.84-162.9,18.46-253.72,18.46s-176.85-6.62-253.72-18.46c-117.89-18.14-214.22-48.54-273.24-86.09-40.16-25.55-63-54.41-63.68-85,0-.43,0-.87,0-1.3,0-30.63,22.33-59.57,62-85.22C813.26,741.5,1013.59,698.5,1245,698.5s431.61,43,528.53,105.55c38.33,24.75,60.5,52.56,62,82v2C1835.61,888.89,1835.63,889.72,1835.64,890.56Z" transform="translate(-654.26 -522.79)"/><path id="agar_bottom" class="cls-3" d="M1823.43,872.76v.07c-.62,30.45-22.93,59.21-62.11,84.66-57.65,37.46-151.78,67.78-267,85.88-73,11.47-154.38,18-240.33,18.38l-8.3,0q-8.33,0-16.58-.08l-8-.1c-79.37-1.14-154.58-7.55-222.47-18.22-115.16-18.09-209.25-48.39-266.9-85.82-39.23-25.47-61.58-54.24-62.21-84.72,0-.43,0-.87,0-1.3a61.11,61.11,0,0,1,.38-6.9,79.07,79.07,0,0,1-1.17-12.09c0-.48,0-1,0-1.43A78.91,78.91,0,0,1,670.41,835a66.13,66.13,0,0,0,3,14.37c7.57,23.41,28,45.54,58.93,65.62,57.64,37.43,151.74,67.73,266.9,85.82,75.08,11.79,159.12,18.39,247.82,18.39s172.75-6.6,247.84-18.39c115.21-18.1,209.34-48.42,267-85.89,30.14-19.57,50.29-41.1,58.28-63.85a71.23,71.23,0,0,0,2.14-7.35c.12,1.23.2,2.47.26,3.71v2.22c0,.93.07,1.85.08,2.77v.08c0,.74,0,1.48-.07,2.21a56.4,56.4,0,0,0,.42,9.18c.17,1.44.29,2.88.37,4.32v2C1823.4,871.09,1823.42,871.92,1823.43,872.76Z" transform="translate(-654.26 -522.79)"/><path id="agar_surface" class="cls-4" d="M1822.43,840.7v.06a59.07,59.07,0,0,1-1.7,12.85,65.65,65.65,0,0,1-2.14,7c-8,21.72-28.15,42.28-58.3,61-57.66,35.77-151.83,64.72-267.08,82-75.12,11.26-159.18,17.56-247.93,17.56s-172.81-6.3-247.92-17.56c-115.2-17.27-209.33-46.2-267-81.94-30.94-19.17-51.38-40.3-59-62.65a60.73,60.73,0,0,1-3-13.72c-.16-1.5-.25-3-.28-4.53,0-.4,0-.82,0-1.23,0-29.16,21.82-56.7,60.61-81.11,94.67-59.59,290.43-100.52,516.55-100.52S1667,698.8,1761.74,758.36c37.45,23.56,59.12,50,60.61,78v1.91C1822.4,839.11,1822.42,839.9,1822.43,840.7Z" transform="translate(-654.26 -522.79)"/></svg>