<?xml version="1.0" encoding="utf-8"?>
<!-- Generator: Adobe Illustrator 25.3.1, SVG Export Plug-In . SVG Version: 6.00 Build 0)  -->
<svg version="1.1" xmlns="http://www.w3.org/2000/svg" xmlns:xlink="http://www.w3.org/1999/xlink" x="0px" y="0px"
	 viewBox="0 0 2500 1250" style="enable-background:new 0 0 2500 1250;" xml:space="preserve">
<style type="text/css">
	.st0{display:none;}
	.st1{fill:#A5D3D3;}
	.st2{fill:none;stroke:#BFE5E6;stroke-width:11;stroke-miterlimit:10;}
	.st3{fill:#B1E2E5;stroke:#86B8BF;stroke-width:6;stroke-miterlimit:10;}
	.st4{fill:none;stroke:#BFE5E6;stroke-width:14;stroke-miterlimit:10;}
	.st5{fill:none;stroke:#BFE5E6;stroke-width:5;stroke-miterlimit:10;}
	.st6{fill:#9EBDBF;stroke:#9EBDBF;stroke-width:8;stroke-miterlimit:10;}
	.st7{opacity:0.4;fill:#9EBDBF;}
	.st8{opacity:0.7;fill:#E2F3F4;}
</style>
<g id="Layer_1" class="st0">
	
		<image style="display:inline;overflow:visible;" width="2048" height="2048" xlink:href="Petri-dish-2.jpg"  transform="matrix(1 0 0 1 226 -399)">
	</image>
</g>
<g id="Layer_2">
	<g id="XMLID_2_">
		<g>
			<ellipse class="st1" cx="1247" cy="720" rx="586" ry="196"/>
		</g>
		<g>
			<ellipse class="st2" cx="1247" cy="720" rx="586" ry="196"/>
		</g>
	</g>
	<g id="XMLID_1_">
		<g>
			<path class="st1" d="M1834.43,831.29c0.11,6.12,0.22,16.7-0.09,29.8c-0.53,22.64-0.87,37.11-3.06,48
				c-5.73,28.37-25.88,47.77-45.45,62.29c-24.65,18.29-51.69,32.95-98.04,51.07c-21.7,8.48-52.38,20.35-97.02,32.17
				c-53.85,14.25-95.24,19.73-132.26,24.51c-23.03,2.97-88.36,10.82-175.15,11.74c-72.65,0.78-126.81-3.66-174.13-7.66
				c-52.73-4.45-91.25-7.83-143.49-18.38c-57-11.51-95.38-24.49-113.87-31.15c-17.83-6.42-44.41-16.76-75.57-32.68
				c-43.54-22.25-62.94-38.49-75.58-51.06c-14.25-14.19-23.8-27.6-29.61-43.92c-4.19-11.76-5.15-21.43-5.62-26.55
				c-5.71-61.78-5.67-159.5-4.49-159.47c0.61,0.01,2.81,25.98,5,33.85c1.38,4.95,2.89,8.44,4.6,11.75
				c2.54,4.93,6.53,10.99,14.59,18.52c17.24,16.11,47.79,33.65,50.26,35.09c14.54,8.48,26.23,14.81,29.1,16.34
				c17.39,9.3,42.13,18.67,45.45,19.92c46.64,17.55,96.66,28.63,108.26,31.15c45.42,9.87,79.91,14.4,110.8,18.38
				c30.21,3.89,80.56,9.55,143.49,12.26c15.53,0.66,59.95,2.36,117.96,1.02c50.48-1.18,90.61-4.18,113.36-6.13
				c25.82-2.21,56.91-4.94,98.04-11.24c24.49-3.74,53.98-8.36,92.43-17.87c17.01-4.2,41.99-10.45,74.04-21.95
				c34.53-12.39,59.19-24.39,71.49-30.64c15.99-8.13,35.45-18.53,53.11-32.68c1.02-0.82,12.72-10.3,25.02-25.03
				c5.81-6.95,7.78-10.31,9.19-13.27c4.4-9.21,5.06-18.12,5.68-25.53c0.07-0.89,0.13-1.76,0.18-2.6
				c0.21,23.74,0.87,77.95,1.29,95.53C1834.35,827.48,1834.39,829.1,1834.43,831.29z"/>
			<path class="st1" d="M1833,720c0.04,0,0.42,4.75,0.05,11.34C1832.99,724.35,1832.97,720,1833,720z"/>
		</g>
		<g>
		</g>
	</g>
	<path class="st3" d="M1861.91,1020.4"/>
	<path class="st3" d="M1853.74,1021.43"/>
	<path class="st4" d="M668.04,724.74c-1.48-23.67,9.64-41.54,14.3-49.02c10.73-17.24,23.83-26.08,42.38-38.3
		c6.65-4.38,23.92-15.37,66.89-33.19c17.8-7.38,40.71-16.81,72.51-26.55c32.97-10.1,57.31-14.96,92.94-21.96
		c26.11-5.13,60.94-11.91,106.72-17.36c55.96-6.67,97.98-7.76,137.36-8.68c33.01-0.77,85.61-1.87,154.72,3.06
		c55.18,3.94,96.79,10.04,122.04,13.79c39.36,5.84,75.67,11.23,123.06,22.98c69.98,17.35,113.11,35.92,146.04,54.13
		c9.73,5.38,37.12,20.97,60.77,51.06c18.68,23.77,20.14,37.64,20.43,41.36c1.99,25.79-15.17,46.19-24,56.68
		c-15.44,18.35-32.39,27.64-40.85,32.17c-55.61,29.79-83.42,44.68-136.85,60.26c-44.99,13.11-78.44,18.15-124.09,25.02
		c-11.62,1.75-60.05,8.9-136.85,14.3c-69.81,4.9-127.8,8.98-205.28,5.11c-57.56-2.88-98.86-8.78-158.81-17.36
		c-86.83-12.42-121.92-22.29-136.34-26.55c-42.62-12.59-65.52-23.71-111.32-45.96c-22.07-10.72-40.7-20.8-58.21-40.34
		C684.52,767,669.62,749.9,668.04,724.74z"/>
	<path class="st5" d="M661,720c-0.49,7.93-0.77,27.75,9.6,45.6c5.97,10.28,14.6,18.53,14.6,18.53c4.37,4.18,9.19,7.85,12.99,10.74
		c3.33,2.54,6.62,4.89,10.53,7.53c2.03,1.38,18.59,12.55,32.94,20.4c29.61,16.21,66.81,27.6,72.42,29.29"/>
	<path class="st2" d="M1833.19,727.79c-3.9,10.34-7.79,20.68-11.69,31.02"/>
	<path class="st6" d="M836.04,845.26c0.81,0.35,3.3,1.42,6.68,2.78c1.64,0.66,3.14,1.25,4.68,1.84c7.21,2.79,17.35,6.39,29.23,9.59
		c0,0,0,0,0,0c5.63,1.73,11.65,3.47,18.13,5.19c23.01,6.12,40.87,9.17,64.85,13.28c17.67,3.02,31.53,4.91,59.23,8.68
		c30.47,4.15,45.7,6.22,65.36,8.17c33.18,3.29,58.33,4.35,64.34,4.6c19.82,0.8,35.27,0.68,81.19,0c46.38-0.69,69.57-1.04,92.94-2.04
		c68.46-2.94,119.52-8.73,132.26-10.21c26.32-3.06,55.16-6.47,93.45-13.79c37.99-7.26,59.94-11.45,89.87-21.96
		c33.29-11.68,60.9-25.71,79.66-35.23c15.71-7.98,28.61-15.16,37.79-20.43c-12.05-11.98-29.37-27.65-52.09-43.4
		c-14.11-9.79-43.03-28.43-102.13-50.55c-75.01-28.08-137.12-38.73-158.13-42.04c-43.39-6.85-80.9-8.08-155.91-10.55
		c-63.63-2.09-97.18-3.24-144.51,0c-70.08,4.8-120.5,15.88-131.74,18.38c-37.19,8.28-76.47,17.26-125.11,39.32
		c-24.11,10.94-55.25,24.75-90.38,52.09c-21.07,16.39-37,32.44-48.14,44.81c14.49,8.43,26.61,14.42,35.03,18.34
		C800.33,830.36,830.57,842.91,836.04,845.26z"/>
	<path class="st5" d="M806.43,840.15c4.77,2.37,12.08,5.73,21.4,8.92c1.32,0.45,3.03,1.02,14.82,4.49
		c14.16,4.17,24.55,7.14,25.05,7.29c13.76,3.93,20.63,5.89,23.16,6.54c7.89,2.02,18.86,4.13,40.43,8.51
		c10.41,2.11,15.14,3.01,19.66,3.83c11.51,2.08,18.72,3.11,28.34,4.6c17.66,2.74,27.09,4.52,35.23,5.87
		c23.68,3.94,44.93,5.72,74.3,8.17c21.33,1.78,54.09,4.09,94.21,5.11c9.98,0.25,22.4,0.33,47.23,0.51c39.84,0.29,59.76,0.43,79.66,0
		c18.31-0.39,44.27-1.34,75.83-3.83"/>
	<path class="st7" d="M728.74,819.84c-4.16,5.51-13.59,19.61-13.21,38.69c0.36,17.89,9.15,30.34,16.36,40.26
		c7.5,10.31,19.64,23.4,54.11,42.47c21.39,11.83,36.95,17.98,66.38,29.62c41.4,16.37,70.16,24.29,87.32,28.6
		c17.13,4.3,42.69,10.06,105.19,18.38c52.56,7,91.92,12.25,147.57,15.32c78.75,4.35,138.45,1.5,156.77,0.51
		c33.1-1.79,58.26-4.37,85.28-7.15c41.99-4.31,66.72-6.93,100.09-13.79c18.13-3.73,39.32-8.78,62.81-15.83
		c33.19-9.95,66.31-20.1,104.68-41.87c13.14-7.46,36.2-21.56,58.21-45.45c12.72-13.81,18.42-23.65,21.45-34.72
		c0.93-3.39,4.9-18.99,0-38.3c-2.62-10.34-6.88-18.16-10.08-23.12c-12.27,7.03-26.81,14.83-43.45,22.75
		c-9.92,4.72-27.16,12.57-49.24,20.98c-7.61,2.9-30.78,11.56-65.45,20.97c-10.15,2.76-44.96,12.01-100.15,20.99
		c-60.95,9.92-108.08,13.21-142.77,15.54c-22.53,1.52-58.13,3.49-102.05,3.97c-57.09,0.63-101.24-1.55-119.94-2.6
		c-77.14-4.34-135.36-12.78-158.62-16.37c-49.3-7.61-79.62-14.73-91.32-17.56c-40.15-9.73-67.18-19.01-73.03-21.04
		c-26.02-9.01-47.83-18.27-64.68-26.04C750.23,829.98,739.49,824.91,728.74,819.84z"/>
	<path class="st8" d="M729.32,934.11c-4.89-3.74-12.96-10.92-18.89-22.47c-3.18-6.19-11.05-21.49-6.13-39.83
		c0.9-3.36,5.71-21.26,17.87-26.04c17.57-6.9,38.15,18.41,69.45,43.91c0,0,57.3,46.71,134.3,71.49
		c59.35,19.1,97.74,12.78,98.04,19.4c0.43,9.31-74.89,31.58-153.19,18.89C804.27,988.7,756.13,956.04,729.32,934.11z"/>
</g>
</svg>
