<svg id="Layer_3" data-name="Layer 3" xmlns="http://www.w3.org/2000/svg" viewBox="0 0 1920 574.74"><defs><style>.cls-1{fill:#578e9f;}</style></defs><path class="cls-1" d="M0,619.67S70,638,100,626s25-34,54-42,69,0,69,0,29,7.89,48-3.56S299,548,319,540s45-10,57-8,20,15,35,20,28,2,44,6,44,22.68,44,22.68S520,592,556,592s70-2,87-6,39-3,47-12,14-14,28-14,35,3,44,8,48,37,48,37,14,12,22,12,55,5.15,67,13.07,49,48.26,61,53.6S982,708,998,708s39-10,58-8,36,18,48,14,30-8,39-22,27-20,27-20,28,4,44-4,52-35.08,57-45,43-56,52-61,34-16,49-14,40,26,52,24,36-9,51-16,26-7,37-7,48,17,48,17,24,18,48,15,54-3,72-15,33.67-30.44,52.33-34.72,51.34,6.28,60,0S1799,511,1815,506s49,17,71,18,34,1,34,1v555H0Z" transform="translate(0 -505.26)"/></svg>