<svg id="head" xmlns="http://www.w3.org/2000/svg" viewBox="0 0 980.24 998.61"><defs><style>.cls-1,.cls-2{fill:#dce1de;}.cls-1,.cls-4,.cls-5{stroke:#426968;stroke-miterlimit:10;stroke-width:30px;}.cls-3,.cls-5{fill:#426968;}.cls-4{fill:none;}</style></defs><g id="ear_right"><path class="cls-1" d="M955.43,909.21a355.22,355.22,0,0,0,38.18-12.47c13.34-5.2,23.84-10.33,44.29-20.38,28.6-14.06,34.54-18,51.34-24.29,22.63-8.52,31.69-8.91,38.12-8.47,8.62.59,17.51,1.9,32.89,8.46,26.25,11.21,40.65,23.68,47.6,28.67a93.44,93.44,0,0,1,22.69,22.32c4,5.73,5.82,9.9,6.81,14.1,1.64,7,.68,12.73-.25,18a70.07,70.07,0,0,1-7.3,20.9c-7,13.08-17.25,23-30.47,33.58-17.4,14-36.91,29.61-67.58,41.06-11.14,4.17-22.83,8.42-39.13,9.46a114.39,114.39,0,0,1-37-3.52c-12-3.16-19.93-5.28-37.77-16.53-2.34-1.47-11.85-8.32-18.86-10.26a23.55,23.55,0,0,0-11-.15c-15.07,2.81-33.66,11.73-39.2,14.45" transform="translate(-273 -472.12)"/></g><g id="ear_left"><path class="cls-1" d="M571,911a353.93,353.93,0,0,1-38-13c-13.27-5.39-23.69-10.67-44-21-28.41-14.45-34.29-18.44-51-25-22.51-8.84-31.56-9.35-38-9-8.63.47-17.54,1.65-33,8-26.41,10.84-41,23.1-48,28a93.28,93.28,0,0,0-23,22c-4.1,5.68-6,9.82-7,14-1.74,7-.86,12.73,0,18a70.24,70.24,0,0,0,7,21c6.83,13.17,16.93,23.22,30,34,17.21,14.2,36.5,30.12,67,42,11.09,4.32,22.71,8.74,39,10a114.47,114.47,0,0,0,37-3c12-3,20-5,38-16,2.36-1.44,12-8.16,19-10a23.54,23.54,0,0,1,11,0c15,3,33.5,12.2,39,15" transform="translate(-273 -472.12)"/></g><g id="outline"><path class="cls-2" d="M764,775a231.52,231.52,0,0,1-84-13c-15.11-5.23-36.06-11.78-60-29-25.41-18.28-60-47-79-89-17.88-39.53-22-56-27-87-3.67-22.73-1.51-36.53-2-43-.95-12.48-3.5-16.22-5-18-.78-.93-5.2-6.17-11-6-5.35.16-9.61,4.86-13,10-16.69,25.29-26,81.94-30,107a285,285,0,0,0-4,37,254.38,254.38,0,0,0,1,35c4.66,43,38.16,81.39,57,103,8.09,9.29,23.71,26.16,42,51a126.93,126.93,0,0,1,15,25,129.09,129.09,0,0,1,10,39c1.84,18.08-1.42,20.84-2,59-.07,4.71-.17,11.66,0,20a461.82,461.82,0,0,0,5,58c7.79,55.26,3.58,57.24,12,109,4.81,29.59,7.35,44.71,14,61,14.39,35.27,19,44,19,44a100.38,100.38,0,0,1,8,19,102.73,102.73,0,0,1,4,22c.64,8.48.1,14.31-2,32-3.94,33.16-4.7,34.78-4,42a88.29,88.29,0,0,0,8,29,91.7,91.7,0,0,0,22,29c11.2,9.91,21.64,14,33,19,34,15,93.79,12.91,94,11.88" transform="translate(-273 -472.12)"/><path class="cls-3" d="M764,757c-6.47.19-13,.14-19.41-.2q-5.18-.27-10.32-.78c-1.69-.17-3.38-.36-5.06-.56-3.43-.39-.32,0,.32.06-1.27-.18-2.54-.37-3.8-.57-16.54-2.62-32.45-7.32-48.24-12.82-2.89-1-5.78-2-8.65-3.12-1.44-.55-2.87-1.1-4.3-1.68-.85-.33-1.69-.69-2.54-1,3.83,1.54.54.22-.27-.14a182.71,182.71,0,0,1-22.68-12c-6.33-3.95-12.37-8.34-18.32-12.84-.63-.48-1.33-.95-1.92-1.47.34.3,3.21,2.53.72.55l-3.45-2.75q-4.33-3.5-8.54-7.14a246.94,246.94,0,0,1-30.85-31.93c-2.11-2.65-.37-.5,0,0-.61-.82-1.22-1.63-1.82-2.45-1.21-1.66-2.4-3.33-3.56-5q-3.52-5.16-6.69-10.56a222.15,222.15,0,0,1-11.48-23.2q-1.36-3.12-2.71-6.26c-.85-1.94.12.3.24.58-.4-.95-.8-1.91-1.19-2.87q-2.19-5.32-4.21-10.73c-2.33-6.24-4.45-12.56-6.27-19a316.7,316.7,0,0,1-7.82-37.84c-.14-.92-.29-1.85-.41-2.77.38,3,0,0,0-.47-.2-2.14-.43-4.29-.58-6.44-.26-3.66-.38-7.33-.4-11,0-5,.37-9.9.26-14.84-.27-12.47-3-26.28-12.73-34.93-9.52-8.47-22.53-11.63-34.24-5.47-7.92,4.16-13.68,11.79-18,19.43-6.86,12.08-11.46,25.63-15.26,38.94-7,24.48-11.38,49.71-15.19,74.87-4.61,30.41-7,63.84,1.8,93.79,9.21,31.25,28.67,58.12,49.49,82.66,7.11,8.39,14.5,16.54,21.68,24.86,11.12,12.87,19.33,23,28.15,35.33a145.42,145.42,0,0,1,12.7,21.83c.69,1.45,1.2,4-.74-1.78.28.85.68,1.67,1,2.5,1,2.58,1.87,5.18,2.68,7.82q1.47,4.85,2.59,9.79.68,3,1.22,6.12c.2,1.09.37,2.19.55,3.28-.44-2.68,0,0,.14,1.29a100.48,100.48,0,0,1,.65,12.38c-.15,8.87-1.34,17.72-1.84,26.57-.9,16.05-1.1,32.21-.5,48.28.54,14.51,1.86,29,3.77,43.35.48,3.57,1,7.14,1.47,10.71.19,1.39.38,2.78.58,4.17.45,3.08-.31-2.44.07.51.18,1.38.37,2.77.54,4.16.91,7.13,1.72,14.27,2.39,21.43,2.33,24.82,3.83,49.5,7.67,74.18,2.39,15.39,4.67,30.91,8.31,46.06,3.15,13.09,8.39,25.34,13.59,37.72,4,9.59,8,19.22,12.47,28.63.45.93.89,1.86,1.36,2.79.68,1.32,1.39,2.62,2.05,4,.73,1.48,1.41,3,2.08,4.49-1.59-3.57.54,1.6,1,2.93.92,2.67,1.72,5.39,2.39,8.13q.6,2.48,1.08,5c.13.72.25,1.44.39,2.15.93,5-.29-3.84.26,1.72a97.88,97.88,0,0,1,.39,15.69c-.9,14.49-3.14,28.94-4.93,43.35-.69,5.57-1.63,11.23-1.28,16.86a108,108,0,0,0,11.33,41.31c27.57,55.42,95.83,68.57,152,68,3.11,0,6.23-.07,9.32-.33,7.94-.66,12.85-2.52,18-9.3,5.71-7.54,1.44-20.45-6.45-24.63-9.49-5-18.54-1.59-24.63,6.46l0,0,6.46-6.45c3.7-2,5.58-2.06,3.63-1.65,0,0,6.28-.6,3.43-.49-1.32,0-2.64.18-4,.23-4.15.16-8.31.17-12.46.11q-8.22-.12-16.42-.66c-3.07-.2-6.14-.44-9.21-.74-1.48-.14-3-.29-4.43-.46l-2.56-.29c-.61-.08-4.34-.66-1.47-.18,2.59.43-1.91-.3-2.78-.44-1.72-.28-3.44-.57-5.15-.89q-5.1-.93-10.14-2.16c-2.85-.7-5.68-1.48-8.48-2.36-1.55-.49-3.09-1-4.61-1.56l-1.68-.63c-2.51-.92-1.16-.27.52.26-7.26-2.29-14.83-6.42-21.31-10.37-1.62-1-3.19-2.07-4.77-3.14-.39-.26-2.59-2-.49-.32-.94-.77-1.87-1.55-2.78-2.36a92.9,92.9,0,0,1-9.41-9.62c-.49-.58-1-1.18-1.45-1.76-1.74-2,1.61,2.35.2.24-.84-1.25-1.76-2.46-2.6-3.72q-2.26-3.44-4.2-7.06c-.83-1.55-1.57-3.13-2.32-4.72-1.64-3.49,1,2.95-.07-.2-.64-1.82-1.33-3.61-1.9-5.45a100.84,100.84,0,0,1-2.7-11c-.73-3.75.12,2.4-.3-2.18-.05-.51-.09-1-.13-1.54a45.1,45.1,0,0,1,.07-6c1.65-22,7.74-44.12,6.08-66.22a123,123,0,0,0-12.91-47.11c-1.61-3.19-3.21-6.36-4.69-9.62-1.85-4.08-3.64-8.18-5.41-12.3-.55-1.29-1.09-2.59-1.66-3.89-1-2.28,1.27,3,.26.61-.28-.65-.55-1.31-.83-2q-2.52-6-5-12.07a185.71,185.71,0,0,1-10.36-35.13c-1.44-7.37-2.67-14.79-3.88-22.2-.72-4.35-1.43-8.69-2.11-13q-.42-2.74-.83-5.51c-.15-1-.29-2-.44-3,0-.12-.67-4.71-.26-1.83.38,2.63-.28-2.18-.37-2.88-.2-1.62-.4-3.24-.58-4.87-.34-2.93-.65-5.88-.93-8.82-.45-4.87-.82-9.75-1.17-14.63-.81-11.36-1.66-22.7-2.93-34-1-9.19-2.26-18.36-3.54-27.53-.28-2-.55-4-.83-5.92-.32-2.23.54,4.24.25,1.91-.06-.52-.13-1-.2-1.54-.21-1.68-.42-3.36-.62-5a476.44,476.44,0,0,1-1.77-90.86c.57-7.69,1.55-15.39,1.33-23.12a146,146,0,0,0-7.29-41.34c-9.69-29.25-30.32-53.33-50.06-76.4-7-8.12-14.14-16-21.11-24.17-4.23-4.91-8.39-9.89-12.4-15l-1.25-1.6c2.41,3.06.8,1,.3.37-1.12-1.5-2.25-3-3.36-4.51-2.12-2.92-4.2-5.88-6.2-8.89a203,203,0,0,1-11.81-20c-.92-1.81-1.81-3.62-2.67-5.46-.32-.69-.64-1.38-.95-2.07-.22-.49-1.47-3.46-.6-1.35s-.15-.4-.25-.67c-.36-.94-.73-1.89-1.08-2.84-.79-2.14-1.53-4.31-2.2-6.49a113.24,113.24,0,0,1-2.83-11c-.15-.75-.29-1.49-.42-2.24-.11-.57-.66-3.77-.27-1.37.34,2.11-.13-1.19-.2-1.9-.56-5.55-.83-11.13-1-16.7a261.92,261.92,0,0,1,.64-26.58q.4-5.4,1-10.77c.07-.63.43-3.74.13-1.15s.06-.41.15-1c.25-1.75.51-3.51.78-5.26,1.7-10.93,3.51-21.85,5.59-32.72,2.57-13.51,5.52-27,9.3-40.2,1.78-6.23,3.75-12.42,6-18.48.48-1.25.92-3.56,1.8-4.53-.17.19-1.78,4-.42,1.06.24-.52.47-1.05.72-1.57,1.22-2.63,2.53-5.22,4-7.72.59-1,1.23-2,1.85-3,1.75-2.8.4-.65-.1-.06.64-.75,1.35-1.44,2-2.19.92-1.07,2.34-1.12-.34.23a8.31,8.31,0,0,1-3,.84c-.6.07-4.83-.64-2.72-.1s-3.69-1.92-.54,0c-.38-.24-2.91-2.83-1.26-.88.25.29.56.57.84.84s.68.88,1.08,1.24c-3.79-3.44-2.56-3.67-1.48-1.61,1,1.82-1.49-4.79-.39-.77.4,1.44.7,2.87,1,4.33.19.83.34,3.23,0-.45.08.86.18,1.72.25,2.59A58.37,58.37,0,0,1,494,519c-.13,5.59-.32,11.18-.13,16.77.93,27.5,7,56.09,16.67,81.86C516.7,634,523.41,650.71,532,666a215.85,215.85,0,0,0,29.39,39.91,269.84,269.84,0,0,0,30.73,28.39c12.58,10,25.51,19.73,39.75,27.28,13,6.92,26.9,12.13,40.84,16.93A257.85,257.85,0,0,0,764,793c9.4-.28,18.44-8.08,18-18-.43-9.52-7.92-18.3-18-18Z" transform="translate(-273 -472.12)"/></g><g id="outline-2" data-name="outline"><path class="cls-2" d="M763.61,775.12a231.52,231.52,0,0,0,84-13c15.11-5.23,36.06-11.78,60-29C933,714.84,974,675,990,641c18.47-39.25,18.61-52.88,23.61-83.88,3.67-22.73,1.51-36.53,2-43,.95-12.48,3.5-16.22,5-18,.78-.93,5.2-6.17,11-6,5.35.16,9.61,4.86,13,10,16.69,25.3,26,81.94,30,107a285,285,0,0,1,4,37,254.38,254.38,0,0,1-1,35c-4.67,43-38.16,81.39-57,103-8.09,9.29-23.71,26.16-42,51a127,127,0,0,0-15,25,129.09,129.09,0,0,0-10,39c-1.84,18.08,1.42,20.84,2,59,.07,4.72.17,11.66,0,20a461.62,461.62,0,0,1-5,58c-7.79,55.26-3.58,57.24-12,109-4.81,29.59-7.35,44.72-14,61-14.4,35.28-19,44-19,44a100.68,100.68,0,0,0-8,19,102.22,102.22,0,0,0-4,22c-.64,8.48-.1,14.31,2,32,3.94,33.16,4.7,34.79,4,42a88.29,88.29,0,0,1-8,29,91.7,91.7,0,0,1-22,29c-11.2,9.91-21.64,14-33,19-34,15-93.79,12.91-94,11.88" transform="translate(-273 -472.12)"/><path class="cls-3" d="M763.61,793.12c31.51.93,62.6-4.64,92.34-14.86,14.36-4.94,28.6-10.43,41.95-17.74,13.74-7.53,26.33-17,38.23-27.15,23.43-20,45.41-43.26,61.78-69.44,8.55-13.68,14.93-29,20.46-44.09a192.76,192.76,0,0,0,8.86-34c2.55-15.06,5.34-30.37,6.27-45.63.37-6.17.33-12.34.14-18.51-.05-1.93-.15-3.87-.1-5.81,0-.89.08-1.78.15-2.67,0-.57.52-4.23.13-1.7s.33-1.52.36-1.67c.26-1.19.62-2.35.94-3.53,1-3.82-1.35,3.3-.53,1.2.74-1.89,3.07-2.49-1.49,1.61a15.71,15.71,0,0,0,1.33-1.49,13.37,13.37,0,0,0,1.3-1.22c0,.66-3.87,2.13-1,.89-.58.25-3.92,1-.92.44a11.53,11.53,0,0,1-3.31.27c-1.49-.12-2.45-1-3.69-1.43-1.54-.57-.32-.35.36.36s1.34,1.44,2,2.19c-2.25-2.57-.29-.23.16.48a73.1,73.1,0,0,1,3.88,6.77c.6,1.16,1.16,2.34,1.71,3.52.33.7.62,1.41.95,2.1,1,2-1.41-3.58-.19-.47,2.4,6.15,4.57,12.36,6.45,18.69,7.11,23.82,11.43,48.41,15.32,72.94q.73,4.55,1.39,9.12c.5,3.45.1-.24-.08-.64a13.66,13.66,0,0,1,.35,2.87c.23,2,.44,4,.63,6a261.45,261.45,0,0,1,1,26.7c-.07,6.3-.33,12.62-.88,18.9-.08.84-.15,1.68-.24,2.51-.05.4-.1.81-.14,1.21-.26,2.74.6-3,0-.26-.87,4-1.55,8-2.65,11.87-1,3.67-2.24,7.28-3.59,10.84-.27.71-.58,1.41-.84,2.12-.92,2.56,1.19-2.56,0-.08-1,2.07-1.87,4.15-2.87,6.2a193,193,0,0,1-11.15,19.59c-2,3.07-4,6.09-6.14,9.07-1,1.36-1.94,2.7-2.92,4l-1.68,2.26c0,.06-2.72,3.58-1.11,1.48,1.44-1.88-1.49,1.89-1.93,2.43q-1.63,2.05-3.29,4.08-3.13,3.81-6.34,7.57c-18.13,21.23-36.68,41.89-53.15,64.51a142.24,142.24,0,0,0-26.79,78.06c-.32,7.77.63,15.5,1.22,23.23,1.06,13.85,1.4,27.77,1.35,41.65a443.26,443.26,0,0,1-2.91,49c-.32,2.76-.72,5.52-1,8.28.27-2.38.5-3.7.08-.65-.16,1.16-.33,2.32-.49,3.49-1.26,8.92-2.46,17.84-3.49,26.79-1.31,11.47-2.2,23-3,34.48-.78,11.06-2.69,22.14-3.26,33.18.2-3.75,0-.29-.23,1.53s-.52,3.56-.79,5.34c-.7,4.58-1.45,9.16-2.19,13.74-1.28,7.77-2.55,15.54-4,23.27a178.55,178.55,0,0,1-9.79,34.09q-2.38,5.85-4.83,11.7l-1.14,2.73c-.24.56-1.44,3.39-.43,1,.9-2.11-.92,2.14-1.3,3-1.8,4.2-3.62,8.39-5.5,12.55-1.52,3.36-3.16,6.62-4.82,9.9a122.94,122.94,0,0,0-12.83,46.19c-1,12.49,1,25,2.46,37.4,1.19,9.89,2.79,19.81,3.54,29.75a43.35,43.35,0,0,1,.06,6c0,.45-.06.89-.1,1.34-.07.72-.14,1.43-.23,2.15.09-.77.58-3.21-.09.24a103.8,103.8,0,0,1-2.9,11.65c-.46,1.42-1,2.82-1.49,4.23-1.5,4.29,1.15-2.29-.08.31-.82,1.74-1.61,3.48-2.52,5.17-1.19,2.24-2.49,4.43-3.88,6.56-.93,1.43-2,2.8-2.92,4.23-1.1,1.62.55-.69.66-.82-.8,1-1.59,2-2.42,2.92a92.52,92.52,0,0,1-8.9,9c-.91.81-1.84,1.6-2.78,2.36.59-.48,2.34-1.64-.49.32-1.79,1.24-3.59,2.44-5.45,3.55A113.59,113.59,0,0,1,838,1420q-2.4,1.11-4.82,2.17l-2.79,1.22c-.6.26-4.68,2-1.74.79,2.56-1.08-1.44.53-2.24.82q-2.28.84-4.61,1.56-4.82,1.52-9.73,2.66c-2.94.7-5.91,1.32-8.89,1.87q-2.57.46-5.15.88l-2.59.4c-2.35.36-.22,0,.92-.11-12.09.92-24,2.36-36.16,2.5-3.94,0-7.88,0-11.81-.14-1.16,0-2.32-.16-3.48-.2-1.9-.08-3.36-1.24,3.25.47-2-.5.31-.11,3.63,1.65l6.46,6.46,0,0c-5.66-7.48-15.79-12.15-24.63-6.45-7.39,4.77-12.53,16.59-6.45,24.62,5.12,6.78,10.21,8.7,18.18,9.32,3.3.25,6.63.3,9.94.32a304.48,304.48,0,0,0,34.69-1.75c32-3.42,64.25-12,89.64-32.76a105.94,105.94,0,0,0,38.24-75.38c.31-6.09-.81-12.27-1.56-18.29-1.79-14.36-4.14-28.83-4.78-43.3-.1-2.2-.12-4.4,0-6.6,0-1.18.11-2.35.2-3.52.07-.91.15-1.83.24-2.74.15-1.46.58-3.85.1-1.09a119.6,119.6,0,0,1,5.23-19.87c.27-.76,1.41-3.29-.13.18.27-.6.53-1.21.81-1.81.62-1.36,1.28-2.7,2-4,.46-.9.95-1.79,1.41-2.7.61-1.19,1.18-2.4,1.74-3.61,4.67-10,8.91-20.21,13.16-30.39,5.2-12.45,10.16-24.7,13.13-37.89a622.08,622.08,0,0,0,13.07-88.11c.83-10.77,1.47-21.55,2.54-32.3q1.17-11.73,2.75-23.41c-.43,3.18.27-1.9.39-2.77s.29-2,.43-3q.78-5.62,1.52-11.27a479.29,479.29,0,0,0,2.72-92.68c-.54-8.34-1.69-16.71-1.63-25.08q0-3,.26-6c.07-1,.16-2,.26-3s.23-2.08.34-3.12c.35-3.18-.74,4.06.21-1.17a145.24,145.24,0,0,1,5.14-20.8c.73-2.16,1.59-4.26,2.36-6.4.9-2.5-2.11,4.7-.65,1.53.95-2.05,1.88-4.1,2.91-6.11a141.67,141.67,0,0,1,12.27-19.29c1.46-2,2.94-4,4.42-5.93l2.17-2.84c-.46.6-1.79,2.29.37-.47q4-5.1,8.1-10.11,6.84-8.36,14-16.47c17.61-20.14,35.63-40.14,49.55-63.1,8.74-14.4,16.11-30.21,20-46.65,3.25-13.61,4-27.88,4.06-41.84.06-28.76-5.09-57.57-10.68-85.72a408.34,408.34,0,0,0-10-41c-3.92-12.69-8.55-25.95-15.93-37.08-6.58-9.94-15.84-18.78-28.54-18.92-8.92-.09-17.8,4.49-23.61,11.13-8.62,9.86-10.74,23.55-10.42,36.29.15,5.93.32,11.84.07,17.77-.17,3.92-.64,7.8-.93,11.71-.15,2.07,0,0,.09-.39-.16,1.24-.36,2.47-.56,3.71-.31,2-.63,3.95-.93,5.93-1.82,11.75-3.39,23.55-6.36,35.07a185.4,185.4,0,0,1-6,18.86c-.59,1.58-1.2,3.14-1.83,4.7-.37.94-.76,1.87-1.14,2.81-1,2.55,1.12-2.51,0,.1-1.89,4.23-3.73,8.49-5.74,12.67A148.07,148.07,0,0,1,963.39,651c-2,3-4.15,5.9-6.29,8.8-.44.6-2.09,2.68.12-.13-.61.78-1.22,1.56-1.84,2.33-1.24,1.56-2.51,3.11-3.78,4.64a346.27,346.27,0,0,1-32.29,33.61c-5.16,4.71-10.45,9.27-15.91,13.63L902,715c-2.56,2,.66-.68.9-.69-.86.06-2.81,2.1-3.52,2.62q-5.64,4.11-11.57,7.77a194.25,194.25,0,0,1-22.6,11.84c-.76.35-3.22,1.31.4-.15l-2.54,1c-1.43.57-2.86,1.12-4.3,1.67-3.23,1.22-6.48,2.37-9.74,3.5-15.68,5.43-31.49,10-47.92,12.56l-3,.45c3.81-.58,1.14-.14.32,0-1.92.21-3.84.44-5.77.62q-5.13.49-10.27.75c-6.24.31-12.5.35-18.75.16-9.42-.28-18.43,8.48-18,18,.45,10,7.91,17.7,18,18Z" transform="translate(-273 -472.12)"/></g><path class="cls-4" d="M-65.57,928" transform="translate(-273 -472.12)"/><path class="cls-4" d="M576,871c9-1,25-7,25-7s16-5,31-20c11.49-11.49,13.7-14.57,21-35,5-14,5-35,3-50" transform="translate(-273 -472.12)"/><path class="cls-4" d="M948.25,869.1c-9-1.16-24.88-7.44-24.88-7.44s-15.9-5.29-30.63-20.55c-11.28-11.69-13.45-14.82-20.38-35.37-4.75-14.09-4.37-35.09-2.1-50" transform="translate(-273 -472.12)"/><g id="eye_right"><path class="cls-5" d="M849.18,1059c0-5,0-12,5-29,4-13.49,9.25-21.59,13-26,5.68-6.68,14.36-14.54,21-13,4.85,1.12,8.46,4.74,9,6,1.58,3.68,5,10,5,21,0,8.5,0,9-5,24a37.12,37.12,0,0,1-13,18c-6,5-7,5-14,9-4.89,2.8-14,4.16-17,3C850.83,1071.08,849.18,1064.47,849.18,1059Z" transform="translate(-273 -472.12)"/></g><g id="eye_left"><path class="cls-5" d="M675,1059c0-5,0-12-5-29-4-13.49-9.25-21.59-13-26-5.68-6.68-14.36-14.54-21-13-4.85,1.12-8.46,4.74-9,6-1.58,3.68-5,10-5,21,0,8.5,0,9,5,24a37.12,37.12,0,0,0,13,18c6,5,7,5,14,9,4.89,2.8,14,4.16,17,3C673.35,1071.08,675,1064.47,675,1059Z" transform="translate(-273 -472.12)"/></g></svg>