<?xml version="1.0" encoding="utf-8"?>
<!-- Generator: Adobe Illustrator 25.3.1, SVG Export Plug-In . SVG Version: 6.00 Build 0)  -->
<svg version="1.1" id="Layer_1" xmlns="http://www.w3.org/2000/svg" xmlns:xlink="http://www.w3.org/1999/xlink" x="0px" y="0px"
	 viewBox="0 0 500 250" style="enable-background:new 0 0 500 250;" xml:space="preserve">
<style type="text/css">
	.st0{fill:#895042;}
	.st1{fill:#A68D84;}
	.st2{fill:none;stroke:#895042;stroke-width:0.25;stroke-miterlimit:10;}
	.st3{fill:#9B7469;stroke:#9B7469;stroke-width:0.25;stroke-miterlimit:10;}
	.st4{fill:#9B7469;}
	.st5{fill:none;stroke:#9B7469;stroke-width:0.25;stroke-miterlimit:10;}
	.st6{fill:#895042;stroke:#895042;stroke-width:2;stroke-miterlimit:10;}
	.st7{fill:#9B7469;stroke:#9B7469;stroke-width:0.5;stroke-miterlimit:10;}
	.st8{fill:#9A7369;stroke:#9A7369;stroke-width:0.25;stroke-miterlimit:10;}
	.st9{fill:#895042;stroke:#895042;stroke-width:0.5;stroke-miterlimit:10;}
	.st10{fill:none;stroke:#895042;stroke-width:0.5;stroke-miterlimit:10;}
	.st11{fill:#A68D84;stroke:#A68D84;stroke-width:0.25;stroke-miterlimit:10;}
</style>
<g id="XMLID_1_">
	<g>
		<path class="st0" d="M330.1,127c2.7,0.3,3.6,0.2,3.6,0.4c0,0.3-1.6,0.9-3.1,1.2c-1.5,0.3-2.6,0.2-3.6,0.2c-2-0.1-3.9,0-5.9,0
			c-2.9,0-3.2,0-3.7,0c-0.6,0-1,0-4.2,0.2c-2.6,0.2-3,0.2-3.8,0.3c-3,0.2-3.7,0.3-4.1,0.4c-1.4,0.2-2.4,0.4-2.9,0.6l-0.7-2.8
			c0.5-0.1,1.1-0.2,1.5-0.3c1.6-0.3,2.3-0.4,2.4-0.7c0-0.3-0.9-0.7-1.5-0.9c-0.3-0.1-0.6-0.1-0.9-0.2l0.2-2.7c0.5,0.1,1,0.2,1.5,0.3
			c0.8,0.2,1.1,0.2,4.3,0.8c4.1,0.7,4.3,0.8,5.2,0.9c1.9,0.3,1.8,0.2,4.1,0.6c1,0.2,0.9,0.1,4.3,0.7c2.8,0.5,3.4,0.5,4.1,0.6
			C327.4,126.7,327.8,126.8,330.1,127z"/>
		<path class="st0" d="M303.4,125.4c-0.9,0-1.6,0.1-1.8,0.2c-0.8,0.2-1.2,0.5-1.6,0.3c-0.2-0.1-0.3-0.2-0.9-0.9
			c-0.6-0.7-0.9-1-1-1.1c-0.6-0.4-0.9-0.2-1.9-0.6c-0.6-0.3-0.6-0.4-0.9-0.4l1-2.6c0.2,0.1,0.4,0.2,0.7,0.3c1.4,0.6,2.5,1,3.9,1.4
			c1,0.3,1.8,0.5,2.7,0.7L303.4,125.4z"/>
		<path class="st0" d="M262.5,103.5c-1.3,0.2-1.8,0.4-2,0.6c-0.4,0.3-0.5,0.7-0.9,0.8c-0.5,0.1-1-0.2-1.2-0.6
			c-0.2-0.5,0.1-0.8-0.2-1.2c-0.2-0.3-0.6-0.4-1.2-0.4l0.3-2.6c0.6,0.1,1.4,0.1,2.5,0.2c1.1,0.1,2.4,0.1,4,0.2
			c1.4,0.1,2.4,0.1,3.6,0.1c2.1,0,3.2,0,4,0c1.5-0.1,2.6-0.2,3.3-0.3c1.6-0.2,2.8-0.5,4-0.7c1.1-0.2,0.9-0.2,4.1-1
			c2.4-0.6,2.6-0.6,3.4-0.8c1-0.3,1.7-0.5,3.2-1c0.9-0.3,1.1-0.4,3.8-1.3c2.6-0.9,2.6-0.9,3.2-1.2c1.5-0.5,1.6-0.6,3.5-1.3
			c0.5-0.2,1.7-0.6,3.2-1.1c1.5-0.5,2.3-0.8,3.3-0.9c0.9-0.1,2.1-0.3,2.3,0.1c0.2,0.5-1.2,1.6-1.3,1.7c-0.8,0.6-1.3,0.7-2.9,1.3
			c-0.9,0.4-1.6,0.7-3,1.4c-1.3,0.6-2.3,1.2-2.6,1.3c-2,1.1-3,1.6-4.2,2.5c-0.8,0.6-1.6,1.3-3.1,2.7c-1.7,1.5-2.5,2.3-3.1,3.1
			c-0.5,0.7-1.3,1.9-1.7,3.6c-0.1,0.6-0.4,2.1,0.1,3.9c0.2,0.8,0.7,2.2,1.8,3.6c1,1.2,2.1,1.8,4.2,2.9c1.2,0.6,2.1,1,3.6,1.6l-1,2.6
			c-0.1,0-0.5,0-1.3,1c-0.7,0.8-0.8,1.2-1.1,1.2c-0.5,0-1-1.1-1.1-1.6c-0.4-0.9-0.2-1.2-0.5-1.7c-0.4-0.8-1.1-0.9-2.3-1.4
			c-1.5-0.7-2.6-1.2-3.4-2.1c-0.8-0.9-1.5-2.1-2.5-3c-0.3-0.3-0.6-0.4-0.9-0.5c-0.6-0.1-0.9,0.2-1.3,0c-0.4-0.2-0.8-0.9-0.6-1.4
			c0.2-0.8,1.5-0.7,1.5-1.3c0.1-0.6-1.3-0.8-1.5-1.7c-0.2-0.9,1-2.1,1.2-2.3c0.5-0.5,0.8-0.7,0.8-0.9c-0.1-0.5-1.2-0.6-1.2-0.9
			c0-0.4,2.1-0.3,2.3-1.1c0.1-0.3-0.2-0.4-0.3-1c0-0.1-0.3-1.3,0.3-1.8c0.2-0.2,0.3-0.1,1.2-0.2c0.9-0.1,1.3-0.2,1.7-0.4
			c0.6-0.4,1.1-1.1,0.9-1.4c-0.2-0.4-1.6,0.1-2.2,0.3c-0.4,0.1-0.6,0.3-2.3,1.3c-1.2,0.7-1.4,0.9-1.8,0.8c-0.7-0.1-0.7-0.7-1.5-0.8
			c-0.6-0.1-0.9,0.1-2,0.3c-0.8,0.2-0.8,0.1-2.8,0.3c-1.4,0.2-1.3,0.2-2.3,0.3c-1.4,0.2-2.5,0.2-3.5,0.2c-1.2,0.1-1.9,0.1-2.9,0
			C264.4,103.5,263.8,103.3,262.5,103.5z"/>
		<path class="st0" d="M233.1,126.2c0.6-0.7-0.5-2.2,0-2.6c0.1-0.1,0.2-0.1,1,0.2c1.5,0.6,2.2,0.9,2.3,1.4c0.1,0.6-0.6,1.1-1,1.5
			c-0.8,0.7-1.4,0.7-1.8,0.9l-0.9-1.1C232.7,126.5,233,126.4,233.1,126.2z"/>
		<path class="st1" d="M203.9,109.2c-1-0.2-1.1-0.1-2.4-0.3c-1.6-0.2-2.7-0.4-2.7-0.6c0-0.3,1-0.4,2.8-1.2c0.9-0.4,1.5-0.7,2.3-1.2
			c0.6-0.4,1.4-0.9,2-1.9c0.6-0.8,0.8-1.6,0.9-1.8c0.1-0.4,0.3-1,0.3-1.8c0-0.7-0.2-1.2-0.3-1.6c-0.1-0.4-0.2-0.9-0.4-1.4
			c-0.1-0.3-0.2-0.5-0.4-0.8c0.1,0,0.1,0,0.2,0c0.6,0,0.9-0.2,2.1-0.1c1.3,0.1,1.6,0.3,1.7,0.5c0.2,0.3,0,0.6,0.1,1.2
			c0.2,0.8,0.9,1.6,1.4,1.5c0.3,0,0.4-0.3,1.1-1c0.3-0.3,0.7-0.7,1.3-1c0.5-0.2,1-0.3,2-0.6c1-0.2,1.3-0.2,1.4-0.3
			c0.2,0,0.7,0,1.2,0c0.3,0,0.4,0,0.7,0c0.3,0,0.4-0.1,0.7-0.1c0.3,0,0.6-0.1,0.9,0c0.1,0,0.4,0.1,0.8,0.1c0.4,0,0.6,0,0.8,0
			c0.3,0,0.5,0,0.8,0c0.3,0,0.3,0,0.6-0.1c0.5,0,0.6,0,1.1,0c0.2,0,0.4,0,0.9-0.1c0.1,0,0.6-0.1,1.3-0.2c0.7-0.1,0.7-0.2,1.1-0.2
			c0.1,0,0.4-0.1,0.8-0.1c0,0,0,0,0,0c0.6-0.1,1.1-0.3,1.4-0.4c0.1,0,0.6-0.2,1.4-0.5c0.4-0.2,1.1-0.5,1.9-0.9
			c1.4-0.8,1.8-1.3,2.1-1.2c0.4,0.2-0.1,1.4,0.6,1.9c0.4,0.3,0.9,0.3,1.3,0.3c0.3,0,1.3-0.1,1.4-0.6c0.1-0.3-0.1-0.6-0.5-1.3
			c-0.4-0.7-0.6-0.8-0.6-0.9c0.1-0.5,1.6,0,3-1c0.5-0.3,0.8-0.7,1-0.6c0.2,0.1,0.1,0.7,0.1,2c0,0.8,0,1.3,0.3,2c0.3,0.9,1,0.9,1,1.4
			c0,0.7-1.1,0.9-1.1,1.6c0,0.5,0.6,0.9,1,1.1c0.5,0.2,0.9,0,1.5,0.1c0.7,0.1,1.2,0.4,1.8,0.7c0,0,1.1,0.6,3.7,1.8
			c2,0.9,3,1.4,3.8,1.3c0.8-0.1,1.4-0.4,2.8-0.3c0.6,0,1,0.1,1.2,0.4c0.2,0.4-0.1,0.8,0.2,1.2c0.2,0.4,0.8,0.7,1.2,0.6
			c0.4-0.1,0.5-0.4,0.9-0.8c0.2-0.2,0.6-0.4,2-0.6c1.4-0.2,1.9,0,3.6,0.1c1,0,1.7,0,2.9,0c1,0,2.1-0.1,3.5-0.2
			c1-0.1,0.9-0.2,2.3-0.3c2-0.3,1.9-0.2,2.8-0.3c1.1-0.2,1.4-0.4,2-0.3c0.8,0.1,0.8,0.8,1.5,0.8c0.4,0,0.6-0.1,1.8-0.8
			c1.7-1.1,1.9-1.2,2.3-1.3c0.7-0.3,2-0.7,2.2-0.3c0.2,0.3-0.3,1-0.9,1.4c-0.4,0.2-0.8,0.3-1.7,0.4c-0.9,0.1-1,0.1-1.2,0.2
			c-0.6,0.5-0.4,1.8-0.3,1.8c0.1,0.6,0.4,0.7,0.3,1c-0.2,0.8-2.3,0.7-2.3,1.1c0,0.3,1.1,0.4,1.2,0.9c0,0.3-0.3,0.5-0.8,0.9
			c-0.2,0.2-1.4,1.4-1.2,2.3c0.2,0.9,1.6,1.1,1.5,1.7c-0.1,0.5-1.3,0.5-1.5,1.3c-0.1,0.5,0.2,1.2,0.6,1.4c0.4,0.2,0.7-0.1,1.3,0
			c0.3,0.1,0.5,0.2,0.9,0.5c1,0.9,1.7,2.1,2.5,3c0.9,0.9,1.9,1.4,3.4,2.1c1.2,0.5,1.9,0.7,2.3,1.4c0.3,0.5,0.1,0.8,0.5,1.7
			c0.2,0.5,0.6,1.6,1.1,1.6c0.3,0,0.3-0.3,1.1-1.2c0.8-1,1.2-1,1.3-1c0.3,0,0.3,0.1,0.9,0.4c1.1,0.5,1.3,0.2,1.9,0.6
			c0.1,0.1,0.4,0.4,1,1.1c0.6,0.7,0.6,0.8,0.9,0.9c0.5,0.2,0.8-0.1,1.6-0.3c0.2-0.1,0.9-0.2,1.8-0.2c0.3,0,0.6,0.1,0.9,0.2
			c0.6,0.2,1.5,0.6,1.5,0.9c0,0.3-0.8,0.3-2.4,0.7c-0.5,0.1-1,0.2-1.5,0.3c-0.6,0.1-1.2,0.3-1.9,0.5c-2,0.7-2.7,1.5-3.4,1.1
			c-0.5-0.3-0.4-0.8-1.1-1.2c-0.7-0.3-1.5-0.1-2.1,0.1c-0.3,0.1-1.6,0.5-1.5,1c0,0.5,1.4,0.5,1.7,1.3c0.2,0.5-0.2,1-0.2,1.1
			c-0.3,0.5-0.8,0.5-1.4,0.8c-0.9,0.4-1.4,1.1-1.9,1.8c-0.8,1-1.2,2.3-1.4,2.7c-0.3,0.9-0.3,1.2-0.7,1.5c-0.6,0.4-1.4,0.1-2-0.1
			c-1.2-0.4-1.8-1.2-2.2-1.6c-0.5-0.6-0.8-0.9-0.7-1.4c0.1-0.6,0.9-0.8,0.8-1.3c0-0.2-0.3-0.4-0.6-0.4c-0.4-0.1-0.6,0.4-1.2,0.7
			c-0.2,0.1-1,0.5-1.6,0.2c-0.3-0.2-0.4-0.5-0.6-1.1c-0.3-0.9-0.3-1.6-0.4-1.6c-0.1,0-0.1,1.3-0.7,1.5c-0.4,0.1-0.7-0.3-1.7-0.9
			c-1.4-0.9-2.9-1.4-3.3-1.5c-1-0.3-1.8-0.4-1.8-0.7c0-0.3,0.8-0.4,0.8-0.8c0-0.3-0.5-0.6-0.9-0.7c-0.4-0.1-0.6,0.1-1.6,0.3
			c-0.9,0.2-1.5,0.4-1.7,0.2c-0.2-0.2,0.2-0.5,0.1-1.2c0-0.1-0.1-0.7-0.5-0.9c-0.3-0.2-0.6,0-1.5,0.3c0,0-1.1,0.4-2.1,0.6
			c-0.6,0.1-1,0.1-1.9,0.1c-1.2,0-1.9,0-2.8-0.2c-1-0.2-1-0.4-2-0.6c-0.7-0.1-0.8,0-1.7-0.2c-0.8-0.1-1.4-0.3-1.4-0.3
			c-0.6-0.2-0.6-0.2-0.9-0.2c-0.5,0-0.6,0.2-1.3,0.3c-0.1,0-0.8,0.1-1.6,0c-0.4-0.1-0.5-0.2-0.6-0.3c-0.2-0.3,0.3-0.7,0.5-1.3
			c0.3-0.9-0.3-2.1-0.8-2.1c-0.2,0-0.4,0.3-0.7,0.8c-0.4,0.7-0.3,1-0.6,1.2c-0.4,0.4-1.2,0.2-1.7,0.1c-0.7-0.2-0.7-0.4-1.4-0.5
			c-0.5-0.1-1.2-0.3-1.7,0.2c-0.3,0.3-0.4,0.8-0.2,1c0.2,0.2,0.5,0.1,1.3,0.2c0.6,0.1,1,0.3,1.1,0.3c0.3,0.1,1.1,0.6,1.1,1
			c0,0.5-1,0.5-3.1,1.5c-1,0.5-1.3,0.7-1.8,0.7c-0.9-0.1-1.4-0.8-1.8-0.6c-0.4,0.2-0.1,0.9-0.5,1.8c-0.2,0.5-0.6,0.7-1.6,1.4
			c-2.2,1.5-2.8,2.1-3.1,1.9c-0.3-0.2,0.3-0.9,0-2c-0.1-0.4-0.2-0.6-0.8-1.6c-1.3-2.1-1.4-2.3-1.3-2.6c0.1-0.1,0.1-0.2,0.2-0.3
			c0.4-0.2,1-0.3,1.8-0.9c0.4-0.3,1.1-0.9,1-1.5c-0.1-0.5-0.8-0.8-2.3-1.4c-0.7-0.3-0.9-0.3-1-0.2c-0.4,0.3,0.7,1.9,0,2.6
			c-0.1,0.2-0.4,0.3-0.6,0.3c-0.1,0-0.1,0-0.1,0c-0.2-0.1-0.1-0.6-0.3-1.2c-0.1-0.3-0.2-0.5-0.5-0.8c-0.2-0.2-0.3-0.4-0.7-0.8
			c-0.5-0.5-0.9-0.9-1.3-1.3c-0.6-0.6-0.6-0.5-0.9-0.9c-0.5-0.5-1-0.9-1.4-1.5c-0.2-0.3-0.5-0.7-1-1.4c-0.4-0.6-0.5-0.7-1.1-1.7
			c-0.9-1.4-1.4-2-1.1-2.7c0,0,0,0,0,0c0-0.1,0.1-0.1,0.8-0.7c0.5-0.4,0.6-0.4,0.6-0.5c0-0.2-0.4-0.4-1-0.6
			c-0.7-0.3-1.1-0.4-1.3-0.3c-0.5,0.2-0.4,0.8-1.2,1.9c-0.4,0.6-0.5,0.6-0.6,0.6c-0.6,0-1-1.4-1.2-2c-0.2-0.7-1.2-1.8-1.6-1.4
			c-0.1,0.1-0.8,0.7-1.2,0.5c-0.5-0.2-0.5-1.4-0.5-2.4c0-0.5,0-0.9-0.1-0.9c-0.1,0-0.2,1.2-1,1.8c-0.3,0.2-0.4,0.1-1.4,0.5
			c-0.9,0.3-0.9,0.4-1.4,0.6c-0.3,0.1-1.2,0.3-2,0c-0.4-0.2-0.8-0.3-0.9-0.7c-0.1-0.6,0.9-1.1,0.7-1.6c-0.1-0.4-0.7-0.6-1.1-0.4
			c-0.3,0.1-0.2,0.4-0.5,0.9c-0.2,0.3-0.5,0.7-0.9,0.8c-0.5,0.2-0.9,0-2.3-0.5C205.8,109.6,204.9,109.3,203.9,109.2z"/>
		<path class="st0" d="M200.6,91.9c0-0.1,1,0.4,2.3,0.9c1.4,0.5,2.4,0.8,3.3,1c1.1,0.3,2.6,0.5,4.3,0.7c1.5,0.1,2.6,0.1,4.4,0.1
			c0.9,0,2.1,0,3.8-0.1c2.1-0.2,3.7-0.4,4.1-0.4c1.2-0.2,2.7-0.4,4.6-1c1.4-0.4,2.4-0.8,4.5-1.6c0.9-0.3,1.9-0.8,3.3-1.4
			c1.2-0.5,2.1-1,2.8-1.4c1.3-0.7,2-1,2.8-1.5c0.9-0.6,1.7-1.1,2.7-1.9c1.2-1,1.3-1.4,2-1.5c0.4-0.1,0.9,0,2,0.1
			c0.3,0,0.6,0.1,0.8,0.1c0.2,0-0.1,0.6-0.4,1.2c-0.8,1.3-1.1,2-1.3,2.7c-0.1,0.5-0.2,0.9-0.2,1.5c-0.1,1.1,0.1,2,0.2,2.7
			c0.1,0.7,0.3,1.8,0.9,3.2c0.3,0.8,0.5,1.3,1,1.8c0.1,0.1,0.6,0.6,1.7,1.2c1.1,0.6,2,0.9,3.1,1.2c1.4,0.4,2.5,0.6,2.9,0.6
			c0.4,0.1,0.7,0.1,1,0.1l-0.3,2.6c-1.3-0.1-2,0.2-2.8,0.3c-0.8,0.1-1.8-0.4-3.8-1.3c-2.6-1.2-3.7-1.8-3.7-1.8
			c-0.6-0.4-1.1-0.7-1.8-0.7c-0.7,0-1,0.2-1.5-0.1c-0.4-0.2-1-0.6-1-1.1c0-0.7,1.1-0.9,1.1-1.6c0-0.5-0.6-0.5-1-1.4
			c-0.2-0.6-0.2-1.2-0.3-2c0-1.2,0.2-1.8-0.1-2c-0.2-0.1-0.5,0.2-1,0.6c-1.4,0.9-2.9,0.5-3,1c0,0.2,0.1,0.2,0.6,0.9
			c0.4,0.7,0.6,1.1,0.5,1.3c-0.2,0.5-1.1,0.5-1.4,0.6c-0.5,0-1,0-1.3-0.3c-0.6-0.6-0.1-1.7-0.6-1.9c-0.3-0.2-0.7,0.4-2.1,1.2
			c-0.8,0.4-1.5,0.7-1.9,0.9c-0.8,0.3-1.3,0.5-1.4,0.5c-0.3,0.1-0.8,0.2-1.4,0.4c0,0,0,0,0,0c-0.4,0.1-0.7,0.1-0.8,0.1
			c-0.3,0-0.3,0.1-1.1,0.2c-0.7,0.1-1.2,0.2-1.3,0.2c-0.4,0.1-0.7,0.1-0.9,0.1c-0.4,0-0.6,0-1.1,0c-0.3,0-0.3,0-0.6,0.1
			c-0.3,0-0.5,0-0.8,0c-0.2,0-0.4,0-0.8,0c-0.4,0-0.7-0.1-0.8-0.1c-0.3,0-0.6,0-0.9,0c-0.4,0-0.4,0.1-0.7,0.1c-0.3,0-0.4,0-0.7,0
			c-0.4,0-0.9,0-1.2,0c-0.1,0-0.4,0-1.4,0.3c-1,0.2-1.5,0.3-2,0.6c-0.6,0.3-1.1,0.8-1.3,1c-0.7,0.7-0.7,1-1.1,1
			c-0.6,0.1-1.3-0.7-1.4-1.5c-0.1-0.6,0.1-0.8-0.1-1.2c-0.1-0.2-0.4-0.5-1.7-0.5c-1.2,0-1.5,0.1-2.1,0.1c-0.1,0-0.1,0-0.2,0
			C204.3,93.4,200.6,92.1,200.6,91.9C200.6,91.9,200.6,91.9,200.6,91.9z"/>
		<path class="st0" d="M202.2,97.6c-0.4-0.8-0.8-1.8-1.8-2.7c-0.2-0.2-0.6-0.6-1.1-1.2c-0.3-0.5-0.8-1.1-0.5-1.5
			c0.2-0.3,0.7-0.4,1.1-0.3c0.2,0,0.4,0.1,0.6,0.2c0.4,0.3,0.7,0.8,1,1.2c0.1,0.2,2.3,3.2,4.6,3.4c0.1,0.2,0.3,0.5,0.4,0.8
			c0.2,0.6,0.4,1.1,0.4,1.4c0.1,0.3,0.3,0.9,0.3,1.6c0,0.8-0.2,1.4-0.3,1.8c-0.1,0.2-0.3,1-0.9,1.8c-0.7,0.9-1.5,1.5-2,1.9
			c-0.8,0.5-1.4,0.8-2.3,1.2c-1.8,0.8-2.8,0.9-2.8,1.2c0,0.3,1.1,0.4,2.7,0.6c1.3,0.2,1.5,0.1,2.4,0.3c1,0.2,1.9,0.5,2.2,0.6
			c1.3,0.4,1.7,0.7,2.3,0.5c0.3-0.1,0.7-0.5,0.9-0.8c0.3-0.5,0.2-0.8,0.5-0.9c0.3-0.2,0.9,0.1,1.1,0.4c0.2,0.5-0.8,1-0.7,1.6
			c0.1,0.4,0.6,0.6,0.9,0.7c0.9,0.3,1.7,0.1,2,0c0.5-0.2,0.5-0.3,1.4-0.6c1-0.3,1.1-0.2,1.4-0.5c0.8-0.6,0.9-1.8,1-1.8
			c0.1,0,0.1,0.4,0.1,0.9c0,1,0,2.2,0.5,2.4c0.4,0.2,1.1-0.4,1.2-0.5c0.4-0.4,1.4,0.7,1.6,1.4c0.2,0.6,0.6,2,1.2,2
			c0.1,0,0.2,0,0.6-0.6c0.8-1.1,0.7-1.7,1.2-1.9c0.2-0.1,0.6,0.1,1.3,0.3c0.5,0.2,1,0.4,1,0.6c0,0.1-0.1,0.2-0.6,0.5
			c-0.7,0.5-0.8,0.6-0.8,0.7c0,0,0,0,0,0c-0.2,0.6,0.2,1.3,1.1,2.7c0.6,1,0.7,1.1,1.1,1.7c0.5,0.7,0.7,1.1,1,1.4
			c0.5,0.6,0.9,1,1.4,1.5c0.4,0.3,0.3,0.3,0.9,0.9c0.4,0.3,0.8,0.8,1.3,1.3c0.4,0.4,0.5,0.6,0.7,0.8c0.3,0.3,0.4,0.5,0.5,0.8
			c0.2,0.6,0.1,1.1,0.3,1.2c0,0,0.1,0,0.1,0l0.9,1.1c-0.1,0.1-0.2,0.2-0.2,0.3c-0.1,0.3,0,0.5,1.3,2.6c0.6,1,0.7,1.2,0.8,1.6
			c0.2,1.1-0.3,1.8,0,2c0.3,0.2,0.9-0.4,3.1-1.9c1-0.7,1.4-0.9,1.6-1.4c0.4-0.8,0.1-1.6,0.5-1.8c0.4-0.2,0.8,0.5,1.8,0.6
			c0.6,0.1,0.8-0.2,1.8-0.7c2.1-1,3.1-1,3.1-1.5c0-0.4-0.8-0.9-1.1-1c-0.1,0-0.5-0.2-1.1-0.3c-0.8-0.1-1.1,0.1-1.3-0.2
			c-0.2-0.2-0.1-0.7,0.2-1c0.4-0.4,1.2-0.3,1.7-0.2c0.7,0.2,0.7,0.4,1.4,0.5c0.5,0.1,1.2,0.2,1.7-0.1c0.3-0.3,0.2-0.5,0.6-1.2
			c0.3-0.4,0.5-0.8,0.7-0.8c0.4,0,1,1.2,0.8,2.1c-0.2,0.6-0.7,1-0.5,1.3c0,0,0.1,0.2,0.6,0.3c0.8,0.2,1.5,0.1,1.6,0
			c0.7-0.1,0.8-0.3,1.3-0.3c0.2,0,0.3,0.1,0.9,0.2c0,0,0.7,0.2,1.4,0.3c0.8,0.2,1,0.1,1.7,0.2c1,0.1,1,0.3,2,0.6
			c0.9,0.2,1.6,0.2,2.8,0.2c0.9,0,1.4,0,1.9-0.1c1-0.2,2.1-0.6,2.1-0.6c0.8-0.3,1.2-0.5,1.5-0.3c0.4,0.2,0.5,0.8,0.5,0.9
			c0.1,0.7-0.3,1-0.1,1.2c0.2,0.2,0.8,0.1,1.7-0.2c0.9-0.3,1.1-0.4,1.6-0.3c0.5,0.1,0.9,0.4,0.9,0.7c0,0.4-0.8,0.5-0.8,0.8
			c0,0.3,0.8,0.4,1.8,0.7c0.4,0.1,1.9,0.6,3.3,1.5c1,0.6,1.3,1,1.7,0.9c0.6-0.2,0.5-1.5,0.7-1.5c0.1,0,0.1,0.7,0.4,1.6
			c0.2,0.5,0.3,0.9,0.6,1.1c0.6,0.3,1.4-0.1,1.6-0.2c0.6-0.3,0.8-0.7,1.2-0.7c0.2,0,0.5,0.2,0.6,0.4c0.1,0.4-0.8,0.6-0.8,1.3
			c-0.1,0.4,0.2,0.8,0.7,1.4c0.4,0.5,1.1,1.2,2.2,1.6c0.6,0.2,1.4,0.5,2,0.1c0.4-0.3,0.4-0.6,0.7-1.5c0.2-0.4,0.6-1.7,1.4-2.7
			c0.5-0.8,1-1.4,1.9-1.8c0.6-0.2,1.1-0.3,1.4-0.8c0.1-0.1,0.4-0.6,0.2-1.1c-0.2-0.8-1.6-0.8-1.7-1.3c0-0.5,1.3-0.9,1.5-1
			c0.6-0.2,1.4-0.5,2.1-0.1c0.7,0.3,0.5,0.9,1.1,1.2c0.7,0.4,1.4-0.4,3.4-1.1c0.6-0.2,1.2-0.4,1.9-0.5l0.7,2.8c-0.1,0-0.1,0-0.2,0.1
			c-1.1,0.3-1.9,0.5-2.9,1c-0.3,0.1-1.3,0.7-2.3,1.7c-0.4,0.4-0.8,0.8-0.9,0.9c-0.2,0.2-0.4,0.5-1,1.2c-0.6,0.8-1,1.3-1.2,1.6
			c-0.5,0.7-0.8,1.2-1,1.7c-0.5,0.8-0.7,1.3-0.8,1.6c-0.6,1.6-0.5,3.1-0.4,3.6c0.1,0.7,0.2,1.5,0.2,1.5c0.2,0.9,0.3,1.1,0.3,1.6
			c0,0.2-0.1,0.8-0.6,1.3c0,0-0.7,0.6-1.4,0.4c-0.5-0.1-0.8-0.5-1.3-1.2c-0.8-1.1-1.1-1.6-1.6-2.3c-0.4-0.6-1-1.4-1.8-2.3
			c-0.2-0.2-0.9-0.9-2.3-1.9c-1.2-0.9-2.2-1.5-3.6-2.3c-2.9-1.7-4.4-2.5-4.9-2.8c-1.3-0.6-2.7-1.1-5.5-2.1c-1.2-0.4-2.3-0.8-3.8-1.3
			c-2-0.6-3.1-0.9-4.5-1.2c-2.5-0.5-4.4-0.5-6.3-0.5c-2.7,0-4,0-5.6,0.5c-1.2,0.4-2.3,1-3.1,1.4c-0.6,0.3-1.7,0.9-2.9,1.8
			c-0.7,0.5-0.8,0.6-3.2,2.9c-1.5,1.4-2.4,2.1-3.8,2.9c-1,0.5-1.5,0.6-1.9,0.6c-1.2,0-2.5-0.6-2.9-1.6c-0.2-0.6,0-0.9,0.1-1.9
			c0-1.2-0.3-2.1-0.8-3.4c-0.6-1.5-0.8-1.5-1.8-3.6c-0.6-1.2-0.4-1.1-1.3-3.1c-0.9-2.2-1.4-3.2-2.2-4.3c-0.2-0.2-0.8-1.1-1.9-2.2
			c-0.4-0.3-1.5-1.4-3.4-2.6c-1.4-0.9-2.5-1.3-4.4-2.1c-3.3-1.4-5.8-2.1-6.5-2.3c-1.1-0.3-2.8-0.8-5.1-1.2c-2.4-0.4-4.5-0.6-6.1-0.7
			c-2.6-0.1-4.7,0-6.3,0.1c-2.3,0.1-3.9,0.3-3.9,0.3s-1.4,0.1-4,0.2c-0.5,0-1.4,0-2.5-0.3c-0.4-0.1-1.6-0.4-1.6-0.9
			c0-0.3,0.7-0.6,1.7-1c2.3-0.8,4.2-1.2,4.8-1.3c0.6-0.1,1.9-0.5,4.5-1.3c1.2-0.4,2.3-0.7,4.5-1.4c4.9-1.6,3.4-1.1,3.2-1.1
			c0.1,0,0.4-0.2,1.3-0.5c1.2-0.4,1.9-0.6,2.6-1.3c0.8-0.9,0.9-1.9,1-2.2C203.1,99.5,202.6,98.6,202.2,97.6z"/>
	</g>
	<g>
		<path class="st2" d="M198.1,104.8c0.1,0,0.4-0.2,1.3-0.5c1.2-0.4,1.9-0.6,2.6-1.3c0.8-0.9,0.9-1.9,1-2.2c0.2-1.3-0.3-2.2-0.8-3.3
			c-0.4-0.8-0.8-1.8-1.8-2.7c-0.2-0.2-0.6-0.6-1.1-1.2c-0.3-0.5-0.8-1.1-0.5-1.5c0.2-0.3,0.7-0.4,1.1-0.3c0.2,0,0.4,0.1,0.6,0.2
			c0.4,0.3,0.7,0.8,1,1.2c0.1,0.2,2.3,3.2,4.6,3.4c0.1,0,0.1,0,0.2,0c0.6,0,0.9-0.2,2.1-0.1c1.3,0.1,1.6,0.3,1.7,0.5
			c0.2,0.3,0,0.6,0.1,1.2c0.2,0.8,0.9,1.6,1.4,1.5c0.3,0,0.4-0.3,1.1-1c0.3-0.3,0.7-0.7,1.3-1c0.5-0.2,1-0.3,2-0.6
			c1-0.2,1.3-0.2,1.4-0.3c0.2,0,0.7,0,1.2,0c0.3,0,0.4,0,0.7,0c0.3,0,0.4-0.1,0.7-0.1c0.3,0,0.6-0.1,0.9,0c0.1,0,0.4,0.1,0.8,0.1
			c0.4,0,0.6,0,0.8,0c0.3,0,0.5,0,0.8,0c0.3,0,0.3,0,0.6-0.1c0.5,0,0.6,0,1.1,0c0.2,0,0.4,0,0.9-0.1c0.1,0,0.6-0.1,1.3-0.2
			c0.7-0.1,0.7-0.2,1.1-0.2c0.1,0,0.4-0.1,0.8-0.1c0,0,0,0,0,0c0.6-0.1,1.1-0.3,1.4-0.4c0.1,0,0.6-0.2,1.4-0.5
			c0.4-0.2,1.1-0.5,1.9-0.9c1.4-0.8,1.8-1.3,2.1-1.2c0.4,0.2-0.1,1.4,0.6,1.9c0.4,0.3,0.9,0.3,1.3,0.3c0.3,0,1.3-0.1,1.4-0.6
			c0.1-0.3-0.1-0.6-0.5-1.3c-0.4-0.7-0.6-0.8-0.6-0.9c0.1-0.5,1.6,0,3-1c0.5-0.3,0.8-0.7,1-0.6c0.2,0.1,0.1,0.7,0.1,2
			c0,0.8,0,1.3,0.3,2c0.3,0.9,1,0.9,1,1.4c0,0.7-1.1,0.9-1.1,1.6c0,0.5,0.6,0.9,1,1.1c0.5,0.2,0.9,0,1.5,0.1
			c0.7,0.1,1.2,0.4,1.8,0.7c0,0,1.1,0.6,3.7,1.8c2,0.9,3,1.4,3.8,1.3c0.8-0.1,1.4-0.4,2.8-0.3c0.6,0,1,0.1,1.2,0.4
			c0.2,0.4-0.1,0.8,0.2,1.2c0.2,0.4,0.8,0.7,1.2,0.6c0.4-0.1,0.5-0.4,0.9-0.8c0.2-0.2,0.6-0.4,2-0.6c1.4-0.2,1.9,0,3.6,0.1
			c1,0,1.7,0,2.9,0c1,0,2.1-0.1,3.5-0.2c1-0.1,0.9-0.2,2.3-0.3c2-0.3,1.9-0.2,2.8-0.3c1.1-0.2,1.4-0.4,2-0.3
			c0.8,0.1,0.8,0.8,1.5,0.8c0.4,0,0.6-0.1,1.8-0.8c1.7-1.1,1.9-1.2,2.3-1.3c0.7-0.3,2-0.7,2.2-0.3c0.2,0.3-0.3,1-0.9,1.4
			c-0.4,0.2-0.8,0.3-1.7,0.4c-0.9,0.1-1,0.1-1.2,0.2c-0.6,0.5-0.4,1.8-0.3,1.8c0.1,0.6,0.4,0.7,0.3,1c-0.2,0.8-2.3,0.7-2.3,1.1
			c0,0.3,1.1,0.4,1.2,0.9c0,0.3-0.3,0.5-0.8,0.9c-0.2,0.2-1.4,1.4-1.2,2.3c0.2,0.9,1.6,1.1,1.5,1.7c-0.1,0.5-1.3,0.5-1.5,1.3
			c-0.1,0.5,0.2,1.2,0.6,1.4c0.4,0.2,0.7-0.1,1.3,0c0.3,0.1,0.5,0.2,0.9,0.5c1,0.9,1.7,2.1,2.5,3c0.9,0.9,1.9,1.4,3.4,2.1
			c1.2,0.5,1.9,0.7,2.3,1.4c0.3,0.5,0.1,0.8,0.5,1.7c0.2,0.5,0.6,1.6,1.1,1.6c0.3,0,0.3-0.3,1.1-1.2c0.8-1,1.2-1,1.3-1
			c0.3,0,0.3,0.1,0.9,0.4c1.1,0.5,1.3,0.2,1.9,0.6c0.1,0.1,0.4,0.4,1,1.1c0.6,0.7,0.6,0.8,0.9,0.9c0.5,0.2,0.8-0.1,1.6-0.3
			c0.2-0.1,0.9-0.2,1.8-0.2c0.3,0,0.6,0.1,0.9,0.2c0.6,0.2,1.5,0.6,1.5,0.9c0,0.3-0.8,0.3-2.4,0.7c-0.5,0.1-1,0.2-1.5,0.3
			c-0.6,0.1-1.2,0.3-1.9,0.5c-2,0.7-2.7,1.5-3.4,1.1c-0.5-0.3-0.4-0.8-1.1-1.2c-0.7-0.3-1.5-0.1-2.1,0.1c-0.3,0.1-1.6,0.5-1.5,1
			c0,0.5,1.4,0.5,1.7,1.3c0.2,0.5-0.2,1-0.2,1.1c-0.3,0.5-0.8,0.5-1.4,0.8c-0.9,0.4-1.4,1.1-1.9,1.8c-0.8,1-1.2,2.3-1.4,2.7
			c-0.3,0.9-0.3,1.2-0.7,1.5c-0.6,0.4-1.4,0.1-2-0.1c-1.2-0.4-1.8-1.2-2.2-1.6c-0.5-0.6-0.8-0.9-0.7-1.4c0.1-0.6,0.9-0.8,0.8-1.3
			c0-0.2-0.3-0.4-0.6-0.4c-0.4-0.1-0.6,0.4-1.2,0.7c-0.2,0.1-1,0.5-1.6,0.2c-0.3-0.2-0.4-0.5-0.6-1.1c-0.3-0.9-0.3-1.6-0.4-1.6
			c-0.1,0-0.1,1.3-0.7,1.5c-0.4,0.1-0.7-0.3-1.7-0.9c-1.4-0.9-2.9-1.4-3.3-1.5c-1-0.3-1.8-0.4-1.8-0.7c0-0.3,0.8-0.4,0.8-0.8
			c0-0.3-0.5-0.6-0.9-0.7c-0.4-0.1-0.6,0.1-1.6,0.3c-0.9,0.2-1.5,0.4-1.7,0.2c-0.2-0.2,0.2-0.5,0.1-1.2c0-0.1-0.1-0.7-0.5-0.9
			c-0.3-0.2-0.6,0-1.5,0.3c0,0-1.1,0.4-2.1,0.6c-0.6,0.1-1,0.1-1.9,0.1c-1.2,0-1.9,0-2.8-0.2c-1-0.2-1-0.4-2-0.6
			c-0.7-0.1-0.8,0-1.7-0.2c-0.8-0.1-1.4-0.3-1.4-0.3c-0.6-0.2-0.6-0.2-0.9-0.2c-0.5,0-0.6,0.2-1.3,0.3c-0.1,0-0.8,0.1-1.6,0
			c-0.4-0.1-0.5-0.2-0.6-0.3c-0.2-0.3,0.3-0.7,0.5-1.3c0.3-0.9-0.3-2.1-0.8-2.1c-0.2,0-0.4,0.3-0.7,0.8c-0.4,0.7-0.3,1-0.6,1.2
			c-0.4,0.4-1.2,0.2-1.7,0.1c-0.7-0.2-0.7-0.4-1.4-0.5c-0.5-0.1-1.2-0.3-1.7,0.2c-0.3,0.3-0.4,0.8-0.2,1c0.2,0.2,0.5,0.1,1.3,0.2
			c0.6,0.1,1,0.3,1.1,0.3c0.3,0.1,1.1,0.6,1.1,1c0,0.5-1,0.5-3.1,1.5c-1,0.5-1.3,0.7-1.8,0.7c-0.9-0.1-1.4-0.8-1.8-0.6
			c-0.4,0.2-0.1,0.9-0.5,1.8c-0.2,0.5-0.6,0.7-1.6,1.4c-2.2,1.5-2.8,2.1-3.1,1.9c-0.3-0.2,0.3-0.9,0-2c-0.1-0.4-0.2-0.6-0.8-1.6
			c-1.3-2.1-1.4-2.3-1.3-2.6c0.1-0.1,0.1-0.2,0.2-0.3c0.4-0.2,1-0.3,1.8-0.9c0.4-0.3,1.1-0.9,1-1.5c-0.1-0.5-0.8-0.8-2.3-1.4
			c-0.7-0.3-0.9-0.3-1-0.2c-0.4,0.3,0.7,1.9,0,2.6c-0.1,0.2-0.4,0.3-0.6,0.3c-0.1,0-0.1,0-0.1,0c-0.2-0.1-0.1-0.6-0.3-1.2
			c-0.1-0.3-0.2-0.5-0.5-0.8c-0.2-0.2-0.3-0.4-0.7-0.8c-0.5-0.5-0.9-0.9-1.3-1.3c-0.6-0.6-0.6-0.5-0.9-0.9c-0.5-0.5-1-0.9-1.4-1.5
			c-0.2-0.3-0.5-0.7-1-1.4c-0.4-0.6-0.5-0.7-1.1-1.7c-0.9-1.4-1.4-2-1.1-2.7c0,0,0,0,0,0c0-0.1,0.1-0.1,0.8-0.7
			c0.5-0.4,0.6-0.4,0.6-0.5c0-0.2-0.4-0.4-1-0.6c-0.7-0.3-1.1-0.4-1.3-0.3c-0.5,0.2-0.4,0.8-1.2,1.9c-0.4,0.6-0.5,0.6-0.6,0.6
			c-0.6,0-1-1.4-1.2-2c-0.2-0.7-1.2-1.8-1.6-1.4c-0.1,0.1-0.8,0.7-1.2,0.5c-0.5-0.2-0.5-1.4-0.5-2.4c0-0.5,0-0.9-0.1-0.9
			c-0.1,0-0.2,1.2-1,1.8c-0.3,0.2-0.4,0.1-1.4,0.5c-0.9,0.3-0.9,0.4-1.4,0.6c-0.3,0.1-1.2,0.3-2,0c-0.4-0.2-0.8-0.3-0.9-0.7
			c-0.1-0.6,0.9-1.1,0.7-1.6c-0.1-0.4-0.7-0.6-1.1-0.4c-0.3,0.1-0.2,0.4-0.5,0.9c-0.2,0.3-0.5,0.7-0.9,0.8c-0.5,0.2-0.9,0-2.3-0.5
			c-0.3-0.1-1.2-0.4-2.2-0.6c-1-0.2-1.1-0.1-2.4-0.3c-1.6-0.2-2.7-0.4-2.7-0.6c0-0.3,1-0.4,2.8-1.2c0.9-0.4,1.5-0.7,2.3-1.2
			c0.6-0.4,1.4-0.9,2-1.9c0.6-0.8,0.8-1.6,0.9-1.8c0.1-0.4,0.3-1,0.3-1.8c0-0.7-0.2-1.2-0.3-1.6c-0.1-0.4-0.2-0.9-0.4-1.4
			c-0.1-0.3-0.2-0.5-0.4-0.8c-1.8-3.2-5.5-4.6-5.5-4.8c0,0,0,0,0,0c0-0.1,1,0.4,2.3,0.9c1.4,0.5,2.4,0.8,3.3,1
			c1.1,0.3,2.6,0.5,4.3,0.7c1.5,0.1,2.6,0.1,4.4,0.1c0.9,0,2.1,0,3.8-0.1c2.1-0.2,3.7-0.4,4.1-0.4c1.2-0.2,2.7-0.4,4.6-1
			c1.4-0.4,2.4-0.8,4.5-1.6c0.9-0.3,1.9-0.8,3.3-1.4c1.2-0.5,2.1-1,2.8-1.4c1.3-0.7,2-1,2.8-1.5c0.9-0.6,1.7-1.1,2.7-1.9
			c1.2-1,1.3-1.4,2-1.5c0.4-0.1,0.9,0,2,0.1c0.3,0,0.6,0.1,0.8,0.1c0.2,0-0.1,0.6-0.4,1.2c-0.8,1.3-1.1,2-1.3,2.7
			c-0.1,0.5-0.2,0.9-0.2,1.5c-0.1,1.1,0.1,2,0.2,2.7c0.1,0.7,0.3,1.8,0.9,3.2c0.3,0.8,0.5,1.3,1,1.8c0.1,0.1,0.6,0.6,1.7,1.2
			c1.1,0.6,2,0.9,3.1,1.2c1.4,0.4,2.5,0.6,2.9,0.6c0.4,0.1,0.7,0.1,1,0.1c0.6,0.1,1.4,0.1,2.5,0.2c1.1,0.1,2.4,0.1,4,0.2
			c1.4,0.1,2.4,0.1,3.6,0.1c2.1,0,3.2,0,4,0c1.5-0.1,2.6-0.2,3.3-0.3c1.6-0.2,2.8-0.5,4-0.7c1.1-0.2,0.9-0.2,4.1-1
			c2.4-0.6,2.6-0.6,3.4-0.8c1-0.3,1.7-0.5,3.2-1c0.9-0.3,1.1-0.4,3.8-1.3c2.6-0.9,2.6-0.9,3.2-1.2c1.5-0.5,1.6-0.6,3.5-1.3
			c0.5-0.2,1.7-0.6,3.2-1.1c1.5-0.5,2.3-0.8,3.3-0.9c0.9-0.1,2.1-0.3,2.3,0.1c0.2,0.5-1.2,1.6-1.3,1.7c-0.8,0.6-1.3,0.7-2.9,1.3
			c-0.9,0.4-1.6,0.7-3,1.4c-1.3,0.6-2.3,1.2-2.6,1.3c-2,1.1-3,1.6-4.2,2.5c-0.8,0.6-1.6,1.3-3.1,2.7c-1.7,1.5-2.5,2.3-3.1,3.1
			c-0.5,0.7-1.3,1.9-1.7,3.6c-0.1,0.6-0.4,2.1,0.1,3.9c0.2,0.8,0.7,2.2,1.8,3.6c1,1.2,2.1,1.8,4.2,2.9c1.2,0.6,2.1,1,3.6,1.6
			c0.2,0.1,0.4,0.2,0.7,0.3c1.4,0.6,2.5,1,3.9,1.4c1,0.3,1.8,0.5,2.7,0.7c0.5,0.1,1,0.2,1.5,0.3c0.8,0.2,1.1,0.2,4.3,0.8
			c4.1,0.7,4.3,0.8,5.2,0.9c1.9,0.3,1.8,0.2,4.1,0.6c1,0.2,0.9,0.1,4.3,0.7c2.8,0.5,3.4,0.5,4.1,0.6c0.3,0,0.8,0.1,3,0.4
			c2.7,0.3,3.6,0.2,3.6,0.4c0,0.3-1.6,0.9-3.1,1.2c-1.5,0.3-2.6,0.2-3.6,0.2c-2-0.1-3.9,0-5.9,0c-2.9,0-3.2,0-3.7,0
			c-0.6,0-1,0-4.2,0.2c-2.6,0.2-3,0.2-3.8,0.3c-3,0.2-3.7,0.3-4.1,0.4c-1.4,0.2-2.4,0.4-2.9,0.6c-0.1,0-0.1,0-0.2,0.1
			c-1.1,0.3-1.9,0.5-2.9,1c-0.3,0.1-1.3,0.7-2.3,1.7c-0.4,0.4-0.8,0.8-0.9,0.9c-0.2,0.2-0.4,0.5-1,1.2c-0.6,0.8-1,1.3-1.2,1.6
			c-0.5,0.7-0.8,1.2-1,1.7c-0.5,0.8-0.7,1.3-0.8,1.6c-0.6,1.6-0.5,3.1-0.4,3.6c0.1,0.7,0.2,1.5,0.2,1.5c0.2,0.9,0.3,1.1,0.3,1.6
			c0,0.2-0.1,0.8-0.6,1.3c0,0-0.7,0.6-1.4,0.4c-0.5-0.1-0.8-0.5-1.3-1.2c-0.8-1.1-1.1-1.6-1.6-2.3c-0.4-0.6-1-1.4-1.8-2.3
			c-0.2-0.2-0.9-0.9-2.3-1.9c-1.2-0.9-2.2-1.5-3.6-2.3c-2.9-1.7-4.4-2.5-4.9-2.8c-1.3-0.6-2.7-1.1-5.5-2.1c-1.2-0.4-2.3-0.8-3.8-1.3
			c-2-0.6-3.1-0.9-4.5-1.2c-2.5-0.5-4.4-0.5-6.3-0.5c-2.7,0-4,0-5.6,0.5c-1.2,0.4-2.3,1-3.1,1.4c-0.6,0.3-1.7,0.9-2.9,1.8
			c-0.7,0.5-0.8,0.6-3.2,2.9c-1.5,1.4-2.4,2.1-3.8,2.9c-1,0.5-1.5,0.6-1.9,0.6c-1.2,0-2.5-0.6-2.9-1.6c-0.2-0.6,0-0.9,0.1-1.9
			c0-1.2-0.3-2.1-0.8-3.4c-0.6-1.5-0.8-1.5-1.8-3.6c-0.6-1.2-0.4-1.1-1.3-3.1c-0.9-2.2-1.4-3.2-2.2-4.3c-0.2-0.2-0.8-1.1-1.9-2.2
			c-0.4-0.3-1.5-1.4-3.4-2.6c-1.4-0.9-2.5-1.3-4.4-2.1c-3.3-1.4-5.8-2.1-6.5-2.3c-1.1-0.3-2.8-0.8-5.1-1.2c-2.4-0.4-4.5-0.6-6.1-0.7
			c-2.6-0.1-4.7,0-6.3,0.1c-2.3,0.1-3.9,0.3-3.9,0.3s-1.4,0.1-4,0.2c-0.5,0-1.4,0-2.5-0.3c-0.4-0.1-1.6-0.4-1.6-0.9
			c0-0.3,0.7-0.6,1.7-1c2.3-0.8,4.2-1.2,4.8-1.3c0.6-0.1,1.9-0.5,4.5-1.3c1.2-0.4,2.3-0.7,4.5-1.4
			C199.8,104.4,198.3,104.8,198.1,104.8C198.1,104.8,198.1,104.8,198.1,104.8"/>
	</g>
</g>
<path class="st3" d="M213.7,101.4c0.3-0.5,0.5-0.8,0.7-1c0.2-0.4,0.3-0.5,0.5-0.7c0.2-0.2,0.5-0.4,0.7-0.6c0.4-0.2,1-0.6,1.1-0.5
	c0.1,0.1-0.3,0.7-0.3,0.8c-0.2,0.3-0.3,0.3-0.5,0.6c-0.2,0.3-0.5,0.6-0.4,0.9c0,0.2,0.2,0.4,0.5,0.6c0.4,0.2,1,0.6,2,0.8
	c-0.8,1.2-1.2,1.4-1.3,1.3c-0.1-0.1-0.1-0.2-0.2-0.6c-0.1-0.2-0.3-0.7-0.8-0.9c-0.4-0.1-0.7,0-0.9,0.1c-0.2,0.1-0.4,0.2-0.4,0.3
	l-1.1-0.6L213.7,101.4z"/>
<path class="st3" d="M214.5,105.5c-0.1-0.1-0.4-0.5-0.3-0.8c0-0.1,0.1-0.2,0.3-0.4c0-0.1,0.2-0.2,0.3-0.4c0.1-0.1,0.3-0.3,0.6-0.5
	l-0.1,1l-0.2,1.7L214.5,105.5z"/>
<path class="st3" d="M231.1,96.5l0.9,0.8c-0.1,0.2-0.4,0.5-0.9,0.7c-0.1,0.1-0.3,0.1-0.4,0.1l-0.6-0.4L231.1,96.5z"/>
<path class="st3" d="M230.3,99.2l0.7,0.7l0.7,0.7c-0.1,0.1-0.2,0.3-0.4,0.5c-0.2,0.2-0.3,0.3-0.5,0.4l-1.1-0.6l-1-0.6L230.3,99.2z"
	/>
<path class="st3" d="M230.1,104.1l0.6-0.3c0.1,0.1,0.3,0.3,0.5,0.5c0.3,0.3,0.4,0.5,0.4,0.5c0.1,0.1,0.4,0.6,0.3,0.7
	c-0.1,0.1-0.6-0.1-0.7-0.1c-0.3-0.2-0.5-0.4-0.6-0.5L230.1,104.1z"/>
<path class="st3" d="M233.2,96.6c0.1-0.2,0.2-0.4,0.4-0.6c0,0,1.3-0.2,1.4-0.2s-0.7,0.7-0.7,0.7l-0.2,0.2l0.7,0.5l0.9,0.7l-1,0.9
	l1.1,0.7l0.7,0.5c-0.7,0.4-1.2,0.4-1.5,0.4c-0.6,0-1-0.2-1.5-0.4c-0.3-0.1-0.6-0.3-0.7-0.4L233.2,96.6z"/>
<path class="st3" d="M236.7,103.4c-0.3-0.3-0.5-0.6-1-0.7c-0.6-0.1-1,0.2-1.1,0.3l-1.1,1.3l0.9,0.7l0.2,0.3l0.2-0.5l0.8-0.1l1.2-0.4
	c0.2,0,0.3-0.1,0.3-0.1C237.1,104,236.8,103.6,236.7,103.4z"/>
<path class="st3" d="M240,103.6c0-0.1-0.1-0.1-0.6-0.2c-0.6-0.2-0.7-0.2-0.9-0.3c-0.2-0.1-0.4-0.2-0.5-0.4c-0.2-0.4,0-0.9,0-0.9
	c0-0.1,0.2-0.5,0.6-0.5c0.1,0,0.4,0,0.9,0.2c0.3,0.1,0.5,0.2,0.7,0.1c0.1,0,0.3-0.1,0.3-0.2l0.4,1.4l1.1-0.8l1.5,1.6l-0.9,0.6
	l0.2,1.2c-0.8,0-1.4-0.2-1.8-0.4c-0.3-0.1-0.5-0.3-0.8-0.2c-0.4,0.1-0.6,0.5-0.7,0.6c-0.2,0.2-0.1,0.3-0.3,0.4
	c-0.2,0.2-0.6,0.2-0.9,0.1c0,0-0.4-0.2-0.4-0.5c0-0.1,0-0.2,0.3-0.5c0.3-0.3,0.5-0.5,0.5-0.5C239.5,103.8,240.1,103.7,240,103.6z"/>
<g id="XMLID_2_">
	<g>
		<path class="st4" d="M246.1,106c-0.1,1.5-0.2,1.6-0.3,1.7c-0.2,0.3-0.7,0.3-1.2,0.3c-0.8,0-1.3-0.4-1.7-0.1
			c-0.2,0.1-0.3,0.3-0.3,0.4l0.8,0.4c0.3,0,0.4,0.1,0.5,0.2c0.1,0.3-0.9,1.2-2.1,1.5c-0.6,0.2-0.9,0-2.3,0.2c-0.8,0.1-1,0.2-1.1,0.3
			c0,0.2,0.8,0.6,1.3,0.8c0.8,0.3,1.1,0.1,1.5,0.4c0.5,0.4,0.5,1,0.6,1.2c0.1,0.5-0.3,0.6-0.6,1.7c-0.1,0.5-0.1,0.7-0.3,0.9
			c-0.3,0.4-0.7,0.6-1,0.7c-1.5-0.1-2.1-0.5-2.3-0.9c-0.2-0.3-0.2-0.6-0.5-1.2c-0.2-0.4-0.5-0.7-0.6-0.8c-0.4,0.9-1.3,1.2-1.9,1
			c-0.8-0.3-0.7-1.5-0.6-2c0.1-0.3,0.1-0.8,0.5-0.9c0.3-0.1,0.5,0.1,1.3,0.1c0.4,0,0.5,0,0.7,0c0.3-0.1,0.7-0.3,0.7-0.5
			c0-0.2-0.7-0.1-1.1-0.6c-0.4-0.4-0.4-1.2-0.1-1.5c0.2-0.2,0.5-0.2,1-0.2c2-0.1,1.7-0.4,3.5-0.5c0.4,0,0.8,0,0.9-0.2
			c0.1-0.3-0.5-0.6-0.4-1c0.1-0.2,0.3-0.3,0.9-0.5c1.1-0.4,1.2-0.4,1.5-0.6c0.2-0.1,0.9-0.5,1.3-1.2c0.3-0.6,0.3-1.2,0.3-1.8
			c0-0.5-0.1-0.9-0.2-1.2l1.5-0.6c0.5-0.3,1.1-0.3,1.5,0c0.3,0.2,0.5,0.7,0.4,1c-0.1,0.2-0.2,0.2-0.4,0.4c-0.2,0.3-0.1,0.6-0.3,1.3
			c-0.1,0.6-0.1,0.8-0.4,1c-0.3,0.2-0.6,0.1-0.8,0.3C246.2,105.5,246.1,105.7,246.1,106z"/>
	</g>
	<g>
		<path class="st5" d="M246.2,101.3c0.5-0.3,1.1-0.3,1.5,0c0.3,0.2,0.5,0.7,0.4,1c-0.1,0.2-0.2,0.2-0.4,0.4
			c-0.2,0.3-0.1,0.6-0.3,1.3c-0.1,0.6-0.1,0.8-0.4,1c-0.3,0.2-0.6,0.1-0.8,0.3c-0.1,0.2-0.1,0.3-0.2,0.6c-0.1,1.5-0.2,1.6-0.3,1.7
			c-0.2,0.3-0.7,0.3-1.2,0.3c-0.8,0-1.3-0.4-1.7-0.1c-0.2,0.1-0.3,0.3-0.3,0.4l0.8,0.4c0.3,0,0.4,0.1,0.5,0.2
			c0.1,0.3-0.9,1.2-2.1,1.5c-0.6,0.2-0.9,0-2.3,0.2c-0.8,0.1-1,0.2-1.1,0.3c0,0.2,0.8,0.6,1.3,0.8c0.8,0.3,1.1,0.1,1.5,0.4
			c0.5,0.4,0.5,1,0.6,1.2c0.1,0.5-0.3,0.6-0.6,1.7c-0.1,0.5-0.1,0.7-0.3,0.9c-0.3,0.4-0.7,0.6-1,0.7c-1.5-0.1-2.1-0.5-2.3-0.9
			c-0.2-0.3-0.2-0.6-0.5-1.2c-0.2-0.4-0.5-0.7-0.6-0.8c-0.4,0.9-1.3,1.2-1.9,1c-0.8-0.3-0.7-1.5-0.6-2c0.1-0.3,0.1-0.8,0.5-0.9
			c0.3-0.1,0.5,0.1,1.3,0.1c0.4,0,0.5,0,0.7,0c0.3-0.1,0.7-0.3,0.7-0.5c0-0.2-0.7-0.1-1.1-0.6c-0.4-0.4-0.4-1.2-0.1-1.5
			c0.2-0.2,0.5-0.2,1-0.2c2-0.1,1.7-0.4,3.5-0.5c0.4,0,0.8,0,0.9-0.2c0.1-0.3-0.5-0.6-0.4-1c0.1-0.2,0.3-0.3,0.9-0.5
			c1.1-0.4,1.2-0.4,1.5-0.6c0.2-0.1,0.9-0.5,1.3-1.2c0.3-0.6,0.3-1.2,0.3-1.8c0-0.5-0.1-0.9-0.2-1.2L246.2,101.3z"/>
	</g>
</g>
<path class="st3" d="M235.9,118.5c-0.4-0.9-0.3-1.2-0.8-1.7c-0.1-0.1-0.5-0.4-1-0.5c-0.5-0.1-0.9,0.1-1.1,0.2l-0.7,0.3
	c0.5,0.8,0.8,1.5,0.9,2c0.2,0.8,0.2,1.3,0.7,1.8c0.1,0.1,0.4,0.4,1,0.6c0.2,0.1,0.8,0.2,1.3,0c0.1-0.1,0.5-0.3,0.7-0.7
	C237,120,236.4,119.7,235.9,118.5z"/>
<path class="st3" d="M240.8,118.5c0.2,0.1,0.2,0.5,0.2,0.7c0,0.6-0.3,1-0.5,1.4c-0.1,0.2-0.4,0.6-0.9,0.9c-0.5,0.4-1,0.5-1.3,0.5
	c-0.7,0.3-0.8,0.2-0.9,0.2c-0.2-0.2,0.3-0.9,0.5-1.3c0.3-0.5,0.7-0.9,0.8-1C239.2,119.4,240.4,118.2,240.8,118.5z"/>
<path class="st3" d="M243.1,115.5c0.6-0.1,1,0.3,1.3,0.5c0.1,0.1,0.4,0.3,0.7,0.7c0.1,0.2,0.2,0.3,0.6,1.1c0.1,0.3,0.3,0.5,0.3,0.6
	l-1.5,1.6c-0.5-0.5-0.8-1-1.1-1.4c-0.6-0.7-0.8-1-1-1.5c-0.1-0.4-0.3-0.9-0.1-1.3C242.6,115.5,243,115.5,243.1,115.5z"/>
<polygon class="st3" points="244.8,110.4 245.8,109.6 247.4,111 246.5,111.6 "/>
<path class="st3" d="M245.1,114.3c0.4-0.7,0.8-1.4,1.2-2.1l-2.9-0.3l-0.9,0.5c0.1,0.2,0.3,0.6,0.6,0.9c0.4,0.3,0.7,0.5,0.9,0.5
	L245.1,114.3z"/>
<path class="st3" d="M242.5,122.1c0.3,0,0.6-0.2,0.7-0.6l-0.4-0.7l-0.4-0.8c-0.1,0.1-0.7,0.4-0.8,0.9c0,0.1-0.1,0.3,0,0.5
	C241.8,121.7,242,122.1,242.5,122.1z"/>
<polygon class="st3" points="239.1,124.9 239.6,124.4 240.3,124.9 240.8,125.3 240.1,125.7 "/>
<polygon class="st3" points="245.9,120 246.5,119.8 247.4,121.4 246.3,121.8 "/>
<polygon class="st3" points="252.4,118 253.4,117.2 253.8,117.7 252.8,118.4 "/>
<polygon class="st3" points="252.4,124.4 252.9,124 254.5,125.2 253.4,125.9 "/>
<polygon class="st3" points="265.4,125.4 265.6,125 267.1,125.4 266.8,126.1 "/>
<polygon class="st3" points="269.4,125.1 269.7,124.3 271.2,125 270.8,125.7 "/>
<polygon class="st3" points="266.9,107.9 268.6,106.6 269.2,107.1 268.1,109 "/>
<path class="st3" d="M249.4,105.8l2.2-0.9l-0.5,2c0.2,0.1,0.6,0.3,0.9,0.6c0.2,0.2,0.4,0.4,0.5,0.7c0.2,0.7-0.6,1.4-0.7,1.5
	l-2.4-1.6l0.9-1L249.4,105.8z"/>
<path class="st3" d="M253.9,105.8l1.3,1.2c0.3-0.1,0.7-0.4,1-0.8c0.2-0.3,0.5-0.7,0.4-1.1c-0.1-0.4-0.5-0.6-0.5-0.6
	c-0.3-0.1-0.7-0.1-1,0.2L253.9,105.8z"/>
<polygon class="st3" points="271.8,109 272.4,108.1 273.2,108.6 272.3,109.4 "/>
<path class="st3" d="M264.5,105.4l1.6,1.1c0.1,0,0.3-0.2,0.3-0.5c0-0.4-0.6-0.7-0.7-0.8c-0.2-0.1-0.5-0.1-0.6-0.1L264.5,105.4z"/>
<path class="st3" d="M246.6,114.3l5.5,1.4l-0.2,0.5c-1.1,0.3-1.8,0.7-2.2,1c-0.2,0.1-0.5,0.3-0.9,0.3c-0.3,0-0.6-0.2-0.8-0.3
	L246.6,114.3z"/>
<path class="st3" d="M248.5,118.4c0.2,0.1,0.6,0.1,1.1,0.2c0.7,0.1,1.1,0,1.5,0.2c0.1,0.1,0.5,0.3,0.5,0.7c0,0.4-0.3,0.7-0.5,0.8
	c-0.4,0.2-1,0.1-1.5-0.4L248.5,118.4z"/>
<path class="st3" d="M250.7,122.1c0.1-0.1,0.4-0.3,0.8-0.4c0.4-0.1,0.7-0.1,1.1,0c0.5,0.1,0.9,0.2,1.3,0.5c0.1,0.1,0.3,0.3,0.3,0.5
	c0,0.3-0.4,0.5-0.4,0.5c-0.3,0.2-0.7,0.1-1.2,0c-0.3-0.1-0.6-0.1-1.1-0.3L250.7,122.1z"/>
<path class="st3" d="M256.8,125.2c0.1-0.1,0-0.2,0.1-0.7c0-0.4,0.1-0.5,0.1-0.8c0-0.1,0-0.5-0.2-0.7c-0.2-0.3-0.5-0.4-0.7-0.4
	c-0.2-0.1-0.4-0.2-0.5-0.1c-0.1,0.1,0.1,0.3,0.2,0.6c0,0.3-0.1,0.4-0.1,0.7c0,0.5,0.3,0.9,0.4,1C256.2,125,256.6,125.3,256.8,125.2z
	"/>
<path class="st3" d="M253.7,115c-0.1-0.3-0.2-0.6,0-0.8c0.2-0.2,0.4-0.3,0.5-0.3l1.1,0.8l1,0.8l-0.2,0.5L253.7,115z"/>
<path class="st3" d="M256.2,112.3c0.1-0.1,0.2-0.1,0.7-0.2c0.6-0.1,0.6-0.2,0.9-0.2c0.3,0,0.5,0,0.8,0c0.3,0,0.5,0,0.7,0.1l0.5,1
	l-0.2,1.4l-1.1,1.1c-0.5-0.7-0.9-1.1-1.2-1.4c-0.2-0.2-0.6-0.5-0.9-1C256.3,112.8,256.1,112.5,256.2,112.3z"/>
<path class="st3" d="M256.3,117.7c-0.1,0.2-0.1,0.4,0,0.7c0.1,0.2,0.2,0.6,0.4,1l0.3,0.3l1.5-0.8l1.4-1c-0.1-0.1-0.3-0.3-0.6-0.5
	c-0.3-0.2-0.7-0.1-1.3-0.1c-0.5,0-0.7,0.1-0.9,0.1C256.6,117.4,256.4,117.5,256.3,117.7z"/>
<path class="st3" d="M259.9,125.3c0.1-0.2,0.2-0.2,1-0.4c0.5-0.2,0.7-0.3,1.1-0.4c0.5-0.1,0.6-0.1,0.7-0.1c0.1,0.1,0.2,0.1,0.4,0.5
	c0.1,0.2,0.2,0.4,0.4,0.7l0.3,0.5l-3.1,0.3h-1.1c0-0.1,0.1-0.2,0.2-0.4C259.8,125.6,259.8,125.5,259.9,125.3z"/>
<path class="st3" d="M259.8,107.1c0-0.1,0.2-0.4,0.5-0.6c0.1-0.1,0.4-0.2,0.7-0.2c0.3,0,0.7,0.2,0.8,0.5c0.1,0.2,0,0.5-0.2,0.7
	c-0.2,0.4-0.5,0.6-1,1.1c-0.3,0.2-0.6,0.5-1.1,0.9h-1.1L259.8,107.1z"/>
<path class="st3" d="M264.6,113.6l0.9-0.5l0.8-0.6c0.1,0.1,0.3,0.3,0.4,0.6c0.1,0.3,0.2,0.4,0.2,0.6c0,0.3-0.3,0.5-0.4,0.5l-0.6,0.6
	L264.6,113.6z"/>
<path class="st3" d="M261,119.2c0-0.1-0.3-0.5-0.1-1c0.1-0.2,0.3-0.4,0.4-0.4c0.4-0.2,0.7-0.1,1.1-0.1c0.5,0.1,0.8,0.3,0.9,0.3
	c0.3,0.2,0.6,0.3,0.6,0.6c0,0.2-0.2,0.4-0.5,0.6c-0.2,0.2-0.6,0.4-1,0.6l-0.8,0.3L261,119.2z"/>
<path class="st3" d="M263.9,122c-0.1-0.1-0.2-0.3-0.1-0.5c0.1-0.3,0.6-0.3,0.9-0.3c0.3,0,0.6,0.1,0.9,0.2c0.4,0.1,0.6,0.2,0.8,0.3
	c0.3,0.2,0.5,0.5,0.6,0.7l-0.8,1L263.9,122z"/>
<path class="st3" d="M269.2,121.6c-0.1-0.5-0.1-1-0.2-1.5c0.5,0.4,0.9,0.5,1.2,0.6c0.4,0.1,0.6,0,1,0.2c0.5,0.1,0.8,0.4,1,0.6
	l0.4,0.4c-0.4,0.4-0.7,0.5-0.9,0.5c-0.3,0.1-0.6,0-1.2-0.1c-0.3-0.1-0.6-0.2-0.8-0.2L269.2,121.6z"/>
<path class="st3" d="M275.9,112.6c0-0.1,0-0.6,0.4-0.9c0.3-0.2,0.6-0.3,0.9-0.3c0.4-0.1,0.7,0,0.9,0l-1.1,0.9l-0.9,0.9L275.9,112.6z
	"/>
<path class="st3" d="M275.7,108c0,0.1,0.1,0.4,0.4,0.6c0.3,0.2,0.6,0.3,0.7,0.3h0.9l-0.3-0.5l1-1.7l0.2-0.8v-0.9h-0.9l-0.6,0.7
	L275.7,108z"/>
<path class="st3" d="M273.4,117.8l1-0.5c0-0.1,0.1-0.8-0.3-1.4c-0.2-0.3-0.5-0.5-0.7-0.6h-1l-0.2,0.4L273.4,117.8z"/>
<path class="st3" d="M275.4,123.5c0.3,0.3,0.5,0.5,0.6,0.7c0.2,0.4,0.2,0.5,0.2,0.6c0,0.3-0.2,0.4-0.3,0.5c-0.4,0.4-1.1,0.2-1.2,0.2
	l-1,0.4c0,0.1,0,0.4,0.2,0.6c0.4,0.5,1.1,0.3,1.2,0.3c0.4-0.1,0.6-0.2,0.8-0.4l2-1.6c-0.2-0.2-0.4-0.5-0.8-0.8
	c-0.3-0.2-0.5-0.3-0.7-0.4L275.4,123.5z"/>
<path class="st3" d="M277.3,118.7c0,0-0.1-0.6,0.3-1c0.3-0.3,0.6-0.3,0.9-0.3c0.3,0.1,0.4,0.3,0.6,0.5c0.6,0.7,1.5,0.9,1.9,1
	c0.6,0.2,1.1,0.3,1.6,0.1c0.4-0.2,0.6-0.5,1.2-0.5c0.2,0,0.4,0,0.6,0.1c0.3,0.2,0.4,0.6,0.5,0.8c0,0.2,0,0.4,0,0.5l-0.9,1.3
	l-0.6,0.8L277.3,118.7z"/>
<path class="st3" d="M278.8,127.6c0.3,0.3,0.5,0.6,0.6,0.8c0.2,0.3,0.3,0.5,0.5,0.6c0.3,0.2,0.6,0.3,0.9,0.3l0.6-0.4
	c-0.4-0.4-0.6-0.7-0.7-1c-0.2-0.3-0.3-0.6-0.5-0.9c-0.2-0.2-0.4-0.3-0.6-0.4h-0.7V127.6z"/>
<path class="st3" d="M282.9,129.1c0.1-0.5,0.3-0.7,0.4-0.9c0.1-0.1,0.4-0.4,0.9-0.5c0.1,0,0.8-0.2,1.2,0.3c0.2,0.3,0.2,0.6,0.2,0.9
	c0,0.4-0.1,0.5-0.2,0.9c0,0.4,0,0.6,0,0.8h-0.9c-0.1,0.1-0.4,0.2-0.7,0.1c-0.1,0-0.5-0.1-0.9-0.5
	C282.8,129.8,282.9,129.3,282.9,129.1z"/>
<polygon class="st3" points="288.1,125.7 289.4,125.2 289.5,125.7 288.4,126.1 "/>
<path class="st6" d="M200,92.8c0.9,0.6,1.6,0.9,2,1.1c0.1,0,0.3,0.1,0.6,0.3c0.5,0.3,0.8,0.7,0.9,0.8c0.3,0.4,0.9,0.9,2.3,1.6"/>
<path class="st3" d="M223.3,99.5c0.1-0.3,0.5-0.6,0.9-0.6c0,0,0.3,0,0.4,0.2c0.1,0.2,0.1,0.3,0.2,0.5c0.1,0.4,0.4,0.6,0.9,0.9
	c0.7,0.4,1,0.4,1.2,0.7c0.1,0.2,0.1,0.4,0,0.6c-0.2,0.4-0.6,0.3-1,0.7c-0.1,0.2-0.3,0.5-0.2,0.8c0.1,0.2,0.3,0.3,1.3,0.7
	c0.5,0.2,0.7,0.3,0.9,0.4c0.5,0.3,0.9,0.5,1.1,0.7l0.6,0.8h-1.4l-2.3,0.1l-0.8,1.5l-0.6,1.1c-0.3-0.1-0.7-0.3-1.1-0.5
	c-0.9-0.5-1.5-0.8-1.6-1.4c0-0.3,0.2-0.6,0.6-1.3c0.3-0.6,0.5-0.8,0.8-1.1c0.2-0.2,0.4-0.4,0.4-0.6c0-0.3-0.2-0.5-0.3-0.7
	c-0.4-0.5-1-0.7-1.3-0.8c-0.2,0.2-0.4,0.5-0.9,0.7c-0.2,0.1-0.6,0.3-1.1,0.3c-0.3,0-0.8,0-1-0.3c-0.2-0.4,0.3-0.9,0.6-1.2
	c0.2-0.2,0.5-0.3,0.6-0.4c0.4-0.2,0.6-0.1,1-0.3c0.2-0.1,0.5-0.2,0.8-0.4l1,0.7l0.6,0.4l0.5,0.5c0-0.3,0.1-0.7-0.1-1.2
	C223.6,100.2,223.2,100,223.3,99.5z"/>
<path class="st3" d="M206.1,105.8c-0.4,0.4-0.8,0.7-1.1,1.1c0.2,0.2,0.5,0.6,1.1,0.9c0.8,0.4,3.6,0.3,3.6,0.3l1.3-0.7l1.8-1.1
	l0.6-0.4v-1.4l-1,0.9c-0.1-0.3-0.2-0.7-0.2-1.1c0-0.5,0.1-0.6,0-1.1c0-0.5-0.1-0.8-0.3-1.1c-0.2-0.2-0.4-0.1-0.8-0.3
	c-0.4-0.2-0.4-0.5-0.7-0.6c-0.2-0.1-0.4,0-0.6,0l-0.7,0c0,0.5,0.1,0.7,0.3,0.9c0.1,0.1,0.2,0.1,0.5,0.4c0.1,0.1,0.4,0.3,0.6,0.5
	c0.2,0.2,0.3,0.4,0.4,0.6c0.1,0.4-0.1,0.8-0.3,1.1c-0.2,0.4-0.5,0.7-0.7,0.8c-0.2,0.2-0.6,0.5-1.2,0.7c-0.8,0.2-1.5,0-1.8-0.2
	L206.1,105.8z"/>
<path class="st7" d="M226.8,116.4c-0.1,0.5,0.1,0.9,0.4,1.1c0.1,0,0.3,0.1,0.5,0.1c0.3-0.1,0.5-0.4,0.6-0.6c0.4-0.8,0.3-1.2,0.6-2
	c0.3-1,0.5-0.8,0.8-1.9c0.1-0.4,0.1-0.7,0.4-0.9c0.2-0.2,0.6-0.3,1-0.2c0.2,0,0.3,0.1,0.5,0.1c0.3-0.1,0.5-0.3,0.5-0.4
	c0.2-0.3,0-0.7,0-0.7l1.4-0.3l1.4-0.2V110c-0.7,0-0.9-0.2-1-0.3c-0.1-0.2,0-0.4,0.1-1c0-0.4,0-0.9-0.3-1.2c-0.4-0.4-0.9-0.3-1.3-0.3
	c-0.7,0.1-1.2,0.4-1.4,0.6l-1.3,1.1l1.5,0.6c0.2,0,0.5,0.1,0.5,0.2c0.1,0.3-0.6,0.7-1.1,0.9c-0.2,0.1-0.9,0.3-1.6,0
	c-0.6-0.3-0.6-0.6-1.2-0.9c-0.5-0.3-1-0.3-1.4-0.3l-1.2,1.1l0.8,0.9l0.7-0.3l0,1.5c0.1,0.1,0.3,0.2,0.5,0.3c0.2,0.2,0.5,0.4,0.7,0.7
	c0.1,0.1,0.5,0.8,0.4,1.6c-0.1,0.4-0.2,0.7-0.4,0.9L226.8,116.4z"/>
<path class="st3" d="M218.1,104.1c0.1-0.1,0.4-0.1,1.4,0.6l0.6,1l1.1,1.6c0.4,0.5,0.8,1,1.1,1.5c0.2,0.3,0.4,0.5,0.6,0.8l0.2,1h-1.3
	c-0.3,0-0.7,0.1-1.2,0c-0.7-0.1-1.2-0.4-1.5-0.6l0.3-1.3l0.4-1.3c-0.9,0.1-1.2,0.1-1.2,0c0-0.1,0.4-0.2,0.6-0.6c0.1-0.2,0-0.5,0-0.7
	c-0.1-0.4-0.3-0.5-0.6-1C218.3,104.8,217.9,104.3,218.1,104.1z"/>
<path class="st8" d="M267.3,117.2l1-0.6c0.5,0,1,0.3,1.1,0.6c0.1,0.4-0.3,1.1-1.1,1.2L267.3,117.2z"/>
<path class="st8" d="M263,110.7c-0.3-0.1-0.7,0.4-0.9,1.1l0.7,0.7c0.5-0.3,0.7-0.7,0.7-1.1C263.4,111.1,263.2,110.7,263,110.7z"/>
<path class="st8" d="M250.5,112.5h1.4c0.8-0.4,1.2-0.9,1.2-1.1c-0.1-0.3-0.8-0.3-1.8-0.1L250.5,112.5z"/>
<path class="st9" d="M220,143.6c-0.1,0-0.2,0-0.2,0"/>
<g id="XMLID_3_">
	<g>
		<path class="st1" d="M197.2,128.9c0.5,0.1,1,0,1.5-0.2c1-0.3,1.3-0.6,2.1-0.9c0.5-0.2,1.2-0.3,2.1-0.2l2.1,0.1l-0.8,2.3
			c0.2,0.1,0.4,0.2,0.8,0.2c0.2,0,0.6-0.1,1.3-0.5c0.8-0.6,0.7-0.9,1.3-1.3c0.3-0.2,0.8-0.4,1.9-0.6c1.2-0.3,1.5-0.3,2.7-0.6
			c0.2-0.1,0.8-0.2,1.9-0.5c1.6-0.4,2.4-0.6,2.8-0.8c0.4-0.1,1.2-0.4,2.3-0.7c0.5-0.2,1-0.3,1.5-0.4c0.7-0.2,0.9-0.3,1.2-0.2
			c0.4,0.1,0.7,0.6,0.8,0.9l0.2,0.8c0.1-0.1,0.3-0.4,0.5-0.7c0.4-0.6,0.4-0.9,0.6-1.1c0.4-0.2,1.1,0.3,1.2,0.4
			c0.7,0.6,0.8,1.2,1.4,2.4c0.4,0.9,0.5,0.8,1.1,2c0.3,0.6,0.6,1.3,1.1,2.6c0.5,1.3,0.5,1.3,0.9,2.3c0.2,0.5,0.2,0.6,0.5,1.3
			c0.3,0.7,0.6,1.6,0.6,1.6s0.5,3.1,0.5,3.1c-0.4,0.2-1.4,1.5-1.6,1.3c-0.2-0.1,0.3-0.8,0-1.4c-0.2-0.4-0.7-0.5-0.7-0.5
			c-0.5-0.1-0.7,0.1-1.1,0c-0.4-0.1-0.3-0.4-0.8-0.7c-0.2-0.1-0.6-0.4-1.1-0.3c-0.4,0.1-0.6,0.4-1.1,1.1c-0.5,0.6-0.5,0.8-0.7,0.8
			c-0.3,0.1-0.5-0.3-1.5-1c-0.5-0.4-0.7-0.4-0.9-0.4c-0.4,0-0.8,0.3-0.9,0.5c-0.4,0.3-0.3,0.5-0.6,0.8c-0.4,0.3-0.8,0.3-1.1,0.4
			c-0.7,0.1-0.9-0.1-1.5-0.1c-0.8,0-1,0.3-2.1,0.5c-1,0.2-1,0-2.2,0.2c-0.3,0-0.4,0.1-2.4,0.6c-1.4,0.4-1.5,0.4-1.8,0.4
			c-0.9-0.1-1.6-0.7-2-1.1l-1-0.9c0.1,0.3,0.2,0.9-0.1,1.7c-0.1,0.2-0.4,0.9-1.1,1.4c-0.3,0.2-0.4,0.2-1.6,0.5
			c-0.7,0.2-1.4,0.4-2.1,0.6c-1.1,0.3-1.4,0.4-1.9,0.4c-0.2,0-0.8-0.1-1-0.6c-0.1-0.3,0-0.5,0.3-1.4c0.6-1.4,0.7-1.7,0.7-1.8
			c0.1-0.3,0.3-0.9,0.3-1.6c0-0.2,0.1-1-0.2-2.1c-0.2-0.9-0.3-1-0.3-1.4c0-0.5,0.3-1.2,0.8-1.3c0.3-0.1,0.3,0.1,1.1,0
			c0.7,0,0.9-0.1,1-0.2c0.1-0.1,0.4-0.3,0.4-0.6c0-0.4-0.4-0.7-0.7-0.8c-0.3-0.2-0.6-0.2-0.7-0.3c-0.6-0.1-0.9,0-1.6,0.1
			c-0.3,0-0.7,0.1-1.3,0.1l-3.7-2.8l-2.3-1.6c0.2-0.1,0.4-0.3,0.8-0.4c1.4-0.5,2.6,0.1,2.7,0.1C196.5,128.2,196.4,128.7,197.2,128.9
			z"/>
		<path class="st0" d="M174.4,125.1c-0.8-0.2-1.5-0.4-2.5-0.6c-1.4-0.3-2.7-0.5-2.7-0.5c-0.4-0.1-1.2-0.2-2-0.5
			c-0.1-0.1-0.5-0.2-0.9-0.5c-0.4-0.3-1-0.6-0.9-1c0.1-0.3,0.6-0.5,0.8-0.6c0.8-0.3,1.4-0.1,2.2,0c0.8,0.1,0.4,0,2.5,0.1
			c1.2,0.1,2.1,0.2,3.2,0.3c0.9,0.1,2.1,0.2,3.5,0.5c2,0.3,2.1,0.4,4.3,0.8c1.2,0.2,2.1,0.3,3.9,0.6c2.1,0.3,3.2,0.4,4.5,0.6
			c2.2,0.2,3.9,0.3,5.5,0.4c0.6,0,2.1,0.1,4.1,0.1c1.8,0,3.2,0,4.4,0c1.1,0,2.1,0,4-0.1c2.5-0.1,3-0.1,3.7-0.2
			c1.2-0.2,2.2-0.5,2.9-0.8c1-0.4,2-0.7,3.1-1.4c1.4-0.8,2.1-1.2,2.5-2c0.2-0.4,0.3-0.7,0.6-0.8c0.8-0.3,1.8,0.5,2.5,1.1
			c1.2,1,1.8,2.1,1.9,2.2c3.4,6.1,6.4,9.4,6.2,12.4c0,0.4-0.2,2.6-0.1,4.3c0,0.1,0,0.5,0,0.5c-0.1,0-0.5-3.1-0.5-3.1
			s-0.3-0.8-0.6-1.6c-0.3-0.7-0.3-0.8-0.5-1.3c-0.4-1-0.4-1-0.9-2.3c-0.5-1.3-0.7-2-1.1-2.6c-0.6-1.2-0.6-1-1.1-2
			c-0.5-1.2-0.7-1.8-1.4-2.4c-0.1-0.1-0.8-0.6-1.2-0.4c-0.3,0.1-0.3,0.5-0.6,1.1c-0.2,0.3-0.4,0.5-0.5,0.7l-0.2-0.8
			c-0.1-0.3-0.3-0.8-0.8-0.9c-0.3-0.1-0.6,0-1.2,0.2c-0.5,0.2-1,0.3-1.5,0.4c-1,0.3-1.9,0.6-2.3,0.7c-0.4,0.1-1.2,0.3-2.8,0.8
			c-1.1,0.3-1.7,0.5-1.9,0.5c-1.2,0.3-1.5,0.3-2.7,0.6c-1,0.3-1.5,0.4-1.9,0.6c-0.6,0.4-0.5,0.8-1.3,1.3c-0.7,0.5-1.1,0.5-1.3,0.5
			c-0.4,0-0.6-0.1-0.8-0.2l0.8-2.3l-2.1-0.1c-0.9-0.1-1.6,0-2.1,0.2c-0.8,0.3-1.1,0.6-2.1,0.9c-0.6,0.2-1,0.3-1.5,0.2
			c-0.8-0.2-0.8-0.6-1.7-1.1c-0.1,0-1.4-0.6-2.7-0.1c-0.3,0.1-0.6,0.3-0.8,0.4l2.3,1.6l3.7,2.8c0.6,0,1,0,1.3-0.1
			c0.7-0.1,1-0.2,1.6-0.1c0.2,0,0.4,0.1,0.7,0.3c0.3,0.2,0.7,0.4,0.7,0.8c0,0.3-0.3,0.6-0.4,0.6c-0.1,0.1-0.3,0.2-1,0.2
			c-0.7,0-0.8-0.1-1.1,0c-0.5,0.2-0.8,0.9-0.8,1.3c-0.1,0.5,0.1,0.6,0.3,1.4c0.2,1.1,0.2,1.9,0.2,2.1c-0.1,0.7-0.2,1.3-0.3,1.6
			c0,0.2-0.1,0.4-0.7,1.8c-0.4,0.9-0.5,1.1-0.3,1.4c0.2,0.4,0.8,0.5,1,0.6c0.5,0.1,0.8,0,1.9-0.4c0.7-0.2,1.4-0.4,2.1-0.6
			c1.2-0.3,1.3-0.3,1.6-0.5c0.7-0.5,1-1.2,1.1-1.4c0.3-0.8,0.2-1.4,0.1-1.7l1,0.9c0.4,0.5,1.1,1.1,2,1.1c0.3,0,0.5,0,1.8-0.4
			c2-0.5,2.1-0.6,2.4-0.6c1.2-0.2,1.2,0.1,2.2-0.2c1.1-0.2,1.3-0.6,2.1-0.5c0.6,0,0.8,0.2,1.5,0.1c0.3,0,0.8-0.1,1.1-0.4
			c0.3-0.3,0.3-0.5,0.6-0.8c0.2-0.2,0.5-0.5,0.9-0.5c0.2,0,0.4,0,0.9,0.4c1,0.7,1.2,1.1,1.5,1c0.2,0,0.2-0.2,0.7-0.8
			c0.5-0.6,0.8-1,1.1-1.1c0.5-0.1,0.9,0.2,1.1,0.3c0.5,0.3,0.4,0.5,0.8,0.7c0.4,0.1,0.6-0.1,1.1,0c0.1,0,0.5,0.1,0.7,0.5
			c0.3,0.6-0.1,1.3,0,1.4c0.2,0.2,1.2-1.1,1.6-1.3c0.1,0,0.1,0,0.1,0c0.2,0.1-0.1,1.4-0.9,2.4c-1.1,1.3-2.7,1.5-2.9,1.6
			c-0.8,0.1-0.9-0.1-2.6-0.3c-1.2-0.1-2.2-0.1-3.3,0c-1.1,0-1.9,0.1-3.4,0.3c-1.7,0.2-2.6,0.3-3.9,0.5c-1.1,0.2-2.1,0.4-4.1,0.9
			c-2,0.5-3.1,0.7-4.3,1c-1.1,0.3-1.1,0.3-4.9,1.4c-3,0.9-3.4,1-4.4,1.3c-1,0.3-2.1,0.8-3.5,1.4c-0.7,0.3-2,1-3.6,2
			c-0.7,0.5-1.7,1.1-3.2,1.9c-1.2,0.6-1.7,0.7-2,0.4c-0.4-0.3-0.4-1.3-0.1-1.9c0.2-0.6,0.5-0.8,1.8-1.7c1.4-1.1,2.1-1.6,2.6-2.1
			c0.5-0.5,0.8-0.9,1.4-1.8c0.7-1,1.2-1.9,1.8-2.9c0.5-0.9,0.9-1.6,1.4-2.6c0.7-1.4,1-2.1,1.1-2.9c0.1-0.5,0.2-1.4-0.1-2.6
			c-0.3-1.1-0.8-1.8-1.4-2.4c-0.9-1.1-1.8-1.7-2.6-2.3c-0.7-0.5-1.4-0.9-2.8-1.6c-1.9-1-2.9-1.5-4-1.9c-1.9-0.7-1.8-0.4-3.6-1.1
			c-1.2-0.5-1.6-0.8-3-1.3C175.8,125.5,175.1,125.2,174.4,125.1z"/>
	</g>
	<g>
		<path class="st2" d="M231.4,139.9c-0.4,0.2-1.4,1.5-1.6,1.3c-0.2-0.1,0.3-0.8,0-1.4c-0.2-0.4-0.7-0.5-0.7-0.5
			c-0.5-0.1-0.7,0.1-1.1,0c-0.4-0.1-0.3-0.4-0.8-0.7c-0.2-0.1-0.6-0.4-1.1-0.3c-0.4,0.1-0.6,0.4-1.1,1.1c-0.5,0.6-0.5,0.8-0.7,0.8
			c-0.3,0.1-0.5-0.3-1.5-1c-0.5-0.4-0.7-0.4-0.9-0.4c-0.4,0-0.8,0.3-0.9,0.5c-0.4,0.3-0.3,0.5-0.6,0.8c-0.4,0.3-0.8,0.3-1.1,0.4
			c-0.7,0.1-0.9-0.1-1.5-0.1c-0.8,0-1,0.3-2.1,0.5c-1,0.2-1,0-2.2,0.2c-0.3,0-0.4,0.1-2.4,0.6c-1.4,0.4-1.5,0.4-1.8,0.4
			c-0.9-0.1-1.6-0.7-2-1.1l-1-0.9c0.1,0.3,0.2,0.9-0.1,1.7c-0.1,0.2-0.4,0.9-1.1,1.4c-0.3,0.2-0.4,0.2-1.6,0.5
			c-0.7,0.2-1.4,0.4-2.1,0.6c-1.1,0.3-1.4,0.4-1.9,0.4c-0.2,0-0.8-0.1-1-0.6c-0.1-0.3,0-0.5,0.3-1.4c0.6-1.4,0.7-1.7,0.7-1.8
			c0.1-0.3,0.3-0.9,0.3-1.6c0-0.2,0.1-1-0.2-2.1c-0.2-0.9-0.3-1-0.3-1.4c0-0.5,0.3-1.2,0.8-1.3c0.3-0.1,0.3,0.1,1.1,0
			c0.7,0,0.9-0.1,1-0.2c0.1-0.1,0.4-0.3,0.4-0.6c0-0.4-0.4-0.7-0.7-0.8c-0.3-0.2-0.6-0.2-0.7-0.3c-0.6-0.1-0.9,0-1.6,0.1
			c-0.3,0-0.7,0.1-1.3,0.1l-3.7-2.8l-2.3-1.6c0.2-0.1,0.4-0.3,0.8-0.4c1.4-0.5,2.6,0.1,2.7,0.1c0.9,0.4,0.9,0.9,1.7,1.1
			c0.5,0.1,1,0,1.5-0.2c1-0.3,1.3-0.6,2.1-0.9c0.5-0.2,1.2-0.3,2.1-0.2l2.1,0.1l-0.8,2.3c0.2,0.1,0.4,0.2,0.8,0.2
			c0.2,0,0.6-0.1,1.3-0.5c0.8-0.6,0.7-0.9,1.3-1.3c0.3-0.2,0.8-0.4,1.9-0.6c1.2-0.3,1.5-0.3,2.7-0.6c0.2-0.1,0.8-0.2,1.9-0.5
			c1.6-0.4,2.4-0.6,2.8-0.8c0.4-0.1,1.2-0.4,2.3-0.7c0.5-0.2,1-0.3,1.5-0.4c0.7-0.2,0.9-0.3,1.2-0.2c0.4,0.1,0.7,0.6,0.8,0.9
			l0.2,0.8c0.1-0.1,0.3-0.4,0.5-0.7c0.4-0.6,0.4-0.9,0.6-1.1c0.4-0.2,1.1,0.3,1.2,0.4c0.7,0.6,0.8,1.2,1.4,2.4
			c0.4,0.9,0.5,0.8,1.1,2c0.3,0.6,0.6,1.3,1.1,2.6c0.5,1.3,0.5,1.3,0.9,2.3c0.2,0.5,0.2,0.6,0.5,1.3c0.3,0.7,0.6,1.6,0.6,1.6
			S231.3,139.9,231.4,139.9z"/>
		<path class="st2" d="M220.3,120.3c-0.5,0.8-1.1,1.2-2.5,2c-1.2,0.7-2.1,1-3.1,1.4c-0.8,0.3-1.7,0.6-2.9,0.8
			c-0.7,0.1-1.2,0.2-3.7,0.2c-1.9,0.1-2.9,0.1-4,0.1c-1.1,0-2.5,0-4.4,0c-2,0-3.5-0.1-4.1-0.1c-1.5-0.1-3.2-0.2-5.5-0.4
			c-1.3-0.1-2.4-0.3-4.5-0.6c-1.8-0.2-2.7-0.4-3.9-0.6c-2.2-0.4-2.3-0.5-4.3-0.8c-1.5-0.2-2.6-0.4-3.5-0.5c-1.1-0.1-1.9-0.2-3.2-0.3
			c-2.1-0.2-1.7,0-2.5-0.1c-0.8-0.1-1.4-0.3-2.2,0c-0.2,0.1-0.8,0.2-0.8,0.6c-0.1,0.4,0.5,0.7,0.9,1c0.4,0.3,0.8,0.4,0.9,0.5
			c0.9,0.3,1.6,0.4,2,0.5c0,0,1.3,0.2,2.7,0.5c1,0.2,1.8,0.4,2.5,0.6c0.6,0.2,1.4,0.4,2.3,0.7c1.5,0.5,1.8,0.8,3,1.3
			c1.8,0.7,1.8,0.4,3.6,1.1c1.2,0.4,2.1,0.9,4,1.9c1.4,0.7,2.1,1.1,2.8,1.6c0.8,0.5,1.7,1.2,2.6,2.3c0.5,0.7,1.1,1.3,1.4,2.4
			c0.3,1.2,0.2,2.1,0.1,2.6c-0.1,0.8-0.5,1.5-1.1,2.9c-0.5,1-0.9,1.7-1.4,2.6c-0.6,1-1.1,1.8-1.8,2.9c-0.6,0.8-0.9,1.3-1.4,1.8
			c-0.5,0.6-1.2,1.1-2.6,2.1c-1.2,0.9-1.5,1.1-1.8,1.7c-0.3,0.6-0.3,1.6,0.1,1.9c0.3,0.2,0.8,0.1,2-0.4c1.5-0.7,2.5-1.4,3.2-1.9
			c1.6-1,2.9-1.6,3.6-2c1.4-0.7,2.6-1.1,3.5-1.4c1-0.4,1.4-0.4,4.4-1.3c3.8-1.1,3.8-1.2,4.9-1.4c1.3-0.3,2.3-0.6,4.3-1
			c2-0.5,3.1-0.7,4.1-0.9c1.2-0.2,2.2-0.3,3.9-0.5c1.6-0.2,2.4-0.2,3.4-0.3c1.2,0,2.1-0.1,3.3,0c1.7,0.1,1.8,0.4,2.6,0.3
			c0.3,0,1.8-0.3,2.9-1.6c0.8-1,1.1-2.2,0.9-2.4c0,0-0.1,0-0.1,0c0,0,0-0.4,0-0.5c-0.2-1.7,0-3.9,0.1-4.3c0.2-3-2.8-6.3-6.2-12.4
			c0,0-0.6-1.2-1.9-2.2c-0.6-0.5-1.7-1.4-2.5-1.1C220.6,119.7,220.5,119.9,220.3,120.3z"/>
	</g>
</g>
<path class="st3" d="M216,127.8c0-0.1,0.2-0.5,0.6-0.7c0.4-0.2,0.7-0.1,1,0c0.5,0.1,0.6,0.3,1.2,0.6c0.6,0.3,1.2,0.3,1.5,0.3
	c0.7,0,1.2-0.1,1.5-0.1c0.4-0.1,0.8-0.2,1.1-0.3l0.9,0.2c-0.1,0.1-0.1,0.3-0.3,0.4c-0.2,0.3-0.3,0.4-0.5,0.6
	c-0.1,0.1-0.4,0.3-0.9,0.4l-1.6,0.4l-0.2-0.5l-1.1,0.3l-1.5,0.3c-0.3,0.1-0.8,0.3-1.3,0.3c-0.3,0-0.5,0.1-0.6,0
	c-0.3-0.2-0.3-0.7-0.3-0.8L216,127.8z"/>
<path class="st3" d="M224.9,132.9c0.2,0.2,0.5,0.4,0.9,0.5c0.2,0.1,0.4,0.1,0.7,0.1c0.4,0,0.6,0,1.2,0c0.2,0,0.5,0,0.9,0l-0.4-1.4
	c-0.2,0-0.4,0-0.7,0c-0.5,0-1,0.1-1.4,0.1L224.9,132.9z"/>
<path class="st3" d="M218.5,133.3c0.2-0.1,0.3-0.2,0.7-0.2c0.3,0,0.4-0.1,0.6-0.1c0.1,0,0.8,0,1.1-0.1l0.1,0.4l-1,0.6l0.7,0.9
	l0.9,0.8c-0.2,0.1-0.4,0.2-0.7,0.4c-0.5,0.2-0.8,0.4-1.1,0.2c-0.1,0-0.1-0.1-0.4-0.7c-0.3-0.7-0.4-0.9-0.6-1.2
	c-0.1-0.2-0.2-0.3-0.3-0.4c-0.2-0.1-0.4-0.3-0.3-0.4C218.3,133.5,218.4,133.4,218.5,133.3z"/>
<path class="st3" d="M228.8,138.1c0.4,0,0.6-0.3,0.7-0.4c0.1-0.1,0.2-0.2,0.2-0.3V137l-1.3,0.4h-1c0.1,0.1,0.3,0.2,0.6,0.4
	C228.3,138,228.5,138.1,228.8,138.1z"/>
<path class="st3" d="M224.2,136.1l0.2-0.3l1.9-0.4c0.1,0.3,0,0.4,0,0.5c-0.1,0.2-0.4,0.3-0.9,0.4c-0.3,0.1-0.5,0.1-0.7,0.1
	L224.2,136.1z"/>
<polygon class="st3" points="216,138.6 217.1,137.9 218,138.4 217,138.9 216.6,139 "/>
<path class="st3" d="M207.2,135.8c0.1-0.2,0.4-0.5,0.8-0.7c0.4-0.2,0.9-0.2,1-0.2l1.2,0l0.2,0.9c-0.1,0.1-0.2,0.3-0.4,0.6
	c-0.3,0.3-0.4,0.3-1.1,0.8c-0.4,0.3-0.5,0.4-0.7,0.4c-0.3,0.1-0.6-0.1-0.8-0.2l-1.1-0.4L207.2,135.8z"/>
<path class="st3" d="M212.5,136.4c0.3-0.2,0.5-0.3,0.7-0.4c0.3-0.2,0.6-0.3,1-0.5c0.3-0.2,0.6-0.3,0.8-0.3h1l-0.2,0.6
	c-0.1,0.1-0.2,0.2-0.4,0.4c-0.2,0.2-0.4,0.2-0.7,0.4c-0.4,0.2-0.3,0.2-0.9,0.4c-0.2,0.1-0.6,0.2-1,0.4c-0.1,0-0.8-0.3-0.7-0.5
	C212.1,136.7,212.1,136.6,212.5,136.4z"/>
<g id="XMLID_4_">
	<g>
		<path class="st0" d="M278.2,137.6c0.6,0.3,1.1,0.7,1.1,0.7c-0.1,0-0.5-0.2-1.2-0.6C278.1,137.6,278.2,137.6,278.2,137.6z"/>
		<path class="st0" d="M259.5,147.3l-0.6,0.8l-1.1-0.8c-0.1-0.1-0.7-0.4-0.9-1.1c-0.1-0.5-0.1-1.2,0.3-1.5c0.3-0.3,0.7-0.2,1.9-0.2
			c0.9,0,1.5,0,1.9,0L259.5,147.3z"/>
		<path class="st1" d="M248.5,142.2c-0.8,0-0.9,0.1-1.5,0c-0.5,0-0.8-0.1-1.1-0.3c-0.3-0.3-0.5-0.8-0.4-1.2c0.1-0.5,0.6-0.7,0.5-0.9
			c-0.1-0.2-0.6-0.3-1-0.2c-0.5,0.1-1,0.5-1.2,1c-0.2,0.4,0,0.5-0.2,1.2c-0.1,0.4-0.3,0.9-0.7,1.1c-0.3,0.2-0.6,0.1-1.9-0.3
			c-1.2-0.4-1.7-0.5-2.3-0.8c-1.1-0.5-1.3-0.7-1.4-0.9c0,0,0,0,0-0.1c-0.2-0.7,0.9-1.7,1.1-1.8c1-0.9,2-1.9,3.1-2.9
			c1.9-1.6,2.1-1.8,2.6-2.1c0.8-0.6,1.4-0.9,2.6-1.5c1.7-0.9,2.6-1.3,3.6-1.5c0.4-0.1,1.1-0.1,2.5-0.2c1.7-0.1,2.6-0.1,3.9,0
			c1.8,0.1,3.2,0.3,3.6,0.4c1,0.2,1.4,0.3,4.2,1.1c2.7,0.8,2.4,0.6,3.2,0.9c3.3,1,5.8,2.1,6.4,2.4c1.7,0.8,3.1,1.5,4,2
			c-0.6,0.4-1.4,1-2.4,1.5c-0.6,0.3-1,0.5-2.6,1.1c-1.9,0.7-2.9,1.1-3.4,1.3c-1.9,0.8-1.7,0.9-4.1,1.9c-2.4,1-3,1.2-3.8,1.9
			c-0.8,0.8-1.3,1.6-1.5,2.2l-0.7-0.3l1.6-2.8c-0.3,0-1,0-1.9,0c-1.3,0-1.6-0.1-1.9,0.2c-0.4,0.4-0.5,1-0.3,1.5
			c0.2,0.7,0.7,1,0.9,1.1l1.1,0.8l0.6,0.4l-2.2,1.8c-1.7,0.5-2.2,1.3-2.5,1.8c-0.1,0.2-0.2,0.6-0.5,1.3c-0.2,0.6-0.4,1-0.5,1.4
			l-1.4-2.1l-1.4-2l-0.2-0.8l0.5-2l-1.8,0.2l-1.6-1.5l-1.3-1.2l-0.9-0.8l2.3-1.1c0.2,0.2,0.4,0.5,0.9,0.7c0.3,0.2,0.6,0.3,0.8,0.2
			c0.4-0.1,0.6-0.7,0.6-1.1c0-0.1,0-0.6-0.4-0.9C249.4,142.2,249.1,142.2,248.5,142.2z"/>
		<path class="st0" d="M248.7,144.2c-0.4-0.2-0.7-0.5-0.9-0.7l-2.3,1.1l0.9,0.8l1.3,1.2l1.6,1.5l1.8-0.2l-0.5,2l0.2,0.8l1.4,2
			l1.4,2.1c0.1-0.3,0.3-0.8,0.5-1.4c0.3-0.7,0.4-1.1,0.5-1.3c0.2-0.5,0.8-1.2,2.5-1.8l2.2-1.8l-0.6-0.4l0.6-0.8l0.7,0.3
			c0.2-0.6,0.7-1.4,1.5-2.2c0.9-0.8,1.5-0.9,3.8-1.9c2.4-1.1,2.2-1.1,4.1-1.9c0.5-0.2,1.5-0.6,3.4-1.3c1.6-0.6,2-0.8,2.6-1.1
			c1-0.5,1.9-1.1,2.4-1.5c0.7,0.4,1.1,0.6,1.2,0.6c0,0-0.5-0.4-1.1-0.7c0,0,0.1-0.1,0.1-0.1c1,0.6,1.8,1.1,2.3,1.5
			c1.1,0.7,1.8,1,2.6,1.7c0.1,0.1,1.7,1.3,1.5,1.6c-0.1,0.2-0.8-0.3-2.1-0.5c-0.9-0.1-1.6-0.1-2.3,0c-1.2,0.1-2.1,0.4-3.5,0.8
			c-0.3,0.1-1.6,0.5-3.4,1.2c-1.1,0.5-2,0.8-3.1,1.4c-1.6,0.9-2.6,1.7-3.6,2.4c-1.2,1-2.1,1.7-3,2.6c-1.3,1.3-2.2,2.2-3.7,3.8
			c-1.6,1.7-2.4,2.5-3.1,3.5c-0.7,0.9-0.8,1.1-2,2.7c-1,1.2-1.1,1.3-1.3,1.8c-0.7,1.3-0.5,1.9-1.2,2.6c-0.5,0.5-1.3,1-1.9,0.8
			c-0.2-0.1-0.4-0.3-0.5-0.5c-0.8-1.4-1.1-1.4-1.5-2.2c-0.6-1.1-0.2-1.5-0.6-3.7c-0.1-0.9-0.4-2.4-1.2-4.1c-0.3-0.7-0.7-1.4-1.5-2.8
			c-0.8-1.3-1.2-1.9-1.7-2.6c-0.9-1.1-1.9-1.8-2.7-2.3c-2.3-1.5-4.4-2-5.4-2.2c-0.5-0.1-0.6-0.1-1.4-0.2c-0.6-0.1-1.1-0.2-1.9-0.3
			c-2.4-0.4-4.6-0.5-4.6-0.7c0-0.1,0.6-0.1,1.5-0.5c0.1-0.1,0.8-0.4,1.4-1.1c1-1.2,0.5-2,1.1-2.4c0.9-0.6,2,0.8,3.9,0.4
			c0.5-0.1,1-0.5,2.1-1.3c0.5-0.4,0.9-0.7,2.9-2.6c1.5-1.4,1.8-1.6,2.4-2.1c0.7-0.5,1.4-0.9,1.8-1.2c0.9-0.5,1.7-0.9,2-1.1
			c0.5-0.3,1.4-0.7,2.2-0.9c1.2-0.4,2.2-0.4,4.3-0.5c1.8-0.1,3.2,0,4,0.1c1,0.1,1.7,0.2,2.1,0.2c0.3,0,1.1,0.2,2.1,0.4
			c1.4,0.3,1.5,0.4,4.2,1.2c0.8,0.2,1.2,0.3,1.9,0.6c0.5,0.2,0.7,0.3,1.5,0.6c0.5,0.2,0.6,0.2,1.5,0.5c1.5,0.5,2.3,0.8,2.9,1.1
			c0.5,0.2,0.8,0.3,1.1,0.5c0.1,0.1,0.4,0.2,1.2,0.6c0.5,0.2,0.8,0.4,1.2,0.7c0.3,0.2,0.7,0.4,1,0.6c0,0-0.1,0.1-0.1,0.1
			c-0.9-0.5-2.3-1.2-4-2c-0.6-0.3-3.1-1.4-6.4-2.4c-0.8-0.2-0.5-0.1-3.2-0.9c-2.8-0.8-3.2-0.9-4.2-1.1c-0.4-0.1-1.8-0.3-3.6-0.4
			c-1.3-0.1-2.2,0-3.9,0c-1.4,0.1-2.1,0.1-2.5,0.2c-1,0.2-1.9,0.6-3.6,1.5c-1.2,0.6-1.8,0.9-2.6,1.5c-0.5,0.3-0.7,0.5-2.6,2.1
			c-1.1,0.9-2.1,1.9-3.1,2.9c-0.2,0.2-1.2,1.1-1.1,1.8c0,0.1,0,0.1,0,0.1c0.1,0.2,0.3,0.4,1.4,0.9c0.7,0.3,1.1,0.4,2.3,0.8
			c1.4,0.4,1.6,0.5,1.9,0.3c0.4-0.2,0.6-0.8,0.7-1.1c0.2-0.6,0-0.7,0.2-1.2c0.2-0.5,0.6-0.9,1.2-1c0.4-0.1,0.9,0,1,0.2
			c0.1,0.2-0.4,0.4-0.5,0.9c-0.1,0.4,0.1,1,0.4,1.2c0.3,0.2,0.6,0.3,1.1,0.3c0.6,0.1,0.8-0.1,1.5,0c0.6,0,0.9,0,1.2,0.3
			c0.4,0.3,0.4,0.8,0.4,0.9c0,0.4-0.2,1-0.6,1.1C249.3,144.6,249,144.4,248.7,144.2z"/>
	</g>
	<g>
	</g>
</g>
<path class="st3" d="M274.2,136.3c0.5,0.3,1,0.6,1.4,0.9c-0.1,0.2-0.2,0.6-0.4,0.9c-0.2,0.4-0.3,0.6-0.5,0.7
	c-0.3,0.3-0.5,0.3-1.3,0.5c-0.6,0.2-1.1,0.4-1.7,0.6c-0.5,0.2-1,0.3-1.2,0.4h-1.9v-1.7l-0.1-1.9v-1.2V135c-0.2,0-0.5-0.1-0.8-0.3
	c-0.4-0.3-0.8-0.9-0.7-1.1c0.2-0.3,1.2,0,2,0.6c0.5,0.3,0.6,0.6,1.1,0.8c0.5,0.2,1,0.1,1.3,0c0.2,0,0.5,0.1,0.6,0.3
	c0.1,0.3,0,0.6-0.3,0.8c-0.2,0.1-0.3,0-0.7,0.1c-0.4,0.1-0.7,0.4-0.8,0.6c-0.3,0.3-0.4,0.7-0.4,0.9l-0.6,1c0.2,0.2,0.5,0.4,0.9,0.6
	c0.3,0.2,0.5,0.3,0.7,0.3c0.4,0,0.8-0.2,1-0.4c0.2-0.2,0.5-0.4,0.7-0.7c0.2-0.5,0.1-1.1,0-1.2L274.2,136.3z"/>
<path class="st3" d="M254,131.6c0-0.1,0.3-0.2,1.6-0.3l1,0.5c0.5,0.5,1,0.6,1.3,0.7c0.3,0.1,0.6,0.1,0.7,0.1c0.6,0,0.7-0.2,1.1-0.1
	c0.5,0.1,0.7,0.4,0.8,0.5c0.4,0.6,0.2,1.2,0.2,1.3l0,0.3l0.6-0.4v-2c0.1,0,0.3-0.1,0.5,0c0.3,0.1,0.3,0.2,0.6,0.4
	c0.1,0.1,0.4,0.1,0.7,0.1v0.7l1.1,0.2l0.9,0.4l-0.5,1.4l-0.4,0.6c-0.4,0.1-0.5,0.1-0.6,0c-0.1-0.1,0-0.3-0.2-0.6
	c-0.1-0.1-0.3-0.2-0.6-0.3c-0.4-0.1-0.6-0.2-0.8-0.1c-0.1,0-0.3,0.1-0.9,0.7c-0.5,0.5-0.5,0.6-0.7,0.7c-0.3,0.2-0.7,0.2-1.4,0.3
	c-1.1,0.1-1.2,0-1.3-0.1c-0.1-0.1-0.1-0.2-0.2-1.1c0-0.5,0-0.7,0-1.1c0-0.3,0-0.7-0.1-1.3l-1.1,0l-1.2,0.1l-0.7,0
	c0.3-0.3,0.5-0.7,0.4-1C254.6,131.8,254,131.7,254,131.6z"/>
<path class="st3" d="M246.5,133.4c0-0.3,0.6-0.5,1.1-0.6c0.2,0,0.4,0,0.5,0l1.3,0.1l1.6,0h0.8l0.1,0.4l-1.3,0.8
	c-0.1,0.1-0.4,0.8-1.2,0.9c-0.6,0.1-1-0.1-1.1-0.2c-0.4-0.2-0.3-0.4-0.8-0.7C247,133.6,246.5,133.6,246.5,133.4z"/>
<path class="st3" d="M251.1,137.1c-0.1-0.4,0.1-0.7,0.1-0.7c0.1-0.2,0.4-0.3,0.9-0.6c0.5-0.2,0.5-0.2,0.8-0.4
	c0.3-0.2,0.3-0.3,0.6-0.6c0.3-0.2,0.5-0.4,0.7-0.4c0.2,0,0.2,0.1,0.7,0.4c0.4,0.2,0.5,0.2,0.6,0.3c0.1,0.1,0.1,0.3-0.1,0.7l-0.7,0.7
	l-1,0.6c-0.2,0.1-0.8,0.5-1,0.6c-0.1,0.1-0.6,0.4-0.7,0.5c-0.1-0.1-0.3-0.3-0.5-0.5C251.2,137.5,251.1,137.4,251.1,137.1z"/>
<path class="st3" d="M245.2,136.4c0,0.1,0,0.5,0.4,0.8c0.3,0.3,0.7,0.2,0.8,0.2c0.1,0,0.3,0,0.9-0.4c0.2-0.1,0.5-0.3,0.9-0.6v-0.4
	l-0.9-0.2c-0.2-0.1-0.5-0.2-0.9-0.1c-0.3,0-0.5,0.1-0.7,0.2L245.2,136.4z"/>
<polygon class="st3" points="248.3,139 248.7,139.6 249.6,138.8 250.2,138.4 249.7,137.9 "/>
<path class="st3" d="M242,137.5c0.5,0.1,0.7,0.1,1.1,0.2c0.4,0.1,0.6,0.2,0.9,0.3c0.4,0.2,0.6,0.4,0.8,0.5l0.1,0.3l-1.1-0.1l-1.4,0
	l-0.8,0c-0.2-0.2-0.4-0.4-0.3-0.7c0,0,0-0.2,0.2-0.4C241.6,137.4,241.8,137.5,242,137.5z"/>
<path class="st3" d="M239.9,141c0.1,0.2,0.4,0.3,0.8,0.3l0.8-0.6l0.8-0.8l-0.2-0.4c-0.3,0.1-0.6,0.2-0.9,0.3c-0.2,0-0.6,0.1-0.9,0.4
	C240.1,140.4,239.8,140.7,239.9,141z"/>
<path class="st3" d="M252.2,140.6l1-1l0.8,0.3l0.5,0.1l-0.7,0.5l-0.6,0.5l-0.3,0.1c-0.1,0.1-0.5-0.2-0.5-0.2L252.2,140.6z"/>
<path class="st3" d="M255.7,140.5c-0.2-0.6-0.2-1-0.1-1.1c0.1-0.5,0.2-0.9,0.4-1l0.3-0.4c0.4,0.3,0.5,0.6,0.6,0.8
	c0.1,0.3,0.1,0.4,0.3,0.7c0.1,0.3,0.3,0.5,0.4,0.6c0.3,0.3,0.3,0.3,0.4,0.5c0.1,0.2,0.1,0.5,0,0.9l-0.6,0.8
	c-0.2-0.1-0.5-0.3-0.7-0.6C256.3,141.5,255.9,141.1,255.7,140.5z"/>
<path class="st3" d="M260.5,140c0.5-0.4,0.7-0.4,1-0.7c0.4-0.4,0.3-0.5,0.6-0.8c0.4-0.3,0.9-0.4,1.2-0.4c0.6,0,1,0.2,1.3,0.3
	l0.4,0.3l-1.2,1.7c-0.1,0.2-0.3,0.5-0.7,0.8c-0.4,0.3-0.8,0.4-1.4,0.6c-0.5,0.1-0.9,0.2-1.4,0.1c-0.2-0.1-0.5-0.1-0.6-0.4
	c-0.1-0.3,0.1-0.7,0.3-0.9C260,140.4,260.2,140.2,260.5,140z"/>
<polygon class="st3" points="252.8,144.3 254.1,143.6 254.5,144 253.1,144.9 "/>
<g id="XMLID_5_">
	<g>
		<path class="st0" d="M313.6,146c0.3,0.2,0.8,0.5,0.8,0.8c-0.1,0.4-1.1,0.6-1.2,0.6c-0.9,0.1-1.5-0.1-2.2-0.4
			c-1.4-0.5-2.5-0.9-3.4-1.2c-1.2-0.4-1.2-0.2-2.9-0.8c-1-0.3-1.1-0.4-2.7-0.9c-1.9-0.6-3.3-1-3.7-1.1c-1.9-0.6-2.9-0.8-3.7-0.9
			c-1.8-0.1-2.7,0.4-3,0c-0.2-0.3-0.1-1,1.5-3l3.5,0.3l0.2-0.5l-1.2-0.9l-1.4-1c0.6-2.3,1.4-2.6,1.7-2.7c0.5-0.1,0.9,0.4,2.1,1.5
			c0.7,0.6,1.4,1.1,2.7,2c1.4,0.9,1.4,0.8,3.7,2.3c1.8,1.1,1.6,1.1,3.1,2c0.6,0.4,1.5,0.9,3.3,2C311.8,144.5,312.6,145.3,313.6,146z
			"/>
	</g>
	<g>
		<path class="st10" d="M294.2,136.9c0.6-2.3,1.4-2.6,1.7-2.7c0.5-0.1,0.9,0.4,2.1,1.5c0.7,0.6,1.4,1.1,2.7,2
			c1.4,0.9,1.4,0.8,3.7,2.3c1.8,1.1,1.6,1.1,3.1,2c0.6,0.4,1.5,0.9,3.3,2c1,0.6,1.8,1.4,2.8,2c0.3,0.2,0.8,0.5,0.8,0.8
			c-0.1,0.4-1.1,0.6-1.2,0.6c-0.9,0.1-1.5-0.1-2.2-0.4c-1.4-0.5-2.5-0.9-3.4-1.2c-1.2-0.4-1.2-0.2-2.9-0.8c-1-0.3-1.1-0.4-2.7-0.9
			c-1.9-0.6-3.3-1-3.7-1.1c-1.9-0.6-2.9-0.8-3.7-0.9c-1.8-0.1-2.7,0.4-3,0c-0.2-0.3-0.1-1,1.5-3l3.5,0.3l0.2-0.5l-1.2-0.9
			L294.2,136.9z"/>
	</g>
</g>
<path class="st11" d="M293.1,138.7c0.3-0.5,0.6-1.1,1-1.6l2.4,1.7l-0.1,0.2L293.1,138.7z"/>
</svg>
