<svg xmlns="http://www.w3.org/2000/svg" viewBox="0 0 430 566.5"><defs><style>.cls-1,.cls-2{fill:#426968;}.cls-1{stroke:#426968;stroke-miterlimit:10;stroke-width:30px;}.cls-3{fill:#dce1de;}</style></defs><g id="bottle"><circle class="cls-1" cx="215" cy="351.5" r="200"/><rect class="cls-2" x="138" y="31" width="155" height="135"/><rect class="cls-2" x="120" width="190" height="61" rx="17.14"/></g><g id="liquid"><path class="cls-3" d="M376,538c10.51-11.08,14.93-12.94,25-16,4.78-1.45,14.49-3.83,34-2,29.58,2.77,50.69,16.06,63,24,15.68,10.11,18.83,17.48,37,30,19.66,13.55,29,18.74,56,23,19,3,25,1,43-2,20-3.33,35.54-15.54,40-20,16-16,16-17.22,31-41s13.7-24.41,17-24c3.75.46,8.18,7.61,4,34-10.74,67.86-61.89,110.3-64,112-49.87,40.2-116.86,51.23-171,33-41.39-13.94-71.29-37.73-95-66C370,592,359.08,555.83,376,538Z" transform="translate(-328 -166)"/></g><g id="bubble_big"><circle class="cls-3" cx="293.5" cy="343.5" r="55"/></g><g id="bibble_medium"><circle class="cls-3" cx="138" cy="282" r="45"/></g><g id="bubble_small"><circle class="cls-3" cx="220" cy="186" r="35"/></g></svg>