<svg id="Layer_1" data-name="Layer 1" xmlns="http://www.w3.org/2000/svg" viewBox="0 0 339.41 339.41"><defs><style>
.cls-1{fill:#4a7284;}
.cls-2{fill:#5d889c;}
.cls-3{fill:#6e98ab;}
.cls-4{fill:#fff;}
</style></defs>
<circle class="cls-1" cx="169.71" cy="169.71" r="169.71"/>
<circle class="cls-2" cx="164.21" cy="155.21" r="146.5"/>
<ellipse class="cls-3" cx="155.71" cy="131.71" rx="120" ry="113"/>
<path class="cls-4" d="M428,418.85v-54.2c.17-29.54,13.36-61.78,39.46-77.58l1.82-1.07c38.88-22.74,45,33.19,45.63,58.39v21.35c-11.61.69-23.14,1.55-34.72,2.61V344.42c.67-8.39-1.17-23.3-11.82-19.88-9.68,3.11-11.34,16.13-11.26,25.66v82.07c-.4,9.38,1.84,23.37,11.26,26.19,10.4,3.11,12.44-12,11.82-20.53V415.58c11.58,1.09,23.11,2,34.72,2.67v21c-.63,24.85-6.25,80.87-44.95,58.44-1.28-.74-1.91-1.11-3.17-1.87C440.84,480,428.14,448.25,428,418.85Z" transform="translate(-392.29 -225.29)"/>
<path class="cls-4" d="M528.4,440.33v-97c-.11-32.12,9-85.05,52.69-79.86l2.11.25c40.14,4.81,50.73,50.9,50.63,84.37v87.43c.1,33.26-9.88,79-49.84,84-1.48.18-2.22.27-3.7.43C536.76,524.93,528.29,472.2,528.4,440.33Zm68.16,3.56V338.34c.6-10.25-1.24-27.46-14.42-28.44-13.83-1-14.69,17.15-14.57,27V445.29c-.1,9.94,1.12,28.72,14.57,27.75C595,472.11,597.12,454.19,596.56,443.89Z" transform="translate(-392.29 -225.29)"/>
<path class="cls-4" d="M643.34,475.93c10.53-18.47,31.33-43.06,31.18-65.74,0-5.72-1.36-8.12-5.3-7.76-4.35.4-6.11,3.29-6.11,9.08v4.69c-7.47,1.34-11.4,1.94-19.54,3V416.1c-.28-16.21,5.31-36.81,25.65-34.44l1.24.1c13.22,1.35,21.48,10.34,21.37,23.53-.16,18.85-12.45,36.65-21.16,52.57A114.33,114.33,0,0,0,692,442.65v17A181.21,181.21,0,0,1,643.34,497Z" transform="translate(-392.29 -225.29)"/>
</svg>