<svg id="Layer_1" data-name="Layer 1" xmlns="http://www.w3.org/2000/svg" viewBox="0 0 339.41 339.41"><defs><style>.cls-1{fill:#4a6b59;}.cls-2{fill:#51815d;}.cls-3{fill:#5b9877;}.cls-4{fill:#fff;}</style></defs><circle class="cls-1" cx="169.71" cy="169.71" r="169.71"/><circle class="cls-2" cx="164.21" cy="155.21" r="146.5"/><ellipse class="cls-3" cx="155.71" cy="131.71" rx="120" ry="113"/><path class="cls-4" d="M944.5,579.46v-54.2c.16-29.05,12.6-61,38.2-76.81l1.75-1.05c38-22.77,43.47,33.81,44.1,57.89v21.22c-11.22.71-22.36,1.57-33.55,2.63V505.39c0-17.18-3.59-22.79-11.42-19.74-9.79,3.81-11.32,16.33-10.89,25.44v81.52c-.38,9.19,1.74,23.21,10.89,26,10.07,3,12-12.09,11.42-20.38V576c11.19,1.09,22.33,2,33.55,2.7v20.88c-.59,23.73-5.59,80.39-43.44,57.93-1.23-.72-1.84-1.09-3.06-1.84C956.6,639.79,944.64,608.39,944.5,579.46Z" transform="translate(-906.79 -382.56)"/><path class="cls-4" d="M1146.58,441.05V663.48a185.84,185.84,0,0,1-36.45,10.14V576.54c-9.39.33-18.81.52-28.21.56v99.32a198.66,198.66,0,0,1-38-2.63v-243a198.66,198.66,0,0,1,38-2.63V526c9.4,0,18.82.24,28.21.6V430.91A185.84,185.84,0,0,1,1146.58,441.05Z" transform="translate(-906.79 -382.56)"/><path class="cls-4" d="M1208.5,607.06c-2.33,2.19-3.53,3.25-6,5.31v14.47a123.18,123.18,0,0,1-17.67,15.5V624.86a160.29,160.29,0,0,1-27.51,13.29V615.58c7.44-24.05,15-48.07,23.41-71.8,9.37.6,13.78.93,21.77,1.68v48.48c2.48-1.42,3.68-2.16,6-3.68Zm-34.52-.32c4.63-1.61,6.88-2.48,11.24-4.31V571.28Q1179.38,588.93,1174,606.74Z" transform="translate(-906.79 -382.56)"/></svg>