<svg id="Layer_1" data-name="Layer 1" xmlns="http://www.w3.org/2000/svg" viewBox="0 0 339.41 339.41"><defs><style>.cls-1{fill:#4a6b59;}.cls-2{fill:#51815d;}.cls-3{fill:#5b9877;}.cls-4{fill:#fff;}</style></defs><circle class="cls-1" cx="169.71" cy="169.71" r="169.71"/><circle class="cls-2" cx="164.21" cy="155.21" r="146.5"/><ellipse class="cls-3" cx="155.71" cy="131.71" rx="120" ry="113"/><path class="cls-4" d="M944.5,579.46v-54.2c.16-29.31,13-61.41,38.88-77.22l1.79-1.06c38.49-22.76,44.26,33.47,44.92,58.15v21.3c-11.43.7-22.78,1.56-34.18,2.62V505.2c.65-8.28-1-23.15-11.64-19.82-9.5,3-11.52,16.35-11.09,25.56v81.82c-.39,9.29,1.8,23.29,11.09,26.09,10.25,3.08,12.24-12,11.64-20.46V576.11c11.4,1.09,22.75,2,34.18,2.69v20.94c-.61,24.33-5.94,80.65-44.25,58.21-1.26-.73-1.88-1.11-3.12-1.86C957,640.21,944.64,608.65,944.5,579.46Z" transform="translate(-906.79 -382.56)"/><path class="cls-4" d="M1043.38,600.84V504c-.12-31.81,8.62-84.81,52-80.18l2.09.21c40.22,4.32,50.29,51.08,50.18,84.2v88.31c.1,32.91-9.36,79.33-49.4,83.79-1.46.16-2.19.24-3.65.38C1051.37,685.2,1043.27,632.43,1043.38,600.84Zm67.27,3.85V498.76c.6-10.11-1.16-27.54-14.25-28.41-13.7-.91-14.51,17.34-14.39,27.14V605.94c-.1,9.89,1.07,28.72,14.39,27.87C1109.15,633,1111.21,614.87,1110.65,604.69Z" transform="translate(-906.79 -382.56)"/><path class="cls-4" d="M1208.5,607.06c-2.36,2.23-3.59,3.3-6.1,5.39V627a125.29,125.29,0,0,1-18,15.7V625.1a160.5,160.5,0,0,1-28,13.4V615.84c7.58-24.15,15.27-48.27,23.85-72.09,9.54.6,14,.94,22.16,1.71V594c2.51-1.45,3.74-2.2,6.1-3.74Zm-35.14-.11c4.72-1.63,7-2.5,11.46-4.35V571.34C1180.85,583.16,1177.06,595,1173.36,607Z" transform="translate(-906.79 -382.56)"/></svg>