<svg id="tree_front" data-name="tree front" xmlns="http://www.w3.org/2000/svg" viewBox="0 0 262.02 310.15"><defs><style>.cls-1{fill:#d45f00;}.cls-2{fill:#d18135;}.cls-3{fill:#d7a335;}</style></defs><g id="Layer_11" data-name="Layer 11"><path class="cls-1" d="M979.94,520.61c-68.12-20.14-103.63-101.63-79.3-182,9.57-31.57,26.93-58.28,48.63-77.84a1.71,1.71,0,0,1,2.81,1.59,92.29,92.29,0,0,0-2.32,13c-3.74,35.46,13,66.68,37.42,69.73A31.49,31.49,0,0,0,1000,344c19.12-5.58,35-28.49,38.13-57.59,2.64-24.95-4.87-47.8-18.05-60.22a37.67,37.67,0,0,0-9.38-6.54,1.53,1.53,0,0,1,.13-2.87h0c13.84-4.48,29.78-.44,45,9.89,10.07,6.86,19.82,16.47,28.41,28.2a145.08,145.08,0,0,1,19.1,34.63,40.2,40.2,0,0,1,1.39,4c-.32-1,1,2.35,1.29,2.71l.8,1.72c5.09,11.83,12.78,18.42,18.22,16.68,5.68-1.8,6.22-13.57,1.19-26.29a47,47,0,0,0-9.29-15.14,1.55,1.55,0,0,1,1.41-2.61c4.86.64,10.12,4.17,14.63,9.63a1.77,1.77,0,0,1,.16.22,133.19,133.19,0,0,1,8.91,17c14.57,33,17.45,73.73,5.23,114.14C1123,491.93,1048.06,540.76,979.94,520.61Z" transform="translate(-892.98 -215)"/><path class="cls-2" d="M914.85,411.61c-10.94-48.44,8.79-86.09,16-96.88.92-1.37,3.47-.94,3.07.64-7,28,85.07,132.28,137.65-28.45.63-1.95,3.66-1.76,4.27.23,6.53,21.39,28.7,85.13,54.39,59.12a2.31,2.31,0,0,1,3.9,1.83c0,22.17-1.6,49.63-25,97.5C1095,474.66,1042.73,509.66,1034,510a112.72,112.72,0,0,1-38.63-1.15A69.45,69.45,0,0,1,952,479.93l-26.4-38.63-.09-.11C924.76,440.07,917.46,423.17,914.85,411.61Z" transform="translate(-892.98 -215)"/><path class="cls-3" d="M938.56,429.4s-15.69-42.66-11-68.64c0,0,76.26,96.13,143,.39,0,0,6.42,55,31.67,29.27,0,0-8.32,44.79-33.33,71.76C993,544,938.56,429.4,938.56,429.4Z" transform="translate(-892.98 -215)"/></g></svg>