<svg id="syringe" xmlns="http://www.w3.org/2000/svg" viewBox="0 0 629.17 140.66"><defs><style>.cls-1{fill:#276396;}.cls-2{fill:#2b3181;}</style></defs><g id="push_down_thing" data-name="push down thing"><path class="cls-1" d="M391.9,434.12c-4.15,5.69-7,13.91-7.49,23.14-.82,14.88,4.66,27.75,12.85,32l.42.22c3.42,1.78,9.25,2.92,15.85,2.87,1.58,0,3.12-.09,4.59-.22l564.32,7.28v-.26a1.6,1.6,0,0,0,.8.25c3.32.05,6.15-11.51,6.34-25.82.16-12.81-1.86-23.5-4.67-25.6a1.21,1.21,0,0,1,.69-.28c2.58-.09,5.22,9.38,7.24,24.15,1.13,8.31,2.06,18.3,2.66,29.21.17,2.9.3,5.85.41,8.85,1.3,34.52-1.24,62.63-5.66,62.8-2.81.11-5.71-11.12-7.77-28.21a3.12,3.12,0,0,0-3.06-2.74l-15.07-.1-35.27-.25L473,538.18l-57.44-.41a3.07,3.07,0,0,0-3.06,2.46,0,0,0,0,1,0,0c-.11.52-.23,1-.35,1.58-.08.32-.15.64-.22,1a159,159,0,0,1-4.29,16.59,31.58,31.58,0,0,1-4.47,8.91c-5.9,8-14.47,7.82-20.22-1-8.07-12.3-11.5-26.33-13.55-40.72-.91-6.36-1.57-12.73-1.93-19.1a188.22,188.22,0,0,1,.79-31.74c.37-3.27.77-6.53,1.3-9.76,1.27-7.92,3.26-15.65,7.05-22.94a14.84,14.84,0,0,1,2.55-3.73,4.09,4.09,0,0,0,.51-.67C382.48,433.69,387.44,432.59,391.9,434.12Z" transform="translate(-367.09 -433.48)"/><path class="cls-2" d="M391.9,434.12a14.14,14.14,0,0,1,7.88,6.88c4.29,8.33,6.77,17.22,10,25.86.13.38.27.75.41,1.11a4.65,4.65,0,0,1,.2.65,9.12,9.12,0,0,0,1,2s.8.6,1.28.51l9.71.06,541.46,3.88,13.29.1a2.07,2.07,0,0,0,.5,0,3,3,0,0,0,1.76-.93,3.09,3.09,0,0,0,.85-2c.21-3.46.48-6.65.8-9.48.92-8.19,2.27-13.55,3.93-14.77,2.81,2.1,4.83,12.79,4.67,25.6-.19,14.31-3,25.87-6.34,25.82a1.6,1.6,0,0,1-.8-.25v.26l-564.32-7.28c-1.47.13-3,.21-4.59.22-6.6.05-12.43-1.09-15.85-2.87l-.42-.22c-8.19-4.29-13.67-17.16-12.85-32C384.92,448,387.75,439.81,391.9,434.12Z" transform="translate(-367.09 -433.48)"/></g></svg>