<svg id="tree_front" data-name="tree front" xmlns="http://www.w3.org/2000/svg" viewBox="0 0 370.82 212.89"><defs><style>.cls-1{fill:#43615d;}</style></defs><g id="Layer_5" data-name="Layer 5"><path class="cls-1" d="M1173.17,586.09c0,25.18-20.09,45.62-44.86,45.62H847.21a44.26,44.26,0,0,1-31.7-13.39,45.81,45.81,0,0,1-13.16-32.23c0-25.18,20.1-45.62,44.86-45.62h1a93.45,93.45,0,0,1-4-27.37c0-52.07,41.81-94.28,93.36-94.28,40.73,0,75.42,26.39,88.1,63.13a67.51,67.51,0,0,1,39.3-12.47c36.42,0,66,28.41,66,63.38a54.42,54.42,0,0,1-.54,7.73,44,44,0,0,1,29.6,13.26A45.79,45.79,0,0,1,1173.17,586.09Z" transform="translate(-802.35 -418.82)"/></g></svg>